M48
; DRILL file {KiCad (6.0.8)} date Fri Dec  2 09:59:34 2022
; FORMAT={-:-/ absolute / inch / decimal}
; #@! TF.CreationDate,2022-12-02T09:59:34+00:00
; #@! TF.GenerationSoftware,Kicad,Pcbnew,(6.0.8)
; #@! TF.FileFunction,Plated,1,2,PTH
FMAT,2
INCH
; #@! TA.AperFunction,Plated,PTH,ViaDrill
T1C0.0157
; #@! TA.AperFunction,Plated,PTH,ComponentDrill
T2C0.0300
; #@! TA.AperFunction,Plated,PTH,ComponentDrill
T3C0.0315
; #@! TA.AperFunction,Plated,PTH,ComponentDrill
T4C0.0394
; #@! TA.AperFunction,Plated,PTH,ComponentDrill
T5C0.1260
%
G90
G05
T1
X4.395Y-2.7
X4.69Y-2.705
X5.025Y-3.045
X5.133Y-2.769
X5.255Y-3.17
X5.33Y-3.155
T2
X4.03Y-2.315
X4.03Y-2.415
X4.03Y-2.515
X4.03Y-2.615
X4.03Y-2.715
X4.13Y-2.315
X4.13Y-2.415
X4.13Y-2.515
X4.13Y-2.615
X4.13Y-2.715
T3
X4.0226Y-2.015
X4.034Y-3.01
X4.121Y-2.015
X4.1324Y-3.01
X4.275Y-2.63
X4.275Y-3.03
X4.37Y-3.13
X4.37Y-3.53
X4.45Y-2.5
X4.5206Y-2.6498
X4.5206Y-2.7498
X4.5206Y-2.8498
X4.5206Y-2.9498
X4.5206Y-3.0498
X4.5206Y-3.1498
X4.5206Y-3.2498
X4.55Y-1.95
X4.55Y-2.35
X4.615Y-3.505
X4.66Y-3.38
X4.8206Y-2.6498
X4.8206Y-2.7498
X4.8206Y-2.8498
X4.8206Y-2.9498
X4.8206Y-3.0498
X4.8206Y-3.1498
X4.8206Y-3.2498
X4.85Y-1.95
X4.85Y-2.35
X4.85Y-2.5
X5.0006Y-2.2352
X5.0006Y-2.3352
X5.0006Y-2.4352
X5.0006Y-2.5352
X5.015Y-3.505
X5.06Y-3.38
X5.075Y-2.87
X5.075Y-3.27
X5.205Y-2.755
X5.3006Y-2.2352
X5.3006Y-2.3352
X5.3006Y-2.4352
X5.3006Y-2.5352
X5.42Y-2.435
X5.42Y-2.595
X5.4263Y-2.0
X5.4263Y-2.15
X5.605Y-2.755
X5.82Y-2.435
X5.82Y-2.595
X5.8263Y-2.0
X5.8263Y-2.15
T4
X4.4Y-2.825
X4.4Y-3.0219
X4.7Y-2.05
X4.7Y-2.2469
X4.95Y-2.9766
X4.95Y-3.1734
X5.205Y-2.9302
X5.205Y-3.0302
X5.305Y-2.9302
X5.305Y-3.0302
X5.3202Y-3.265
X5.3302Y-3.505
X5.405Y-2.9302
X5.405Y-3.0302
X5.4202Y-3.265
X5.4302Y-3.505
X5.4416Y-2.29
X5.505Y-2.9302
X5.505Y-3.0302
X5.5302Y-3.505
X5.605Y-2.9302
X5.605Y-3.0302
X5.6302Y-3.505
X5.6384Y-2.29
X5.69Y-3.26
X5.705Y-2.9302
X5.705Y-3.0302
X5.7302Y-3.505
T5
X4.105Y-3.48
X5.031Y-2.001
X5.031Y-2.707
T0
M30
