%TF.GenerationSoftware,KiCad,Pcbnew,7.0.6*%
%TF.CreationDate,2023-10-15T17:57:14+01:00*%
%TF.ProjectId,DSP 1.1,44535020-312e-4312-9e6b-696361645f70,rev?*%
%TF.SameCoordinates,Original*%
%TF.FileFunction,Legend,Top*%
%TF.FilePolarity,Positive*%
%FSLAX46Y46*%
G04 Gerber Fmt 4.6, Leading zero omitted, Abs format (unit mm)*
G04 Created by KiCad (PCBNEW 7.0.6) date 2023-10-15 17:57:14*
%MOMM*%
%LPD*%
G01*
G04 APERTURE LIST*
%ADD10C,0.150000*%
%ADD11C,0.120000*%
G04 APERTURE END LIST*
D10*
X133776819Y-45423166D02*
X134491104Y-45423166D01*
X134491104Y-45423166D02*
X134633961Y-45470785D01*
X134633961Y-45470785D02*
X134729200Y-45566023D01*
X134729200Y-45566023D02*
X134776819Y-45708880D01*
X134776819Y-45708880D02*
X134776819Y-45804118D01*
X134110152Y-44946975D02*
X135110152Y-44946975D01*
X134157771Y-44946975D02*
X134110152Y-44851737D01*
X134110152Y-44851737D02*
X134110152Y-44661261D01*
X134110152Y-44661261D02*
X134157771Y-44566023D01*
X134157771Y-44566023D02*
X134205390Y-44518404D01*
X134205390Y-44518404D02*
X134300628Y-44470785D01*
X134300628Y-44470785D02*
X134586342Y-44470785D01*
X134586342Y-44470785D02*
X134681580Y-44518404D01*
X134681580Y-44518404D02*
X134729200Y-44566023D01*
X134729200Y-44566023D02*
X134776819Y-44661261D01*
X134776819Y-44661261D02*
X134776819Y-44851737D01*
X134776819Y-44851737D02*
X134729200Y-44946975D01*
X134729200Y-43613642D02*
X134776819Y-43708880D01*
X134776819Y-43708880D02*
X134776819Y-43899356D01*
X134776819Y-43899356D02*
X134729200Y-43994594D01*
X134729200Y-43994594D02*
X134681580Y-44042213D01*
X134681580Y-44042213D02*
X134586342Y-44089832D01*
X134586342Y-44089832D02*
X134300628Y-44089832D01*
X134300628Y-44089832D02*
X134205390Y-44042213D01*
X134205390Y-44042213D02*
X134157771Y-43994594D01*
X134157771Y-43994594D02*
X134110152Y-43899356D01*
X134110152Y-43899356D02*
X134110152Y-43708880D01*
X134110152Y-43708880D02*
X134157771Y-43613642D01*
X134776819Y-43185070D02*
X133776819Y-43185070D01*
X134157771Y-43185070D02*
X134110152Y-43089832D01*
X134110152Y-43089832D02*
X134110152Y-42899356D01*
X134110152Y-42899356D02*
X134157771Y-42804118D01*
X134157771Y-42804118D02*
X134205390Y-42756499D01*
X134205390Y-42756499D02*
X134300628Y-42708880D01*
X134300628Y-42708880D02*
X134586342Y-42708880D01*
X134586342Y-42708880D02*
X134681580Y-42756499D01*
X134681580Y-42756499D02*
X134729200Y-42804118D01*
X134729200Y-42804118D02*
X134776819Y-42899356D01*
X134776819Y-42899356D02*
X134776819Y-43089832D01*
X134776819Y-43089832D02*
X134729200Y-43185070D01*
X133872057Y-42327927D02*
X133824438Y-42280308D01*
X133824438Y-42280308D02*
X133776819Y-42185070D01*
X133776819Y-42185070D02*
X133776819Y-41946975D01*
X133776819Y-41946975D02*
X133824438Y-41851737D01*
X133824438Y-41851737D02*
X133872057Y-41804118D01*
X133872057Y-41804118D02*
X133967295Y-41756499D01*
X133967295Y-41756499D02*
X134062533Y-41756499D01*
X134062533Y-41756499D02*
X134205390Y-41804118D01*
X134205390Y-41804118D02*
X134776819Y-42375546D01*
X134776819Y-42375546D02*
X134776819Y-41756499D01*
D11*
%TO.C,Jpcb2*%
X135322000Y-46356500D02*
X135322000Y-45026500D01*
X136652000Y-46356500D02*
X135322000Y-46356500D01*
X137922000Y-46356500D02*
X150682000Y-46356500D01*
X137922000Y-46356500D02*
X137922000Y-43756500D01*
X150682000Y-46356500D02*
X150682000Y-41156500D01*
X135322000Y-43756500D02*
X135322000Y-41156500D01*
X137922000Y-43756500D02*
X135322000Y-43756500D01*
X135322000Y-41156500D02*
X150682000Y-41156500D01*
%TD*%
M02*
