M48
; DRILL file {KiCad 7.0.6} date Sun Oct 15 17:57:08 2023
; FORMAT={-:-/ absolute / inch / decimal}
; #@! TF.CreationDate,2023-10-15T17:57:08+01:00
; #@! TF.GenerationSoftware,Kicad,Pcbnew,7.0.6
; #@! TF.FileFunction,Plated,1,2,PTH
FMAT,2
INCH
; #@! TA.AperFunction,Plated,PTH,ViaDrill
T1C0.0157
; #@! TA.AperFunction,Plated,PTH,ComponentDrill
T2C0.0300
; #@! TA.AperFunction,Plated,PTH,ComponentDrill
T3C0.0315
; #@! TA.AperFunction,Plated,PTH,ComponentDrill
T4C0.0394
; #@! TA.AperFunction,Plated,PTH,ComponentDrill
T5C0.1260
%
G90
G05
T1
X4.57Y-1.4425
X4.865Y-1.4475
X5.2Y-1.7875
X5.308Y-1.5115
X5.43Y-1.9125
X5.505Y-1.8975
T2
X4.205Y-1.0575
X4.205Y-1.1575
X4.205Y-1.2575
X4.205Y-1.3575
X4.205Y-1.4575
X4.305Y-1.0575
X4.305Y-1.1575
X4.305Y-1.2575
X4.305Y-1.3575
X4.305Y-1.4575
T3
X4.1976Y-0.7575
X4.209Y-1.7525
X4.296Y-0.7575
X4.3074Y-1.7525
X4.45Y-1.3725
X4.45Y-1.7725
X4.545Y-1.8725
X4.545Y-2.2725
X4.625Y-1.2425
X4.675Y-0.7
X4.675Y-1.1
X4.6956Y-1.3923
X4.6956Y-1.4923
X4.6956Y-1.5923
X4.6956Y-1.6923
X4.6956Y-1.7923
X4.6956Y-1.8923
X4.6956Y-1.9923
X4.79Y-2.2475
X4.835Y-2.1225
X4.9956Y-1.3923
X4.9956Y-1.4923
X4.9956Y-1.5923
X4.9956Y-1.6923
X4.9956Y-1.7923
X4.9956Y-1.8923
X4.9956Y-1.9923
X5.025Y-0.6925
X5.025Y-1.0925
X5.025Y-1.2425
X5.1756Y-0.75
X5.1756Y-0.85
X5.1756Y-0.95
X5.1756Y-1.05
X5.19Y-2.2475
X5.235Y-2.1225
X5.25Y-1.6125
X5.25Y-2.0125
X5.38Y-1.4975
X5.4756Y-0.75
X5.4756Y-0.85
X5.4756Y-0.95
X5.4756Y-1.05
X5.595Y-1.1775
X5.595Y-1.3375
X5.6013Y-0.83
X5.605Y-0.52
X5.78Y-1.4975
X5.995Y-1.1775
X5.995Y-1.3375
X6.0013Y-0.83
X6.005Y-0.52
T4
X4.575Y-1.5675
X4.575Y-1.7644
X4.875Y-0.7925
X4.875Y-0.9894
X5.125Y-1.7191
X5.125Y-1.9159
X5.38Y-1.6727
X5.38Y-1.7727
X5.48Y-1.6727
X5.48Y-1.7727
X5.4952Y-2.0075
X5.5052Y-2.2475
X5.58Y-1.6727
X5.58Y-1.7727
X5.5952Y-2.0075
X5.6052Y-2.2475
X5.6166Y-1.005
X5.68Y-1.6727
X5.68Y-1.7727
X5.7052Y-2.2475
X5.78Y-1.6727
X5.78Y-1.7727
X5.8052Y-2.2475
X5.8134Y-1.005
X5.865Y-2.0025
X5.88Y-1.6727
X5.88Y-1.7727
X5.9052Y-2.2475
T5
X4.2454Y-2.2225
X5.206Y-0.55
X5.206Y-1.256
T0
M30
