%TF.GenerationSoftware,KiCad,Pcbnew,7.0.6*%
%TF.CreationDate,2023-10-15T17:57:13+01:00*%
%TF.ProjectId,DSP 1.1,44535020-312e-4312-9e6b-696361645f70,rev?*%
%TF.SameCoordinates,Original*%
%TF.FileFunction,Copper,L2,Bot*%
%TF.FilePolarity,Positive*%
%FSLAX46Y46*%
G04 Gerber Fmt 4.6, Leading zero omitted, Abs format (unit mm)*
G04 Created by KiCad (PCBNEW 7.0.6) date 2023-10-15 17:57:13*
%MOMM*%
%LPD*%
G01*
G04 APERTURE LIST*
%ADD10C,0.300000*%
%TA.AperFunction,NonConductor*%
%ADD11C,0.300000*%
%TD*%
%TA.AperFunction,ComponentPad*%
%ADD12C,3.500000*%
%TD*%
%TA.AperFunction,ComponentPad*%
%ADD13C,2.000000*%
%TD*%
%TA.AperFunction,ComponentPad*%
%ADD14R,2.400000X1.600000*%
%TD*%
%TA.AperFunction,ComponentPad*%
%ADD15O,2.400000X1.600000*%
%TD*%
%TA.AperFunction,ComponentPad*%
%ADD16R,1.700000X1.700000*%
%TD*%
%TA.AperFunction,ComponentPad*%
%ADD17C,1.600000*%
%TD*%
%TA.AperFunction,ComponentPad*%
%ADD18O,1.600000X1.600000*%
%TD*%
%TA.AperFunction,ComponentPad*%
%ADD19R,1.524000X1.524000*%
%TD*%
%TA.AperFunction,ComponentPad*%
%ADD20C,1.524000*%
%TD*%
%TA.AperFunction,ComponentPad*%
%ADD21R,1.600000X1.600000*%
%TD*%
%TA.AperFunction,ComponentPad*%
%ADD22O,1.700000X1.700000*%
%TD*%
%TA.AperFunction,ViaPad*%
%ADD23C,0.800000*%
%TD*%
%TA.AperFunction,Conductor*%
%ADD24C,0.250000*%
%TD*%
G04 APERTURE END LIST*
D10*
D11*
G36*
X163118570Y-49503788D02*
G01*
X163103100Y-49504008D01*
X163087922Y-49504670D01*
X163073035Y-49505772D01*
X163058441Y-49507314D01*
X163037096Y-49510455D01*
X163016409Y-49514587D01*
X162996379Y-49519711D01*
X162977005Y-49525827D01*
X162958288Y-49532935D01*
X162940228Y-49541034D01*
X162922825Y-49550125D01*
X162906079Y-49560208D01*
X162889947Y-49571045D01*
X162874523Y-49582396D01*
X162859808Y-49594263D01*
X162845801Y-49606645D01*
X162832502Y-49619542D01*
X162819912Y-49632954D01*
X162808030Y-49646882D01*
X162796857Y-49661325D01*
X162786392Y-49676283D01*
X162776635Y-49691756D01*
X162770524Y-49702357D01*
X162761947Y-49718415D01*
X162754214Y-49734575D01*
X162747324Y-49750838D01*
X162741278Y-49767204D01*
X162736076Y-49783673D01*
X162731717Y-49800245D01*
X162728202Y-49816921D01*
X162725530Y-49833699D01*
X162723702Y-49850580D01*
X162722718Y-49867565D01*
X162722531Y-49878945D01*
X162722939Y-49899029D01*
X162724166Y-49918753D01*
X162726211Y-49938116D01*
X162729074Y-49957118D01*
X162732754Y-49975760D01*
X162737252Y-49994041D01*
X162742569Y-50011961D01*
X162748703Y-50029521D01*
X162755655Y-50046720D01*
X162763425Y-50063558D01*
X162769059Y-50074584D01*
X162778044Y-50090704D01*
X162787550Y-50106367D01*
X162797578Y-50121573D01*
X162808128Y-50136322D01*
X162819200Y-50150613D01*
X162830793Y-50164447D01*
X162842907Y-50177824D01*
X162855544Y-50190744D01*
X162868702Y-50203206D01*
X162882381Y-50215212D01*
X162891791Y-50222961D01*
X162906240Y-50234179D01*
X162921011Y-50244887D01*
X162936104Y-50255087D01*
X162951520Y-50264778D01*
X162967257Y-50273961D01*
X162983316Y-50282634D01*
X162999697Y-50290799D01*
X163016400Y-50298455D01*
X163033426Y-50305602D01*
X163050773Y-50312241D01*
X163062517Y-50316384D01*
X163080209Y-50322146D01*
X163097980Y-50327341D01*
X163115827Y-50331969D01*
X163133752Y-50336030D01*
X163151753Y-50339525D01*
X163169833Y-50342453D01*
X163187989Y-50344814D01*
X163206223Y-50346609D01*
X163224534Y-50347837D01*
X163242922Y-50348498D01*
X163255224Y-50348624D01*
X163271333Y-50348212D01*
X163288884Y-50346975D01*
X163304612Y-50345315D01*
X163321342Y-50343083D01*
X163339073Y-50340278D01*
X163353979Y-50337622D01*
X163357806Y-50336900D01*
X163372930Y-50333735D01*
X163387711Y-50330100D01*
X163402148Y-50325995D01*
X163416241Y-50321422D01*
X163433375Y-50315044D01*
X163449973Y-50307933D01*
X163466033Y-50300089D01*
X163469181Y-50298432D01*
X163480020Y-50288334D01*
X163489652Y-50277000D01*
X163498490Y-50265459D01*
X163506504Y-50252431D01*
X163512783Y-50237280D01*
X163516164Y-50221609D01*
X163516808Y-50210871D01*
X163516093Y-50195977D01*
X163513345Y-50179284D01*
X163508536Y-50163880D01*
X163501667Y-50149763D01*
X163492737Y-50136935D01*
X163487499Y-50131004D01*
X163476049Y-50120545D01*
X163463955Y-50112250D01*
X163449031Y-50105308D01*
X163433230Y-50101311D01*
X163418989Y-50100229D01*
X163401777Y-50101453D01*
X163386136Y-50105123D01*
X163372067Y-50111241D01*
X163359569Y-50119807D01*
X163348643Y-50130819D01*
X163345350Y-50135034D01*
X163335771Y-50147600D01*
X163326270Y-50159471D01*
X163315283Y-50172442D01*
X163304401Y-50184466D01*
X163295158Y-50194018D01*
X163282611Y-50205108D01*
X163269012Y-50214655D01*
X163254361Y-50222659D01*
X163238658Y-50229121D01*
X163229212Y-50232120D01*
X163214787Y-50235855D01*
X163200361Y-50238818D01*
X163183531Y-50241297D01*
X163166701Y-50242725D01*
X163152276Y-50243111D01*
X163136106Y-50242405D01*
X163119883Y-50240285D01*
X163103606Y-50236752D01*
X163087275Y-50231805D01*
X163070890Y-50225446D01*
X163054452Y-50217673D01*
X163047862Y-50214168D01*
X163034931Y-50206332D01*
X163022514Y-50197293D01*
X163010613Y-50187052D01*
X162999227Y-50175609D01*
X162988356Y-50162963D01*
X162978001Y-50149116D01*
X162968161Y-50134066D01*
X162958836Y-50117815D01*
X162950335Y-50100223D01*
X162944703Y-50086061D01*
X162939709Y-50071067D01*
X162935352Y-50055243D01*
X162931633Y-50038588D01*
X162928551Y-50021103D01*
X162926107Y-50002786D01*
X162924301Y-49983639D01*
X162923132Y-49963661D01*
X162922601Y-49942852D01*
X162922565Y-49935732D01*
X162923058Y-49919989D01*
X162924535Y-49904087D01*
X162926996Y-49888024D01*
X162930442Y-49871801D01*
X162934873Y-49855418D01*
X162940288Y-49838874D01*
X162946688Y-49822170D01*
X162954073Y-49805306D01*
X162962442Y-49788682D01*
X162971979Y-49772699D01*
X162982684Y-49757358D01*
X162994556Y-49742658D01*
X163007596Y-49728598D01*
X163021804Y-49715180D01*
X163033227Y-49705537D01*
X163045306Y-49696255D01*
X163053724Y-49690267D01*
X163066988Y-49681821D01*
X163081090Y-49674206D01*
X163096028Y-49667422D01*
X163111804Y-49661468D01*
X163128417Y-49656345D01*
X163145867Y-49652053D01*
X163164155Y-49648591D01*
X163183279Y-49645960D01*
X163203241Y-49644160D01*
X163224040Y-49643191D01*
X163238371Y-49643006D01*
X163253724Y-49643445D01*
X163268613Y-49644518D01*
X163285099Y-49646235D01*
X163300058Y-49648158D01*
X163316126Y-49650529D01*
X163326299Y-49652166D01*
X163342871Y-49655126D01*
X163358012Y-49658284D01*
X163374293Y-49662332D01*
X163388512Y-49666664D01*
X163402497Y-49672076D01*
X163407632Y-49674514D01*
X163422381Y-49670585D01*
X163431445Y-49660592D01*
X163437216Y-49646487D01*
X163439139Y-49632016D01*
X163436210Y-49617457D01*
X163433283Y-49602907D01*
X163430359Y-49588365D01*
X163427438Y-49573832D01*
X163424520Y-49559308D01*
X163421605Y-49544792D01*
X163418693Y-49530285D01*
X163415783Y-49515786D01*
X163412877Y-49501296D01*
X163409973Y-49486815D01*
X163407072Y-49472342D01*
X163404174Y-49457878D01*
X163401279Y-49443422D01*
X163398387Y-49428975D01*
X163395497Y-49414537D01*
X163392611Y-49400107D01*
X163388312Y-49378607D01*
X163384071Y-49357384D01*
X163379889Y-49336438D01*
X163375764Y-49315769D01*
X163371697Y-49295377D01*
X163367688Y-49275261D01*
X163363737Y-49255423D01*
X163359844Y-49235861D01*
X163356009Y-49216577D01*
X163352232Y-49197569D01*
X163349746Y-49185051D01*
X163346039Y-49166539D01*
X163342473Y-49148511D01*
X163339049Y-49130965D01*
X163335767Y-49113902D01*
X163332627Y-49097322D01*
X163329628Y-49081226D01*
X163326770Y-49065612D01*
X163324055Y-49050481D01*
X163321481Y-49035833D01*
X163318270Y-49017054D01*
X163317506Y-49012494D01*
X163005364Y-49012494D01*
X162989762Y-49012352D01*
X162974005Y-49011927D01*
X162958094Y-49011218D01*
X162942029Y-49010227D01*
X162925808Y-49008952D01*
X162920367Y-49008464D01*
X162904332Y-49006776D01*
X162889198Y-49005012D01*
X162872681Y-49002855D01*
X162857391Y-49000594D01*
X162845263Y-48998572D01*
X162830209Y-48995915D01*
X162815612Y-48993339D01*
X162814122Y-48993076D01*
X162800841Y-49000862D01*
X162789575Y-49007364D01*
X162780529Y-49019160D01*
X162779317Y-49028614D01*
X162781751Y-49043529D01*
X162785636Y-49058806D01*
X162787011Y-49063785D01*
X162791270Y-49077844D01*
X162796353Y-49092544D01*
X162802261Y-49107886D01*
X162808106Y-49121835D01*
X162808993Y-49123868D01*
X162815504Y-49137906D01*
X162822857Y-49151487D01*
X162831052Y-49164613D01*
X162840088Y-49177283D01*
X162845629Y-49184318D01*
X162860693Y-49185903D01*
X162876348Y-49187453D01*
X162892593Y-49188966D01*
X162909428Y-49190444D01*
X162926853Y-49191885D01*
X162944869Y-49193291D01*
X162952241Y-49193844D01*
X162967319Y-49194788D01*
X162983061Y-49195607D01*
X162999468Y-49196300D01*
X163016538Y-49196866D01*
X163034272Y-49197307D01*
X163052671Y-49197622D01*
X163071733Y-49197811D01*
X163086466Y-49197870D01*
X163091459Y-49197874D01*
X163254125Y-49197874D01*
X163257295Y-49213511D01*
X163260484Y-49229374D01*
X163263692Y-49245462D01*
X163266919Y-49261776D01*
X163270166Y-49278315D01*
X163273432Y-49295079D01*
X163276718Y-49312069D01*
X163280022Y-49329284D01*
X163283347Y-49346725D01*
X163286690Y-49364391D01*
X163288930Y-49376293D01*
X163292260Y-49393886D01*
X163295520Y-49410945D01*
X163298709Y-49427469D01*
X163301827Y-49443458D01*
X163304874Y-49458913D01*
X163307850Y-49473833D01*
X163310756Y-49488219D01*
X163314520Y-49506569D01*
X163318158Y-49523969D01*
X163320803Y-49536394D01*
X163306698Y-49531815D01*
X163292273Y-49528140D01*
X163277733Y-49524920D01*
X163260903Y-49521557D01*
X163245790Y-49518763D01*
X163229212Y-49515878D01*
X163212257Y-49513044D01*
X163196194Y-49510589D01*
X163181024Y-49508511D01*
X163163318Y-49506445D01*
X163147006Y-49504969D01*
X163132091Y-49504083D01*
X163118570Y-49503788D01*
G37*
G36*
X162336016Y-48966332D02*
G01*
X162319318Y-48966286D01*
X162302746Y-48966148D01*
X162286299Y-48965920D01*
X162269979Y-48965599D01*
X162253785Y-48965187D01*
X162237716Y-48964683D01*
X162221774Y-48964088D01*
X162205957Y-48963401D01*
X162190117Y-48962588D01*
X162174106Y-48961798D01*
X162157923Y-48961031D01*
X162141568Y-48960287D01*
X162125042Y-48959565D01*
X162108344Y-48958867D01*
X162091474Y-48958192D01*
X162074432Y-48957539D01*
X162069452Y-48972651D01*
X162067348Y-48987764D01*
X162067045Y-49003323D01*
X162067105Y-49005166D01*
X162068911Y-49019946D01*
X162075016Y-49033702D01*
X162084324Y-49040337D01*
X162099457Y-49041785D01*
X162115419Y-49044264D01*
X162122426Y-49045466D01*
X162138449Y-49048696D01*
X162153544Y-49053027D01*
X162167712Y-49058459D01*
X162175182Y-49061953D01*
X162187354Y-49070282D01*
X162196009Y-49082921D01*
X162198263Y-49095658D01*
X162196493Y-49112861D01*
X162193060Y-49129335D01*
X162189013Y-49145026D01*
X162183809Y-49162949D01*
X162179148Y-49177857D01*
X162173836Y-49194020D01*
X162167873Y-49211439D01*
X162161260Y-49230114D01*
X162155717Y-49245291D01*
X162149618Y-49261970D01*
X162144340Y-49276396D01*
X162138708Y-49291783D01*
X162132720Y-49308132D01*
X162126377Y-49325443D01*
X162119680Y-49343715D01*
X162116198Y-49353212D01*
X162110798Y-49367708D01*
X162105314Y-49382480D01*
X162099747Y-49397529D01*
X162094096Y-49412855D01*
X162088361Y-49428458D01*
X162082542Y-49444338D01*
X162076640Y-49460495D01*
X162070654Y-49476929D01*
X162064584Y-49493640D01*
X162058431Y-49510627D01*
X162054282Y-49522106D01*
X162047953Y-49539420D01*
X162041604Y-49556741D01*
X162035236Y-49574067D01*
X162028848Y-49591401D01*
X162022442Y-49608740D01*
X162016016Y-49626086D01*
X162009570Y-49643439D01*
X162003106Y-49660798D01*
X161996622Y-49678163D01*
X161990118Y-49695535D01*
X161985772Y-49707120D01*
X161979304Y-49724302D01*
X161972952Y-49741226D01*
X161966716Y-49757893D01*
X161960596Y-49774302D01*
X161954592Y-49790454D01*
X161948703Y-49806348D01*
X161942931Y-49821984D01*
X161937275Y-49837363D01*
X161931734Y-49852484D01*
X161926309Y-49867347D01*
X161922757Y-49877113D01*
X161917561Y-49891425D01*
X161912552Y-49905235D01*
X161906164Y-49922866D01*
X161900107Y-49939604D01*
X161894383Y-49955449D01*
X161888990Y-49970402D01*
X161883930Y-49984461D01*
X161878071Y-50000779D01*
X161876962Y-50003875D01*
X161871996Y-50018011D01*
X161867737Y-50032093D01*
X161864826Y-50047324D01*
X161867436Y-50056632D01*
X161867597Y-50040533D01*
X161863469Y-50025699D01*
X161857699Y-50009385D01*
X161851316Y-49993251D01*
X161845369Y-49978854D01*
X161839066Y-49963507D01*
X161832408Y-49947209D01*
X161825396Y-49929961D01*
X161818029Y-49911763D01*
X161812270Y-49897491D01*
X161806312Y-49882685D01*
X161800154Y-49867343D01*
X161793797Y-49851468D01*
X161787207Y-49835170D01*
X161780488Y-49818564D01*
X161773640Y-49801648D01*
X161766663Y-49784423D01*
X161759558Y-49766889D01*
X161752324Y-49749046D01*
X161744960Y-49730894D01*
X161737469Y-49712433D01*
X161729848Y-49693662D01*
X161722098Y-49674582D01*
X161716861Y-49661691D01*
X161708954Y-49642156D01*
X161701035Y-49622570D01*
X161693103Y-49602933D01*
X161685159Y-49583243D01*
X161677201Y-49563503D01*
X161669230Y-49543710D01*
X161661247Y-49523867D01*
X161653251Y-49503971D01*
X161645241Y-49484024D01*
X161637219Y-49464026D01*
X161631864Y-49450665D01*
X161623807Y-49430651D01*
X161615846Y-49410862D01*
X161607981Y-49391298D01*
X161600214Y-49371960D01*
X161592543Y-49352847D01*
X161584968Y-49333960D01*
X161577490Y-49315298D01*
X161570109Y-49296861D01*
X161562824Y-49278650D01*
X161555636Y-49260664D01*
X161550898Y-49248799D01*
X161544714Y-49233379D01*
X161538986Y-49217573D01*
X161533715Y-49201382D01*
X161529559Y-49187197D01*
X161526351Y-49175159D01*
X161522354Y-49158783D01*
X161519339Y-49143633D01*
X161517095Y-49127822D01*
X161516103Y-49111951D01*
X161516093Y-49110313D01*
X161518526Y-49094621D01*
X161525825Y-49081433D01*
X161537989Y-49070750D01*
X161541006Y-49068914D01*
X161555306Y-49061366D01*
X161570591Y-49055209D01*
X161585005Y-49050905D01*
X161596327Y-49048397D01*
X161612333Y-49045387D01*
X161627060Y-49043197D01*
X161641390Y-49042169D01*
X161652776Y-49031755D01*
X161657876Y-49017371D01*
X161658975Y-49003701D01*
X161657758Y-48987755D01*
X161653550Y-48972757D01*
X161645451Y-48959565D01*
X161643588Y-48957539D01*
X161628206Y-48958192D01*
X161613202Y-48958867D01*
X161594979Y-48959744D01*
X161577346Y-48960656D01*
X161560303Y-48961604D01*
X161543851Y-48962588D01*
X161531114Y-48963401D01*
X161515277Y-48964245D01*
X161499136Y-48964946D01*
X161482691Y-48965504D01*
X161465941Y-48965920D01*
X161448888Y-48966191D01*
X161431530Y-48966320D01*
X161424502Y-48966332D01*
X161407200Y-48966293D01*
X161391289Y-48966177D01*
X161374484Y-48965944D01*
X161359572Y-48965606D01*
X161348298Y-48965233D01*
X161332517Y-48964556D01*
X161316910Y-48963764D01*
X161301476Y-48962856D01*
X161292977Y-48962302D01*
X161277956Y-48961180D01*
X161262709Y-48960160D01*
X161248078Y-48959259D01*
X161232003Y-48958331D01*
X161217506Y-48957539D01*
X161212803Y-48971778D01*
X161210857Y-48987577D01*
X161211002Y-49004122D01*
X161211278Y-49008097D01*
X161213735Y-49023682D01*
X161220865Y-49037189D01*
X161229230Y-49040337D01*
X161244948Y-49042231D01*
X161259408Y-49045013D01*
X161275328Y-49048461D01*
X161283085Y-49050229D01*
X161298516Y-49054595D01*
X161312658Y-49060275D01*
X161327529Y-49068563D01*
X161340647Y-49078638D01*
X161350496Y-49088697D01*
X161360228Y-49101314D01*
X161368518Y-49114353D01*
X161376076Y-49127560D01*
X161384225Y-49142896D01*
X161391169Y-49156698D01*
X161398490Y-49171862D01*
X161405886Y-49187541D01*
X161413053Y-49203072D01*
X161419991Y-49218453D01*
X161426700Y-49233686D01*
X161433180Y-49248770D01*
X161439431Y-49263705D01*
X161445453Y-49278491D01*
X161451247Y-49293129D01*
X161458308Y-49310624D01*
X161465294Y-49327939D01*
X161472207Y-49345074D01*
X161479044Y-49362028D01*
X161485808Y-49378802D01*
X161492497Y-49395396D01*
X161499111Y-49411809D01*
X161505652Y-49428042D01*
X161512117Y-49444095D01*
X161518509Y-49459967D01*
X161524826Y-49475660D01*
X161531068Y-49491171D01*
X161537236Y-49506503D01*
X161543330Y-49521654D01*
X161549349Y-49536625D01*
X161555294Y-49551415D01*
X161561193Y-49566084D01*
X161567075Y-49580690D01*
X161572940Y-49595233D01*
X161578787Y-49609713D01*
X161584617Y-49624130D01*
X161590431Y-49638484D01*
X161596227Y-49652775D01*
X161602005Y-49667003D01*
X161607767Y-49681168D01*
X161613512Y-49695271D01*
X161619239Y-49709310D01*
X161624949Y-49723286D01*
X161630642Y-49737199D01*
X161636318Y-49751050D01*
X161641976Y-49764837D01*
X161647618Y-49778561D01*
X161653264Y-49792241D01*
X161658935Y-49805987D01*
X161664632Y-49819799D01*
X161670355Y-49833676D01*
X161676104Y-49847619D01*
X161681879Y-49861629D01*
X161687679Y-49875704D01*
X161693505Y-49889844D01*
X161699357Y-49904051D01*
X161705234Y-49918324D01*
X161711138Y-49932662D01*
X161717067Y-49947066D01*
X161723022Y-49961536D01*
X161729002Y-49976072D01*
X161735009Y-49990673D01*
X161741041Y-50005341D01*
X161747136Y-50020140D01*
X161753331Y-50035136D01*
X161759627Y-50050331D01*
X161766022Y-50065722D01*
X161772518Y-50081311D01*
X161779114Y-50097098D01*
X161785810Y-50113082D01*
X161792606Y-50129263D01*
X161799503Y-50145643D01*
X161806500Y-50162219D01*
X161813597Y-50178993D01*
X161820794Y-50195965D01*
X161828091Y-50213134D01*
X161835488Y-50230500D01*
X161842986Y-50248064D01*
X161850584Y-50265826D01*
X161857496Y-50280985D01*
X161864769Y-50294316D01*
X161873710Y-50307557D01*
X161884529Y-50319642D01*
X161891616Y-50325543D01*
X161904538Y-50333513D01*
X161919236Y-50339309D01*
X161934291Y-50341885D01*
X161938877Y-50342030D01*
X161952942Y-50336697D01*
X161959394Y-50325177D01*
X161963973Y-50311072D01*
X161968187Y-50302462D01*
X161976895Y-50279529D01*
X161985526Y-50256798D01*
X161994080Y-50234271D01*
X162002556Y-50211947D01*
X162010955Y-50189827D01*
X162019277Y-50167909D01*
X162027522Y-50146195D01*
X162035689Y-50124684D01*
X162043779Y-50103376D01*
X162051792Y-50082272D01*
X162059727Y-50061370D01*
X162067586Y-50040672D01*
X162075367Y-50020177D01*
X162083070Y-49999885D01*
X162090697Y-49979797D01*
X162098246Y-49959912D01*
X162105719Y-49940062D01*
X162113210Y-49920172D01*
X162120717Y-49900243D01*
X162128242Y-49880273D01*
X162135784Y-49860263D01*
X162143343Y-49840213D01*
X162150919Y-49820124D01*
X162158513Y-49799994D01*
X162166123Y-49779823D01*
X162173751Y-49759613D01*
X162181396Y-49739363D01*
X162189058Y-49719073D01*
X162196738Y-49698743D01*
X162204434Y-49678372D01*
X162212148Y-49657962D01*
X162219879Y-49637511D01*
X162227680Y-49616910D01*
X162235604Y-49596049D01*
X162243651Y-49574927D01*
X162251821Y-49553545D01*
X162260114Y-49531902D01*
X162268531Y-49509999D01*
X162277070Y-49487835D01*
X162285733Y-49465411D01*
X162294518Y-49442727D01*
X162303427Y-49419782D01*
X162312459Y-49396576D01*
X162321614Y-49373110D01*
X162330891Y-49349384D01*
X162340292Y-49325397D01*
X162349816Y-49301150D01*
X162359464Y-49276642D01*
X162365211Y-49261564D01*
X162370912Y-49246921D01*
X162376568Y-49232713D01*
X162382178Y-49218940D01*
X162389126Y-49202335D01*
X162396003Y-49186411D01*
X162402808Y-49171166D01*
X162404160Y-49168198D01*
X162411049Y-49153521D01*
X162418206Y-49139254D01*
X162425632Y-49125399D01*
X162433326Y-49111956D01*
X162441288Y-49098924D01*
X162449519Y-49086303D01*
X162452886Y-49081370D01*
X162463415Y-49070030D01*
X162476115Y-49062301D01*
X162486226Y-49057923D01*
X162500268Y-49052999D01*
X162514368Y-49048945D01*
X162530103Y-49045461D01*
X162536418Y-49044367D01*
X162552152Y-49042073D01*
X162567419Y-49040530D01*
X162573054Y-49040337D01*
X162583917Y-49029997D01*
X162586636Y-49014255D01*
X162586976Y-49003701D01*
X162586537Y-48988987D01*
X162584686Y-48973934D01*
X162579453Y-48959864D01*
X162577817Y-48957905D01*
X162559138Y-48958472D01*
X162541386Y-48959073D01*
X162524562Y-48959708D01*
X162508665Y-48960378D01*
X162493696Y-48961082D01*
X162476288Y-48962011D01*
X162460330Y-48962993D01*
X162454352Y-48963401D01*
X162439001Y-48964245D01*
X162422488Y-48964946D01*
X162404812Y-48965504D01*
X162389834Y-48965848D01*
X162374112Y-48966100D01*
X162357646Y-48966260D01*
X162340435Y-48966329D01*
X162336016Y-48966332D01*
G37*
D12*
%TO.P,,1*%
%TO.N,N/C*%
X132232400Y-31902400D03*
%TD*%
%TO.P,,1*%
%TO.N,N/C*%
X107832000Y-56451500D03*
%TD*%
D13*
%TO.P,C10,1*%
%TO.N,GND*%
X130175000Y-48664500D03*
%TO.P,C10,2*%
%TO.N,+12V*%
X130175000Y-43664500D03*
%TD*%
D14*
%TO.P,U1,1*%
%TO.N,Net-(R8-Pad2)*%
X126888000Y-35364500D03*
D15*
%TO.P,U1,2,-*%
%TO.N,wet1*%
X126888000Y-37904500D03*
%TO.P,U1,3,+*%
%TO.N,GND*%
X126888000Y-40444500D03*
%TO.P,U1,4,V+*%
%TO.N,+12V*%
X126888000Y-42984500D03*
%TO.P,U1,5,+*%
%TO.N,GND*%
X126888000Y-45524500D03*
%TO.P,U1,6,-*%
%TO.N,in1*%
X126888000Y-48064500D03*
%TO.P,U1,7*%
%TO.N,in buffed*%
X126888000Y-50604500D03*
%TO.P,U1,8*%
%TO.N,Line*%
X119268000Y-50604500D03*
%TO.P,U1,9,-*%
%TO.N,Line_raw*%
X119268000Y-48064500D03*
%TO.P,U1,10,+*%
%TO.N,GND*%
X119268000Y-45524500D03*
%TO.P,U1,11,V-*%
%TO.N,-12V*%
X119268000Y-42984500D03*
%TO.P,U1,12,+*%
%TO.N,GND*%
X119268000Y-40444500D03*
%TO.P,U1,13,-*%
%TO.N,Dry_raw*%
X119268000Y-37904500D03*
%TO.P,U1,14*%
%TO.N,Dry*%
X119268000Y-35364500D03*
%TD*%
D16*
%TO.P,JX0,1,Pin_1*%
%TO.N,X0*%
X148971000Y-50863500D03*
%TD*%
D17*
%TO.P,R20,1*%
%TO.N,LEFT EURO*%
X152527000Y-13208000D03*
D18*
%TO.P,R20,2*%
%TO.N,Net-(C8-Pad2)*%
X142367000Y-13208000D03*
%TD*%
D17*
%TO.P,R10,1*%
%TO.N,Line_raw*%
X115443000Y-47561500D03*
D18*
%TO.P,R10,2*%
%TO.N,Line*%
X115443000Y-57721500D03*
%TD*%
D17*
%TO.P,R8,1*%
%TO.N,wet1*%
X133350000Y-51117500D03*
D18*
%TO.P,R8,2*%
%TO.N,Net-(R8-Pad2)*%
X133350000Y-40957500D03*
%TD*%
D17*
%TO.P,R16,1*%
%TO.N,Dry*%
X136652000Y-38036500D03*
D18*
%TO.P,R16,2*%
%TO.N,Net-(C8-Pad1)*%
X146812000Y-38036500D03*
%TD*%
D19*
%TO.P,P1,1,+12V*%
%TO.N,+12V*%
X109347000Y-26860500D03*
D20*
%TO.P,P1,2,+12V*%
X106807000Y-26860500D03*
%TO.P,P1,3,GND*%
%TO.N,GND*%
X109347000Y-29400500D03*
%TO.P,P1,4,GND*%
X106807000Y-29400500D03*
%TO.P,P1,5,GND*%
X109347000Y-31940500D03*
%TO.P,P1,6,GND*%
X106807000Y-31940500D03*
%TO.P,P1,7,GND*%
X109347000Y-34480500D03*
%TO.P,P1,8,GND*%
X106807000Y-34480500D03*
%TO.P,P1,9,-12V*%
%TO.N,-12V*%
X109347000Y-37020500D03*
%TO.P,P1,10,-12V*%
X106807000Y-37020500D03*
%TD*%
D17*
%TO.P,R12,1*%
%TO.N,R0*%
X152273000Y-29908500D03*
D18*
%TO.P,R12,2*%
%TO.N,Net-(C9-Pad1)*%
X142113000Y-29908500D03*
%TD*%
D21*
%TO.P,C15,1*%
%TO.N,GND*%
X109409113Y-44513500D03*
D17*
%TO.P,C15,2*%
%TO.N,-12V*%
X106909113Y-44513500D03*
%TD*%
D13*
%TO.P,C9,1*%
%TO.N,Net-(C9-Pad1)*%
X123825000Y-25129500D03*
%TO.P,C9,2*%
%TO.N,Net-(C9-Pad2)*%
X123825000Y-20129500D03*
%TD*%
%TO.P,C8,1*%
%TO.N,Net-(C8-Pad1)*%
X142661000Y-25527000D03*
%TO.P,C8,2*%
%TO.N,Net-(C8-Pad2)*%
X147661000Y-25527000D03*
%TD*%
D17*
%TO.P,R14,1*%
%TO.N,RIGHT EURO*%
X118745000Y-27940000D03*
D18*
%TO.P,R14,2*%
%TO.N,Net-(C9-Pad1)*%
X118745000Y-17780000D03*
%TD*%
D17*
%TO.P,R18,1*%
%TO.N,LEFT EURO*%
X152433500Y-21082000D03*
D18*
%TO.P,R18,2*%
%TO.N,Net-(C8-Pad1)*%
X142273500Y-21082000D03*
%TD*%
D16*
%TO.P,J2,1,Pin_1*%
%TO.N,+5V*%
X142118000Y-50990500D03*
D22*
%TO.P,J2,2,Pin_2*%
%TO.N,GND*%
X139578000Y-50990500D03*
%TD*%
D17*
%TO.P,R13,1*%
%TO.N,Dry*%
X117475000Y-31559500D03*
D18*
%TO.P,R13,2*%
%TO.N,Net-(C9-Pad1)*%
X127635000Y-31559500D03*
%TD*%
D14*
%TO.P,U2,1*%
%TO.N,Net-(C8-Pad2)*%
X139080000Y-19050000D03*
D15*
%TO.P,U2,2,-*%
%TO.N,Net-(C8-Pad1)*%
X139080000Y-21590000D03*
%TO.P,U2,3,+*%
%TO.N,GND*%
X139080000Y-24130000D03*
%TO.P,U2,4,V-*%
%TO.N,-12V*%
X139080000Y-26670000D03*
%TO.P,U2,5,+*%
%TO.N,GND*%
X131460000Y-26670000D03*
%TO.P,U2,6,-*%
%TO.N,Net-(C9-Pad1)*%
X131460000Y-24130000D03*
%TO.P,U2,7*%
%TO.N,Net-(C9-Pad2)*%
X131460000Y-21590000D03*
%TO.P,U2,8,V+*%
%TO.N,+12V*%
X131460000Y-19050000D03*
%TD*%
D17*
%TO.P,R9,1*%
%TO.N,Net-(R8-Pad2)*%
X131826000Y-57086500D03*
D18*
%TO.P,R9,2*%
%TO.N,Line_raw*%
X121666000Y-57086500D03*
%TD*%
D21*
%TO.P,C14,1*%
%TO.N,+12V*%
X106617888Y-19240500D03*
D17*
%TO.P,C14,2*%
%TO.N,GND*%
X109117888Y-19240500D03*
%TD*%
%TO.P,R19,1*%
%TO.N,RIGHT EURO*%
X127635000Y-27749500D03*
D18*
%TO.P,R19,2*%
%TO.N,Net-(C9-Pad2)*%
X127635000Y-17589500D03*
%TD*%
D17*
%TO.P,R2,1*%
%TO.N,in1*%
X122809000Y-53911500D03*
D18*
%TO.P,R2,2*%
%TO.N,in buffed*%
X132969000Y-53911500D03*
%TD*%
D16*
%TO.P,J1,1,Pin_1*%
%TO.N,Line*%
X139832000Y-57086500D03*
D22*
%TO.P,J1,2,Pin_2*%
%TO.N,GND*%
X142372000Y-57086500D03*
%TO.P,J1,3,Pin_3*%
%TO.N,R0*%
X144912000Y-57086500D03*
%TO.P,J1,4,Pin_4*%
%TO.N,GND*%
X147452000Y-57086500D03*
%TO.P,J1,5,Pin_5*%
%TO.N,L0*%
X149992000Y-57086500D03*
%TD*%
D17*
%TO.P,R15,1*%
%TO.N,L0*%
X152273000Y-33972500D03*
D18*
%TO.P,R15,2*%
%TO.N,Net-(C8-Pad1)*%
X142113000Y-33972500D03*
%TD*%
D17*
%TO.P,R11,1*%
%TO.N,Dry_raw*%
X113030000Y-45021500D03*
D18*
%TO.P,R11,2*%
%TO.N,Dry*%
X113030000Y-34861500D03*
%TD*%
D13*
%TO.P,C11,1*%
%TO.N,-12V*%
X116205000Y-39814500D03*
%TO.P,C11,2*%
%TO.N,GND*%
X116205000Y-44814500D03*
%TD*%
D16*
%TO.P,Jpcb2,1,Pin_1*%
%TO.N,Line_raw*%
X136652000Y-45026500D03*
D22*
%TO.P,Jpcb2,2,Pin_2*%
%TO.N,Dry_raw*%
X136652000Y-42486500D03*
%TO.P,Jpcb2,3,Pin_3*%
%TO.N,RIGHT EURO*%
X139192000Y-45026500D03*
%TO.P,Jpcb2,4,Pin_4*%
%TO.N,LEFT EURO*%
X139192000Y-42486500D03*
%TO.P,Jpcb2,5,Pin_5*%
%TO.N,GND*%
X141732000Y-45026500D03*
%TO.P,Jpcb2,6,Pin_6*%
%TO.N,+5V*%
X141732000Y-42486500D03*
%TO.P,Jpcb2,7,Pin_7*%
%TO.N,wet1*%
X144272000Y-45026500D03*
%TO.P,Jpcb2,8,Pin_8*%
%TO.N,in1*%
X144272000Y-42486500D03*
%TO.P,Jpcb2,9,Pin_9*%
%TO.N,X0*%
X146812000Y-45026500D03*
%TO.P,Jpcb2,10,Pin_10*%
%TO.N,in buffed*%
X146812000Y-42486500D03*
%TO.P,Jpcb2,11,Pin_11*%
%TO.N,+12V*%
X149352000Y-45026500D03*
%TO.P,Jpcb2,12,Pin_12*%
%TO.N,unconnected-(Jpcb2-Pad12)*%
X149352000Y-42486500D03*
%TD*%
D12*
%TO.P,,1*%
%TO.N,N/C*%
X132232400Y-13970000D03*
%TD*%
D23*
%TO.N,RIGHT EURO*%
X134823200Y-38392100D03*
%TO.N,Dry_raw*%
X132080000Y-45402500D03*
%TO.N,-12V*%
X123571000Y-36766500D03*
X116078000Y-36639500D03*
%TO.N,in1*%
X137922000Y-48577500D03*
%TO.N,+12V*%
X139827000Y-48196500D03*
%TD*%
D24*
%TO.N,Net-(C9-Pad1)*%
X142113000Y-29908500D02*
X141313001Y-29108501D01*
X120015000Y-21359500D02*
X123825000Y-25169500D01*
X135509000Y-29108501D02*
X130085999Y-29108501D01*
X131460000Y-24130000D02*
X133604000Y-24130000D01*
%TO.N,Net-(C8-Pad2)*%
X142367000Y-18605500D02*
X142367000Y-13208000D01*
%TO.N,Net-(C9-Pad1)*%
X118745000Y-17780000D02*
X120015000Y-19050000D01*
X128634500Y-24130000D02*
X131460000Y-24130000D01*
X120015000Y-19050000D02*
X120015000Y-21359500D01*
X135509000Y-26035000D02*
X135509000Y-29108501D01*
X127595000Y-25169500D02*
X128634500Y-24130000D01*
X123825000Y-25169500D02*
X127595000Y-25169500D01*
X133604000Y-24130000D02*
X135509000Y-26035000D01*
%TO.N,Net-(C8-Pad2)*%
X142113000Y-18859500D02*
X139270500Y-18859500D01*
X147661000Y-25550500D02*
X147661000Y-26225500D01*
%TO.N,Net-(C9-Pad1)*%
X130085999Y-29108501D02*
X127635000Y-31559500D01*
X141313001Y-29108501D02*
X135509000Y-29108501D01*
%TO.N,Line*%
X120030000Y-51229500D02*
X118364000Y-52895500D01*
%TO.N,Dry*%
X115209000Y-32809500D02*
X117475000Y-32809500D01*
%TO.N,Net-(R8-Pad2)*%
X134747000Y-49212500D02*
X134239000Y-48704500D01*
%TO.N,Dry*%
X129159000Y-33464500D02*
X118745000Y-33464500D01*
%TO.N,Line*%
X118364000Y-52895500D02*
X118364000Y-54800500D01*
%TO.N,Net-(R8-Pad2)*%
X134239000Y-48704500D02*
X134239000Y-42100500D01*
%TO.N,Dry*%
X117475000Y-31559500D02*
X117475000Y-32809500D01*
X136652000Y-38036500D02*
X136652000Y-36893500D01*
%TO.N,Net-(R8-Pad2)*%
X131826000Y-57594500D02*
X132334000Y-57086500D01*
%TO.N,Dry*%
X129794000Y-34099500D02*
X129159000Y-33464500D01*
%TO.N,Net-(R8-Pad2)*%
X129667000Y-36639500D02*
X128392000Y-35364500D01*
%TO.N,Line*%
X120030000Y-50604500D02*
X120030000Y-51229500D01*
%TO.N,Net-(C9-Pad2)*%
X123825000Y-20169500D02*
X126646000Y-20169500D01*
X127160500Y-17589500D02*
X127160500Y-19655000D01*
%TO.N,Dry*%
X113157000Y-34861500D02*
X115209000Y-32809500D01*
X117475000Y-32809500D02*
X118437500Y-33772000D01*
%TO.N,Line*%
X118364000Y-54800500D02*
X115443000Y-57721500D01*
%TO.N,Dry*%
X133858000Y-34099500D02*
X129794000Y-34099500D01*
X118745000Y-33464500D02*
X118437500Y-33772000D01*
%TO.N,Net-(R8-Pad2)*%
X132080000Y-40957500D02*
X129667000Y-38544500D01*
X133477000Y-57086500D02*
X134747000Y-55816500D01*
X133096000Y-40957500D02*
X132080000Y-40957500D01*
%TO.N,Net-(C9-Pad2)*%
X129095500Y-21590000D02*
X127160500Y-19655000D01*
%TO.N,Net-(R8-Pad2)*%
X128392000Y-35364500D02*
X127650000Y-35364500D01*
X132334000Y-57086500D02*
X133477000Y-57086500D01*
%TO.N,RIGHT EURO*%
X134823200Y-38392100D02*
X134823200Y-39306500D01*
%TO.N,Net-(R8-Pad2)*%
X134747000Y-55816500D02*
X134747000Y-49212500D01*
%TO.N,Net-(C9-Pad2)*%
X126646000Y-20169500D02*
X127160500Y-19655000D01*
%TO.N,RIGHT EURO*%
X137922000Y-43756500D02*
X139192000Y-45026500D01*
%TO.N,Dry*%
X118437500Y-33772000D02*
X120030000Y-35364500D01*
%TO.N,Net-(R8-Pad2)*%
X134239000Y-42100500D02*
X133096000Y-40957500D01*
%TO.N,Dry*%
X136652000Y-36893500D02*
X133858000Y-34099500D01*
%TO.N,Net-(C9-Pad2)*%
X131460000Y-21590000D02*
X129095500Y-21590000D01*
%TO.N,Net-(R8-Pad2)*%
X129667000Y-38544500D02*
X129667000Y-36639500D01*
%TO.N,RIGHT EURO*%
X136347200Y-40830500D02*
X137109200Y-40830500D01*
X137109200Y-40830500D02*
X137922000Y-41643300D01*
X134823200Y-39306500D02*
X136347200Y-40830500D01*
X118745000Y-27749500D02*
X127160500Y-27749500D01*
%TO.N,Line_raw*%
X120142000Y-57213500D02*
X120142000Y-54165500D01*
%TO.N,RIGHT EURO*%
X137922000Y-41643300D02*
X137922000Y-43756500D01*
%TO.N,Line_raw*%
X122428000Y-48704500D02*
X121788000Y-48064500D01*
%TO.N,Dry_raw*%
X130683000Y-46799500D02*
X124079000Y-46799500D01*
%TO.N,Line_raw*%
X136652000Y-56070500D02*
X136652000Y-45026500D01*
%TO.N,wet1*%
X127650000Y-38051500D02*
X127650000Y-37904500D01*
%TO.N,Line_raw*%
X122428000Y-51879500D02*
X122428000Y-48704500D01*
X120142000Y-54165500D02*
X122428000Y-51879500D01*
X120030000Y-48064500D02*
X115946000Y-48064500D01*
X125349000Y-57213500D02*
X126619000Y-58483500D01*
X121788000Y-48064500D02*
X120030000Y-48064500D01*
%TO.N,Dry_raw*%
X124079000Y-46799500D02*
X122428000Y-45148500D01*
X114178000Y-37904500D02*
X113157000Y-38925500D01*
X113157000Y-38925500D02*
X113157000Y-45021500D01*
%TO.N,Line_raw*%
X120523000Y-57594500D02*
X120142000Y-57213500D01*
%TO.N,Dry_raw*%
X120030000Y-37904500D02*
X114178000Y-37904500D01*
%TO.N,Line_raw*%
X115946000Y-48064500D02*
X115443000Y-47561500D01*
%TO.N,Dry_raw*%
X122428000Y-45148500D02*
X122428000Y-41064500D01*
X132080000Y-45402500D02*
X130683000Y-46799500D01*
%TO.N,Line_raw*%
X134239000Y-58483500D02*
X136652000Y-56070500D01*
X121666000Y-57594500D02*
X120523000Y-57594500D01*
X126619000Y-58483500D02*
X134239000Y-58483500D01*
%TO.N,wet1*%
X133096000Y-51117500D02*
X133096000Y-43497500D01*
%TO.N,Line_raw*%
X121666000Y-57213500D02*
X125349000Y-57213500D01*
%TO.N,wet1*%
X133096000Y-43497500D02*
X127650000Y-38051500D01*
%TO.N,Dry_raw*%
X122428000Y-41064500D02*
X119268000Y-37904500D01*
%TO.N,in1*%
X123317000Y-50863500D02*
X123317000Y-53784500D01*
X123317000Y-53784500D02*
X122809000Y-54292500D01*
X137922000Y-47688500D02*
X138938000Y-46672500D01*
X142494000Y-46672500D02*
X142907000Y-46259500D01*
X142907000Y-43851500D02*
X144272000Y-42486500D01*
X127650000Y-48064500D02*
X126116000Y-48064500D01*
%TO.N,in buffed*%
X129281000Y-50604500D02*
X132969000Y-54292500D01*
X127650000Y-50604500D02*
X129281000Y-50604500D01*
%TO.N,in1*%
X137922000Y-48577500D02*
X137922000Y-47688500D01*
X138938000Y-46672500D02*
X142494000Y-46672500D01*
X126116000Y-48064500D02*
X123317000Y-50863500D01*
X142907000Y-46259500D02*
X142907000Y-43851500D01*
%TO.N,Net-(C8-Pad2)*%
X144145000Y-20731000D02*
X144145000Y-22034500D01*
X142113000Y-18859500D02*
X142367000Y-18605500D01*
X139270500Y-18859500D02*
X139080000Y-19050000D01*
X142273500Y-18859500D02*
X144145000Y-20731000D01*
%TO.N,LEFT EURO*%
X152433500Y-13301500D02*
X152527000Y-13208000D01*
%TO.N,Net-(C8-Pad2)*%
X144145000Y-22034500D02*
X147661000Y-25550500D01*
X142273500Y-18859500D02*
X142113000Y-18859500D01*
%TO.N,Net-(C8-Pad1)*%
X146812000Y-38036500D02*
X146812000Y-30162500D01*
X146812000Y-30162500D02*
X144653000Y-28003500D01*
X142273500Y-26479500D02*
X142273500Y-22669500D01*
X146177000Y-38036500D02*
X146812000Y-38036500D01*
X142113000Y-33972500D02*
X146177000Y-38036500D01*
X142273500Y-21082000D02*
X142273500Y-22669500D01*
X141194000Y-21590000D02*
X142273500Y-22669500D01*
X144653000Y-28003500D02*
X142007500Y-28003500D01*
X139080000Y-21590000D02*
X141194000Y-21590000D01*
X142007500Y-28003500D02*
X141378500Y-27374500D01*
X141378500Y-27374500D02*
X142273500Y-26479500D01*
%TO.N,LEFT EURO*%
X152433500Y-21082000D02*
X152433500Y-13301500D01*
%TO.N,-12V*%
X116205000Y-41465500D02*
X117724000Y-42984500D01*
X123571000Y-36766500D02*
X123444000Y-36639500D01*
%TO.N,+12V*%
X130175000Y-43664500D02*
X127568000Y-43664500D01*
X146245500Y-48133000D02*
X149352000Y-45026500D01*
X127568000Y-43664500D02*
X126888000Y-42984500D01*
%TO.N,-12V*%
X123444000Y-36639500D02*
X116078000Y-36639500D01*
%TO.N,+12V*%
X139827000Y-48196500D02*
X139890500Y-48133000D01*
%TO.N,-12V*%
X117724000Y-42984500D02*
X119268000Y-42984500D01*
%TO.N,+12V*%
X139890500Y-48133000D02*
X146245500Y-48133000D01*
%TO.N,-12V*%
X116205000Y-39814500D02*
X116205000Y-41465500D01*
%TO.N,GND*%
X131820000Y-27374500D02*
X131460000Y-27374500D01*
X118558000Y-44814500D02*
X119268000Y-45524500D01*
X116205000Y-44814500D02*
X118558000Y-44814500D01*
%TD*%
%TA.AperFunction,Conductor*%
%TO.N,GND*%
G36*
X132734649Y-45772206D02*
G01*
X132767930Y-45834919D01*
X132770500Y-45860236D01*
X132770500Y-50239199D01*
X132750498Y-50307320D01*
X132724434Y-50336598D01*
X132639117Y-50406616D01*
X132514090Y-50558961D01*
X132421186Y-50732771D01*
X132363974Y-50921373D01*
X132363974Y-50921375D01*
X132344659Y-51117496D01*
X132344659Y-51117503D01*
X132363974Y-51313624D01*
X132363974Y-51313626D01*
X132421186Y-51502228D01*
X132511340Y-51670893D01*
X132514090Y-51676038D01*
X132639117Y-51828383D01*
X132791462Y-51953410D01*
X132965273Y-52046314D01*
X133153868Y-52103524D01*
X133153872Y-52103524D01*
X133153874Y-52103525D01*
X133349997Y-52122841D01*
X133350000Y-52122841D01*
X133350003Y-52122841D01*
X133546124Y-52103525D01*
X133546126Y-52103525D01*
X133546127Y-52103524D01*
X133546132Y-52103524D01*
X133734727Y-52046314D01*
X133908538Y-51953410D01*
X134060883Y-51828383D01*
X134185910Y-51676038D01*
X134185914Y-51676030D01*
X134189348Y-51670893D01*
X134191101Y-51672064D01*
X134234113Y-51628264D01*
X134303347Y-51612544D01*
X134370090Y-51636749D01*
X134413151Y-51693196D01*
X134421500Y-51738299D01*
X134421500Y-55629483D01*
X134401498Y-55697604D01*
X134384595Y-55718578D01*
X133379079Y-56724095D01*
X133316767Y-56758120D01*
X133289984Y-56761000D01*
X132861993Y-56761000D01*
X132793872Y-56740998D01*
X132750871Y-56694396D01*
X132661909Y-56527961D01*
X132536883Y-56375617D01*
X132384538Y-56250590D01*
X132370903Y-56243302D01*
X132210728Y-56157686D01*
X132022125Y-56100474D01*
X131826003Y-56081159D01*
X131825997Y-56081159D01*
X131629875Y-56100474D01*
X131629873Y-56100474D01*
X131441271Y-56157686D01*
X131267461Y-56250590D01*
X131115117Y-56375617D01*
X130990090Y-56527961D01*
X130897186Y-56701771D01*
X130839974Y-56890373D01*
X130839974Y-56890375D01*
X130820659Y-57086496D01*
X130820659Y-57086503D01*
X130839974Y-57282624D01*
X130839974Y-57282626D01*
X130897186Y-57471228D01*
X130969012Y-57605604D01*
X130990090Y-57645038D01*
X131115117Y-57797383D01*
X131267462Y-57922410D01*
X131267464Y-57922411D01*
X131272607Y-57925848D01*
X131271437Y-57927598D01*
X131315244Y-57970630D01*
X131330954Y-58039867D01*
X131306738Y-58106606D01*
X131250284Y-58149658D01*
X131205200Y-58158000D01*
X126806017Y-58158000D01*
X126737896Y-58137998D01*
X126716922Y-58121095D01*
X126443520Y-57847693D01*
X125591154Y-56995328D01*
X125587450Y-56991286D01*
X125561454Y-56960305D01*
X125561451Y-56960303D01*
X125526435Y-56940086D01*
X125521800Y-56937133D01*
X125488683Y-56913945D01*
X125483152Y-56911366D01*
X125467796Y-56905005D01*
X125462047Y-56902912D01*
X125438174Y-56898702D01*
X125422234Y-56895891D01*
X125416872Y-56894703D01*
X125377808Y-56884236D01*
X125377805Y-56884236D01*
X125366127Y-56885257D01*
X125337524Y-56887760D01*
X125332040Y-56888000D01*
X122744754Y-56888000D01*
X122676633Y-56867998D01*
X122630140Y-56814342D01*
X122624180Y-56798576D01*
X122594818Y-56701784D01*
X122594812Y-56701769D01*
X122501909Y-56527961D01*
X122376883Y-56375617D01*
X122224538Y-56250590D01*
X122210903Y-56243302D01*
X122050728Y-56157686D01*
X121862125Y-56100474D01*
X121666003Y-56081159D01*
X121665997Y-56081159D01*
X121469875Y-56100474D01*
X121469873Y-56100474D01*
X121281271Y-56157686D01*
X121107461Y-56250590D01*
X120955117Y-56375617D01*
X120830090Y-56527961D01*
X120737185Y-56701773D01*
X120737183Y-56701778D01*
X120714073Y-56777963D01*
X120675158Y-56837344D01*
X120610316Y-56866260D01*
X120540136Y-56855529D01*
X120486897Y-56808559D01*
X120467499Y-56741387D01*
X120467499Y-55697604D01*
X120467499Y-54352512D01*
X120487501Y-54284395D01*
X120504399Y-54263426D01*
X122646192Y-52121633D01*
X122650210Y-52117951D01*
X122681194Y-52091955D01*
X122701421Y-52056918D01*
X122704352Y-52052317D01*
X122727554Y-52019184D01*
X122727554Y-52019181D01*
X122730147Y-52013622D01*
X122736480Y-51998333D01*
X122738588Y-51992544D01*
X122740020Y-51984422D01*
X122741413Y-51976520D01*
X122772935Y-51912909D01*
X122833847Y-51876435D01*
X122904808Y-51878684D01*
X122963289Y-51918939D01*
X122990722Y-51984422D01*
X122991499Y-51998395D01*
X122991500Y-52785113D01*
X122971498Y-52853234D01*
X122917842Y-52899727D01*
X122853153Y-52910507D01*
X122824876Y-52907722D01*
X122809000Y-52906159D01*
X122808998Y-52906159D01*
X122808997Y-52906159D01*
X122612875Y-52925474D01*
X122612873Y-52925474D01*
X122424271Y-52982686D01*
X122250461Y-53075590D01*
X122098117Y-53200617D01*
X121973090Y-53352961D01*
X121880186Y-53526771D01*
X121822974Y-53715373D01*
X121822974Y-53715375D01*
X121803659Y-53911496D01*
X121803659Y-53911503D01*
X121822974Y-54107624D01*
X121822974Y-54107626D01*
X121880186Y-54296228D01*
X121910273Y-54352516D01*
X121973090Y-54470038D01*
X122098117Y-54622383D01*
X122250462Y-54747410D01*
X122424273Y-54840314D01*
X122612868Y-54897524D01*
X122612872Y-54897524D01*
X122612874Y-54897525D01*
X122808997Y-54916841D01*
X122809000Y-54916841D01*
X122809003Y-54916841D01*
X123005124Y-54897525D01*
X123005126Y-54897525D01*
X123005127Y-54897524D01*
X123005132Y-54897524D01*
X123193727Y-54840314D01*
X123367538Y-54747410D01*
X123519883Y-54622383D01*
X123644910Y-54470038D01*
X123737814Y-54296227D01*
X123795024Y-54107632D01*
X123795025Y-54107624D01*
X123814341Y-53911503D01*
X123814341Y-53911496D01*
X123795025Y-53715375D01*
X123795025Y-53715373D01*
X123795024Y-53715370D01*
X123795024Y-53715368D01*
X123737814Y-53526773D01*
X123657377Y-53376287D01*
X123642500Y-53316892D01*
X123642500Y-51050515D01*
X123662502Y-50982394D01*
X123679400Y-50961425D01*
X123985390Y-50655435D01*
X125483630Y-50655435D01*
X125496258Y-50737862D01*
X125514444Y-50856571D01*
X125522274Y-50877713D01*
X125585111Y-51047381D01*
X125585115Y-51047389D01*
X125692744Y-51220066D01*
X125692754Y-51220079D01*
X125825904Y-51360150D01*
X125832941Y-51367553D01*
X125832944Y-51367555D01*
X125999952Y-51483796D01*
X125999953Y-51483797D01*
X126186938Y-51564039D01*
X126186941Y-51564039D01*
X126186942Y-51564040D01*
X126386259Y-51605000D01*
X126386260Y-51605000D01*
X127338741Y-51605000D01*
X127338742Y-51605000D01*
X127338743Y-51604999D01*
X127338760Y-51604999D01*
X127432833Y-51595431D01*
X127490438Y-51589574D01*
X127684588Y-51528659D01*
X127862502Y-51429909D01*
X127862503Y-51429908D01*
X127862505Y-51429907D01*
X127981078Y-51328114D01*
X128016895Y-51297366D01*
X128141448Y-51136458D01*
X128208134Y-51000508D01*
X128256090Y-50948160D01*
X128321256Y-50930000D01*
X129093984Y-50930000D01*
X129162105Y-50950002D01*
X129183079Y-50966905D01*
X131936225Y-53720051D01*
X131970251Y-53782363D01*
X131972523Y-53821496D01*
X131963659Y-53911496D01*
X131963659Y-53911503D01*
X131982974Y-54107624D01*
X131982974Y-54107626D01*
X132040186Y-54296228D01*
X132070273Y-54352516D01*
X132133090Y-54470038D01*
X132258117Y-54622383D01*
X132410462Y-54747410D01*
X132584273Y-54840314D01*
X132772868Y-54897524D01*
X132772872Y-54897524D01*
X132772874Y-54897525D01*
X132968997Y-54916841D01*
X132969000Y-54916841D01*
X132969003Y-54916841D01*
X133165124Y-54897525D01*
X133165126Y-54897525D01*
X133165127Y-54897524D01*
X133165132Y-54897524D01*
X133353727Y-54840314D01*
X133527538Y-54747410D01*
X133679883Y-54622383D01*
X133804910Y-54470038D01*
X133897814Y-54296227D01*
X133955024Y-54107632D01*
X133955025Y-54107624D01*
X133974341Y-53911503D01*
X133974341Y-53911496D01*
X133955025Y-53715375D01*
X133955025Y-53715373D01*
X133955024Y-53715370D01*
X133955024Y-53715368D01*
X133897814Y-53526773D01*
X133804910Y-53352962D01*
X133679883Y-53200617D01*
X133527538Y-53075590D01*
X133527538Y-53075589D01*
X133353728Y-52982686D01*
X133165125Y-52925474D01*
X132969003Y-52906159D01*
X132968997Y-52906159D01*
X132772875Y-52925474D01*
X132772873Y-52925474D01*
X132584271Y-52982686D01*
X132410459Y-53075591D01*
X132389960Y-53092414D01*
X132324612Y-53120166D01*
X132254634Y-53108183D01*
X132220934Y-53084108D01*
X129523165Y-50386339D01*
X129519450Y-50382286D01*
X129493454Y-50351305D01*
X129493451Y-50351303D01*
X129458435Y-50331086D01*
X129453800Y-50328133D01*
X129420683Y-50304945D01*
X129415152Y-50302366D01*
X129399796Y-50296005D01*
X129394047Y-50293912D01*
X129370174Y-50289702D01*
X129354234Y-50286891D01*
X129348872Y-50285703D01*
X129309808Y-50275236D01*
X129309805Y-50275236D01*
X129298127Y-50276257D01*
X129269524Y-50278760D01*
X129264040Y-50279000D01*
X128322060Y-50279000D01*
X128253939Y-50258998D01*
X128207446Y-50205342D01*
X128203903Y-50196760D01*
X128190888Y-50161618D01*
X128190884Y-50161610D01*
X128083255Y-49988933D01*
X128083245Y-49988920D01*
X127943063Y-49841451D01*
X127943061Y-49841449D01*
X127943059Y-49841447D01*
X127918902Y-49824633D01*
X127776047Y-49725203D01*
X127776046Y-49725202D01*
X127589061Y-49644960D01*
X127439570Y-49614240D01*
X127389741Y-49604000D01*
X126437258Y-49604000D01*
X126437239Y-49604000D01*
X126285566Y-49619425D01*
X126285563Y-49619425D01*
X126285562Y-49619426D01*
X126232965Y-49635928D01*
X126091413Y-49680340D01*
X125913494Y-49779092D01*
X125759109Y-49911629D01*
X125759102Y-49911636D01*
X125634555Y-50072536D01*
X125634550Y-50072544D01*
X125544941Y-50255223D01*
X125493936Y-50452219D01*
X125493936Y-50452222D01*
X125483630Y-50655435D01*
X123985390Y-50655435D01*
X125746799Y-48894025D01*
X125809109Y-48860002D01*
X125879924Y-48865066D01*
X125907870Y-48879704D01*
X125922528Y-48889907D01*
X125999952Y-48943796D01*
X125999953Y-48943797D01*
X126186938Y-49024039D01*
X126186941Y-49024039D01*
X126186942Y-49024040D01*
X126386259Y-49065000D01*
X126386260Y-49065000D01*
X127338741Y-49065000D01*
X127338742Y-49065000D01*
X127338743Y-49064999D01*
X127338760Y-49064999D01*
X127432833Y-49055431D01*
X127490438Y-49049574D01*
X127684588Y-48988659D01*
X127862502Y-48889909D01*
X127862503Y-48889908D01*
X127862505Y-48889907D01*
X128016890Y-48757370D01*
X128016895Y-48757366D01*
X128141448Y-48596458D01*
X128193514Y-48490314D01*
X128231058Y-48413776D01*
X128231058Y-48413774D01*
X128231060Y-48413771D01*
X128282063Y-48216785D01*
X128292369Y-48013564D01*
X128261556Y-47812429D01*
X128190886Y-47621613D01*
X128158550Y-47569735D01*
X128083255Y-47448933D01*
X128083245Y-47448920D01*
X127977625Y-47337810D01*
X127945189Y-47274656D01*
X127952045Y-47203992D01*
X127996018Y-47148252D01*
X128063145Y-47125134D01*
X128068948Y-47125000D01*
X130666040Y-47125000D01*
X130671525Y-47125239D01*
X130711807Y-47128764D01*
X130711815Y-47128762D01*
X130724958Y-47125240D01*
X130750870Y-47118296D01*
X130756231Y-47117107D01*
X130796045Y-47110088D01*
X130796047Y-47110086D01*
X130801838Y-47107979D01*
X130817101Y-47101657D01*
X130822681Y-47099055D01*
X130822681Y-47099054D01*
X130822684Y-47099054D01*
X130855817Y-47075852D01*
X130860428Y-47072915D01*
X130895455Y-47052694D01*
X130921453Y-47021709D01*
X130925146Y-47017678D01*
X131907618Y-46035206D01*
X131969928Y-46001182D01*
X132013154Y-45999381D01*
X132080000Y-46008182D01*
X132236762Y-45987544D01*
X132382841Y-45927036D01*
X132508282Y-45830782D01*
X132544537Y-45783532D01*
X132601874Y-45741665D01*
X132672745Y-45737443D01*
X132734649Y-45772206D01*
G37*
%TD.AperFunction*%
%TA.AperFunction,Conductor*%
G36*
X153865621Y-10370502D02*
G01*
X153912114Y-10424158D01*
X153923500Y-10476500D01*
X153923500Y-59108172D01*
X153903498Y-59176293D01*
X153849842Y-59222786D01*
X153797500Y-59234172D01*
X104139500Y-59234172D01*
X104071379Y-59214170D01*
X104024886Y-59160514D01*
X104013500Y-59108172D01*
X104013500Y-56451499D01*
X105876518Y-56451499D01*
X105896421Y-56729790D01*
X105955728Y-57002421D01*
X105955729Y-57002423D01*
X106045200Y-57242306D01*
X106053231Y-57263836D01*
X106053232Y-57263840D01*
X106186942Y-57508710D01*
X106186944Y-57508713D01*
X106288995Y-57645038D01*
X106354146Y-57732069D01*
X106354154Y-57732078D01*
X106551421Y-57929345D01*
X106551430Y-57929353D01*
X106551432Y-57929355D01*
X106774787Y-58096556D01*
X107019663Y-58230269D01*
X107281077Y-58327771D01*
X107553706Y-58387078D01*
X107832000Y-58406982D01*
X108110294Y-58387078D01*
X108382923Y-58327771D01*
X108644337Y-58230269D01*
X108889213Y-58096556D01*
X109112568Y-57929355D01*
X109309855Y-57732068D01*
X109317764Y-57721503D01*
X114437659Y-57721503D01*
X114456974Y-57917624D01*
X114456974Y-57917626D01*
X114514186Y-58106228D01*
X114541859Y-58158000D01*
X114607090Y-58280038D01*
X114732117Y-58432383D01*
X114884462Y-58557410D01*
X115058273Y-58650314D01*
X115246868Y-58707524D01*
X115246872Y-58707524D01*
X115246874Y-58707525D01*
X115442997Y-58726841D01*
X115443000Y-58726841D01*
X115443003Y-58726841D01*
X115639124Y-58707525D01*
X115639126Y-58707525D01*
X115639127Y-58707524D01*
X115639132Y-58707524D01*
X115827727Y-58650314D01*
X116001538Y-58557410D01*
X116153883Y-58432383D01*
X116278910Y-58280038D01*
X116371814Y-58106227D01*
X116429024Y-57917632D01*
X116429568Y-57912108D01*
X116448341Y-57721503D01*
X116448341Y-57721496D01*
X116429025Y-57525375D01*
X116429023Y-57525364D01*
X116392601Y-57405298D01*
X116374240Y-57344773D01*
X116373607Y-57273782D01*
X116405718Y-57219106D01*
X118582186Y-55042638D01*
X118586204Y-55038956D01*
X118617194Y-55012955D01*
X118637415Y-54977928D01*
X118640352Y-54973317D01*
X118663554Y-54940184D01*
X118663554Y-54940181D01*
X118666157Y-54934601D01*
X118672479Y-54919338D01*
X118674587Y-54913546D01*
X118674588Y-54913545D01*
X118681607Y-54873731D01*
X118682798Y-54868363D01*
X118693264Y-54829308D01*
X118689740Y-54789018D01*
X118689500Y-54783526D01*
X118689500Y-53953044D01*
X118689500Y-53082511D01*
X118709501Y-53014394D01*
X118726395Y-52993430D01*
X120248186Y-51471638D01*
X120252204Y-51467956D01*
X120283194Y-51441955D01*
X120303415Y-51406928D01*
X120306352Y-51402317D01*
X120329554Y-51369184D01*
X120329554Y-51369183D01*
X120335880Y-51360150D01*
X120336470Y-51360563D01*
X120361075Y-51328116D01*
X120396895Y-51297366D01*
X120521448Y-51136458D01*
X120597020Y-50982394D01*
X120611058Y-50953776D01*
X120611058Y-50953774D01*
X120611060Y-50953771D01*
X120662063Y-50756785D01*
X120672369Y-50553564D01*
X120641556Y-50352429D01*
X120570886Y-50161613D01*
X120498732Y-50045852D01*
X120463255Y-49988933D01*
X120463245Y-49988920D01*
X120323063Y-49841451D01*
X120323061Y-49841449D01*
X120323059Y-49841447D01*
X120298902Y-49824633D01*
X120156047Y-49725203D01*
X120156046Y-49725202D01*
X119969061Y-49644960D01*
X119819570Y-49614240D01*
X119769741Y-49604000D01*
X118817258Y-49604000D01*
X118817239Y-49604000D01*
X118665566Y-49619425D01*
X118665563Y-49619425D01*
X118665562Y-49619426D01*
X118612965Y-49635928D01*
X118471413Y-49680340D01*
X118293494Y-49779092D01*
X118139109Y-49911629D01*
X118139102Y-49911636D01*
X118014555Y-50072536D01*
X118014550Y-50072544D01*
X117924941Y-50255223D01*
X117873936Y-50452219D01*
X117873936Y-50452222D01*
X117863630Y-50655435D01*
X117876258Y-50737862D01*
X117894444Y-50856571D01*
X117902274Y-50877713D01*
X117965111Y-51047381D01*
X117965115Y-51047389D01*
X118072744Y-51220066D01*
X118072754Y-51220079D01*
X118205904Y-51360150D01*
X118212941Y-51367553D01*
X118212944Y-51367555D01*
X118379952Y-51483796D01*
X118379953Y-51483797D01*
X118566938Y-51564039D01*
X118566941Y-51564039D01*
X118566942Y-51564040D01*
X118766259Y-51605000D01*
X118889984Y-51605000D01*
X118958105Y-51625002D01*
X119004598Y-51678658D01*
X119014702Y-51748932D01*
X118985208Y-51813512D01*
X118979095Y-51820078D01*
X118769808Y-52029366D01*
X118145843Y-52653330D01*
X118141792Y-52657042D01*
X118110806Y-52683044D01*
X118110804Y-52683047D01*
X118090589Y-52718058D01*
X118087638Y-52722691D01*
X118064445Y-52755816D01*
X118061873Y-52761332D01*
X118055493Y-52776735D01*
X118053412Y-52782452D01*
X118046392Y-52822261D01*
X118045203Y-52827626D01*
X118034736Y-52866693D01*
X118037626Y-52899727D01*
X118038260Y-52906965D01*
X118038500Y-52912459D01*
X118038500Y-54613483D01*
X118018498Y-54681604D01*
X118001595Y-54702578D01*
X115945394Y-56758778D01*
X115883082Y-56792804D01*
X115819723Y-56790258D01*
X115713779Y-56758120D01*
X115639132Y-56735476D01*
X115639131Y-56735475D01*
X115639125Y-56735474D01*
X115443003Y-56716159D01*
X115442997Y-56716159D01*
X115246875Y-56735474D01*
X115246873Y-56735474D01*
X115058271Y-56792686D01*
X114884461Y-56885590D01*
X114732117Y-57010617D01*
X114607090Y-57162961D01*
X114514186Y-57336771D01*
X114456974Y-57525373D01*
X114456974Y-57525375D01*
X114437659Y-57721496D01*
X114437659Y-57721503D01*
X109317764Y-57721503D01*
X109477056Y-57508713D01*
X109610769Y-57263837D01*
X109708271Y-57002423D01*
X109767578Y-56729794D01*
X109787482Y-56451500D01*
X109767578Y-56173206D01*
X109708271Y-55900577D01*
X109610769Y-55639163D01*
X109477056Y-55394287D01*
X109309855Y-55170932D01*
X109309853Y-55170930D01*
X109309845Y-55170921D01*
X109112578Y-54973654D01*
X109112569Y-54973646D01*
X109049104Y-54926137D01*
X108889213Y-54806444D01*
X108889211Y-54806443D01*
X108889210Y-54806442D01*
X108644340Y-54672732D01*
X108644337Y-54672731D01*
X108485486Y-54613483D01*
X108382921Y-54575228D01*
X108110290Y-54515921D01*
X107857340Y-54497830D01*
X107832000Y-54496018D01*
X107831999Y-54496018D01*
X107553709Y-54515921D01*
X107281078Y-54575228D01*
X107019663Y-54672731D01*
X107019659Y-54672732D01*
X106774789Y-54806442D01*
X106551430Y-54973646D01*
X106551421Y-54973654D01*
X106354154Y-55170921D01*
X106354146Y-55170930D01*
X106186942Y-55394289D01*
X106053232Y-55639159D01*
X106053231Y-55639163D01*
X105955728Y-55900578D01*
X105896421Y-56173209D01*
X105876518Y-56451499D01*
X104013500Y-56451499D01*
X104013500Y-44513503D01*
X105903772Y-44513503D01*
X105923087Y-44709624D01*
X105923087Y-44709626D01*
X105980299Y-44898228D01*
X106020917Y-44974218D01*
X106073203Y-45072038D01*
X106198230Y-45224383D01*
X106350575Y-45349410D01*
X106449901Y-45402501D01*
X106513280Y-45436378D01*
X106524386Y-45442314D01*
X106712981Y-45499524D01*
X106712985Y-45499524D01*
X106712987Y-45499525D01*
X106909110Y-45518841D01*
X106909113Y-45518841D01*
X106909116Y-45518841D01*
X107105237Y-45499525D01*
X107105239Y-45499525D01*
X107105240Y-45499524D01*
X107105245Y-45499524D01*
X107293840Y-45442314D01*
X107467651Y-45349410D01*
X107619996Y-45224383D01*
X107745023Y-45072038D01*
X107772035Y-45021503D01*
X112024659Y-45021503D01*
X112043974Y-45217624D01*
X112043974Y-45217626D01*
X112101186Y-45406228D01*
X112134921Y-45469341D01*
X112194090Y-45580038D01*
X112319117Y-45732383D01*
X112471462Y-45857410D01*
X112645273Y-45950314D01*
X112833868Y-46007524D01*
X112833872Y-46007524D01*
X112833874Y-46007525D01*
X113029997Y-46026841D01*
X113030000Y-46026841D01*
X113030003Y-46026841D01*
X113226124Y-46007525D01*
X113226126Y-46007525D01*
X113226127Y-46007524D01*
X113226132Y-46007524D01*
X113414727Y-45950314D01*
X113588538Y-45857410D01*
X113740883Y-45732383D01*
X113865910Y-45580038D01*
X113958814Y-45406227D01*
X114016024Y-45217632D01*
X114027643Y-45099659D01*
X114035341Y-45021503D01*
X114035341Y-45021496D01*
X114016025Y-44825375D01*
X114016025Y-44825373D01*
X114016024Y-44825370D01*
X114016024Y-44825368D01*
X113958814Y-44636773D01*
X113865910Y-44462962D01*
X113740883Y-44310617D01*
X113588538Y-44185590D01*
X113549102Y-44164510D01*
X113498455Y-44114757D01*
X113482500Y-44053389D01*
X113482500Y-39814500D01*
X114999357Y-39814500D01*
X115019885Y-40036039D01*
X115080768Y-40250020D01*
X115080774Y-40250037D01*
X115179938Y-40449184D01*
X115179942Y-40449189D01*
X115314017Y-40626735D01*
X115478438Y-40776624D01*
X115478439Y-40776625D01*
X115667587Y-40893740D01*
X115667590Y-40893741D01*
X115667599Y-40893747D01*
X115799019Y-40944659D01*
X115855311Y-40987917D01*
X115879282Y-41054744D01*
X115879500Y-41062149D01*
X115879500Y-41448539D01*
X115879260Y-41454032D01*
X115876995Y-41479922D01*
X115875736Y-41494307D01*
X115880281Y-41511268D01*
X115886203Y-41533372D01*
X115887393Y-41538740D01*
X115894412Y-41578547D01*
X115896505Y-41584296D01*
X115902866Y-41599652D01*
X115905445Y-41605183D01*
X115928634Y-41638300D01*
X115931587Y-41642936D01*
X115951806Y-41677955D01*
X115982787Y-41703951D01*
X115986829Y-41707655D01*
X117481849Y-43202676D01*
X117485554Y-43206719D01*
X117511544Y-43237693D01*
X117511546Y-43237695D01*
X117546561Y-43257910D01*
X117551198Y-43260864D01*
X117584316Y-43284053D01*
X117589876Y-43286646D01*
X117605196Y-43292992D01*
X117610955Y-43295088D01*
X117650779Y-43302110D01*
X117656126Y-43303294D01*
X117695193Y-43313763D01*
X117726012Y-43311066D01*
X117735470Y-43310240D01*
X117740962Y-43310000D01*
X117833940Y-43310000D01*
X117902061Y-43330002D01*
X117948554Y-43383658D01*
X117952097Y-43392240D01*
X117965111Y-43427381D01*
X117965115Y-43427389D01*
X118072744Y-43600066D01*
X118072754Y-43600079D01*
X118212936Y-43747548D01*
X118212941Y-43747553D01*
X118212944Y-43747555D01*
X118379952Y-43863796D01*
X118379953Y-43863797D01*
X118566938Y-43944039D01*
X118566941Y-43944039D01*
X118566942Y-43944040D01*
X118766259Y-43985000D01*
X118766260Y-43985000D01*
X119718741Y-43985000D01*
X119718742Y-43985000D01*
X119718743Y-43984999D01*
X119718760Y-43984999D01*
X119816214Y-43975088D01*
X119870438Y-43969574D01*
X120064588Y-43908659D01*
X120242502Y-43809909D01*
X120242503Y-43809908D01*
X120242505Y-43809907D01*
X120344874Y-43722024D01*
X120396895Y-43677366D01*
X120521448Y-43516458D01*
X120586197Y-43384458D01*
X120611058Y-43333776D01*
X120611058Y-43333774D01*
X120611060Y-43333771D01*
X120662063Y-43136785D01*
X120672369Y-42933564D01*
X120641556Y-42732429D01*
X120570886Y-42541613D01*
X120515364Y-42452536D01*
X120463255Y-42368933D01*
X120463245Y-42368920D01*
X120323063Y-42221451D01*
X120323061Y-42221449D01*
X120323059Y-42221447D01*
X120233471Y-42159092D01*
X120156047Y-42105203D01*
X120156046Y-42105202D01*
X119969061Y-42024960D01*
X119819570Y-41994240D01*
X119769741Y-41984000D01*
X118817258Y-41984000D01*
X118817239Y-41984000D01*
X118665566Y-41999425D01*
X118665563Y-41999425D01*
X118665562Y-41999426D01*
X118612965Y-42015928D01*
X118471413Y-42060340D01*
X118293494Y-42159092D01*
X118139109Y-42291629D01*
X118139102Y-42291636D01*
X118014555Y-42452536D01*
X118014550Y-42452544D01*
X117972967Y-42537317D01*
X117925009Y-42589667D01*
X117856361Y-42607779D01*
X117788819Y-42585901D01*
X117770749Y-42570922D01*
X116567405Y-41367578D01*
X116533379Y-41305266D01*
X116530500Y-41278483D01*
X116530500Y-41062149D01*
X116550502Y-40994028D01*
X116604158Y-40947535D01*
X116610945Y-40944673D01*
X116742401Y-40893747D01*
X116931562Y-40776624D01*
X117095981Y-40626736D01*
X117230058Y-40449189D01*
X117230059Y-40449185D01*
X117230061Y-40449184D01*
X117329225Y-40250037D01*
X117329226Y-40250033D01*
X117329229Y-40250028D01*
X117390115Y-40036036D01*
X117410643Y-39814500D01*
X117390115Y-39592964D01*
X117348352Y-39446184D01*
X117329231Y-39378979D01*
X117329225Y-39378962D01*
X117230061Y-39179815D01*
X117230057Y-39179810D01*
X117095982Y-39002264D01*
X116931561Y-38852375D01*
X116931560Y-38852374D01*
X116742412Y-38735259D01*
X116742405Y-38735255D01*
X116742401Y-38735253D01*
X116728607Y-38729909D01*
X116534946Y-38654883D01*
X116495972Y-38647597D01*
X116316243Y-38614000D01*
X116093757Y-38614000D01*
X115952674Y-38640373D01*
X115875053Y-38654883D01*
X115667603Y-38735251D01*
X115667587Y-38735259D01*
X115478439Y-38852374D01*
X115478438Y-38852375D01*
X115314017Y-39002264D01*
X115179942Y-39179810D01*
X115179938Y-39179815D01*
X115080774Y-39378962D01*
X115080768Y-39378979D01*
X115019885Y-39592960D01*
X114999357Y-39814500D01*
X113482500Y-39814500D01*
X113482500Y-39112515D01*
X113502502Y-39044394D01*
X113519396Y-39023429D01*
X114275923Y-38266902D01*
X114338233Y-38232879D01*
X114365016Y-38230000D01*
X117833940Y-38230000D01*
X117902061Y-38250002D01*
X117948554Y-38303658D01*
X117952097Y-38312240D01*
X117965111Y-38347381D01*
X117965115Y-38347389D01*
X118072744Y-38520066D01*
X118072754Y-38520079D01*
X118208894Y-38663296D01*
X118212941Y-38667553D01*
X118238419Y-38685286D01*
X118379952Y-38783796D01*
X118379953Y-38783797D01*
X118566938Y-38864039D01*
X118566941Y-38864039D01*
X118566942Y-38864040D01*
X118766259Y-38905000D01*
X118766260Y-38905000D01*
X119718741Y-38905000D01*
X119718742Y-38905000D01*
X119718746Y-38904999D01*
X119718753Y-38904999D01*
X119730833Y-38903770D01*
X119740385Y-38902799D01*
X119810180Y-38915805D01*
X119842231Y-38939057D01*
X122065594Y-41162420D01*
X122099620Y-41224732D01*
X122102499Y-41251515D01*
X122102499Y-45131531D01*
X122102259Y-45137023D01*
X122098736Y-45177306D01*
X122098736Y-45177308D01*
X122109203Y-45216372D01*
X122110393Y-45221740D01*
X122117412Y-45261547D01*
X122119505Y-45267296D01*
X122125866Y-45282652D01*
X122128445Y-45288183D01*
X122151634Y-45321300D01*
X122154587Y-45325936D01*
X122174806Y-45360955D01*
X122205787Y-45386951D01*
X122209829Y-45390655D01*
X123836844Y-47017670D01*
X123840547Y-47021711D01*
X123866545Y-47052694D01*
X123892777Y-47067839D01*
X123901558Y-47072909D01*
X123906196Y-47075863D01*
X123939316Y-47099054D01*
X123944870Y-47101644D01*
X123960181Y-47107985D01*
X123965949Y-47110085D01*
X123965955Y-47110088D01*
X124005782Y-47117110D01*
X124011114Y-47118292D01*
X124050193Y-47128764D01*
X124080986Y-47126070D01*
X124090482Y-47125240D01*
X124095974Y-47125000D01*
X125706188Y-47125000D01*
X125774309Y-47145002D01*
X125820802Y-47198658D01*
X125830906Y-47268932D01*
X125801412Y-47333512D01*
X125788262Y-47346603D01*
X125759105Y-47371633D01*
X125759102Y-47371636D01*
X125634555Y-47532536D01*
X125634550Y-47532544D01*
X125544941Y-47715223D01*
X125493936Y-47912219D01*
X125493936Y-47912222D01*
X125483630Y-48115435D01*
X125490058Y-48157391D01*
X125480602Y-48227755D01*
X125454606Y-48265566D01*
X123098843Y-50621329D01*
X123094792Y-50625042D01*
X123063806Y-50651044D01*
X123063804Y-50651047D01*
X123043589Y-50686058D01*
X123040638Y-50690691D01*
X123017445Y-50723816D01*
X123014873Y-50729332D01*
X123008493Y-50744735D01*
X123006412Y-50750453D01*
X123003585Y-50766485D01*
X122972057Y-50830097D01*
X122911142Y-50866565D01*
X122840181Y-50864311D01*
X122781704Y-50824050D01*
X122754276Y-50758566D01*
X122753500Y-50744603D01*
X122753500Y-48721459D01*
X122753740Y-48715965D01*
X122757264Y-48675693D01*
X122746792Y-48636614D01*
X122745610Y-48631282D01*
X122738588Y-48591455D01*
X122738585Y-48591449D01*
X122736485Y-48585681D01*
X122730144Y-48570370D01*
X122727554Y-48564816D01*
X122704363Y-48531696D01*
X122701409Y-48527058D01*
X122681193Y-48492044D01*
X122650212Y-48466047D01*
X122646169Y-48462343D01*
X122030165Y-47846339D01*
X122026450Y-47842286D01*
X122000454Y-47811305D01*
X122000451Y-47811303D01*
X121965435Y-47791086D01*
X121960800Y-47788133D01*
X121927683Y-47764945D01*
X121922152Y-47762366D01*
X121906796Y-47756005D01*
X121901047Y-47753912D01*
X121877174Y-47749702D01*
X121861234Y-47746891D01*
X121855872Y-47745703D01*
X121816808Y-47735236D01*
X121816805Y-47735236D01*
X121805127Y-47736257D01*
X121776524Y-47738760D01*
X121771040Y-47739000D01*
X120702060Y-47739000D01*
X120633939Y-47718998D01*
X120587446Y-47665342D01*
X120583903Y-47656760D01*
X120570888Y-47621618D01*
X120570884Y-47621610D01*
X120564554Y-47611455D01*
X120538550Y-47569735D01*
X120463255Y-47448933D01*
X120463245Y-47448920D01*
X120323063Y-47301451D01*
X120323061Y-47301449D01*
X120323059Y-47301447D01*
X120323055Y-47301444D01*
X120156047Y-47185203D01*
X120156046Y-47185202D01*
X119969061Y-47104960D01*
X119813093Y-47072909D01*
X119769741Y-47064000D01*
X118817258Y-47064000D01*
X118817239Y-47064000D01*
X118665566Y-47079425D01*
X118665563Y-47079425D01*
X118665562Y-47079426D01*
X118612965Y-47095928D01*
X118471413Y-47140340D01*
X118293494Y-47239092D01*
X118139109Y-47371629D01*
X118139102Y-47371636D01*
X118014555Y-47532536D01*
X118014553Y-47532539D01*
X118000349Y-47561496D01*
X117947865Y-47668491D01*
X117899910Y-47720840D01*
X117834744Y-47739000D01*
X116569878Y-47739000D01*
X116501757Y-47718998D01*
X116455264Y-47665342D01*
X116444485Y-47600649D01*
X116448341Y-47561501D01*
X116448341Y-47561496D01*
X116429025Y-47365375D01*
X116429025Y-47365373D01*
X116429024Y-47365370D01*
X116429024Y-47365368D01*
X116371814Y-47176773D01*
X116278910Y-47002962D01*
X116153883Y-46850617D01*
X116001538Y-46725590D01*
X116001537Y-46725589D01*
X115827728Y-46632686D01*
X115639125Y-46575474D01*
X115443003Y-46556159D01*
X115442997Y-46556159D01*
X115246875Y-46575474D01*
X115246873Y-46575474D01*
X115058271Y-46632686D01*
X114884461Y-46725590D01*
X114732117Y-46850617D01*
X114607090Y-47002961D01*
X114514186Y-47176771D01*
X114456974Y-47365373D01*
X114456974Y-47365375D01*
X114437659Y-47561496D01*
X114437659Y-47561503D01*
X114456974Y-47757624D01*
X114456974Y-47757626D01*
X114514186Y-47946228D01*
X114564169Y-48039739D01*
X114607090Y-48120038D01*
X114732117Y-48272383D01*
X114884462Y-48397410D01*
X115058273Y-48490314D01*
X115246868Y-48547524D01*
X115246872Y-48547524D01*
X115246874Y-48547525D01*
X115442997Y-48566841D01*
X115443000Y-48566841D01*
X115443003Y-48566841D01*
X115639124Y-48547525D01*
X115639126Y-48547525D01*
X115639127Y-48547524D01*
X115639132Y-48547524D01*
X115827727Y-48490314D01*
X115987566Y-48404877D01*
X116046962Y-48390000D01*
X117833940Y-48390000D01*
X117902061Y-48410002D01*
X117948554Y-48463658D01*
X117952097Y-48472240D01*
X117965111Y-48507381D01*
X117965115Y-48507389D01*
X118072744Y-48680066D01*
X118072754Y-48680079D01*
X118208894Y-48823296D01*
X118212941Y-48827553D01*
X118250455Y-48853663D01*
X118379952Y-48943796D01*
X118379953Y-48943797D01*
X118566938Y-49024039D01*
X118566941Y-49024039D01*
X118566942Y-49024040D01*
X118766259Y-49065000D01*
X118766260Y-49065000D01*
X119718741Y-49065000D01*
X119718742Y-49065000D01*
X119718743Y-49064999D01*
X119718760Y-49064999D01*
X119812833Y-49055431D01*
X119870438Y-49049574D01*
X120064588Y-48988659D01*
X120242502Y-48889909D01*
X120242503Y-48889908D01*
X120242505Y-48889907D01*
X120396890Y-48757370D01*
X120396895Y-48757366D01*
X120521448Y-48596458D01*
X120588134Y-48460508D01*
X120636090Y-48408160D01*
X120701256Y-48390000D01*
X121600984Y-48390000D01*
X121669105Y-48410002D01*
X121690079Y-48426905D01*
X122065594Y-48802420D01*
X122099620Y-48864732D01*
X122102499Y-48891515D01*
X122102500Y-51692483D01*
X122082498Y-51760604D01*
X122065595Y-51781578D01*
X119923843Y-53923330D01*
X119919792Y-53927042D01*
X119888806Y-53953044D01*
X119888804Y-53953047D01*
X119868589Y-53988058D01*
X119865638Y-53992691D01*
X119842445Y-54025816D01*
X119839873Y-54031332D01*
X119833493Y-54046735D01*
X119831412Y-54052452D01*
X119824392Y-54092261D01*
X119823203Y-54097626D01*
X119812736Y-54136692D01*
X119812736Y-54136694D01*
X119816260Y-54176965D01*
X119816500Y-54182459D01*
X119816500Y-57196539D01*
X119816260Y-57202032D01*
X119812736Y-57242304D01*
X119812736Y-57242306D01*
X119823203Y-57281372D01*
X119824393Y-57286740D01*
X119831412Y-57326547D01*
X119833505Y-57332296D01*
X119839866Y-57347652D01*
X119842445Y-57353183D01*
X119865634Y-57386300D01*
X119868587Y-57390936D01*
X119888806Y-57425955D01*
X119919781Y-57451947D01*
X119923835Y-57455662D01*
X120280844Y-57812671D01*
X120284559Y-57816725D01*
X120310544Y-57847693D01*
X120310546Y-57847695D01*
X120329958Y-57858902D01*
X120345566Y-57867913D01*
X120350183Y-57870854D01*
X120383316Y-57894054D01*
X120383320Y-57894055D01*
X120388876Y-57896646D01*
X120404182Y-57902986D01*
X120409949Y-57905085D01*
X120409955Y-57905088D01*
X120449784Y-57912110D01*
X120455131Y-57913296D01*
X120494193Y-57923763D01*
X120519539Y-57921545D01*
X120534470Y-57920240D01*
X120539962Y-57920000D01*
X121071392Y-57920000D01*
X121130787Y-57934877D01*
X121281273Y-58015314D01*
X121469868Y-58072524D01*
X121469872Y-58072524D01*
X121469874Y-58072525D01*
X121665997Y-58091841D01*
X121666000Y-58091841D01*
X121666003Y-58091841D01*
X121862124Y-58072525D01*
X121862126Y-58072525D01*
X121862127Y-58072524D01*
X121862132Y-58072524D01*
X122050727Y-58015314D01*
X122224538Y-57922410D01*
X122376883Y-57797383D01*
X122501910Y-57645038D01*
X122522988Y-57605603D01*
X122572740Y-57554956D01*
X122634110Y-57539000D01*
X125161984Y-57539000D01*
X125230105Y-57559002D01*
X125251078Y-57575904D01*
X126376849Y-58701676D01*
X126380554Y-58705719D01*
X126406544Y-58736693D01*
X126406546Y-58736695D01*
X126425958Y-58747902D01*
X126441564Y-58756912D01*
X126446183Y-58759854D01*
X126479316Y-58783054D01*
X126479320Y-58783055D01*
X126484876Y-58785646D01*
X126500182Y-58791986D01*
X126505949Y-58794085D01*
X126505955Y-58794088D01*
X126545784Y-58801110D01*
X126551131Y-58802296D01*
X126590193Y-58812763D01*
X126615539Y-58810545D01*
X126630470Y-58809240D01*
X126635962Y-58809000D01*
X134222040Y-58809000D01*
X134227525Y-58809239D01*
X134267807Y-58812764D01*
X134267815Y-58812762D01*
X134280958Y-58809240D01*
X134306870Y-58802296D01*
X134312231Y-58801107D01*
X134352045Y-58794088D01*
X134352047Y-58794086D01*
X134357838Y-58791979D01*
X134373101Y-58785657D01*
X134378681Y-58783055D01*
X134378681Y-58783054D01*
X134378684Y-58783054D01*
X134411817Y-58759852D01*
X134416428Y-58756915D01*
X134451455Y-58736694D01*
X134477453Y-58705709D01*
X134481146Y-58701678D01*
X135226574Y-57956250D01*
X138781500Y-57956250D01*
X138784360Y-57970630D01*
X138793133Y-58014731D01*
X138837448Y-58081052D01*
X138903769Y-58125367D01*
X138962252Y-58137000D01*
X138962253Y-58137000D01*
X140701747Y-58137000D01*
X140701748Y-58137000D01*
X140760231Y-58125367D01*
X140826552Y-58081052D01*
X140870867Y-58014731D01*
X140882500Y-57956248D01*
X140882500Y-57086503D01*
X143856417Y-57086503D01*
X143876698Y-57292427D01*
X143876699Y-57292433D01*
X143876700Y-57292434D01*
X143926214Y-57455662D01*
X143936768Y-57490454D01*
X144019395Y-57645038D01*
X144034315Y-57672950D01*
X144165590Y-57832910D01*
X144325550Y-57964185D01*
X144508046Y-58061732D01*
X144706066Y-58121800D01*
X144706070Y-58121800D01*
X144706072Y-58121801D01*
X144911997Y-58142083D01*
X144912000Y-58142083D01*
X144912003Y-58142083D01*
X145117927Y-58121801D01*
X145117928Y-58121800D01*
X145117934Y-58121800D01*
X145315954Y-58061732D01*
X145498450Y-57964185D01*
X145658410Y-57832910D01*
X145789685Y-57672950D01*
X145887232Y-57490454D01*
X145947300Y-57292434D01*
X145948129Y-57284025D01*
X145967583Y-57086503D01*
X148936417Y-57086503D01*
X148956698Y-57292427D01*
X148956699Y-57292433D01*
X148956700Y-57292434D01*
X149006214Y-57455662D01*
X149016768Y-57490454D01*
X149099395Y-57645038D01*
X149114315Y-57672950D01*
X149245590Y-57832910D01*
X149405550Y-57964185D01*
X149588046Y-58061732D01*
X149786066Y-58121800D01*
X149786070Y-58121800D01*
X149786072Y-58121801D01*
X149991997Y-58142083D01*
X149992000Y-58142083D01*
X149992003Y-58142083D01*
X150197927Y-58121801D01*
X150197928Y-58121800D01*
X150197934Y-58121800D01*
X150395954Y-58061732D01*
X150578450Y-57964185D01*
X150738410Y-57832910D01*
X150869685Y-57672950D01*
X150967232Y-57490454D01*
X151027300Y-57292434D01*
X151028129Y-57284025D01*
X151047583Y-57086503D01*
X151047583Y-57086496D01*
X151027301Y-56880572D01*
X151027300Y-56880570D01*
X151027300Y-56880566D01*
X150967232Y-56682546D01*
X150869685Y-56500050D01*
X150738410Y-56340090D01*
X150578450Y-56208815D01*
X150578448Y-56208814D01*
X150578447Y-56208813D01*
X150395954Y-56111268D01*
X150360377Y-56100476D01*
X150197934Y-56051200D01*
X150197933Y-56051199D01*
X150197927Y-56051198D01*
X149992003Y-56030917D01*
X149991997Y-56030917D01*
X149786072Y-56051198D01*
X149588045Y-56111268D01*
X149405552Y-56208813D01*
X149245590Y-56340090D01*
X149114313Y-56500052D01*
X149016768Y-56682545D01*
X148956698Y-56880572D01*
X148936417Y-57086496D01*
X148936417Y-57086503D01*
X145967583Y-57086503D01*
X145967583Y-57086496D01*
X145947301Y-56880572D01*
X145947300Y-56880570D01*
X145947300Y-56880566D01*
X145887232Y-56682546D01*
X145789685Y-56500050D01*
X145658410Y-56340090D01*
X145498450Y-56208815D01*
X145498448Y-56208814D01*
X145498447Y-56208813D01*
X145315954Y-56111268D01*
X145280377Y-56100476D01*
X145117934Y-56051200D01*
X145117933Y-56051199D01*
X145117927Y-56051198D01*
X144912003Y-56030917D01*
X144911997Y-56030917D01*
X144706072Y-56051198D01*
X144508045Y-56111268D01*
X144325552Y-56208813D01*
X144165590Y-56340090D01*
X144034313Y-56500052D01*
X143936768Y-56682545D01*
X143876698Y-56880572D01*
X143856417Y-57086496D01*
X143856417Y-57086503D01*
X140882500Y-57086503D01*
X140882500Y-56216752D01*
X140870867Y-56158269D01*
X140826552Y-56091948D01*
X140760231Y-56047633D01*
X140760228Y-56047632D01*
X140701750Y-56036000D01*
X140701748Y-56036000D01*
X138962252Y-56036000D01*
X138962249Y-56036000D01*
X138903771Y-56047632D01*
X138903768Y-56047633D01*
X138837448Y-56091948D01*
X138793133Y-56158268D01*
X138793132Y-56158271D01*
X138781500Y-56216749D01*
X138781500Y-57956250D01*
X135226574Y-57956250D01*
X136870192Y-56312633D01*
X136874210Y-56308951D01*
X136905194Y-56282955D01*
X136925421Y-56247918D01*
X136928352Y-56243317D01*
X136951554Y-56210184D01*
X136951554Y-56210181D01*
X136954147Y-56204622D01*
X136960480Y-56189333D01*
X136962585Y-56183549D01*
X136962588Y-56183545D01*
X136969611Y-56143706D01*
X136970791Y-56138384D01*
X136980950Y-56100476D01*
X136981263Y-56099308D01*
X136977740Y-56059029D01*
X136977500Y-56053537D01*
X136977500Y-51860250D01*
X141067500Y-51860250D01*
X141078191Y-51913999D01*
X141079133Y-51918731D01*
X141123448Y-51985052D01*
X141189769Y-52029367D01*
X141248252Y-52041000D01*
X141248253Y-52041000D01*
X142987747Y-52041000D01*
X142987748Y-52041000D01*
X143046231Y-52029367D01*
X143112552Y-51985052D01*
X143156867Y-51918731D01*
X143168500Y-51860248D01*
X143168500Y-51733250D01*
X147920500Y-51733250D01*
X147923619Y-51748932D01*
X147932133Y-51791731D01*
X147976448Y-51858052D01*
X148042769Y-51902367D01*
X148101252Y-51914000D01*
X148101253Y-51914000D01*
X149840747Y-51914000D01*
X149840748Y-51914000D01*
X149899231Y-51902367D01*
X149965552Y-51858052D01*
X150009867Y-51791731D01*
X150021500Y-51733248D01*
X150021500Y-49993752D01*
X150009867Y-49935269D01*
X149965552Y-49868948D01*
X149899231Y-49824633D01*
X149899228Y-49824632D01*
X149840750Y-49813000D01*
X149840748Y-49813000D01*
X148101252Y-49813000D01*
X148101249Y-49813000D01*
X148042771Y-49824632D01*
X148042768Y-49824633D01*
X147976448Y-49868948D01*
X147932133Y-49935268D01*
X147932132Y-49935271D01*
X147920500Y-49993749D01*
X147920500Y-51733250D01*
X143168500Y-51733250D01*
X143168500Y-50120752D01*
X143156867Y-50062269D01*
X143112552Y-49995948D01*
X143046231Y-49951633D01*
X143046228Y-49951632D01*
X142987750Y-49940000D01*
X142987748Y-49940000D01*
X141248252Y-49940000D01*
X141248249Y-49940000D01*
X141189771Y-49951632D01*
X141189768Y-49951633D01*
X141123448Y-49995948D01*
X141079133Y-50062268D01*
X141079132Y-50062271D01*
X141067500Y-50120749D01*
X141067500Y-51860250D01*
X136977500Y-51860250D01*
X136977500Y-48577500D01*
X137316318Y-48577500D01*
X137336955Y-48734260D01*
X137390999Y-48864732D01*
X137397464Y-48880341D01*
X137493718Y-49005782D01*
X137619159Y-49102036D01*
X137765238Y-49162544D01*
X137922000Y-49183182D01*
X138078762Y-49162544D01*
X138224841Y-49102036D01*
X138350282Y-49005782D01*
X138446536Y-48880341D01*
X138507044Y-48734262D01*
X138527682Y-48577500D01*
X138521355Y-48529445D01*
X138510052Y-48443587D01*
X138507044Y-48420738D01*
X138446536Y-48274659D01*
X138386563Y-48196500D01*
X139221318Y-48196500D01*
X139241955Y-48353260D01*
X139287684Y-48463658D01*
X139302464Y-48499341D01*
X139398718Y-48624782D01*
X139524159Y-48721036D01*
X139670238Y-48781544D01*
X139827000Y-48802182D01*
X139983762Y-48781544D01*
X140129841Y-48721036D01*
X140255282Y-48624782D01*
X140345048Y-48507795D01*
X140402386Y-48465929D01*
X140445011Y-48458500D01*
X146228540Y-48458500D01*
X146234025Y-48458739D01*
X146274307Y-48462264D01*
X146313370Y-48451796D01*
X146318731Y-48450607D01*
X146358545Y-48443588D01*
X146358547Y-48443586D01*
X146364338Y-48441479D01*
X146379601Y-48435157D01*
X146385181Y-48432555D01*
X146385181Y-48432554D01*
X146385184Y-48432554D01*
X146418317Y-48409352D01*
X146422928Y-48406415D01*
X146457955Y-48386194D01*
X146483953Y-48355209D01*
X146487646Y-48351178D01*
X148810061Y-46028764D01*
X148872371Y-45994740D01*
X148943187Y-45999805D01*
X148947387Y-46001458D01*
X148948035Y-46001726D01*
X148948046Y-46001732D01*
X149146066Y-46061800D01*
X149146070Y-46061800D01*
X149146072Y-46061801D01*
X149351997Y-46082083D01*
X149352000Y-46082083D01*
X149352003Y-46082083D01*
X149557927Y-46061801D01*
X149557928Y-46061800D01*
X149557934Y-46061800D01*
X149755954Y-46001732D01*
X149938450Y-45904185D01*
X150098410Y-45772910D01*
X150229685Y-45612950D01*
X150327232Y-45430454D01*
X150387300Y-45232434D01*
X150388354Y-45221740D01*
X150407583Y-45026503D01*
X150407583Y-45026496D01*
X150387301Y-44820572D01*
X150387300Y-44820570D01*
X150387300Y-44820566D01*
X150327232Y-44622546D01*
X150229685Y-44440050D01*
X150098410Y-44280090D01*
X149938450Y-44148815D01*
X149938448Y-44148814D01*
X149938447Y-44148813D01*
X149755954Y-44051268D01*
X149622768Y-44010867D01*
X149557934Y-43991200D01*
X149557933Y-43991199D01*
X149557927Y-43991198D01*
X149352003Y-43970917D01*
X149351997Y-43970917D01*
X149146072Y-43991198D01*
X148948045Y-44051268D01*
X148765552Y-44148813D01*
X148605590Y-44280090D01*
X148474313Y-44440052D01*
X148376768Y-44622545D01*
X148316698Y-44820572D01*
X148296417Y-45026496D01*
X148296417Y-45026503D01*
X148316698Y-45232427D01*
X148376770Y-45430463D01*
X148377047Y-45431130D01*
X148377087Y-45431507D01*
X148378565Y-45436378D01*
X148377641Y-45436658D01*
X148384634Y-45501720D01*
X148352853Y-45565206D01*
X148349733Y-45568439D01*
X146147577Y-47770596D01*
X146085267Y-47804620D01*
X146058484Y-47807500D01*
X140346755Y-47807500D01*
X140278634Y-47787498D01*
X140257660Y-47770595D01*
X140255288Y-47768223D01*
X140255282Y-47768218D01*
X140129841Y-47671964D01*
X140113855Y-47665342D01*
X139983760Y-47611455D01*
X139827000Y-47590818D01*
X139670239Y-47611455D01*
X139524160Y-47671963D01*
X139524157Y-47671965D01*
X139398718Y-47768218D01*
X139302465Y-47893657D01*
X139302463Y-47893660D01*
X139241955Y-48039739D01*
X139221318Y-48196499D01*
X139221318Y-48196500D01*
X138386563Y-48196500D01*
X138350282Y-48149218D01*
X138350280Y-48149216D01*
X138350279Y-48149215D01*
X138296796Y-48108176D01*
X138254929Y-48050838D01*
X138247500Y-48008214D01*
X138247500Y-47875515D01*
X138267502Y-47807394D01*
X138284396Y-47786429D01*
X139035923Y-47034902D01*
X139098233Y-47000879D01*
X139125016Y-46998000D01*
X142477040Y-46998000D01*
X142482525Y-46998239D01*
X142522807Y-47001764D01*
X142561870Y-46991296D01*
X142567231Y-46990107D01*
X142607045Y-46983088D01*
X142607047Y-46983086D01*
X142612838Y-46980979D01*
X142628101Y-46974657D01*
X142633681Y-46972055D01*
X142633681Y-46972054D01*
X142633684Y-46972054D01*
X142666817Y-46948852D01*
X142671428Y-46945915D01*
X142706455Y-46925694D01*
X142732448Y-46894715D01*
X142736151Y-46890673D01*
X143125186Y-46501639D01*
X143129217Y-46497946D01*
X143160194Y-46471955D01*
X143180421Y-46436918D01*
X143183352Y-46432317D01*
X143206554Y-46399184D01*
X143206554Y-46399181D01*
X143209147Y-46393622D01*
X143215480Y-46378333D01*
X143217585Y-46372549D01*
X143217588Y-46372545D01*
X143224611Y-46332706D01*
X143225791Y-46327384D01*
X143236263Y-46288307D01*
X143235842Y-46283504D01*
X143232740Y-46248029D01*
X143232500Y-46242537D01*
X143232500Y-45767924D01*
X143252502Y-45699803D01*
X143306158Y-45653310D01*
X143376432Y-45643206D01*
X143441012Y-45672700D01*
X143455894Y-45687985D01*
X143525590Y-45772910D01*
X143685550Y-45904185D01*
X143868046Y-46001732D01*
X144066066Y-46061800D01*
X144066070Y-46061800D01*
X144066072Y-46061801D01*
X144271997Y-46082083D01*
X144272000Y-46082083D01*
X144272003Y-46082083D01*
X144477927Y-46061801D01*
X144477928Y-46061800D01*
X144477934Y-46061800D01*
X144675954Y-46001732D01*
X144858450Y-45904185D01*
X145018410Y-45772910D01*
X145149685Y-45612950D01*
X145247232Y-45430454D01*
X145307300Y-45232434D01*
X145308354Y-45221740D01*
X145327583Y-45026503D01*
X145756417Y-45026503D01*
X145776698Y-45232427D01*
X145836768Y-45430454D01*
X145913966Y-45574881D01*
X145934315Y-45612950D01*
X146065590Y-45772910D01*
X146225550Y-45904185D01*
X146408046Y-46001732D01*
X146606066Y-46061800D01*
X146606070Y-46061800D01*
X146606072Y-46061801D01*
X146811997Y-46082083D01*
X146812000Y-46082083D01*
X146812003Y-46082083D01*
X147017927Y-46061801D01*
X147017928Y-46061800D01*
X147017934Y-46061800D01*
X147215954Y-46001732D01*
X147398450Y-45904185D01*
X147558410Y-45772910D01*
X147689685Y-45612950D01*
X147787232Y-45430454D01*
X147847300Y-45232434D01*
X147848354Y-45221740D01*
X147867583Y-45026503D01*
X147867583Y-45026496D01*
X147847301Y-44820572D01*
X147847300Y-44820570D01*
X147847300Y-44820566D01*
X147787232Y-44622546D01*
X147689685Y-44440050D01*
X147558410Y-44280090D01*
X147398450Y-44148815D01*
X147398448Y-44148814D01*
X147398447Y-44148813D01*
X147215954Y-44051268D01*
X147082768Y-44010867D01*
X147017934Y-43991200D01*
X147017933Y-43991199D01*
X147017927Y-43991198D01*
X146812003Y-43970917D01*
X146811997Y-43970917D01*
X146606072Y-43991198D01*
X146408045Y-44051268D01*
X146225552Y-44148813D01*
X146065590Y-44280090D01*
X145934313Y-44440052D01*
X145836768Y-44622545D01*
X145776698Y-44820572D01*
X145756417Y-45026496D01*
X145756417Y-45026503D01*
X145327583Y-45026503D01*
X145327583Y-45026496D01*
X145307301Y-44820572D01*
X145307300Y-44820570D01*
X145307300Y-44820566D01*
X145247232Y-44622546D01*
X145149685Y-44440050D01*
X145018410Y-44280090D01*
X144858450Y-44148815D01*
X144858448Y-44148814D01*
X144858447Y-44148813D01*
X144675954Y-44051268D01*
X144542768Y-44010867D01*
X144477934Y-43991200D01*
X144477933Y-43991199D01*
X144477927Y-43991198D01*
X144272003Y-43970917D01*
X144271997Y-43970917D01*
X144066072Y-43991198D01*
X143868045Y-44051268D01*
X143685552Y-44148813D01*
X143525589Y-44280090D01*
X143455900Y-44365008D01*
X143397222Y-44404977D01*
X143326251Y-44406878D01*
X143265519Y-44370107D01*
X143234307Y-44306339D01*
X143232500Y-44285075D01*
X143232500Y-44038514D01*
X143252502Y-43970393D01*
X143269400Y-43949424D01*
X143730060Y-43488764D01*
X143792370Y-43454740D01*
X143863185Y-43459805D01*
X143867379Y-43461456D01*
X143868042Y-43461731D01*
X143908929Y-43474133D01*
X144066066Y-43521800D01*
X144066070Y-43521800D01*
X144066072Y-43521801D01*
X144271997Y-43542083D01*
X144272000Y-43542083D01*
X144272003Y-43542083D01*
X144477927Y-43521801D01*
X144477928Y-43521800D01*
X144477934Y-43521800D01*
X144675954Y-43461732D01*
X144858450Y-43364185D01*
X145018410Y-43232910D01*
X145149685Y-43072950D01*
X145247232Y-42890454D01*
X145307300Y-42692434D01*
X145312935Y-42635229D01*
X145327583Y-42486503D01*
X145756417Y-42486503D01*
X145776698Y-42692427D01*
X145836768Y-42890454D01*
X145914262Y-43035435D01*
X145934315Y-43072950D01*
X146065590Y-43232910D01*
X146225550Y-43364185D01*
X146408046Y-43461732D01*
X146606066Y-43521800D01*
X146606070Y-43521800D01*
X146606072Y-43521801D01*
X146811997Y-43542083D01*
X146812000Y-43542083D01*
X146812003Y-43542083D01*
X147017927Y-43521801D01*
X147017928Y-43521800D01*
X147017934Y-43521800D01*
X147215954Y-43461732D01*
X147398450Y-43364185D01*
X147558410Y-43232910D01*
X147689685Y-43072950D01*
X147787232Y-42890454D01*
X147847300Y-42692434D01*
X147852935Y-42635229D01*
X147867583Y-42486503D01*
X148296417Y-42486503D01*
X148316698Y-42692427D01*
X148376768Y-42890454D01*
X148454262Y-43035435D01*
X148474315Y-43072950D01*
X148605590Y-43232910D01*
X148765550Y-43364185D01*
X148948046Y-43461732D01*
X149146066Y-43521800D01*
X149146070Y-43521800D01*
X149146072Y-43521801D01*
X149351997Y-43542083D01*
X149352000Y-43542083D01*
X149352003Y-43542083D01*
X149557927Y-43521801D01*
X149557928Y-43521800D01*
X149557934Y-43521800D01*
X149755954Y-43461732D01*
X149938450Y-43364185D01*
X150098410Y-43232910D01*
X150229685Y-43072950D01*
X150327232Y-42890454D01*
X150387300Y-42692434D01*
X150392935Y-42635229D01*
X150407583Y-42486503D01*
X150407583Y-42486496D01*
X150387301Y-42280572D01*
X150387300Y-42280570D01*
X150387300Y-42280566D01*
X150327232Y-42082546D01*
X150229685Y-41900050D01*
X150098410Y-41740090D01*
X149938450Y-41608815D01*
X149938448Y-41608814D01*
X149938447Y-41608813D01*
X149755954Y-41511268D01*
X149700037Y-41494306D01*
X149557934Y-41451200D01*
X149557933Y-41451199D01*
X149557927Y-41451198D01*
X149352003Y-41430917D01*
X149351997Y-41430917D01*
X149146072Y-41451198D01*
X148948045Y-41511268D01*
X148765552Y-41608813D01*
X148605590Y-41740090D01*
X148474313Y-41900052D01*
X148376768Y-42082545D01*
X148316698Y-42280572D01*
X148296417Y-42486496D01*
X148296417Y-42486503D01*
X147867583Y-42486503D01*
X147867583Y-42486496D01*
X147847301Y-42280572D01*
X147847300Y-42280570D01*
X147847300Y-42280566D01*
X147787232Y-42082546D01*
X147689685Y-41900050D01*
X147558410Y-41740090D01*
X147398450Y-41608815D01*
X147398448Y-41608814D01*
X147398447Y-41608813D01*
X147215954Y-41511268D01*
X147160037Y-41494306D01*
X147017934Y-41451200D01*
X147017933Y-41451199D01*
X147017927Y-41451198D01*
X146812003Y-41430917D01*
X146811997Y-41430917D01*
X146606072Y-41451198D01*
X146408045Y-41511268D01*
X146225552Y-41608813D01*
X146065590Y-41740090D01*
X145934313Y-41900052D01*
X145836768Y-42082545D01*
X145776698Y-42280572D01*
X145756417Y-42486496D01*
X145756417Y-42486503D01*
X145327583Y-42486503D01*
X145327583Y-42486496D01*
X145307301Y-42280572D01*
X145307300Y-42280570D01*
X145307300Y-42280566D01*
X145247232Y-42082546D01*
X145149685Y-41900050D01*
X145018410Y-41740090D01*
X144858450Y-41608815D01*
X144858448Y-41608814D01*
X144858447Y-41608813D01*
X144675954Y-41511268D01*
X144620037Y-41494306D01*
X144477934Y-41451200D01*
X144477933Y-41451199D01*
X144477927Y-41451198D01*
X144272003Y-41430917D01*
X144271997Y-41430917D01*
X144066072Y-41451198D01*
X143868045Y-41511268D01*
X143685552Y-41608813D01*
X143525590Y-41740090D01*
X143394313Y-41900052D01*
X143296768Y-42082545D01*
X143236698Y-42280572D01*
X143216417Y-42486496D01*
X143216417Y-42486503D01*
X143236698Y-42692427D01*
X143296770Y-42890461D01*
X143297050Y-42891137D01*
X143297091Y-42891518D01*
X143298565Y-42896378D01*
X143297643Y-42896657D01*
X143304633Y-42961728D01*
X143272848Y-43025212D01*
X143269732Y-43028440D01*
X142688843Y-43609329D01*
X142684792Y-43613042D01*
X142653806Y-43639044D01*
X142653804Y-43639047D01*
X142633589Y-43674058D01*
X142630638Y-43678691D01*
X142607445Y-43711816D01*
X142604873Y-43717332D01*
X142598493Y-43732735D01*
X142596412Y-43738452D01*
X142589392Y-43778261D01*
X142588203Y-43783626D01*
X142577736Y-43822692D01*
X142577736Y-43822694D01*
X142581260Y-43862965D01*
X142581500Y-43868459D01*
X142581500Y-46072482D01*
X142561498Y-46140603D01*
X142544596Y-46161577D01*
X142396079Y-46310095D01*
X142333767Y-46344120D01*
X142306983Y-46347000D01*
X138954960Y-46347000D01*
X138949475Y-46346760D01*
X138919297Y-46344120D01*
X138909195Y-46343236D01*
X138909192Y-46343236D01*
X138870126Y-46353703D01*
X138864761Y-46354892D01*
X138824952Y-46361912D01*
X138819235Y-46363993D01*
X138803832Y-46370373D01*
X138798316Y-46372945D01*
X138765191Y-46396138D01*
X138760558Y-46399089D01*
X138725547Y-46419304D01*
X138725545Y-46419305D01*
X138699547Y-46450287D01*
X138695834Y-46454339D01*
X137703843Y-47446329D01*
X137699792Y-47450042D01*
X137668806Y-47476044D01*
X137668804Y-47476047D01*
X137648589Y-47511058D01*
X137645638Y-47515691D01*
X137622445Y-47548816D01*
X137619873Y-47554332D01*
X137613493Y-47569735D01*
X137611412Y-47575452D01*
X137604392Y-47615261D01*
X137603203Y-47620626D01*
X137592736Y-47659692D01*
X137592736Y-47659694D01*
X137596260Y-47699965D01*
X137596500Y-47705459D01*
X137596500Y-48008214D01*
X137576498Y-48076335D01*
X137547204Y-48108176D01*
X137493720Y-48149215D01*
X137397465Y-48274657D01*
X137397463Y-48274660D01*
X137336955Y-48420739D01*
X137316318Y-48577499D01*
X137316318Y-48577500D01*
X136977500Y-48577500D01*
X136977500Y-46203000D01*
X136997502Y-46134879D01*
X137051158Y-46088386D01*
X137103500Y-46077000D01*
X137521747Y-46077000D01*
X137521748Y-46077000D01*
X137580231Y-46065367D01*
X137646552Y-46021052D01*
X137690867Y-45954731D01*
X137702500Y-45896248D01*
X137702500Y-44301516D01*
X137722502Y-44233396D01*
X137776158Y-44186903D01*
X137846432Y-44176799D01*
X137911012Y-44206293D01*
X137917590Y-44212416D01*
X138070181Y-44365008D01*
X138189733Y-44484560D01*
X138223758Y-44546872D01*
X138218693Y-44617688D01*
X138217050Y-44621863D01*
X138216770Y-44622538D01*
X138156698Y-44820572D01*
X138136417Y-45026496D01*
X138136417Y-45026503D01*
X138156698Y-45232427D01*
X138216768Y-45430454D01*
X138293966Y-45574881D01*
X138314315Y-45612950D01*
X138445590Y-45772910D01*
X138605550Y-45904185D01*
X138788046Y-46001732D01*
X138986066Y-46061800D01*
X138986070Y-46061800D01*
X138986072Y-46061801D01*
X139191997Y-46082083D01*
X139192000Y-46082083D01*
X139192003Y-46082083D01*
X139397927Y-46061801D01*
X139397928Y-46061800D01*
X139397934Y-46061800D01*
X139595954Y-46001732D01*
X139778450Y-45904185D01*
X139938410Y-45772910D01*
X140069685Y-45612950D01*
X140167232Y-45430454D01*
X140227300Y-45232434D01*
X140228354Y-45221740D01*
X140247583Y-45026503D01*
X140247583Y-45026496D01*
X140227301Y-44820572D01*
X140227300Y-44820570D01*
X140227300Y-44820566D01*
X140167232Y-44622546D01*
X140069685Y-44440050D01*
X139938410Y-44280090D01*
X139778450Y-44148815D01*
X139778448Y-44148814D01*
X139778447Y-44148813D01*
X139595954Y-44051268D01*
X139462768Y-44010867D01*
X139397934Y-43991200D01*
X139397933Y-43991199D01*
X139397927Y-43991198D01*
X139192003Y-43970917D01*
X139191997Y-43970917D01*
X138986072Y-43991198D01*
X138788039Y-44051269D01*
X138787356Y-44051553D01*
X138786969Y-44051594D01*
X138782122Y-44053065D01*
X138781842Y-44052144D01*
X138716765Y-44059132D01*
X138653282Y-44027343D01*
X138650059Y-44024232D01*
X138284405Y-43658578D01*
X138250379Y-43596266D01*
X138247500Y-43569483D01*
X138247500Y-43336746D01*
X138267502Y-43268625D01*
X138321158Y-43222132D01*
X138391432Y-43212028D01*
X138453431Y-43239345D01*
X138605550Y-43364185D01*
X138788046Y-43461732D01*
X138986066Y-43521800D01*
X138986070Y-43521800D01*
X138986072Y-43521801D01*
X139191997Y-43542083D01*
X139192000Y-43542083D01*
X139192003Y-43542083D01*
X139397927Y-43521801D01*
X139397928Y-43521800D01*
X139397934Y-43521800D01*
X139595954Y-43461732D01*
X139778450Y-43364185D01*
X139938410Y-43232910D01*
X140069685Y-43072950D01*
X140167232Y-42890454D01*
X140227300Y-42692434D01*
X140232935Y-42635229D01*
X140247583Y-42486503D01*
X140676417Y-42486503D01*
X140696698Y-42692427D01*
X140756768Y-42890454D01*
X140834262Y-43035435D01*
X140854315Y-43072950D01*
X140985590Y-43232910D01*
X141145550Y-43364185D01*
X141328046Y-43461732D01*
X141526066Y-43521800D01*
X141526070Y-43521800D01*
X141526072Y-43521801D01*
X141731997Y-43542083D01*
X141732000Y-43542083D01*
X141732003Y-43542083D01*
X141937927Y-43521801D01*
X141937928Y-43521800D01*
X141937934Y-43521800D01*
X142135954Y-43461732D01*
X142318450Y-43364185D01*
X142478410Y-43232910D01*
X142609685Y-43072950D01*
X142707232Y-42890454D01*
X142767300Y-42692434D01*
X142772935Y-42635229D01*
X142787583Y-42486503D01*
X142787583Y-42486496D01*
X142767301Y-42280572D01*
X142767300Y-42280570D01*
X142767300Y-42280566D01*
X142707232Y-42082546D01*
X142609685Y-41900050D01*
X142478410Y-41740090D01*
X142318450Y-41608815D01*
X142318448Y-41608814D01*
X142318447Y-41608813D01*
X142135954Y-41511268D01*
X142080037Y-41494306D01*
X141937934Y-41451200D01*
X141937933Y-41451199D01*
X141937927Y-41451198D01*
X141732003Y-41430917D01*
X141731997Y-41430917D01*
X141526072Y-41451198D01*
X141328045Y-41511268D01*
X141145552Y-41608813D01*
X140985590Y-41740090D01*
X140854313Y-41900052D01*
X140756768Y-42082545D01*
X140696698Y-42280572D01*
X140676417Y-42486496D01*
X140676417Y-42486503D01*
X140247583Y-42486503D01*
X140247583Y-42486496D01*
X140227301Y-42280572D01*
X140227300Y-42280570D01*
X140227300Y-42280566D01*
X140167232Y-42082546D01*
X140069685Y-41900050D01*
X139938410Y-41740090D01*
X139778450Y-41608815D01*
X139778448Y-41608814D01*
X139778447Y-41608813D01*
X139595954Y-41511268D01*
X139540037Y-41494306D01*
X139397934Y-41451200D01*
X139397933Y-41451199D01*
X139397927Y-41451198D01*
X139192003Y-41430917D01*
X139191997Y-41430917D01*
X138986072Y-41451198D01*
X138788045Y-41511268D01*
X138605552Y-41608813D01*
X138455955Y-41731583D01*
X138390607Y-41759336D01*
X138320629Y-41747354D01*
X138268238Y-41699441D01*
X138250067Y-41630809D01*
X138250502Y-41623199D01*
X138251264Y-41614493D01*
X138240792Y-41575414D01*
X138239610Y-41570082D01*
X138232588Y-41530255D01*
X138232585Y-41530249D01*
X138230485Y-41524481D01*
X138224144Y-41509170D01*
X138221554Y-41503616D01*
X138198363Y-41470496D01*
X138195409Y-41465858D01*
X138185410Y-41448539D01*
X138175194Y-41430845D01*
X138147826Y-41407880D01*
X138144212Y-41404847D01*
X138140169Y-41401143D01*
X137351364Y-40612338D01*
X137347650Y-40608286D01*
X137321655Y-40577306D01*
X137321654Y-40577305D01*
X137321651Y-40577303D01*
X137286635Y-40557086D01*
X137282000Y-40554133D01*
X137248883Y-40530945D01*
X137243352Y-40528366D01*
X137227996Y-40522005D01*
X137222247Y-40519912D01*
X137198374Y-40515702D01*
X137182434Y-40512891D01*
X137177072Y-40511703D01*
X137138008Y-40501236D01*
X137138005Y-40501236D01*
X137126327Y-40502257D01*
X137097724Y-40504760D01*
X137092240Y-40505000D01*
X136534217Y-40505000D01*
X136466096Y-40484998D01*
X136445122Y-40468095D01*
X135185605Y-39208578D01*
X135151579Y-39146266D01*
X135148700Y-39119483D01*
X135148700Y-38961385D01*
X135168702Y-38893264D01*
X135197997Y-38861422D01*
X135202944Y-38857626D01*
X135251482Y-38820382D01*
X135347736Y-38694941D01*
X135408244Y-38548862D01*
X135428882Y-38392100D01*
X135422995Y-38347387D01*
X135410671Y-38253771D01*
X135408244Y-38235338D01*
X135347736Y-38089259D01*
X135251482Y-37963818D01*
X135126041Y-37867564D01*
X135060397Y-37840373D01*
X134979960Y-37807055D01*
X134823200Y-37786418D01*
X134666439Y-37807055D01*
X134520360Y-37867563D01*
X134520357Y-37867565D01*
X134394918Y-37963818D01*
X134298665Y-38089257D01*
X134298663Y-38089260D01*
X134238155Y-38235339D01*
X134217518Y-38392099D01*
X134217518Y-38392100D01*
X134238155Y-38548860D01*
X134287320Y-38667553D01*
X134298664Y-38694941D01*
X134388836Y-38812455D01*
X134394919Y-38820383D01*
X134405705Y-38828659D01*
X134439999Y-38854974D01*
X134448403Y-38861422D01*
X134490271Y-38918759D01*
X134497700Y-38961385D01*
X134497700Y-39289539D01*
X134497460Y-39295032D01*
X134493936Y-39335304D01*
X134493936Y-39335306D01*
X134504403Y-39374372D01*
X134505593Y-39379740D01*
X134512612Y-39419547D01*
X134514705Y-39425296D01*
X134521066Y-39440652D01*
X134523645Y-39446183D01*
X134546834Y-39479300D01*
X134549787Y-39483936D01*
X134570006Y-39518955D01*
X134600987Y-39544951D01*
X134605029Y-39548655D01*
X136105049Y-41048676D01*
X136108754Y-41052719D01*
X136134744Y-41083693D01*
X136134746Y-41083695D01*
X136169761Y-41103910D01*
X136174398Y-41106864D01*
X136207516Y-41130053D01*
X136213076Y-41132646D01*
X136228396Y-41138992D01*
X136234155Y-41141088D01*
X136273979Y-41148110D01*
X136279326Y-41149294D01*
X136318393Y-41159763D01*
X136349212Y-41157066D01*
X136358670Y-41156240D01*
X136364162Y-41156000D01*
X136922184Y-41156000D01*
X136990305Y-41176002D01*
X137011279Y-41192905D01*
X137093127Y-41274753D01*
X137127153Y-41337065D01*
X137122088Y-41407880D01*
X137079541Y-41464716D01*
X137013021Y-41489527D01*
X136967457Y-41484423D01*
X136914124Y-41468245D01*
X136857934Y-41451200D01*
X136857933Y-41451199D01*
X136857927Y-41451198D01*
X136652003Y-41430917D01*
X136651997Y-41430917D01*
X136446072Y-41451198D01*
X136248045Y-41511268D01*
X136065552Y-41608813D01*
X135905590Y-41740090D01*
X135774313Y-41900052D01*
X135676768Y-42082545D01*
X135616698Y-42280572D01*
X135596417Y-42486496D01*
X135596417Y-42486503D01*
X135616698Y-42692427D01*
X135676768Y-42890454D01*
X135754262Y-43035435D01*
X135774315Y-43072950D01*
X135905590Y-43232910D01*
X136065550Y-43364185D01*
X136248046Y-43461732D01*
X136446066Y-43521800D01*
X136446070Y-43521800D01*
X136446072Y-43521801D01*
X136651997Y-43542083D01*
X136652000Y-43542083D01*
X136652003Y-43542083D01*
X136857927Y-43521801D01*
X136857928Y-43521800D01*
X136857934Y-43521800D01*
X137055954Y-43461732D01*
X137238450Y-43364185D01*
X137390568Y-43239345D01*
X137455914Y-43211593D01*
X137525892Y-43223575D01*
X137578284Y-43271488D01*
X137596500Y-43336746D01*
X137596500Y-43739539D01*
X137596260Y-43745032D01*
X137592736Y-43785304D01*
X137592736Y-43785309D01*
X137601332Y-43817390D01*
X137599642Y-43888367D01*
X137559847Y-43947162D01*
X137494582Y-43975109D01*
X137479625Y-43976000D01*
X135782249Y-43976000D01*
X135723771Y-43987632D01*
X135723768Y-43987633D01*
X135657448Y-44031948D01*
X135613133Y-44098268D01*
X135613132Y-44098271D01*
X135601500Y-44156749D01*
X135601500Y-45896250D01*
X135607623Y-45927034D01*
X135613133Y-45954731D01*
X135657448Y-46021052D01*
X135723769Y-46065367D01*
X135782252Y-46077000D01*
X136200500Y-46077000D01*
X136268621Y-46097002D01*
X136315114Y-46150658D01*
X136326500Y-46203000D01*
X136326500Y-55883483D01*
X136306498Y-55951604D01*
X136289595Y-55972578D01*
X134141079Y-58121095D01*
X134078767Y-58155120D01*
X134051984Y-58158000D01*
X132446800Y-58158000D01*
X132378679Y-58137998D01*
X132332186Y-58084342D01*
X132322082Y-58014068D01*
X132351576Y-57949488D01*
X132380014Y-57926778D01*
X132379393Y-57925848D01*
X132384530Y-57922414D01*
X132384538Y-57922410D01*
X132536883Y-57797383D01*
X132661910Y-57645038D01*
X132750870Y-57478604D01*
X132800623Y-57427956D01*
X132861993Y-57412000D01*
X133460040Y-57412000D01*
X133465525Y-57412239D01*
X133505807Y-57415764D01*
X133544870Y-57405296D01*
X133550231Y-57404107D01*
X133590045Y-57397088D01*
X133590047Y-57397086D01*
X133595838Y-57394979D01*
X133611101Y-57388657D01*
X133616681Y-57386055D01*
X133616681Y-57386054D01*
X133616684Y-57386054D01*
X133649817Y-57362852D01*
X133654428Y-57359915D01*
X133689455Y-57339694D01*
X133715453Y-57308709D01*
X133719146Y-57304678D01*
X134965192Y-56058633D01*
X134969210Y-56054951D01*
X135000194Y-56028955D01*
X135020421Y-55993918D01*
X135023352Y-55989317D01*
X135046554Y-55956184D01*
X135046554Y-55956181D01*
X135049147Y-55950622D01*
X135055480Y-55935333D01*
X135057585Y-55929549D01*
X135057588Y-55929545D01*
X135064611Y-55889706D01*
X135065791Y-55884384D01*
X135076263Y-55845307D01*
X135075842Y-55840504D01*
X135072740Y-55805029D01*
X135072500Y-55799537D01*
X135072500Y-49229448D01*
X135072740Y-49223955D01*
X135076263Y-49183693D01*
X135065794Y-49144626D01*
X135064610Y-49139279D01*
X135057588Y-49099455D01*
X135055492Y-49093696D01*
X135049146Y-49078376D01*
X135046553Y-49072816D01*
X135023364Y-49039698D01*
X135020410Y-49035061D01*
X135003506Y-49005782D01*
X135000194Y-49000045D01*
X134969215Y-48974050D01*
X134965175Y-48970348D01*
X134601405Y-48606578D01*
X134567379Y-48544266D01*
X134564500Y-48517483D01*
X134564500Y-42117461D01*
X134564740Y-42111969D01*
X134565867Y-42099077D01*
X134568263Y-42071693D01*
X134557796Y-42032631D01*
X134556610Y-42027284D01*
X134549588Y-41987455D01*
X134549585Y-41987449D01*
X134547485Y-41981681D01*
X134541144Y-41966370D01*
X134538554Y-41960816D01*
X134515363Y-41927696D01*
X134512409Y-41923058D01*
X134492193Y-41888044D01*
X134461212Y-41862047D01*
X134457169Y-41858343D01*
X134227240Y-41628413D01*
X134193214Y-41566102D01*
X134198279Y-41495287D01*
X134205205Y-41479939D01*
X134278814Y-41342227D01*
X134336024Y-41153632D01*
X134336568Y-41148110D01*
X134355341Y-40957503D01*
X134355341Y-40957496D01*
X134336025Y-40761375D01*
X134336025Y-40761373D01*
X134336024Y-40761370D01*
X134336024Y-40761368D01*
X134278814Y-40572773D01*
X134185910Y-40398962D01*
X134060883Y-40246617D01*
X133908538Y-40121590D01*
X133908538Y-40121589D01*
X133734728Y-40028686D01*
X133546125Y-39971474D01*
X133350003Y-39952159D01*
X133349997Y-39952159D01*
X133153875Y-39971474D01*
X133153873Y-39971474D01*
X132965271Y-40028686D01*
X132791461Y-40121590D01*
X132639117Y-40246617D01*
X132514090Y-40398961D01*
X132425129Y-40565396D01*
X132375377Y-40616044D01*
X132314007Y-40632000D01*
X132267017Y-40632000D01*
X132198896Y-40611998D01*
X132177922Y-40595095D01*
X130029404Y-38446578D01*
X129995379Y-38384266D01*
X129992499Y-38357483D01*
X129992499Y-37555223D01*
X129992499Y-36656438D01*
X129992738Y-36650981D01*
X129996263Y-36610693D01*
X129985796Y-36571631D01*
X129984610Y-36566284D01*
X129977588Y-36526455D01*
X129977585Y-36526449D01*
X129975486Y-36520682D01*
X129969146Y-36505376D01*
X129966555Y-36499820D01*
X129966554Y-36499816D01*
X129943354Y-36466683D01*
X129940410Y-36462061D01*
X129920195Y-36427047D01*
X129920194Y-36427045D01*
X129889215Y-36401050D01*
X129885175Y-36397348D01*
X128634154Y-35146328D01*
X128630450Y-35142286D01*
X128604454Y-35111305D01*
X128604451Y-35111303D01*
X128569435Y-35091086D01*
X128564800Y-35088133D01*
X128531683Y-35064945D01*
X128526152Y-35062366D01*
X128510796Y-35056005D01*
X128505047Y-35053912D01*
X128481174Y-35049702D01*
X128465234Y-35046891D01*
X128459872Y-35045703D01*
X128420808Y-35035236D01*
X128409828Y-35034276D01*
X128410050Y-35031727D01*
X128355864Y-35020831D01*
X128304878Y-34971426D01*
X128288500Y-34909306D01*
X128288500Y-34544753D01*
X128288499Y-34544749D01*
X128281830Y-34511224D01*
X128276867Y-34486269D01*
X128232552Y-34419948D01*
X128166231Y-34375633D01*
X128166228Y-34375632D01*
X128107750Y-34364000D01*
X128107748Y-34364000D01*
X125668252Y-34364000D01*
X125668249Y-34364000D01*
X125609771Y-34375632D01*
X125609768Y-34375633D01*
X125543448Y-34419948D01*
X125499133Y-34486268D01*
X125499132Y-34486271D01*
X125487500Y-34544749D01*
X125487500Y-36184250D01*
X125498980Y-36241965D01*
X125499133Y-36242731D01*
X125543448Y-36309052D01*
X125609769Y-36353367D01*
X125668252Y-36365000D01*
X125668253Y-36365000D01*
X128107747Y-36365000D01*
X128107748Y-36365000D01*
X128166231Y-36353367D01*
X128232552Y-36309052D01*
X128276867Y-36242731D01*
X128288500Y-36184248D01*
X128288500Y-36025514D01*
X128308502Y-35957394D01*
X128362158Y-35910901D01*
X128432432Y-35900797D01*
X128497012Y-35930291D01*
X128503567Y-35936393D01*
X129304596Y-36737422D01*
X129338620Y-36799732D01*
X129341499Y-36826515D01*
X129341499Y-38527531D01*
X129341259Y-38533023D01*
X129337736Y-38573306D01*
X129337736Y-38573308D01*
X129348203Y-38612372D01*
X129349393Y-38617740D01*
X129356412Y-38657547D01*
X129358505Y-38663296D01*
X129364866Y-38678652D01*
X129367445Y-38684183D01*
X129369447Y-38687042D01*
X129387654Y-38713045D01*
X129390634Y-38717300D01*
X129393587Y-38721936D01*
X129413806Y-38756955D01*
X129444787Y-38782951D01*
X129448829Y-38786655D01*
X131837849Y-41175676D01*
X131841554Y-41179719D01*
X131867544Y-41210693D01*
X131867546Y-41210695D01*
X131886958Y-41221902D01*
X131902566Y-41230913D01*
X131907183Y-41233854D01*
X131940316Y-41257054D01*
X131940320Y-41257055D01*
X131945876Y-41259646D01*
X131961182Y-41265986D01*
X131966949Y-41268085D01*
X131966955Y-41268088D01*
X132006784Y-41275110D01*
X132012131Y-41276296D01*
X132051193Y-41286763D01*
X132076539Y-41284545D01*
X132091470Y-41283240D01*
X132096962Y-41283000D01*
X132314007Y-41283000D01*
X132382128Y-41303002D01*
X132425129Y-41349604D01*
X132514090Y-41516038D01*
X132639117Y-41668383D01*
X132791462Y-41793410D01*
X132965273Y-41886314D01*
X133153868Y-41943524D01*
X133153872Y-41943524D01*
X133153874Y-41943525D01*
X133349997Y-41962841D01*
X133350000Y-41962841D01*
X133350003Y-41962841D01*
X133552292Y-41942918D01*
X133552494Y-41944974D01*
X133613779Y-41950437D01*
X133656781Y-41978607D01*
X133783376Y-42105202D01*
X133876595Y-42198421D01*
X133910620Y-42260733D01*
X133913499Y-42287516D01*
X133913500Y-48687539D01*
X133913260Y-48693032D01*
X133910773Y-48721459D01*
X133909736Y-48733307D01*
X133909992Y-48734262D01*
X133920203Y-48772372D01*
X133921393Y-48777740D01*
X133928412Y-48817547D01*
X133930505Y-48823296D01*
X133936866Y-48838652D01*
X133939445Y-48844183D01*
X133962634Y-48877300D01*
X133965587Y-48881936D01*
X133985806Y-48916955D01*
X134016787Y-48942951D01*
X134020829Y-48946655D01*
X134213453Y-49139279D01*
X134384595Y-49310421D01*
X134418621Y-49372733D01*
X134421500Y-49399516D01*
X134421500Y-50496700D01*
X134401498Y-50564821D01*
X134347842Y-50611314D01*
X134277568Y-50621418D01*
X134212988Y-50591924D01*
X134190278Y-50563485D01*
X134189348Y-50564107D01*
X134185911Y-50558964D01*
X134185910Y-50558962D01*
X134060883Y-50406617D01*
X133908538Y-50281590D01*
X133896651Y-50275236D01*
X133734728Y-50188686D01*
X133546126Y-50131474D01*
X133535145Y-50130393D01*
X133469314Y-50103808D01*
X133428306Y-50045852D01*
X133421500Y-50005000D01*
X133421500Y-43514459D01*
X133421740Y-43508965D01*
X133421811Y-43508159D01*
X133425264Y-43468693D01*
X133414792Y-43429614D01*
X133413610Y-43424282D01*
X133406588Y-43384455D01*
X133406585Y-43384449D01*
X133404485Y-43378681D01*
X133398144Y-43363370D01*
X133395554Y-43357816D01*
X133378721Y-43333776D01*
X133372361Y-43324693D01*
X133369409Y-43320058D01*
X133362175Y-43307529D01*
X133349194Y-43285045D01*
X133329626Y-43268625D01*
X133318212Y-43259047D01*
X133314169Y-43255343D01*
X128298768Y-38239941D01*
X128264742Y-38177630D01*
X128265884Y-38119267D01*
X128282063Y-38056785D01*
X128282063Y-38056778D01*
X128282064Y-38056776D01*
X128292369Y-37853564D01*
X128261556Y-37652429D01*
X128190886Y-37461613D01*
X128122280Y-37351544D01*
X128083255Y-37288933D01*
X128083245Y-37288920D01*
X127943063Y-37141451D01*
X127943061Y-37141449D01*
X127943059Y-37141447D01*
X127940259Y-37139498D01*
X127776047Y-37025203D01*
X127776046Y-37025202D01*
X127589061Y-36944960D01*
X127421171Y-36910459D01*
X127389741Y-36904000D01*
X126437258Y-36904000D01*
X126437239Y-36904000D01*
X126285566Y-36919425D01*
X126285563Y-36919425D01*
X126285562Y-36919426D01*
X126273336Y-36923262D01*
X126091413Y-36980340D01*
X125913494Y-37079092D01*
X125759109Y-37211629D01*
X125759102Y-37211636D01*
X125634555Y-37372536D01*
X125634550Y-37372544D01*
X125544941Y-37555223D01*
X125493936Y-37752219D01*
X125493936Y-37752222D01*
X125483630Y-37955435D01*
X125496050Y-38036503D01*
X125514444Y-38156571D01*
X125541639Y-38230000D01*
X125585111Y-38347381D01*
X125585115Y-38347389D01*
X125692744Y-38520066D01*
X125692754Y-38520079D01*
X125828894Y-38663296D01*
X125832941Y-38667553D01*
X125858419Y-38685286D01*
X125999952Y-38783796D01*
X125999953Y-38783797D01*
X126186938Y-38864039D01*
X126186941Y-38864039D01*
X126186942Y-38864040D01*
X126386259Y-38905000D01*
X126386260Y-38905000D01*
X127338741Y-38905000D01*
X127338742Y-38905000D01*
X127338743Y-38904999D01*
X127338760Y-38904999D01*
X127432833Y-38895431D01*
X127490438Y-38889574D01*
X127684588Y-38828659D01*
X127783026Y-38774021D01*
X127852292Y-38758451D01*
X127918983Y-38782801D01*
X127933268Y-38795094D01*
X132733595Y-43595420D01*
X132767621Y-43657732D01*
X132770500Y-43684515D01*
X132770500Y-44944763D01*
X132750498Y-45012884D01*
X132696842Y-45059377D01*
X132626568Y-45069481D01*
X132561988Y-45039987D01*
X132544538Y-45021467D01*
X132508284Y-44974220D01*
X132508282Y-44974219D01*
X132508282Y-44974218D01*
X132382841Y-44877964D01*
X132351544Y-44865000D01*
X132236760Y-44817455D01*
X132080000Y-44796818D01*
X131923239Y-44817455D01*
X131777160Y-44877963D01*
X131777157Y-44877965D01*
X131651718Y-44974218D01*
X131555465Y-45099657D01*
X131555463Y-45099660D01*
X131494955Y-45245739D01*
X131474318Y-45402499D01*
X131474318Y-45402501D01*
X131483117Y-45469341D01*
X131472177Y-45539489D01*
X131447291Y-45574881D01*
X130585079Y-46437095D01*
X130522766Y-46471120D01*
X130495983Y-46474000D01*
X124266016Y-46474000D01*
X124197895Y-46453998D01*
X124176921Y-46437095D01*
X122790405Y-45050579D01*
X122756379Y-44988267D01*
X122753500Y-44961484D01*
X122753500Y-43035435D01*
X125483630Y-43035435D01*
X125499156Y-43136777D01*
X125514444Y-43236571D01*
X125539158Y-43303300D01*
X125585111Y-43427381D01*
X125585115Y-43427389D01*
X125692744Y-43600066D01*
X125692754Y-43600079D01*
X125832936Y-43747548D01*
X125832941Y-43747553D01*
X125832944Y-43747555D01*
X125999952Y-43863796D01*
X125999953Y-43863797D01*
X126186938Y-43944039D01*
X126186941Y-43944039D01*
X126186942Y-43944040D01*
X126386259Y-43985000D01*
X126386260Y-43985000D01*
X127338741Y-43985000D01*
X127338742Y-43985000D01*
X127338744Y-43984999D01*
X127338755Y-43984999D01*
X127365191Y-43982310D01*
X127430699Y-43975648D01*
X127465321Y-43976915D01*
X127494776Y-43982109D01*
X127500131Y-43983296D01*
X127539193Y-43993763D01*
X127565258Y-43991482D01*
X127579470Y-43990240D01*
X127584962Y-43990000D01*
X128924314Y-43990000D01*
X128992435Y-44010002D01*
X129038928Y-44063658D01*
X129045504Y-44081517D01*
X129050770Y-44100025D01*
X129050774Y-44100037D01*
X129149938Y-44299184D01*
X129149942Y-44299189D01*
X129284017Y-44476735D01*
X129448438Y-44626624D01*
X129448439Y-44626625D01*
X129637587Y-44743740D01*
X129637590Y-44743741D01*
X129637599Y-44743747D01*
X129727989Y-44778764D01*
X129845053Y-44824116D01*
X129845056Y-44824116D01*
X129845060Y-44824118D01*
X130063757Y-44865000D01*
X130063760Y-44865000D01*
X130286240Y-44865000D01*
X130286243Y-44865000D01*
X130504940Y-44824118D01*
X130504944Y-44824116D01*
X130504946Y-44824116D01*
X130575409Y-44796818D01*
X130712401Y-44743747D01*
X130901562Y-44626624D01*
X131065981Y-44476736D01*
X131076384Y-44462961D01*
X131146503Y-44370107D01*
X131200058Y-44299189D01*
X131200059Y-44299185D01*
X131200061Y-44299184D01*
X131299225Y-44100037D01*
X131299226Y-44100033D01*
X131299229Y-44100028D01*
X131360115Y-43886036D01*
X131380643Y-43664500D01*
X131360115Y-43442964D01*
X131355565Y-43426974D01*
X131299231Y-43228979D01*
X131299230Y-43228978D01*
X131299229Y-43228972D01*
X131299227Y-43228968D01*
X131299225Y-43228962D01*
X131200061Y-43029815D01*
X131200057Y-43029810D01*
X131199022Y-43028440D01*
X131127376Y-42933564D01*
X131065982Y-42852264D01*
X130901561Y-42702375D01*
X130901560Y-42702374D01*
X130712412Y-42585259D01*
X130712405Y-42585255D01*
X130712401Y-42585253D01*
X130675409Y-42570922D01*
X130504946Y-42504883D01*
X130465972Y-42497597D01*
X130286243Y-42464000D01*
X130063757Y-42464000D01*
X129943394Y-42486500D01*
X129845053Y-42504883D01*
X129637603Y-42585251D01*
X129637587Y-42585259D01*
X129448439Y-42702374D01*
X129448438Y-42702375D01*
X129284017Y-42852264D01*
X129149942Y-43029810D01*
X129149938Y-43029815D01*
X129050774Y-43228962D01*
X129050770Y-43228974D01*
X129045504Y-43247483D01*
X129007622Y-43307529D01*
X128943291Y-43337563D01*
X128924314Y-43339000D01*
X128392484Y-43339000D01*
X128324363Y-43318998D01*
X128277870Y-43265342D01*
X128267766Y-43195068D01*
X128270503Y-43181431D01*
X128282063Y-43136785D01*
X128292369Y-42933564D01*
X128261556Y-42732429D01*
X128190886Y-42541613D01*
X128135364Y-42452536D01*
X128083255Y-42368933D01*
X128083245Y-42368920D01*
X127943063Y-42221451D01*
X127943061Y-42221449D01*
X127943059Y-42221447D01*
X127853471Y-42159092D01*
X127776047Y-42105203D01*
X127776046Y-42105202D01*
X127589061Y-42024960D01*
X127439570Y-41994240D01*
X127389741Y-41984000D01*
X126437258Y-41984000D01*
X126437239Y-41984000D01*
X126285566Y-41999425D01*
X126285563Y-41999425D01*
X126285562Y-41999426D01*
X126232965Y-42015928D01*
X126091413Y-42060340D01*
X125913494Y-42159092D01*
X125759109Y-42291629D01*
X125759102Y-42291636D01*
X125634555Y-42452536D01*
X125634550Y-42452544D01*
X125544941Y-42635223D01*
X125493936Y-42832219D01*
X125493936Y-42832222D01*
X125483630Y-43035435D01*
X122753500Y-43035435D01*
X122753500Y-41081459D01*
X122753740Y-41075965D01*
X122754949Y-41062149D01*
X122757264Y-41035693D01*
X122746792Y-40996614D01*
X122745610Y-40991282D01*
X122738588Y-40951455D01*
X122738585Y-40951449D01*
X122736485Y-40945681D01*
X122730144Y-40930370D01*
X122727554Y-40924816D01*
X122704363Y-40891696D01*
X122701409Y-40887058D01*
X122681193Y-40852044D01*
X122650212Y-40826047D01*
X122646169Y-40822343D01*
X120485964Y-38662138D01*
X120451938Y-38599826D01*
X120457003Y-38529011D01*
X120475421Y-38495918D01*
X120521448Y-38436458D01*
X120582380Y-38312240D01*
X120611058Y-38253776D01*
X120611058Y-38253774D01*
X120611060Y-38253771D01*
X120662063Y-38056785D01*
X120672369Y-37853564D01*
X120641556Y-37652429D01*
X120570886Y-37461613D01*
X120502280Y-37351544D01*
X120463255Y-37288933D01*
X120463245Y-37288920D01*
X120357625Y-37177810D01*
X120325189Y-37114656D01*
X120332045Y-37043992D01*
X120376018Y-36988252D01*
X120443145Y-36965134D01*
X120448948Y-36965000D01*
X122919054Y-36965000D01*
X122987175Y-36985002D01*
X123033668Y-37038658D01*
X123035462Y-37042781D01*
X123046464Y-37069341D01*
X123142718Y-37194782D01*
X123268159Y-37291036D01*
X123414238Y-37351544D01*
X123492618Y-37361863D01*
X123570999Y-37372182D01*
X123570999Y-37372181D01*
X123571000Y-37372182D01*
X123727762Y-37351544D01*
X123873841Y-37291036D01*
X123999282Y-37194782D01*
X124095536Y-37069341D01*
X124156044Y-36923262D01*
X124176682Y-36766500D01*
X124170355Y-36718445D01*
X124156170Y-36610693D01*
X124156044Y-36609738D01*
X124095536Y-36463659D01*
X123999282Y-36338218D01*
X123873841Y-36241964D01*
X123869926Y-36240342D01*
X123727760Y-36181455D01*
X123571000Y-36160818D01*
X123414239Y-36181455D01*
X123268160Y-36241963D01*
X123268152Y-36241968D01*
X123208213Y-36287962D01*
X123141993Y-36313563D01*
X123131509Y-36314000D01*
X120438163Y-36314000D01*
X120370042Y-36293998D01*
X120323549Y-36240342D01*
X120313445Y-36170068D01*
X120342939Y-36105488D01*
X120356090Y-36092397D01*
X120396890Y-36057370D01*
X120396895Y-36057366D01*
X120521448Y-35896458D01*
X120573514Y-35790314D01*
X120611058Y-35713776D01*
X120611058Y-35713774D01*
X120611060Y-35713771D01*
X120662063Y-35516785D01*
X120672369Y-35313564D01*
X120641556Y-35112429D01*
X120578966Y-34943432D01*
X120570888Y-34921618D01*
X120570884Y-34921610D01*
X120463255Y-34748933D01*
X120463245Y-34748920D01*
X120323063Y-34601451D01*
X120323061Y-34601449D01*
X120323059Y-34601447D01*
X120295432Y-34582218D01*
X120156047Y-34485203D01*
X120156046Y-34485202D01*
X119969061Y-34404960D01*
X119813093Y-34372909D01*
X119769741Y-34364000D01*
X119769740Y-34364000D01*
X119542016Y-34364000D01*
X119473895Y-34343998D01*
X119452921Y-34327095D01*
X119130921Y-34005095D01*
X119096895Y-33942783D01*
X119101960Y-33871968D01*
X119144507Y-33815132D01*
X119211027Y-33790321D01*
X119220016Y-33790000D01*
X128971984Y-33790000D01*
X129040105Y-33810002D01*
X129061078Y-33826905D01*
X129551844Y-34317670D01*
X129555548Y-34321712D01*
X129581545Y-34352694D01*
X129607777Y-34367839D01*
X129616558Y-34372909D01*
X129621193Y-34375861D01*
X129653898Y-34398761D01*
X129654316Y-34399054D01*
X129659870Y-34401644D01*
X129675181Y-34407985D01*
X129680949Y-34410085D01*
X129680955Y-34410088D01*
X129720782Y-34417110D01*
X129726114Y-34418292D01*
X129765193Y-34428764D01*
X129795986Y-34426070D01*
X129805482Y-34425240D01*
X129810974Y-34425000D01*
X133670984Y-34425000D01*
X133739105Y-34445002D01*
X133760079Y-34461905D01*
X136237455Y-36939281D01*
X136271481Y-37001593D01*
X136266416Y-37072408D01*
X136223869Y-37129244D01*
X136207756Y-37139498D01*
X136093461Y-37200590D01*
X135941117Y-37325617D01*
X135816090Y-37477961D01*
X135723186Y-37651771D01*
X135665974Y-37840373D01*
X135665974Y-37840375D01*
X135646659Y-38036496D01*
X135646659Y-38036503D01*
X135665974Y-38232624D01*
X135665974Y-38232626D01*
X135723186Y-38421228D01*
X135804475Y-38573308D01*
X135816090Y-38595038D01*
X135941117Y-38747383D01*
X136093462Y-38872410D01*
X136267273Y-38965314D01*
X136455868Y-39022524D01*
X136455872Y-39022524D01*
X136455874Y-39022525D01*
X136651997Y-39041841D01*
X136652000Y-39041841D01*
X136652003Y-39041841D01*
X136848124Y-39022525D01*
X136848126Y-39022525D01*
X136848127Y-39022524D01*
X136848132Y-39022524D01*
X137036727Y-38965314D01*
X137210538Y-38872410D01*
X137362883Y-38747383D01*
X137487910Y-38595038D01*
X137580814Y-38421227D01*
X137638024Y-38232632D01*
X137645515Y-38156571D01*
X137657341Y-38036503D01*
X137657341Y-38036496D01*
X137638025Y-37840375D01*
X137638025Y-37840373D01*
X137638024Y-37840370D01*
X137638024Y-37840368D01*
X137580814Y-37651773D01*
X137487910Y-37477962D01*
X137362883Y-37325617D01*
X137210538Y-37200590D01*
X137044104Y-37111629D01*
X136993456Y-37061877D01*
X136977500Y-37000507D01*
X136977500Y-36910459D01*
X136977740Y-36904965D01*
X136981264Y-36864693D01*
X136970792Y-36825614D01*
X136969610Y-36820282D01*
X136962588Y-36780455D01*
X136962585Y-36780449D01*
X136960485Y-36774681D01*
X136954144Y-36759370D01*
X136951554Y-36753816D01*
X136928363Y-36720696D01*
X136925409Y-36716058D01*
X136905193Y-36681044D01*
X136874212Y-36655047D01*
X136870169Y-36651343D01*
X134100164Y-33881338D01*
X134096450Y-33877286D01*
X134091988Y-33871968D01*
X134070455Y-33846306D01*
X134070454Y-33846305D01*
X134070451Y-33846303D01*
X134035435Y-33826086D01*
X134030800Y-33823133D01*
X133997683Y-33799945D01*
X133992152Y-33797366D01*
X133976796Y-33791005D01*
X133971047Y-33788912D01*
X133947174Y-33784702D01*
X133931234Y-33781891D01*
X133925872Y-33780703D01*
X133886808Y-33770236D01*
X133886805Y-33770236D01*
X133876692Y-33771121D01*
X133846524Y-33773760D01*
X133841040Y-33774000D01*
X133365555Y-33774000D01*
X133297434Y-33753998D01*
X133250941Y-33700342D01*
X133240837Y-33630068D01*
X133270331Y-33565488D01*
X133290046Y-33547132D01*
X133312310Y-33530465D01*
X133512968Y-33380255D01*
X133710255Y-33182968D01*
X133877456Y-32959613D01*
X134011169Y-32714737D01*
X134108671Y-32453323D01*
X134167978Y-32180694D01*
X134187882Y-31902400D01*
X134167978Y-31624106D01*
X134108671Y-31351477D01*
X134011169Y-31090063D01*
X133993171Y-31057103D01*
X133877457Y-30845189D01*
X133871562Y-30837314D01*
X133710255Y-30621832D01*
X133710253Y-30621830D01*
X133710245Y-30621821D01*
X133512978Y-30424554D01*
X133512969Y-30424546D01*
X133343021Y-30297325D01*
X133289613Y-30257344D01*
X133289611Y-30257343D01*
X133289610Y-30257342D01*
X133044740Y-30123632D01*
X133044737Y-30123631D01*
X132830382Y-30043681D01*
X132783321Y-30026128D01*
X132510690Y-29966821D01*
X132232400Y-29946918D01*
X131954109Y-29966821D01*
X131681478Y-30026128D01*
X131420063Y-30123631D01*
X131420059Y-30123632D01*
X131175189Y-30257342D01*
X130951830Y-30424546D01*
X130951821Y-30424554D01*
X130754554Y-30621821D01*
X130754546Y-30621830D01*
X130587342Y-30845189D01*
X130453632Y-31090059D01*
X130453631Y-31090063D01*
X130356128Y-31351478D01*
X130296821Y-31624109D01*
X130276918Y-31902399D01*
X130296821Y-32180690D01*
X130356128Y-32453321D01*
X130369180Y-32488314D01*
X130429211Y-32649265D01*
X130453631Y-32714736D01*
X130453632Y-32714740D01*
X130587342Y-32959610D01*
X130587344Y-32959613D01*
X130746263Y-33171905D01*
X130754546Y-33182969D01*
X130754554Y-33182978D01*
X130951821Y-33380245D01*
X130951830Y-33380253D01*
X130951832Y-33380255D01*
X131126515Y-33511021D01*
X131174754Y-33547132D01*
X131217301Y-33603968D01*
X131222365Y-33674783D01*
X131188340Y-33737096D01*
X131126028Y-33771121D01*
X131099245Y-33774000D01*
X129981016Y-33774000D01*
X129912895Y-33753998D01*
X129891921Y-33737095D01*
X129401165Y-33246339D01*
X129397450Y-33242286D01*
X129377400Y-33218391D01*
X129371455Y-33211306D01*
X129371454Y-33211305D01*
X129371451Y-33211303D01*
X129336435Y-33191086D01*
X129331800Y-33188133D01*
X129298683Y-33164945D01*
X129293152Y-33162366D01*
X129277796Y-33156005D01*
X129272047Y-33153912D01*
X129248174Y-33149702D01*
X129232234Y-33146891D01*
X129226872Y-33145703D01*
X129187808Y-33135236D01*
X129187805Y-33135236D01*
X129176127Y-33136257D01*
X129147524Y-33138760D01*
X129142040Y-33139000D01*
X118761960Y-33139000D01*
X118756475Y-33138760D01*
X118727872Y-33136257D01*
X118716195Y-33135236D01*
X118716192Y-33135236D01*
X118677126Y-33145703D01*
X118671761Y-33146892D01*
X118631952Y-33153912D01*
X118626235Y-33155993D01*
X118610832Y-33162373D01*
X118605316Y-33164945D01*
X118572191Y-33188138D01*
X118567558Y-33191089D01*
X118532547Y-33211304D01*
X118532542Y-33211308D01*
X118531770Y-33212229D01*
X118530203Y-33213270D01*
X118524102Y-33218391D01*
X118523530Y-33217710D01*
X118472659Y-33251553D01*
X118401671Y-33252677D01*
X118346157Y-33220330D01*
X117837404Y-32711578D01*
X117803379Y-32649265D01*
X117800499Y-32622482D01*
X117800499Y-32595493D01*
X117820501Y-32527372D01*
X117867101Y-32484372D01*
X118033538Y-32395410D01*
X118185883Y-32270383D01*
X118310910Y-32118038D01*
X118403814Y-31944227D01*
X118461024Y-31755632D01*
X118480341Y-31559500D01*
X118461025Y-31363375D01*
X118461025Y-31363373D01*
X118461024Y-31363370D01*
X118461024Y-31363368D01*
X118403814Y-31174773D01*
X118310910Y-31000962D01*
X118185883Y-30848617D01*
X118033538Y-30723590D01*
X118033537Y-30723589D01*
X117859728Y-30630686D01*
X117671125Y-30573474D01*
X117475003Y-30554159D01*
X117474997Y-30554159D01*
X117278875Y-30573474D01*
X117278873Y-30573474D01*
X117090271Y-30630686D01*
X116916461Y-30723590D01*
X116764117Y-30848617D01*
X116639090Y-31000961D01*
X116546186Y-31174771D01*
X116488974Y-31363373D01*
X116488974Y-31363375D01*
X116469659Y-31559496D01*
X116469659Y-31559503D01*
X116488974Y-31755624D01*
X116488974Y-31755626D01*
X116546186Y-31944228D01*
X116639090Y-32118038D01*
X116768044Y-32275168D01*
X116766672Y-32276293D01*
X116796664Y-32331217D01*
X116791599Y-32402032D01*
X116749052Y-32458868D01*
X116682532Y-32483679D01*
X116673543Y-32484000D01*
X115225963Y-32484000D01*
X115220471Y-32483760D01*
X115180193Y-32480237D01*
X115180190Y-32480237D01*
X115141145Y-32490699D01*
X115135780Y-32491889D01*
X115095952Y-32498912D01*
X115090235Y-32500993D01*
X115074840Y-32507369D01*
X115069314Y-32509946D01*
X115036195Y-32533136D01*
X115031559Y-32536090D01*
X114996546Y-32556305D01*
X114996544Y-32556307D01*
X114970553Y-32587280D01*
X114966839Y-32591333D01*
X113618151Y-33940021D01*
X113555839Y-33974046D01*
X113485024Y-33968982D01*
X113469660Y-33962048D01*
X113414728Y-33932686D01*
X113280674Y-33892021D01*
X113226132Y-33875476D01*
X113226131Y-33875475D01*
X113226125Y-33875474D01*
X113030003Y-33856159D01*
X113029997Y-33856159D01*
X112833875Y-33875474D01*
X112833873Y-33875474D01*
X112645271Y-33932686D01*
X112471461Y-34025590D01*
X112319117Y-34150617D01*
X112194090Y-34302961D01*
X112101186Y-34476771D01*
X112043974Y-34665373D01*
X112043974Y-34665375D01*
X112024659Y-34861496D01*
X112024659Y-34861503D01*
X112043974Y-35057624D01*
X112043974Y-35057626D01*
X112101186Y-35246228D01*
X112137178Y-35313564D01*
X112194090Y-35420038D01*
X112319117Y-35572383D01*
X112471462Y-35697410D01*
X112645273Y-35790314D01*
X112833868Y-35847524D01*
X112833872Y-35847524D01*
X112833874Y-35847525D01*
X113029997Y-35866841D01*
X113030000Y-35866841D01*
X113030003Y-35866841D01*
X113226124Y-35847525D01*
X113226126Y-35847525D01*
X113226127Y-35847524D01*
X113226132Y-35847524D01*
X113414727Y-35790314D01*
X113588538Y-35697410D01*
X113740883Y-35572383D01*
X113865910Y-35420038D01*
X113958814Y-35246227D01*
X114016024Y-35057632D01*
X114016184Y-35056005D01*
X114035341Y-34861503D01*
X114035341Y-34861496D01*
X114016025Y-34665375D01*
X114016024Y-34665372D01*
X114016024Y-34665368D01*
X113990799Y-34582217D01*
X113990166Y-34511224D01*
X114022277Y-34456547D01*
X115306922Y-33171904D01*
X115369235Y-33137879D01*
X115396018Y-33135000D01*
X117287984Y-33135000D01*
X117356105Y-33155002D01*
X117377079Y-33171905D01*
X118159564Y-33954390D01*
X118159577Y-33954405D01*
X118265639Y-34060467D01*
X118265645Y-34060471D01*
X118465207Y-34260033D01*
X118499233Y-34322345D01*
X118494168Y-34393160D01*
X118451621Y-34449996D01*
X118437260Y-34459296D01*
X118293494Y-34539092D01*
X118139109Y-34671629D01*
X118139102Y-34671636D01*
X118014555Y-34832536D01*
X118014550Y-34832544D01*
X117924941Y-35015223D01*
X117873936Y-35212219D01*
X117873936Y-35212222D01*
X117863630Y-35415435D01*
X117879156Y-35516777D01*
X117894444Y-35616571D01*
X117922712Y-35692897D01*
X117965111Y-35807381D01*
X117965115Y-35807389D01*
X118072744Y-35980066D01*
X118072754Y-35980078D01*
X118187881Y-36101190D01*
X118220317Y-36164343D01*
X118213461Y-36235008D01*
X118169488Y-36290748D01*
X118102361Y-36313866D01*
X118096558Y-36314000D01*
X116647286Y-36314000D01*
X116579165Y-36293998D01*
X116547324Y-36264704D01*
X116506284Y-36211220D01*
X116506282Y-36211219D01*
X116506282Y-36211218D01*
X116380841Y-36114964D01*
X116241788Y-36057366D01*
X116234760Y-36054455D01*
X116078000Y-36033818D01*
X115921239Y-36054455D01*
X115775160Y-36114963D01*
X115775157Y-36114965D01*
X115649718Y-36211218D01*
X115553465Y-36336657D01*
X115553463Y-36336660D01*
X115492955Y-36482739D01*
X115472318Y-36639499D01*
X115472318Y-36639500D01*
X115492955Y-36796260D01*
X115552197Y-36939281D01*
X115553464Y-36942341D01*
X115649718Y-37067782D01*
X115775159Y-37164036D01*
X115921238Y-37224544D01*
X115999618Y-37234863D01*
X116077999Y-37245182D01*
X116077999Y-37245181D01*
X116078000Y-37245182D01*
X116234762Y-37224544D01*
X116380841Y-37164036D01*
X116506282Y-37067782D01*
X116528630Y-37038658D01*
X116547324Y-37014296D01*
X116604662Y-36972429D01*
X116647286Y-36965000D01*
X118086188Y-36965000D01*
X118154309Y-36985002D01*
X118200802Y-37038658D01*
X118210906Y-37108932D01*
X118181412Y-37173512D01*
X118168262Y-37186603D01*
X118139105Y-37211633D01*
X118139102Y-37211636D01*
X118014555Y-37372536D01*
X118014553Y-37372539D01*
X118014552Y-37372542D01*
X117947865Y-37508491D01*
X117899910Y-37560840D01*
X117834744Y-37579000D01*
X114194960Y-37579000D01*
X114189475Y-37578760D01*
X114160872Y-37576257D01*
X114149195Y-37575236D01*
X114149192Y-37575236D01*
X114110126Y-37585703D01*
X114104761Y-37586892D01*
X114064952Y-37593912D01*
X114059235Y-37595993D01*
X114043832Y-37602373D01*
X114038316Y-37604945D01*
X114005191Y-37628138D01*
X114000558Y-37631089D01*
X113965547Y-37651304D01*
X113965545Y-37651305D01*
X113939547Y-37682287D01*
X113935834Y-37686339D01*
X112938843Y-38683329D01*
X112934792Y-38687042D01*
X112903806Y-38713044D01*
X112903804Y-38713047D01*
X112883589Y-38748058D01*
X112880638Y-38752691D01*
X112857445Y-38785816D01*
X112854873Y-38791332D01*
X112848493Y-38806735D01*
X112846412Y-38812452D01*
X112839392Y-38852261D01*
X112838203Y-38857626D01*
X112827736Y-38896692D01*
X112827736Y-38896694D01*
X112831260Y-38936965D01*
X112831500Y-38942459D01*
X112831500Y-43942746D01*
X112811498Y-44010867D01*
X112757842Y-44057360D01*
X112742076Y-44063320D01*
X112645284Y-44092681D01*
X112645269Y-44092687D01*
X112471461Y-44185590D01*
X112319117Y-44310617D01*
X112194090Y-44462961D01*
X112101186Y-44636771D01*
X112043974Y-44825373D01*
X112043974Y-44825375D01*
X112024659Y-45021496D01*
X112024659Y-45021503D01*
X107772035Y-45021503D01*
X107837927Y-44898227D01*
X107895137Y-44709632D01*
X107902313Y-44636771D01*
X107914454Y-44513503D01*
X107914454Y-44513496D01*
X107895138Y-44317375D01*
X107895138Y-44317373D01*
X107895137Y-44317370D01*
X107895137Y-44317368D01*
X107837927Y-44128773D01*
X107745023Y-43954962D01*
X107619996Y-43802617D01*
X107467651Y-43677590D01*
X107443161Y-43664500D01*
X107293841Y-43584686D01*
X107159787Y-43544021D01*
X107105245Y-43527476D01*
X107105244Y-43527475D01*
X107105238Y-43527474D01*
X106909116Y-43508159D01*
X106909110Y-43508159D01*
X106712988Y-43527474D01*
X106712986Y-43527474D01*
X106524384Y-43584686D01*
X106350574Y-43677590D01*
X106198230Y-43802617D01*
X106073203Y-43954961D01*
X105980299Y-44128771D01*
X105923087Y-44317373D01*
X105923087Y-44317375D01*
X105903772Y-44513496D01*
X105903772Y-44513503D01*
X104013500Y-44513503D01*
X104013500Y-37020502D01*
X105839843Y-37020502D01*
X105858425Y-37209176D01*
X105858426Y-37209182D01*
X105858427Y-37209183D01*
X105913463Y-37390615D01*
X106002838Y-37557824D01*
X106123117Y-37704383D01*
X106269676Y-37824662D01*
X106436885Y-37914037D01*
X106618317Y-37969073D01*
X106618321Y-37969073D01*
X106618323Y-37969074D01*
X106806997Y-37987657D01*
X106807000Y-37987657D01*
X106807003Y-37987657D01*
X106995676Y-37969074D01*
X106995677Y-37969073D01*
X106995683Y-37969073D01*
X107177115Y-37914037D01*
X107344324Y-37824662D01*
X107490883Y-37704383D01*
X107611162Y-37557824D01*
X107700537Y-37390615D01*
X107755573Y-37209183D01*
X107756420Y-37200590D01*
X107774157Y-37020502D01*
X108379843Y-37020502D01*
X108398425Y-37209176D01*
X108398426Y-37209182D01*
X108398427Y-37209183D01*
X108453463Y-37390615D01*
X108542838Y-37557824D01*
X108663117Y-37704383D01*
X108809676Y-37824662D01*
X108976885Y-37914037D01*
X109158317Y-37969073D01*
X109158321Y-37969073D01*
X109158323Y-37969074D01*
X109346997Y-37987657D01*
X109347000Y-37987657D01*
X109347003Y-37987657D01*
X109535676Y-37969074D01*
X109535677Y-37969073D01*
X109535683Y-37969073D01*
X109717115Y-37914037D01*
X109884324Y-37824662D01*
X110030883Y-37704383D01*
X110151162Y-37557824D01*
X110240537Y-37390615D01*
X110295573Y-37209183D01*
X110296420Y-37200590D01*
X110314157Y-37020502D01*
X110314157Y-37020497D01*
X110295574Y-36831823D01*
X110295573Y-36831821D01*
X110295573Y-36831817D01*
X110240537Y-36650385D01*
X110151162Y-36483176D01*
X110030883Y-36336617D01*
X109884324Y-36216338D01*
X109717115Y-36126963D01*
X109535683Y-36071927D01*
X109535682Y-36071926D01*
X109535676Y-36071925D01*
X109347003Y-36053343D01*
X109346997Y-36053343D01*
X109158323Y-36071925D01*
X108976884Y-36126963D01*
X108809675Y-36216338D01*
X108663117Y-36336617D01*
X108542838Y-36483175D01*
X108453463Y-36650384D01*
X108398425Y-36831823D01*
X108379843Y-37020497D01*
X108379843Y-37020502D01*
X107774157Y-37020502D01*
X107774157Y-37020497D01*
X107755574Y-36831823D01*
X107755573Y-36831821D01*
X107755573Y-36831817D01*
X107700537Y-36650385D01*
X107611162Y-36483176D01*
X107490883Y-36336617D01*
X107344324Y-36216338D01*
X107177115Y-36126963D01*
X106995683Y-36071927D01*
X106995682Y-36071926D01*
X106995676Y-36071925D01*
X106807003Y-36053343D01*
X106806997Y-36053343D01*
X106618323Y-36071925D01*
X106436884Y-36126963D01*
X106269675Y-36216338D01*
X106123117Y-36336617D01*
X106002838Y-36483175D01*
X105913463Y-36650384D01*
X105858425Y-36831823D01*
X105839843Y-37020497D01*
X105839843Y-37020502D01*
X104013500Y-37020502D01*
X104013500Y-27940003D01*
X117739659Y-27940003D01*
X117758974Y-28136124D01*
X117758974Y-28136126D01*
X117816186Y-28324728D01*
X117820481Y-28332763D01*
X117909090Y-28498538D01*
X118034117Y-28650883D01*
X118186462Y-28775910D01*
X118360273Y-28868814D01*
X118548868Y-28926024D01*
X118548872Y-28926024D01*
X118548874Y-28926025D01*
X118744997Y-28945341D01*
X118745000Y-28945341D01*
X118745003Y-28945341D01*
X118941124Y-28926025D01*
X118941126Y-28926025D01*
X118941127Y-28926024D01*
X118941132Y-28926024D01*
X119129727Y-28868814D01*
X119303538Y-28775910D01*
X119455883Y-28650883D01*
X119580910Y-28498538D01*
X119673814Y-28324727D01*
X119722442Y-28164422D01*
X119761357Y-28105043D01*
X119826198Y-28076127D01*
X119843016Y-28075000D01*
X126599007Y-28075000D01*
X126667128Y-28095002D01*
X126710129Y-28141604D01*
X126771646Y-28256694D01*
X126799090Y-28308038D01*
X126924117Y-28460383D01*
X127076462Y-28585410D01*
X127250273Y-28678314D01*
X127438868Y-28735524D01*
X127438872Y-28735524D01*
X127438874Y-28735525D01*
X127634997Y-28754841D01*
X127635000Y-28754841D01*
X127635003Y-28754841D01*
X127831124Y-28735525D01*
X127831126Y-28735525D01*
X127831127Y-28735524D01*
X127831132Y-28735524D01*
X128019727Y-28678314D01*
X128193538Y-28585410D01*
X128345883Y-28460383D01*
X128470910Y-28308038D01*
X128563814Y-28134227D01*
X128621024Y-27945632D01*
X128621025Y-27945624D01*
X128640341Y-27749503D01*
X128640341Y-27749496D01*
X128621025Y-27553375D01*
X128621025Y-27553373D01*
X128621024Y-27553370D01*
X128621024Y-27553368D01*
X128563814Y-27364773D01*
X128470910Y-27190962D01*
X128345883Y-27038617D01*
X128193538Y-26913590D01*
X128019728Y-26820686D01*
X127885674Y-26780021D01*
X127831132Y-26763476D01*
X127831131Y-26763475D01*
X127831125Y-26763474D01*
X127635003Y-26744159D01*
X127634997Y-26744159D01*
X127438875Y-26763474D01*
X127438873Y-26763474D01*
X127250271Y-26820686D01*
X127076461Y-26913590D01*
X126924117Y-27038617D01*
X126799090Y-27190961D01*
X126710129Y-27357396D01*
X126660377Y-27408044D01*
X126599007Y-27424000D01*
X119675414Y-27424000D01*
X119607293Y-27403998D01*
X119578015Y-27377934D01*
X119455883Y-27229117D01*
X119303538Y-27104090D01*
X119129728Y-27011186D01*
X118941125Y-26953974D01*
X118745003Y-26934659D01*
X118744997Y-26934659D01*
X118548875Y-26953974D01*
X118548873Y-26953974D01*
X118360271Y-27011186D01*
X118186461Y-27104090D01*
X118034117Y-27229117D01*
X117909090Y-27381461D01*
X117816186Y-27555271D01*
X117758974Y-27743873D01*
X117758974Y-27743875D01*
X117739659Y-27939996D01*
X117739659Y-27940003D01*
X104013500Y-27940003D01*
X104013500Y-26860502D01*
X105839843Y-26860502D01*
X105858425Y-27049176D01*
X105858426Y-27049182D01*
X105858427Y-27049183D01*
X105913463Y-27230615D01*
X106002838Y-27397824D01*
X106123117Y-27544383D01*
X106269676Y-27664662D01*
X106436885Y-27754037D01*
X106618317Y-27809073D01*
X106618321Y-27809073D01*
X106618323Y-27809074D01*
X106806997Y-27827657D01*
X106807000Y-27827657D01*
X106807003Y-27827657D01*
X106995676Y-27809074D01*
X106995677Y-27809073D01*
X106995683Y-27809073D01*
X107177115Y-27754037D01*
X107344324Y-27664662D01*
X107371638Y-27642246D01*
X108384499Y-27642246D01*
X108384500Y-27642250D01*
X108396023Y-27700182D01*
X108396133Y-27700731D01*
X108440448Y-27767052D01*
X108506769Y-27811367D01*
X108565252Y-27823000D01*
X108565253Y-27823000D01*
X110128747Y-27823000D01*
X110128748Y-27823000D01*
X110187231Y-27811367D01*
X110253552Y-27767052D01*
X110297867Y-27700731D01*
X110309500Y-27642248D01*
X110309500Y-26078752D01*
X110297867Y-26020269D01*
X110253552Y-25953948D01*
X110187231Y-25909633D01*
X110187228Y-25909632D01*
X110128750Y-25898000D01*
X110128748Y-25898000D01*
X108565252Y-25898000D01*
X108565249Y-25898000D01*
X108506771Y-25909632D01*
X108506768Y-25909633D01*
X108440448Y-25953948D01*
X108396133Y-26020268D01*
X108396132Y-26020271D01*
X108384500Y-26078749D01*
X108384499Y-26078753D01*
X108384499Y-27642246D01*
X107371638Y-27642246D01*
X107490883Y-27544383D01*
X107611162Y-27397824D01*
X107700537Y-27230615D01*
X107755573Y-27049183D01*
X107759316Y-27011186D01*
X107774157Y-26860502D01*
X107774157Y-26860497D01*
X107755574Y-26671823D01*
X107755573Y-26671821D01*
X107755573Y-26671817D01*
X107700537Y-26490385D01*
X107611162Y-26323176D01*
X107490883Y-26176617D01*
X107344324Y-26056338D01*
X107177115Y-25966963D01*
X106995683Y-25911927D01*
X106995682Y-25911926D01*
X106995676Y-25911925D01*
X106807003Y-25893343D01*
X106806997Y-25893343D01*
X106618323Y-25911925D01*
X106436884Y-25966963D01*
X106269675Y-26056338D01*
X106123117Y-26176617D01*
X106002838Y-26323175D01*
X105913463Y-26490384D01*
X105858425Y-26671823D01*
X105839843Y-26860497D01*
X105839843Y-26860502D01*
X104013500Y-26860502D01*
X104013500Y-20060250D01*
X105617388Y-20060250D01*
X105628343Y-20115326D01*
X105629021Y-20118731D01*
X105673336Y-20185052D01*
X105739657Y-20229367D01*
X105798140Y-20241000D01*
X105798141Y-20241000D01*
X107437635Y-20241000D01*
X107437636Y-20241000D01*
X107496119Y-20229367D01*
X107562440Y-20185052D01*
X107606755Y-20118731D01*
X107618388Y-20060248D01*
X107618388Y-18420752D01*
X107606755Y-18362269D01*
X107562440Y-18295948D01*
X107496119Y-18251633D01*
X107496116Y-18251632D01*
X107437638Y-18240000D01*
X107437636Y-18240000D01*
X105798140Y-18240000D01*
X105798137Y-18240000D01*
X105739659Y-18251632D01*
X105739656Y-18251633D01*
X105673336Y-18295948D01*
X105629021Y-18362268D01*
X105629020Y-18362271D01*
X105617388Y-18420749D01*
X105617388Y-20060250D01*
X104013500Y-20060250D01*
X104013500Y-17780003D01*
X117739659Y-17780003D01*
X117758974Y-17976124D01*
X117758974Y-17976126D01*
X117816186Y-18164728D01*
X117862638Y-18251633D01*
X117909090Y-18338538D01*
X118034117Y-18490883D01*
X118186462Y-18615910D01*
X118360273Y-18708814D01*
X118548868Y-18766024D01*
X118548872Y-18766024D01*
X118548874Y-18766025D01*
X118744997Y-18785341D01*
X118745000Y-18785341D01*
X118745003Y-18785341D01*
X118941124Y-18766025D01*
X118941125Y-18766024D01*
X118941132Y-18766024D01*
X119121726Y-18711240D01*
X119192716Y-18710607D01*
X119247394Y-18742720D01*
X119652595Y-19147921D01*
X119686621Y-19210233D01*
X119689500Y-19237016D01*
X119689499Y-21342538D01*
X119689259Y-21348030D01*
X119685736Y-21388306D01*
X119696203Y-21427372D01*
X119697393Y-21432740D01*
X119704412Y-21472547D01*
X119706505Y-21478296D01*
X119712866Y-21493652D01*
X119715445Y-21499183D01*
X119738634Y-21532300D01*
X119741587Y-21536936D01*
X119761806Y-21571955D01*
X119792787Y-21597951D01*
X119796829Y-21601655D01*
X121324674Y-23129500D01*
X122699285Y-24504111D01*
X122733311Y-24566423D01*
X122728246Y-24637238D01*
X122722981Y-24649368D01*
X122700773Y-24693967D01*
X122700769Y-24693977D01*
X122639885Y-24907962D01*
X122619357Y-25129499D01*
X122639885Y-25351039D01*
X122700768Y-25565020D01*
X122700774Y-25565037D01*
X122799938Y-25764184D01*
X122799942Y-25764189D01*
X122934017Y-25941735D01*
X123098438Y-26091624D01*
X123098439Y-26091625D01*
X123287587Y-26208740D01*
X123287590Y-26208741D01*
X123287599Y-26208747D01*
X123377989Y-26243764D01*
X123495053Y-26289116D01*
X123495056Y-26289116D01*
X123495060Y-26289118D01*
X123713757Y-26330000D01*
X123713760Y-26330000D01*
X123936240Y-26330000D01*
X123936243Y-26330000D01*
X124154940Y-26289118D01*
X124154944Y-26289116D01*
X124154946Y-26289116D01*
X124208298Y-26268446D01*
X124362401Y-26208747D01*
X124551562Y-26091624D01*
X124715981Y-25941736D01*
X124850058Y-25764189D01*
X124850059Y-25764185D01*
X124850061Y-25764184D01*
X124949325Y-25564837D01*
X124997594Y-25512773D01*
X125062115Y-25495000D01*
X127578040Y-25495000D01*
X127583525Y-25495239D01*
X127623807Y-25498764D01*
X127662870Y-25488296D01*
X127668231Y-25487107D01*
X127708045Y-25480088D01*
X127708047Y-25480086D01*
X127713838Y-25477979D01*
X127729101Y-25471657D01*
X127734681Y-25469055D01*
X127734681Y-25469054D01*
X127734684Y-25469054D01*
X127767817Y-25445852D01*
X127772428Y-25442915D01*
X127807455Y-25422694D01*
X127833448Y-25391715D01*
X127837151Y-25387673D01*
X128732421Y-24492404D01*
X128794734Y-24458379D01*
X128821517Y-24455500D01*
X130025940Y-24455500D01*
X130094061Y-24475502D01*
X130140554Y-24529158D01*
X130144097Y-24537740D01*
X130157111Y-24572881D01*
X130157115Y-24572889D01*
X130264744Y-24745566D01*
X130264754Y-24745579D01*
X130404239Y-24892315D01*
X130404941Y-24893053D01*
X130404944Y-24893055D01*
X130571952Y-25009296D01*
X130571953Y-25009297D01*
X130758938Y-25089539D01*
X130758941Y-25089539D01*
X130758942Y-25089540D01*
X130958259Y-25130500D01*
X130958260Y-25130500D01*
X131910741Y-25130500D01*
X131910742Y-25130500D01*
X131910743Y-25130499D01*
X131910760Y-25130499D01*
X132004833Y-25120931D01*
X132062438Y-25115074D01*
X132256588Y-25054159D01*
X132434502Y-24955409D01*
X132434503Y-24955408D01*
X132434505Y-24955407D01*
X132588890Y-24822870D01*
X132588895Y-24822866D01*
X132713448Y-24661958D01*
X132780134Y-24526008D01*
X132828090Y-24473660D01*
X132893256Y-24455500D01*
X133416984Y-24455500D01*
X133485105Y-24475502D01*
X133506079Y-24492405D01*
X135146595Y-26132921D01*
X135180621Y-26195233D01*
X135183500Y-26222016D01*
X135183500Y-28657001D01*
X135163498Y-28725122D01*
X135109842Y-28771615D01*
X135057500Y-28783001D01*
X130102959Y-28783001D01*
X130097474Y-28782761D01*
X130068871Y-28780258D01*
X130057194Y-28779237D01*
X130057191Y-28779237D01*
X130018125Y-28789704D01*
X130012760Y-28790893D01*
X129972951Y-28797913D01*
X129967234Y-28799994D01*
X129951831Y-28806374D01*
X129946315Y-28808946D01*
X129913190Y-28832139D01*
X129908557Y-28835090D01*
X129873546Y-28855305D01*
X129873544Y-28855306D01*
X129847546Y-28886288D01*
X129843833Y-28890340D01*
X128137394Y-30596778D01*
X128075082Y-30630804D01*
X128011723Y-30628258D01*
X127831125Y-30573474D01*
X127635003Y-30554159D01*
X127634997Y-30554159D01*
X127438875Y-30573474D01*
X127438873Y-30573474D01*
X127250271Y-30630686D01*
X127076461Y-30723590D01*
X126924117Y-30848617D01*
X126799090Y-31000961D01*
X126706186Y-31174771D01*
X126648974Y-31363373D01*
X126648974Y-31363375D01*
X126629659Y-31559496D01*
X126629659Y-31559503D01*
X126648974Y-31755624D01*
X126648974Y-31755626D01*
X126706186Y-31944228D01*
X126799089Y-32118038D01*
X126799090Y-32118038D01*
X126924117Y-32270383D01*
X127076462Y-32395410D01*
X127227826Y-32476316D01*
X127241601Y-32483679D01*
X127250273Y-32488314D01*
X127438868Y-32545524D01*
X127438872Y-32545524D01*
X127438874Y-32545525D01*
X127634997Y-32564841D01*
X127635000Y-32564841D01*
X127635003Y-32564841D01*
X127831124Y-32545525D01*
X127831126Y-32545525D01*
X127831127Y-32545524D01*
X127831132Y-32545524D01*
X128019727Y-32488314D01*
X128193538Y-32395410D01*
X128345883Y-32270383D01*
X128470910Y-32118038D01*
X128563814Y-31944227D01*
X128621024Y-31755632D01*
X128640341Y-31559500D01*
X128621024Y-31363373D01*
X128621023Y-31363364D01*
X128566241Y-31182775D01*
X128565607Y-31111782D01*
X128597717Y-31057107D01*
X130183922Y-29470903D01*
X130246232Y-29436880D01*
X130273015Y-29434001D01*
X135451606Y-29434001D01*
X135480525Y-29434001D01*
X141041526Y-29434001D01*
X141109647Y-29454003D01*
X141156140Y-29507659D01*
X141166244Y-29577933D01*
X141162101Y-29596576D01*
X141126975Y-29712370D01*
X141126974Y-29712375D01*
X141107659Y-29908496D01*
X141107659Y-29908503D01*
X141126974Y-30104624D01*
X141126974Y-30104626D01*
X141184186Y-30293228D01*
X141254382Y-30424554D01*
X141277090Y-30467038D01*
X141402117Y-30619383D01*
X141554462Y-30744410D01*
X141728273Y-30837314D01*
X141916868Y-30894524D01*
X141916872Y-30894524D01*
X141916874Y-30894525D01*
X142112997Y-30913841D01*
X142113000Y-30913841D01*
X142113003Y-30913841D01*
X142309124Y-30894525D01*
X142309126Y-30894525D01*
X142309127Y-30894524D01*
X142309132Y-30894524D01*
X142497727Y-30837314D01*
X142671538Y-30744410D01*
X142823883Y-30619383D01*
X142948910Y-30467038D01*
X143041814Y-30293227D01*
X143099024Y-30104632D01*
X143100271Y-30091974D01*
X143118341Y-29908503D01*
X143118341Y-29908496D01*
X143099025Y-29712375D01*
X143099025Y-29712373D01*
X143099024Y-29712370D01*
X143099024Y-29712368D01*
X143041814Y-29523773D01*
X142948910Y-29349962D01*
X142823883Y-29197617D01*
X142671538Y-29072590D01*
X142671537Y-29072589D01*
X142497728Y-28979686D01*
X142309125Y-28922474D01*
X142113003Y-28903159D01*
X142112997Y-28903159D01*
X141916875Y-28922474D01*
X141916870Y-28922475D01*
X141736274Y-28977258D01*
X141665280Y-28977891D01*
X141610604Y-28945778D01*
X141555166Y-28890340D01*
X141551451Y-28886287D01*
X141525456Y-28855307D01*
X141525455Y-28855306D01*
X141525452Y-28855304D01*
X141490436Y-28835087D01*
X141485801Y-28832134D01*
X141452684Y-28808946D01*
X141447153Y-28806367D01*
X141431797Y-28800006D01*
X141426048Y-28797913D01*
X141402175Y-28793703D01*
X141386235Y-28790892D01*
X141380873Y-28789704D01*
X141341809Y-28779237D01*
X141341806Y-28779237D01*
X141330128Y-28780258D01*
X141301525Y-28782761D01*
X141296041Y-28783001D01*
X135960500Y-28783001D01*
X135892379Y-28762999D01*
X135845886Y-28709343D01*
X135834500Y-28657001D01*
X135834500Y-26720935D01*
X137675630Y-26720935D01*
X137682213Y-26763903D01*
X137706444Y-26922071D01*
X137734711Y-26998397D01*
X137777111Y-27112881D01*
X137777115Y-27112889D01*
X137884744Y-27285566D01*
X137884754Y-27285579D01*
X138024936Y-27433048D01*
X138024941Y-27433053D01*
X138024944Y-27433055D01*
X138191952Y-27549296D01*
X138191953Y-27549297D01*
X138378938Y-27629539D01*
X138378941Y-27629539D01*
X138378942Y-27629540D01*
X138578259Y-27670500D01*
X138578260Y-27670500D01*
X139530741Y-27670500D01*
X139530742Y-27670500D01*
X139530743Y-27670499D01*
X139530760Y-27670499D01*
X139624833Y-27660931D01*
X139682438Y-27655074D01*
X139876588Y-27594159D01*
X140054502Y-27495409D01*
X140054503Y-27495408D01*
X140054505Y-27495407D01*
X140187233Y-27381462D01*
X140208895Y-27362866D01*
X140333448Y-27201958D01*
X140408391Y-27049176D01*
X140423058Y-27019276D01*
X140423058Y-27019274D01*
X140423060Y-27019271D01*
X140474063Y-26822285D01*
X140484369Y-26619064D01*
X140453556Y-26417929D01*
X140382886Y-26227113D01*
X140324176Y-26132921D01*
X140275255Y-26054433D01*
X140275245Y-26054420D01*
X140135063Y-25906951D01*
X140135061Y-25906949D01*
X140135059Y-25906947D01*
X140126328Y-25900870D01*
X139968047Y-25790703D01*
X139968046Y-25790702D01*
X139781061Y-25710460D01*
X139631570Y-25679740D01*
X139581741Y-25669500D01*
X138629258Y-25669500D01*
X138629239Y-25669500D01*
X138477566Y-25684925D01*
X138477563Y-25684925D01*
X138477562Y-25684926D01*
X138424965Y-25701428D01*
X138283413Y-25745840D01*
X138105494Y-25844592D01*
X137951109Y-25977129D01*
X137951102Y-25977136D01*
X137826555Y-26138036D01*
X137826550Y-26138044D01*
X137736941Y-26320723D01*
X137685936Y-26517719D01*
X137685936Y-26517722D01*
X137675630Y-26720935D01*
X135834500Y-26720935D01*
X135834500Y-26051959D01*
X135834740Y-26046465D01*
X135838264Y-26006193D01*
X135827792Y-25967114D01*
X135826610Y-25961782D01*
X135819588Y-25921955D01*
X135819585Y-25921949D01*
X135817485Y-25916181D01*
X135811144Y-25900870D01*
X135808554Y-25895316D01*
X135785363Y-25862196D01*
X135782409Y-25857558D01*
X135762193Y-25822544D01*
X135731212Y-25796547D01*
X135727169Y-25792843D01*
X133846165Y-23911838D01*
X133842450Y-23907786D01*
X133816454Y-23876805D01*
X133816451Y-23876803D01*
X133781435Y-23856586D01*
X133776800Y-23853633D01*
X133743683Y-23830445D01*
X133738152Y-23827866D01*
X133722796Y-23821505D01*
X133717047Y-23819412D01*
X133693174Y-23815202D01*
X133677234Y-23812391D01*
X133671872Y-23811203D01*
X133632808Y-23800736D01*
X133632805Y-23800736D01*
X133621127Y-23801757D01*
X133592524Y-23804260D01*
X133587040Y-23804500D01*
X132894060Y-23804500D01*
X132825939Y-23784498D01*
X132779446Y-23730842D01*
X132775903Y-23722260D01*
X132762888Y-23687118D01*
X132762884Y-23687110D01*
X132655255Y-23514433D01*
X132655245Y-23514420D01*
X132515063Y-23366951D01*
X132515061Y-23366949D01*
X132515059Y-23366947D01*
X132425471Y-23304592D01*
X132348047Y-23250703D01*
X132348046Y-23250702D01*
X132161061Y-23170460D01*
X132011570Y-23139740D01*
X131961741Y-23129500D01*
X131009258Y-23129500D01*
X131009239Y-23129500D01*
X130857566Y-23144925D01*
X130857563Y-23144925D01*
X130857562Y-23144926D01*
X130804965Y-23161428D01*
X130663413Y-23205840D01*
X130485494Y-23304592D01*
X130331109Y-23437129D01*
X130331102Y-23437136D01*
X130206555Y-23598036D01*
X130206553Y-23598039D01*
X130206552Y-23598042D01*
X130139865Y-23733991D01*
X130091910Y-23786340D01*
X130026744Y-23804500D01*
X128651460Y-23804500D01*
X128645975Y-23804260D01*
X128617372Y-23801757D01*
X128605695Y-23800736D01*
X128605692Y-23800736D01*
X128566626Y-23811203D01*
X128561261Y-23812392D01*
X128521452Y-23819412D01*
X128515735Y-23821493D01*
X128500332Y-23827873D01*
X128494816Y-23830445D01*
X128461691Y-23853638D01*
X128457058Y-23856589D01*
X128422047Y-23876804D01*
X128422045Y-23876805D01*
X128396052Y-23907781D01*
X128392339Y-23911833D01*
X127497079Y-24807095D01*
X127434766Y-24841120D01*
X127407983Y-24844000D01*
X125087067Y-24844000D01*
X125018946Y-24823998D01*
X124972453Y-24770342D01*
X124965877Y-24752482D01*
X124949230Y-24693976D01*
X124949225Y-24693962D01*
X124850061Y-24494815D01*
X124850057Y-24494810D01*
X124835476Y-24475502D01*
X124814269Y-24447419D01*
X124715982Y-24317264D01*
X124551561Y-24167375D01*
X124551560Y-24167374D01*
X124362412Y-24050259D01*
X124362405Y-24050255D01*
X124362401Y-24050253D01*
X124362396Y-24050251D01*
X124154946Y-23969883D01*
X124115972Y-23962597D01*
X123936243Y-23929000D01*
X123713757Y-23929000D01*
X123572674Y-23955373D01*
X123495053Y-23969883D01*
X123282168Y-24052357D01*
X123281754Y-24051289D01*
X123217716Y-24062696D01*
X123152185Y-24035381D01*
X123142369Y-24026543D01*
X120377405Y-21261579D01*
X120343379Y-21199267D01*
X120340500Y-21172484D01*
X120340500Y-20129500D01*
X122619357Y-20129500D01*
X122639885Y-20351039D01*
X122700768Y-20565020D01*
X122700774Y-20565037D01*
X122799938Y-20764184D01*
X122799942Y-20764189D01*
X122934017Y-20941735D01*
X123098438Y-21091624D01*
X123098439Y-21091625D01*
X123287587Y-21208740D01*
X123287590Y-21208741D01*
X123287599Y-21208747D01*
X123370154Y-21240729D01*
X123495053Y-21289116D01*
X123495056Y-21289116D01*
X123495060Y-21289118D01*
X123713757Y-21330000D01*
X123713760Y-21330000D01*
X123936240Y-21330000D01*
X123936243Y-21330000D01*
X124154940Y-21289118D01*
X124154944Y-21289116D01*
X124154946Y-21289116D01*
X124228202Y-21260736D01*
X124362401Y-21208747D01*
X124551562Y-21091624D01*
X124715981Y-20941736D01*
X124850058Y-20764189D01*
X124850059Y-20764185D01*
X124850061Y-20764184D01*
X124949325Y-20564837D01*
X124997594Y-20512773D01*
X125062115Y-20495000D01*
X126629040Y-20495000D01*
X126634525Y-20495239D01*
X126674807Y-20498764D01*
X126713870Y-20488296D01*
X126719231Y-20487107D01*
X126759045Y-20480088D01*
X126759047Y-20480086D01*
X126764838Y-20477979D01*
X126780101Y-20471657D01*
X126785681Y-20469055D01*
X126785681Y-20469054D01*
X126785684Y-20469054D01*
X126818817Y-20445852D01*
X126823428Y-20442915D01*
X126858455Y-20422694D01*
X126884463Y-20391697D01*
X126888146Y-20387678D01*
X127071406Y-20204418D01*
X127133716Y-20170395D01*
X127204532Y-20175460D01*
X127249594Y-20204421D01*
X128853349Y-21808176D01*
X128857054Y-21812219D01*
X128883044Y-21843193D01*
X128883046Y-21843195D01*
X128902458Y-21854402D01*
X128918066Y-21863413D01*
X128922683Y-21866354D01*
X128955816Y-21889554D01*
X128955820Y-21889555D01*
X128961376Y-21892146D01*
X128976682Y-21898486D01*
X128982449Y-21900585D01*
X128982455Y-21900588D01*
X129022284Y-21907610D01*
X129027631Y-21908796D01*
X129066693Y-21919263D01*
X129092039Y-21917045D01*
X129106970Y-21915740D01*
X129112462Y-21915500D01*
X130025940Y-21915500D01*
X130094061Y-21935502D01*
X130140554Y-21989158D01*
X130144097Y-21997740D01*
X130157111Y-22032881D01*
X130157115Y-22032889D01*
X130264744Y-22205566D01*
X130264754Y-22205579D01*
X130404936Y-22353048D01*
X130404941Y-22353053D01*
X130404944Y-22353055D01*
X130571952Y-22469296D01*
X130571953Y-22469297D01*
X130758938Y-22549539D01*
X130758941Y-22549539D01*
X130758942Y-22549540D01*
X130958259Y-22590500D01*
X130958260Y-22590500D01*
X131910741Y-22590500D01*
X131910742Y-22590500D01*
X131910743Y-22590499D01*
X131910760Y-22590499D01*
X132004833Y-22580931D01*
X132062438Y-22575074D01*
X132256588Y-22514159D01*
X132434502Y-22415409D01*
X132434503Y-22415408D01*
X132434505Y-22415407D01*
X132588890Y-22282870D01*
X132588895Y-22282866D01*
X132713448Y-22121958D01*
X132774380Y-21997740D01*
X132803058Y-21939276D01*
X132803058Y-21939274D01*
X132803060Y-21939271D01*
X132854063Y-21742285D01*
X132859203Y-21640935D01*
X137675630Y-21640935D01*
X137691156Y-21742277D01*
X137706444Y-21842071D01*
X137718368Y-21874267D01*
X137777111Y-22032881D01*
X137777115Y-22032889D01*
X137884744Y-22205566D01*
X137884754Y-22205579D01*
X138024936Y-22353048D01*
X138024941Y-22353053D01*
X138024944Y-22353055D01*
X138191952Y-22469296D01*
X138191953Y-22469297D01*
X138378938Y-22549539D01*
X138378941Y-22549539D01*
X138378942Y-22549540D01*
X138578259Y-22590500D01*
X138578260Y-22590500D01*
X139530741Y-22590500D01*
X139530742Y-22590500D01*
X139530743Y-22590499D01*
X139530760Y-22590499D01*
X139624833Y-22580931D01*
X139682438Y-22575074D01*
X139876588Y-22514159D01*
X140054502Y-22415409D01*
X140054503Y-22415408D01*
X140054505Y-22415407D01*
X140208890Y-22282870D01*
X140208895Y-22282866D01*
X140333448Y-22121958D01*
X140400134Y-21986008D01*
X140448090Y-21933660D01*
X140513256Y-21915500D01*
X141006983Y-21915500D01*
X141075104Y-21935502D01*
X141096078Y-21952404D01*
X141911095Y-22767420D01*
X141945120Y-22829733D01*
X141948000Y-22856516D01*
X141948000Y-24496877D01*
X141927998Y-24564998D01*
X141906886Y-24589992D01*
X141770017Y-24714764D01*
X141635942Y-24892310D01*
X141635938Y-24892315D01*
X141536774Y-25091462D01*
X141536768Y-25091479D01*
X141475885Y-25305460D01*
X141455357Y-25527000D01*
X141475885Y-25748539D01*
X141536768Y-25962520D01*
X141536774Y-25962537D01*
X141635938Y-26161684D01*
X141635942Y-26161689D01*
X141770021Y-26339240D01*
X141773943Y-26343542D01*
X141772652Y-26344718D01*
X141805318Y-26398495D01*
X141803520Y-26469468D01*
X141772658Y-26520014D01*
X141188921Y-27103752D01*
X141188920Y-27103753D01*
X141148335Y-27144337D01*
X141107752Y-27184920D01*
X141100185Y-27201147D01*
X141089209Y-27220157D01*
X141078947Y-27234812D01*
X141078945Y-27234818D01*
X141074314Y-27252099D01*
X141066806Y-27272728D01*
X141059241Y-27288951D01*
X141059241Y-27288953D01*
X141057680Y-27306785D01*
X141053868Y-27328401D01*
X141049236Y-27345687D01*
X141049236Y-27345693D01*
X141050795Y-27363523D01*
X141050795Y-27385474D01*
X141049235Y-27403304D01*
X141049236Y-27403307D01*
X141053868Y-27420594D01*
X141057681Y-27442220D01*
X141059241Y-27460046D01*
X141066804Y-27476267D01*
X141074312Y-27496895D01*
X141078944Y-27514180D01*
X141078945Y-27514182D01*
X141078946Y-27514184D01*
X141089211Y-27528844D01*
X141100186Y-27547854D01*
X141107753Y-27564081D01*
X141206633Y-27662961D01*
X141206643Y-27662969D01*
X141489297Y-27945624D01*
X141765344Y-28221671D01*
X141769059Y-28225725D01*
X141795044Y-28256693D01*
X141795046Y-28256695D01*
X141814458Y-28267902D01*
X141830066Y-28276913D01*
X141834683Y-28279854D01*
X141867816Y-28303054D01*
X141867820Y-28303055D01*
X141873376Y-28305646D01*
X141888682Y-28311986D01*
X141894449Y-28314085D01*
X141894455Y-28314088D01*
X141934284Y-28321110D01*
X141939631Y-28322296D01*
X141978693Y-28332763D01*
X142004039Y-28330545D01*
X142018970Y-28329240D01*
X142024462Y-28329000D01*
X144465984Y-28329000D01*
X144534105Y-28349002D01*
X144555079Y-28365905D01*
X146449595Y-30260420D01*
X146483620Y-30322732D01*
X146486500Y-30349515D01*
X146486500Y-37000507D01*
X146466498Y-37068628D01*
X146419896Y-37111629D01*
X146253461Y-37200590D01*
X146176322Y-37263897D01*
X146101117Y-37325617D01*
X146101114Y-37325619D01*
X146096333Y-37329544D01*
X146095141Y-37328092D01*
X146040515Y-37357894D01*
X145969701Y-37352802D01*
X145924684Y-37323858D01*
X143075720Y-34474894D01*
X143041694Y-34412582D01*
X143044240Y-34349226D01*
X143099024Y-34168632D01*
X143099025Y-34168624D01*
X143118341Y-33972503D01*
X143118341Y-33972496D01*
X143099025Y-33776375D01*
X143099025Y-33776373D01*
X143099024Y-33776370D01*
X143099024Y-33776368D01*
X143041814Y-33587773D01*
X142948910Y-33413962D01*
X142823883Y-33261617D01*
X142671538Y-33136590D01*
X142668563Y-33135000D01*
X142497728Y-33043686D01*
X142309125Y-32986474D01*
X142113003Y-32967159D01*
X142112997Y-32967159D01*
X141916875Y-32986474D01*
X141916873Y-32986474D01*
X141728271Y-33043686D01*
X141554461Y-33136590D01*
X141402117Y-33261617D01*
X141277090Y-33413961D01*
X141184186Y-33587771D01*
X141126974Y-33776373D01*
X141126974Y-33776375D01*
X141107659Y-33972496D01*
X141107659Y-33972503D01*
X141126974Y-34168624D01*
X141126974Y-34168626D01*
X141184186Y-34357228D01*
X141265817Y-34509948D01*
X141277090Y-34531038D01*
X141402117Y-34683383D01*
X141554462Y-34808410D01*
X141728273Y-34901314D01*
X141916868Y-34958524D01*
X141916872Y-34958524D01*
X141916874Y-34958525D01*
X142112997Y-34977841D01*
X142113000Y-34977841D01*
X142113003Y-34977841D01*
X142309124Y-34958525D01*
X142309125Y-34958524D01*
X142309132Y-34958524D01*
X142489726Y-34903740D01*
X142560716Y-34903107D01*
X142615394Y-34935220D01*
X145784610Y-38104436D01*
X145818636Y-38166748D01*
X145820907Y-38181178D01*
X145825976Y-38232632D01*
X145847522Y-38303658D01*
X145883186Y-38421228D01*
X145964475Y-38573308D01*
X145976090Y-38595038D01*
X146101117Y-38747383D01*
X146253462Y-38872410D01*
X146427273Y-38965314D01*
X146615868Y-39022524D01*
X146615872Y-39022524D01*
X146615874Y-39022525D01*
X146811997Y-39041841D01*
X146812000Y-39041841D01*
X146812003Y-39041841D01*
X147008124Y-39022525D01*
X147008126Y-39022525D01*
X147008127Y-39022524D01*
X147008132Y-39022524D01*
X147196727Y-38965314D01*
X147370538Y-38872410D01*
X147522883Y-38747383D01*
X147647910Y-38595038D01*
X147740814Y-38421227D01*
X147798024Y-38232632D01*
X147805515Y-38156571D01*
X147817341Y-38036503D01*
X147817341Y-38036496D01*
X147798025Y-37840375D01*
X147798025Y-37840373D01*
X147798024Y-37840370D01*
X147798024Y-37840368D01*
X147740814Y-37651773D01*
X147647910Y-37477962D01*
X147522883Y-37325617D01*
X147370538Y-37200590D01*
X147204104Y-37111629D01*
X147153456Y-37061877D01*
X147137500Y-37000507D01*
X147137500Y-33972503D01*
X151267659Y-33972503D01*
X151286974Y-34168624D01*
X151286974Y-34168626D01*
X151344186Y-34357228D01*
X151425817Y-34509948D01*
X151437090Y-34531038D01*
X151562117Y-34683383D01*
X151714462Y-34808410D01*
X151888273Y-34901314D01*
X152076868Y-34958524D01*
X152076872Y-34958524D01*
X152076874Y-34958525D01*
X152272997Y-34977841D01*
X152273000Y-34977841D01*
X152273003Y-34977841D01*
X152469124Y-34958525D01*
X152469126Y-34958525D01*
X152469127Y-34958524D01*
X152469132Y-34958524D01*
X152657727Y-34901314D01*
X152831538Y-34808410D01*
X152983883Y-34683383D01*
X153108910Y-34531038D01*
X153201814Y-34357227D01*
X153259024Y-34168632D01*
X153259025Y-34168624D01*
X153278341Y-33972503D01*
X153278341Y-33972496D01*
X153259025Y-33776375D01*
X153259025Y-33776373D01*
X153259024Y-33776370D01*
X153259024Y-33776368D01*
X153201814Y-33587773D01*
X153108910Y-33413962D01*
X152983883Y-33261617D01*
X152831538Y-33136590D01*
X152828563Y-33135000D01*
X152657728Y-33043686D01*
X152469125Y-32986474D01*
X152273003Y-32967159D01*
X152272997Y-32967159D01*
X152076875Y-32986474D01*
X152076873Y-32986474D01*
X151888271Y-33043686D01*
X151714461Y-33136590D01*
X151562117Y-33261617D01*
X151437090Y-33413961D01*
X151344186Y-33587771D01*
X151286974Y-33776373D01*
X151286974Y-33776375D01*
X151267659Y-33972496D01*
X151267659Y-33972503D01*
X147137500Y-33972503D01*
X147137500Y-30179459D01*
X147137740Y-30173965D01*
X147141264Y-30133693D01*
X147130792Y-30094614D01*
X147129610Y-30089282D01*
X147122588Y-30049455D01*
X147122585Y-30049449D01*
X147120485Y-30043681D01*
X147114144Y-30028370D01*
X147111554Y-30022816D01*
X147088363Y-29989696D01*
X147085409Y-29985058D01*
X147065193Y-29950044D01*
X147034212Y-29924047D01*
X147030169Y-29920343D01*
X147018329Y-29908503D01*
X151267659Y-29908503D01*
X151286974Y-30104624D01*
X151286974Y-30104626D01*
X151344186Y-30293228D01*
X151414382Y-30424554D01*
X151437090Y-30467038D01*
X151562117Y-30619383D01*
X151714462Y-30744410D01*
X151888273Y-30837314D01*
X152076868Y-30894524D01*
X152076872Y-30894524D01*
X152076874Y-30894525D01*
X152272997Y-30913841D01*
X152273000Y-30913841D01*
X152273003Y-30913841D01*
X152469124Y-30894525D01*
X152469126Y-30894525D01*
X152469127Y-30894524D01*
X152469132Y-30894524D01*
X152657727Y-30837314D01*
X152831538Y-30744410D01*
X152983883Y-30619383D01*
X153108910Y-30467038D01*
X153201814Y-30293227D01*
X153259024Y-30104632D01*
X153260271Y-30091974D01*
X153278341Y-29908503D01*
X153278341Y-29908496D01*
X153259025Y-29712375D01*
X153259025Y-29712373D01*
X153259024Y-29712370D01*
X153259024Y-29712368D01*
X153201814Y-29523773D01*
X153108910Y-29349962D01*
X152983883Y-29197617D01*
X152831538Y-29072590D01*
X152831537Y-29072589D01*
X152657728Y-28979686D01*
X152469125Y-28922474D01*
X152273003Y-28903159D01*
X152272997Y-28903159D01*
X152076875Y-28922474D01*
X152076873Y-28922474D01*
X151888271Y-28979686D01*
X151714461Y-29072590D01*
X151562117Y-29197617D01*
X151437090Y-29349961D01*
X151344186Y-29523771D01*
X151286974Y-29712373D01*
X151286974Y-29712375D01*
X151267659Y-29908496D01*
X151267659Y-29908503D01*
X147018329Y-29908503D01*
X144895165Y-27785339D01*
X144891450Y-27781286D01*
X144879506Y-27767052D01*
X144865455Y-27750306D01*
X144865454Y-27750305D01*
X144865451Y-27750303D01*
X144830435Y-27730086D01*
X144825800Y-27727133D01*
X144792683Y-27703945D01*
X144787152Y-27701366D01*
X144771796Y-27695005D01*
X144766047Y-27692912D01*
X144742174Y-27688702D01*
X144726234Y-27685891D01*
X144720872Y-27684703D01*
X144681808Y-27674236D01*
X144681805Y-27674236D01*
X144670127Y-27675257D01*
X144641524Y-27677760D01*
X144636040Y-27678000D01*
X142194517Y-27678000D01*
X142126396Y-27657998D01*
X142105422Y-27641095D01*
X141927921Y-27463594D01*
X141893895Y-27401282D01*
X141898960Y-27330467D01*
X141927918Y-27285406D01*
X142449424Y-26763900D01*
X142511733Y-26729878D01*
X142543932Y-26727914D01*
X142543932Y-26727500D01*
X142772240Y-26727500D01*
X142772243Y-26727500D01*
X142990940Y-26686618D01*
X142990944Y-26686616D01*
X142990946Y-26686616D01*
X143044298Y-26665946D01*
X143198401Y-26606247D01*
X143387562Y-26489124D01*
X143551981Y-26339236D01*
X143686058Y-26161689D01*
X143686059Y-26161685D01*
X143686061Y-26161684D01*
X143785225Y-25962537D01*
X143785226Y-25962533D01*
X143785229Y-25962528D01*
X143846115Y-25748536D01*
X143866643Y-25527000D01*
X143846115Y-25305464D01*
X143785229Y-25091472D01*
X143785227Y-25091468D01*
X143785225Y-25091462D01*
X143686061Y-24892315D01*
X143686057Y-24892310D01*
X143551982Y-24714764D01*
X143387561Y-24564875D01*
X143387560Y-24564874D01*
X143198412Y-24447759D01*
X143198405Y-24447755D01*
X143198401Y-24447753D01*
X143197539Y-24447419D01*
X142990946Y-24367383D01*
X142951972Y-24360097D01*
X142772243Y-24326500D01*
X142772240Y-24326500D01*
X142725000Y-24326500D01*
X142656879Y-24306498D01*
X142610386Y-24252842D01*
X142599000Y-24200500D01*
X142599000Y-22686460D01*
X142599240Y-22680966D01*
X142602764Y-22640695D01*
X142602229Y-22634591D01*
X142599000Y-22610058D01*
X142599000Y-22117992D01*
X142619002Y-22049871D01*
X142665601Y-22006872D01*
X142832038Y-21917910D01*
X142984383Y-21792883D01*
X143109410Y-21640538D01*
X143202314Y-21466727D01*
X143259524Y-21278132D01*
X143259742Y-21275923D01*
X143278841Y-21082003D01*
X143278841Y-21081996D01*
X143259525Y-20885875D01*
X143259525Y-20885873D01*
X143259524Y-20885870D01*
X143259524Y-20885868D01*
X143202314Y-20697273D01*
X143109410Y-20523462D01*
X143080991Y-20488833D01*
X143053557Y-20455405D01*
X143025803Y-20390057D01*
X143037785Y-20320079D01*
X143048953Y-20307866D01*
X142989016Y-20330222D01*
X142919642Y-20315131D01*
X142900093Y-20301942D01*
X142832038Y-20246090D01*
X142658228Y-20153186D01*
X142469625Y-20095974D01*
X142273503Y-20076659D01*
X142273497Y-20076659D01*
X142077375Y-20095974D01*
X142077373Y-20095974D01*
X141888771Y-20153186D01*
X141714961Y-20246090D01*
X141562617Y-20371117D01*
X141437590Y-20523461D01*
X141344686Y-20697271D01*
X141287474Y-20885873D01*
X141287474Y-20885875D01*
X141268159Y-21081996D01*
X141268159Y-21082003D01*
X141272507Y-21126150D01*
X141259278Y-21195903D01*
X141210438Y-21247431D01*
X141147114Y-21264500D01*
X140514060Y-21264500D01*
X140445939Y-21244498D01*
X140399446Y-21190842D01*
X140395903Y-21182260D01*
X140382888Y-21147118D01*
X140382884Y-21147110D01*
X140275255Y-20974433D01*
X140275245Y-20974420D01*
X140135063Y-20826951D01*
X140135061Y-20826949D01*
X140135059Y-20826947D01*
X140045471Y-20764592D01*
X139968047Y-20710703D01*
X139968046Y-20710702D01*
X139781061Y-20630460D01*
X139617604Y-20596870D01*
X139581741Y-20589500D01*
X138629258Y-20589500D01*
X138629239Y-20589500D01*
X138477566Y-20604925D01*
X138477563Y-20604925D01*
X138477562Y-20604926D01*
X138454439Y-20612181D01*
X138283413Y-20665840D01*
X138105494Y-20764592D01*
X137951109Y-20897129D01*
X137951102Y-20897136D01*
X137826555Y-21058036D01*
X137826550Y-21058044D01*
X137736941Y-21240723D01*
X137685936Y-21437719D01*
X137685936Y-21437722D01*
X137675630Y-21640935D01*
X132859203Y-21640935D01*
X132864369Y-21539064D01*
X132833556Y-21337929D01*
X132762886Y-21147113D01*
X132707364Y-21058036D01*
X132655255Y-20974433D01*
X132655245Y-20974420D01*
X132515063Y-20826951D01*
X132515061Y-20826949D01*
X132515059Y-20826947D01*
X132425471Y-20764592D01*
X132348047Y-20710703D01*
X132348046Y-20710702D01*
X132161061Y-20630460D01*
X131997604Y-20596870D01*
X131961741Y-20589500D01*
X131009258Y-20589500D01*
X131009239Y-20589500D01*
X130857566Y-20604925D01*
X130857563Y-20604925D01*
X130857562Y-20604926D01*
X130834439Y-20612181D01*
X130663413Y-20665840D01*
X130485494Y-20764592D01*
X130331109Y-20897129D01*
X130331102Y-20897136D01*
X130206555Y-21058036D01*
X130206553Y-21058039D01*
X130190079Y-21091624D01*
X130139865Y-21193991D01*
X130091910Y-21246340D01*
X130026744Y-21264500D01*
X129282517Y-21264500D01*
X129214396Y-21244498D01*
X129193422Y-21227595D01*
X127522905Y-19557078D01*
X127488879Y-19494766D01*
X127486000Y-19467983D01*
X127486000Y-19100935D01*
X130055630Y-19100935D01*
X130071156Y-19202277D01*
X130086444Y-19302071D01*
X130089751Y-19311000D01*
X130157111Y-19492881D01*
X130157115Y-19492889D01*
X130264744Y-19665566D01*
X130264754Y-19665579D01*
X130399277Y-19807095D01*
X130404941Y-19813053D01*
X130404944Y-19813055D01*
X130571952Y-19929296D01*
X130571953Y-19929297D01*
X130758938Y-20009539D01*
X130758941Y-20009539D01*
X130758942Y-20009540D01*
X130958259Y-20050500D01*
X130958260Y-20050500D01*
X131910741Y-20050500D01*
X131910742Y-20050500D01*
X131910743Y-20050499D01*
X131910760Y-20050499D01*
X132004833Y-20040931D01*
X132062438Y-20035074D01*
X132256588Y-19974159D01*
X132434502Y-19875409D01*
X132434503Y-19875408D01*
X132434505Y-19875407D01*
X132441094Y-19869750D01*
X137679500Y-19869750D01*
X137687101Y-19907964D01*
X137691133Y-19928231D01*
X137735448Y-19994552D01*
X137801769Y-20038867D01*
X137860252Y-20050500D01*
X137860253Y-20050500D01*
X140299747Y-20050500D01*
X140299748Y-20050500D01*
X140358231Y-20038867D01*
X140424552Y-19994552D01*
X140468867Y-19928231D01*
X140480500Y-19869748D01*
X140480500Y-19311000D01*
X140500502Y-19242879D01*
X140554158Y-19196386D01*
X140606500Y-19185000D01*
X142084525Y-19185000D01*
X142086484Y-19185000D01*
X142154605Y-19205002D01*
X142175579Y-19221905D01*
X143069122Y-20115448D01*
X143103148Y-20177760D01*
X143098083Y-20248575D01*
X143075107Y-20279266D01*
X143085697Y-20267687D01*
X143154329Y-20249516D01*
X143221890Y-20271335D01*
X143240051Y-20286376D01*
X143782595Y-20828920D01*
X143816621Y-20891232D01*
X143819500Y-20918015D01*
X143819500Y-22017539D01*
X143819260Y-22023032D01*
X143815736Y-22063304D01*
X143815736Y-22063306D01*
X143826203Y-22102372D01*
X143827393Y-22107740D01*
X143834412Y-22147547D01*
X143836505Y-22153296D01*
X143842866Y-22168652D01*
X143845445Y-22174183D01*
X143868634Y-22207300D01*
X143871587Y-22211936D01*
X143891806Y-22246955D01*
X143922787Y-22272951D01*
X143926829Y-22276655D01*
X145248210Y-23598036D01*
X146540769Y-24890595D01*
X146574795Y-24952907D01*
X146569730Y-25023722D01*
X146564466Y-25035850D01*
X146536770Y-25091472D01*
X146536769Y-25091476D01*
X146475885Y-25305460D01*
X146455357Y-25526999D01*
X146475885Y-25748539D01*
X146536768Y-25962520D01*
X146536774Y-25962537D01*
X146635938Y-26161684D01*
X146635942Y-26161689D01*
X146770017Y-26339235D01*
X146934438Y-26489124D01*
X146934439Y-26489125D01*
X147123587Y-26606240D01*
X147123590Y-26606241D01*
X147123599Y-26606247D01*
X147213989Y-26641264D01*
X147331053Y-26686616D01*
X147331056Y-26686616D01*
X147331060Y-26686618D01*
X147549757Y-26727500D01*
X147549760Y-26727500D01*
X147772240Y-26727500D01*
X147772243Y-26727500D01*
X147990940Y-26686618D01*
X147990944Y-26686616D01*
X147990946Y-26686616D01*
X148044298Y-26665946D01*
X148198401Y-26606247D01*
X148387562Y-26489124D01*
X148551981Y-26339236D01*
X148686058Y-26161689D01*
X148686059Y-26161685D01*
X148686061Y-26161684D01*
X148785225Y-25962537D01*
X148785226Y-25962533D01*
X148785229Y-25962528D01*
X148846115Y-25748536D01*
X148866643Y-25527000D01*
X148846115Y-25305464D01*
X148785229Y-25091472D01*
X148785227Y-25091468D01*
X148785225Y-25091462D01*
X148686061Y-24892315D01*
X148686057Y-24892310D01*
X148551982Y-24714764D01*
X148387561Y-24564875D01*
X148387560Y-24564874D01*
X148198412Y-24447759D01*
X148198405Y-24447755D01*
X148198401Y-24447753D01*
X148197539Y-24447419D01*
X147990946Y-24367383D01*
X147951972Y-24360097D01*
X147772243Y-24326500D01*
X147549757Y-24326500D01*
X147408674Y-24352873D01*
X147331053Y-24367383D01*
X147124461Y-24447419D01*
X147053715Y-24453376D01*
X146990978Y-24420139D01*
X146989849Y-24419023D01*
X144507405Y-21936579D01*
X144473379Y-21874267D01*
X144470500Y-21847484D01*
X144470500Y-21082003D01*
X151428159Y-21082003D01*
X151447474Y-21278124D01*
X151447474Y-21278126D01*
X151504686Y-21466728D01*
X151574827Y-21597951D01*
X151597590Y-21640538D01*
X151722617Y-21792883D01*
X151874962Y-21917910D01*
X152048773Y-22010814D01*
X152237368Y-22068024D01*
X152237372Y-22068024D01*
X152237374Y-22068025D01*
X152433497Y-22087341D01*
X152433500Y-22087341D01*
X152433503Y-22087341D01*
X152629624Y-22068025D01*
X152629626Y-22068025D01*
X152629627Y-22068024D01*
X152629632Y-22068024D01*
X152818227Y-22010814D01*
X152992038Y-21917910D01*
X153144383Y-21792883D01*
X153269410Y-21640538D01*
X153362314Y-21466727D01*
X153419524Y-21278132D01*
X153419742Y-21275923D01*
X153438841Y-21082003D01*
X153438841Y-21081996D01*
X153419525Y-20885875D01*
X153419525Y-20885873D01*
X153419524Y-20885870D01*
X153419524Y-20885868D01*
X153362314Y-20697273D01*
X153269410Y-20523462D01*
X153144383Y-20371117D01*
X152992038Y-20246090D01*
X152982513Y-20240999D01*
X152825604Y-20157129D01*
X152774956Y-20107377D01*
X152759000Y-20046007D01*
X152759000Y-14276591D01*
X152779002Y-14208470D01*
X152832658Y-14161977D01*
X152848420Y-14156017D01*
X152911727Y-14136814D01*
X153085538Y-14043910D01*
X153237883Y-13918883D01*
X153362910Y-13766538D01*
X153455814Y-13592727D01*
X153513024Y-13404132D01*
X153532341Y-13208000D01*
X153527383Y-13157663D01*
X153513025Y-13011875D01*
X153513025Y-13011873D01*
X153513024Y-13011870D01*
X153513024Y-13011868D01*
X153455814Y-12823273D01*
X153362910Y-12649462D01*
X153237883Y-12497117D01*
X153085538Y-12372090D01*
X153085538Y-12372089D01*
X152911728Y-12279186D01*
X152723125Y-12221974D01*
X152527003Y-12202659D01*
X152526997Y-12202659D01*
X152330875Y-12221974D01*
X152330873Y-12221974D01*
X152142271Y-12279186D01*
X151968461Y-12372090D01*
X151816117Y-12497117D01*
X151691090Y-12649461D01*
X151598186Y-12823271D01*
X151540974Y-13011873D01*
X151540974Y-13011875D01*
X151521659Y-13207996D01*
X151521659Y-13208003D01*
X151540974Y-13404124D01*
X151540974Y-13404126D01*
X151598186Y-13592728D01*
X151651091Y-13691706D01*
X151691090Y-13766538D01*
X151816117Y-13918883D01*
X151878402Y-13969999D01*
X151968459Y-14043908D01*
X151968460Y-14043908D01*
X151968462Y-14043910D01*
X152041397Y-14082894D01*
X152092044Y-14132644D01*
X152108000Y-14194015D01*
X152108000Y-20046007D01*
X152087998Y-20114128D01*
X152041396Y-20157129D01*
X151874961Y-20246090D01*
X151722617Y-20371117D01*
X151597590Y-20523461D01*
X151504686Y-20697271D01*
X151447474Y-20885873D01*
X151447474Y-20885875D01*
X151428159Y-21081996D01*
X151428159Y-21082003D01*
X144470500Y-21082003D01*
X144470500Y-20747959D01*
X144470740Y-20742465D01*
X144474264Y-20702193D01*
X144463792Y-20663114D01*
X144462610Y-20657782D01*
X144455588Y-20617955D01*
X144455585Y-20617949D01*
X144453485Y-20612181D01*
X144447144Y-20596870D01*
X144444554Y-20591316D01*
X144421363Y-20558196D01*
X144418409Y-20553558D01*
X144398193Y-20518544D01*
X144367212Y-20492547D01*
X144363169Y-20488843D01*
X142711269Y-18836943D01*
X142677244Y-18774632D01*
X142676278Y-18725974D01*
X142677588Y-18718545D01*
X142684611Y-18678706D01*
X142685791Y-18673384D01*
X142696263Y-18634307D01*
X142694654Y-18615910D01*
X142692740Y-18594029D01*
X142692500Y-18588537D01*
X142692500Y-14243992D01*
X142712502Y-14175871D01*
X142759101Y-14132872D01*
X142925538Y-14043910D01*
X143077883Y-13918883D01*
X143202910Y-13766538D01*
X143295814Y-13592727D01*
X143353024Y-13404132D01*
X143372341Y-13208000D01*
X143367383Y-13157663D01*
X143353025Y-13011875D01*
X143353025Y-13011873D01*
X143353024Y-13011870D01*
X143353024Y-13011868D01*
X143295814Y-12823273D01*
X143202910Y-12649462D01*
X143077883Y-12497117D01*
X142925538Y-12372090D01*
X142925538Y-12372089D01*
X142751728Y-12279186D01*
X142563125Y-12221974D01*
X142367003Y-12202659D01*
X142366997Y-12202659D01*
X142170875Y-12221974D01*
X142170873Y-12221974D01*
X141982271Y-12279186D01*
X141808461Y-12372090D01*
X141656117Y-12497117D01*
X141531090Y-12649461D01*
X141438186Y-12823271D01*
X141380974Y-13011873D01*
X141380974Y-13011875D01*
X141361659Y-13207996D01*
X141361659Y-13208003D01*
X141380974Y-13404124D01*
X141380974Y-13404126D01*
X141438186Y-13592728D01*
X141491091Y-13691706D01*
X141531090Y-13766538D01*
X141656117Y-13918883D01*
X141808462Y-14043910D01*
X141974898Y-14132871D01*
X142025544Y-14182622D01*
X142041500Y-14243992D01*
X142041500Y-18408000D01*
X142021498Y-18476121D01*
X141967842Y-18522614D01*
X141915500Y-18534000D01*
X140606500Y-18534000D01*
X140538379Y-18513998D01*
X140491886Y-18460342D01*
X140480500Y-18408000D01*
X140480500Y-18230253D01*
X140480499Y-18230249D01*
X140478476Y-18220081D01*
X140468867Y-18171769D01*
X140424552Y-18105448D01*
X140358231Y-18061133D01*
X140358228Y-18061132D01*
X140299750Y-18049500D01*
X140299748Y-18049500D01*
X137860252Y-18049500D01*
X137860249Y-18049500D01*
X137801771Y-18061132D01*
X137801768Y-18061133D01*
X137735448Y-18105448D01*
X137691133Y-18171768D01*
X137691132Y-18171771D01*
X137679500Y-18230249D01*
X137679500Y-19869750D01*
X132441094Y-19869750D01*
X132536874Y-19787524D01*
X132588895Y-19742866D01*
X132713448Y-19581958D01*
X132803060Y-19399271D01*
X132854063Y-19202285D01*
X132864369Y-18999064D01*
X132833556Y-18797929D01*
X132762886Y-18607113D01*
X132707364Y-18518036D01*
X132655255Y-18434433D01*
X132655245Y-18434420D01*
X132515063Y-18286951D01*
X132515061Y-18286949D01*
X132515059Y-18286947D01*
X132464322Y-18251633D01*
X132348047Y-18170703D01*
X132348046Y-18170702D01*
X132161061Y-18090460D01*
X132011570Y-18059740D01*
X131961741Y-18049500D01*
X131009258Y-18049500D01*
X131009239Y-18049500D01*
X130857566Y-18064925D01*
X130857563Y-18064925D01*
X130857562Y-18064926D01*
X130804965Y-18081428D01*
X130663413Y-18125840D01*
X130485494Y-18224592D01*
X130331109Y-18357129D01*
X130331102Y-18357136D01*
X130206555Y-18518036D01*
X130206550Y-18518044D01*
X130116941Y-18700723D01*
X130065936Y-18897719D01*
X130065936Y-18897722D01*
X130055630Y-19100935D01*
X127486000Y-19100935D01*
X127486000Y-18719185D01*
X127506002Y-18651064D01*
X127559658Y-18604571D01*
X127624351Y-18593792D01*
X127635000Y-18594841D01*
X127635000Y-18594840D01*
X127635001Y-18594841D01*
X127635003Y-18594841D01*
X127831124Y-18575525D01*
X127831126Y-18575525D01*
X127831127Y-18575524D01*
X127831132Y-18575524D01*
X128019727Y-18518314D01*
X128193538Y-18425410D01*
X128345883Y-18300383D01*
X128470910Y-18148038D01*
X128563814Y-17974227D01*
X128621024Y-17785632D01*
X128621025Y-17785624D01*
X128640341Y-17589503D01*
X128640341Y-17589496D01*
X128621025Y-17393375D01*
X128621025Y-17393373D01*
X128621024Y-17393370D01*
X128621024Y-17393368D01*
X128563814Y-17204773D01*
X128470910Y-17030962D01*
X128345883Y-16878617D01*
X128193538Y-16753590D01*
X128019728Y-16660686D01*
X127831125Y-16603474D01*
X127635003Y-16584159D01*
X127634997Y-16584159D01*
X127438875Y-16603474D01*
X127438873Y-16603474D01*
X127250271Y-16660686D01*
X127076461Y-16753590D01*
X126924117Y-16878617D01*
X126799090Y-17030961D01*
X126706186Y-17204771D01*
X126648974Y-17393373D01*
X126648974Y-17393375D01*
X126629659Y-17589496D01*
X126629659Y-17589503D01*
X126648974Y-17785624D01*
X126648974Y-17785626D01*
X126706186Y-17974228D01*
X126799090Y-18148039D01*
X126806396Y-18156940D01*
X126834152Y-18222286D01*
X126835000Y-18236877D01*
X126835000Y-19467982D01*
X126814998Y-19536103D01*
X126798096Y-19557077D01*
X126548079Y-19807095D01*
X126485766Y-19841120D01*
X126458983Y-19844000D01*
X125087067Y-19844000D01*
X125018946Y-19823998D01*
X124972453Y-19770342D01*
X124965877Y-19752482D01*
X124949230Y-19693976D01*
X124949225Y-19693962D01*
X124850061Y-19494815D01*
X124850057Y-19494810D01*
X124848606Y-19492889D01*
X124823686Y-19459889D01*
X124715982Y-19317264D01*
X124551561Y-19167375D01*
X124551560Y-19167374D01*
X124362412Y-19050259D01*
X124362405Y-19050255D01*
X124362401Y-19050253D01*
X124362396Y-19050251D01*
X124154946Y-18969883D01*
X124115972Y-18962597D01*
X123936243Y-18929000D01*
X123713757Y-18929000D01*
X123572674Y-18955373D01*
X123495053Y-18969883D01*
X123287603Y-19050251D01*
X123287587Y-19050259D01*
X123098439Y-19167374D01*
X123098438Y-19167375D01*
X122934017Y-19317264D01*
X122799942Y-19494810D01*
X122799938Y-19494815D01*
X122700774Y-19693962D01*
X122700768Y-19693979D01*
X122639885Y-19907960D01*
X122619357Y-20129500D01*
X120340500Y-20129500D01*
X120340500Y-19066961D01*
X120340740Y-19061469D01*
X120341867Y-19048577D01*
X120344263Y-19021193D01*
X120333796Y-18982131D01*
X120332610Y-18976784D01*
X120325588Y-18936955D01*
X120325585Y-18936949D01*
X120323486Y-18931182D01*
X120317146Y-18915876D01*
X120314555Y-18910320D01*
X120314554Y-18910316D01*
X120291354Y-18877183D01*
X120288410Y-18872561D01*
X120268195Y-18837546D01*
X120268194Y-18837545D01*
X120237224Y-18811558D01*
X120233170Y-18807843D01*
X119707721Y-18282393D01*
X119673695Y-18220081D01*
X119676242Y-18156722D01*
X119678877Y-18148038D01*
X119731024Y-17976132D01*
X119731212Y-17974227D01*
X119750341Y-17780003D01*
X119750341Y-17779996D01*
X119731025Y-17583875D01*
X119731025Y-17583873D01*
X119731024Y-17583870D01*
X119731024Y-17583868D01*
X119673814Y-17395273D01*
X119672799Y-17393375D01*
X119580909Y-17221461D01*
X119455883Y-17069117D01*
X119303538Y-16944090D01*
X119181047Y-16878617D01*
X119129728Y-16851186D01*
X118941125Y-16793974D01*
X118745003Y-16774659D01*
X118744997Y-16774659D01*
X118548875Y-16793974D01*
X118548873Y-16793974D01*
X118360271Y-16851186D01*
X118186461Y-16944090D01*
X118034117Y-17069117D01*
X117909090Y-17221461D01*
X117816186Y-17395271D01*
X117758974Y-17583873D01*
X117758974Y-17583875D01*
X117739659Y-17779996D01*
X117739659Y-17780003D01*
X104013500Y-17780003D01*
X104013500Y-13969999D01*
X130276918Y-13969999D01*
X130296821Y-14248290D01*
X130356128Y-14520921D01*
X130453631Y-14782336D01*
X130453632Y-14782340D01*
X130587342Y-15027210D01*
X130754546Y-15250569D01*
X130754554Y-15250578D01*
X130951821Y-15447845D01*
X130951830Y-15447853D01*
X130951832Y-15447855D01*
X131175187Y-15615056D01*
X131420063Y-15748769D01*
X131681477Y-15846271D01*
X131954106Y-15905578D01*
X132232400Y-15925482D01*
X132510694Y-15905578D01*
X132783323Y-15846271D01*
X133044737Y-15748769D01*
X133289613Y-15615056D01*
X133512968Y-15447855D01*
X133710255Y-15250568D01*
X133877456Y-15027213D01*
X134011169Y-14782337D01*
X134108671Y-14520923D01*
X134167978Y-14248294D01*
X134187882Y-13970000D01*
X134167978Y-13691706D01*
X134108671Y-13419077D01*
X134011169Y-13157663D01*
X133877456Y-12912787D01*
X133710255Y-12689432D01*
X133710253Y-12689430D01*
X133710245Y-12689421D01*
X133512978Y-12492154D01*
X133512969Y-12492146D01*
X133289610Y-12324942D01*
X133044740Y-12191232D01*
X133044737Y-12191231D01*
X132889234Y-12133231D01*
X132783321Y-12093728D01*
X132510690Y-12034421D01*
X132232400Y-12014518D01*
X131954109Y-12034421D01*
X131681478Y-12093728D01*
X131420063Y-12191231D01*
X131420059Y-12191232D01*
X131175189Y-12324942D01*
X130951830Y-12492146D01*
X130951821Y-12492154D01*
X130754554Y-12689421D01*
X130754546Y-12689430D01*
X130587342Y-12912789D01*
X130453632Y-13157659D01*
X130453631Y-13157663D01*
X130356128Y-13419078D01*
X130296821Y-13691709D01*
X130276918Y-13969999D01*
X104013500Y-13969999D01*
X104013500Y-10476500D01*
X104033502Y-10408379D01*
X104087158Y-10361886D01*
X104139500Y-10350500D01*
X153797500Y-10350500D01*
X153865621Y-10370502D01*
G37*
%TD.AperFunction*%
%TD*%
M02*
