%TF.GenerationSoftware,KiCad,Pcbnew,7.0.6*%
%TF.CreationDate,2023-10-15T17:56:32+01:00*%
%TF.ProjectId,DSP 1.1,44535020-312e-4312-9e6b-696361645f70,rev?*%
%TF.SameCoordinates,Original*%
%TF.FileFunction,Soldermask,Top*%
%TF.FilePolarity,Negative*%
%FSLAX46Y46*%
G04 Gerber Fmt 4.6, Leading zero omitted, Abs format (unit mm)*
G04 Created by KiCad (PCBNEW 7.0.6) date 2023-10-15 17:56:32*
%MOMM*%
%LPD*%
G01*
G04 APERTURE LIST*
%ADD10C,1.600000*%
%ADD11O,1.600000X1.600000*%
%ADD12R,1.700000X1.700000*%
%ADD13O,1.700000X1.700000*%
%ADD14R,1.930000X1.830000*%
%ADD15C,2.130000*%
%ADD16R,2.400000X1.600000*%
%ADD17O,2.400000X1.600000*%
%ADD18O,2.720000X3.240000*%
%ADD19R,1.800000X1.800000*%
%ADD20C,1.800000*%
%ADD21R,1.600000X1.600000*%
%ADD22C,3.500000*%
%ADD23O,3.500000X3.500000*%
%ADD24R,1.905000X2.000000*%
%ADD25O,1.905000X2.000000*%
%ADD26R,1.500000X1.050000*%
%ADD27O,1.500000X1.050000*%
G04 APERTURE END LIST*
D10*
%TO.C,C2*%
X82851000Y-66357500D03*
D11*
X72851000Y-66357500D03*
%TD*%
D12*
%TO.C,Jpcb1*%
X84206000Y-45153500D03*
D13*
X84206000Y-42613500D03*
X86746000Y-45153500D03*
X86746000Y-42613500D03*
X89286000Y-45153500D03*
X89286000Y-42613500D03*
X91826000Y-45153500D03*
X91826000Y-42613500D03*
X94366000Y-45153500D03*
X94366000Y-42613500D03*
X96906000Y-45153500D03*
X96906000Y-42613500D03*
%TD*%
D10*
%TO.C,R5*%
X88265000Y-65849500D03*
D11*
X98425000Y-65849500D03*
%TD*%
D14*
%TO.C,feedback/wet1*%
X66294000Y-102425500D03*
D15*
X66294000Y-113825500D03*
X66294000Y-105525500D03*
%TD*%
D10*
%TO.C,R7*%
X95377000Y-94297500D03*
D11*
X85217000Y-94297500D03*
%TD*%
D10*
%TO.C,Rx3*%
X61595000Y-62039500D03*
D11*
X61595000Y-72199500D03*
%TD*%
D16*
%TO.C,U4*%
X73279000Y-44513500D03*
D17*
X73279000Y-47053500D03*
X73279000Y-49593500D03*
X73279000Y-52133500D03*
X73279000Y-54673500D03*
X73279000Y-57213500D03*
X73279000Y-59753500D03*
X73279000Y-62293500D03*
X80899000Y-62293500D03*
X80899000Y-59753500D03*
X80899000Y-57213500D03*
X80899000Y-54673500D03*
X80899000Y-52133500D03*
X80899000Y-49593500D03*
X80899000Y-47053500D03*
X80899000Y-44513500D03*
%TD*%
D14*
%TO.C,In1*%
X56764000Y-102425500D03*
D15*
X56764000Y-113825500D03*
X56764000Y-105525500D03*
%TD*%
D10*
%TO.C,Rx1*%
X65405000Y-72199500D03*
D11*
X65405000Y-62039500D03*
%TD*%
D10*
%TO.C,C7*%
X82550000Y-70929500D03*
D11*
X72550000Y-70929500D03*
%TD*%
D18*
%TO.C,RV4*%
X85499000Y-51559500D03*
X95099000Y-51559500D03*
D19*
X87799000Y-59059500D03*
D20*
X90299000Y-59059500D03*
X92799000Y-59059500D03*
%TD*%
D10*
%TO.C,R6*%
X88265000Y-69659500D03*
D11*
X98425000Y-69659500D03*
%TD*%
D10*
%TO.C,C1*%
X69215000Y-62119500D03*
D11*
X69215000Y-72119500D03*
%TD*%
D14*
%TO.C,Left1*%
X86294000Y-102425500D03*
D15*
X86294000Y-113825500D03*
X86294000Y-105525500D03*
%TD*%
D10*
%TO.C,Rx5*%
X57785000Y-62039500D03*
D11*
X57785000Y-72199500D03*
%TD*%
D18*
%TO.C,RV3*%
X58499000Y-51559500D03*
X68099000Y-51559500D03*
D19*
X60799000Y-59059500D03*
D20*
X63299000Y-59059500D03*
X65799000Y-59059500D03*
%TD*%
D10*
%TO.C,R1*%
X58293000Y-94043500D03*
D11*
X68453000Y-94043500D03*
%TD*%
D21*
%TO.C,C5*%
X55245000Y-46799500D03*
D10*
X55245000Y-44299500D03*
%TD*%
%TO.C,R3*%
X94615000Y-62039500D03*
D11*
X84455000Y-62039500D03*
%TD*%
D10*
%TO.C,C4*%
X60151000Y-43497500D03*
D11*
X70151000Y-43497500D03*
%TD*%
D10*
%TO.C,C6*%
X72470000Y-76009500D03*
D11*
X82470000Y-76009500D03*
%TD*%
D22*
%TO.C,REF\u002A\u002A*%
X55016400Y-98488500D03*
%TD*%
D14*
%TO.C,Right1*%
X96294000Y-102425500D03*
D15*
X96294000Y-113825500D03*
X96294000Y-105525500D03*
%TD*%
D18*
%TO.C,RV2*%
X85499000Y-79314500D03*
X95099000Y-79314500D03*
D19*
X87799000Y-86814500D03*
D20*
X90299000Y-86814500D03*
X92799000Y-86814500D03*
%TD*%
D22*
%TO.C,REF\u002A\u002A*%
X98171000Y-98488500D03*
%TD*%
D23*
%TO.C,U3*%
X76835000Y-96774500D03*
D24*
X79375000Y-80114500D03*
D25*
X76835000Y-80114500D03*
X74295000Y-80114500D03*
%TD*%
D10*
%TO.C,Rx4*%
X68580000Y-98234500D03*
D11*
X58420000Y-98234500D03*
%TD*%
D18*
%TO.C,RV1*%
X58446000Y-79314500D03*
X68046000Y-79314500D03*
D19*
X60746000Y-86814500D03*
D20*
X63246000Y-86814500D03*
X65746000Y-86814500D03*
%TD*%
D14*
%TO.C,In2*%
X76294000Y-102425500D03*
D15*
X76294000Y-113825500D03*
X76294000Y-105525500D03*
%TD*%
D10*
%TO.C,Rx2*%
X53975000Y-62039500D03*
D11*
X53975000Y-72199500D03*
%TD*%
D22*
%TO.C,REF\u002A\u002A*%
X98221800Y-62496700D03*
%TD*%
%TO.C,REF\u002A\u002A*%
X55372000Y-56451500D03*
%TD*%
D10*
%TO.C,R4*%
X99060000Y-58229500D03*
D11*
X99060000Y-48069500D03*
%TD*%
D26*
%TO.C,Q1*%
X54610000Y-78549500D03*
D27*
X54610000Y-77279500D03*
X54610000Y-76009500D03*
%TD*%
M02*
