%TF.GenerationSoftware,KiCad,Pcbnew,7.0.6*%
%TF.CreationDate,2023-10-15T17:56:32+01:00*%
%TF.ProjectId,DSP 1.1,44535020-312e-4312-9e6b-696361645f70,rev?*%
%TF.SameCoordinates,Original*%
%TF.FileFunction,Legend,Top*%
%TF.FilePolarity,Positive*%
%FSLAX46Y46*%
G04 Gerber Fmt 4.6, Leading zero omitted, Abs format (unit mm)*
G04 Created by KiCad (PCBNEW 7.0.6) date 2023-10-15 17:56:32*
%MOMM*%
%LPD*%
G01*
G04 APERTURE LIST*
%ADD10C,0.150000*%
%ADD11C,0.120000*%
G04 APERTURE END LIST*
D10*
X77543819Y-52395118D02*
X76543819Y-52395118D01*
X76543819Y-52395118D02*
X76543819Y-52014166D01*
X76543819Y-52014166D02*
X76591438Y-51918928D01*
X76591438Y-51918928D02*
X76639057Y-51871309D01*
X76639057Y-51871309D02*
X76734295Y-51823690D01*
X76734295Y-51823690D02*
X76877152Y-51823690D01*
X76877152Y-51823690D02*
X76972390Y-51871309D01*
X76972390Y-51871309D02*
X77020009Y-51918928D01*
X77020009Y-51918928D02*
X77067628Y-52014166D01*
X77067628Y-52014166D02*
X77067628Y-52395118D01*
X76543819Y-51537975D02*
X76543819Y-50966547D01*
X77543819Y-51252261D02*
X76543819Y-51252261D01*
X76639057Y-50680832D02*
X76591438Y-50633213D01*
X76591438Y-50633213D02*
X76543819Y-50537975D01*
X76543819Y-50537975D02*
X76543819Y-50299880D01*
X76543819Y-50299880D02*
X76591438Y-50204642D01*
X76591438Y-50204642D02*
X76639057Y-50157023D01*
X76639057Y-50157023D02*
X76734295Y-50109404D01*
X76734295Y-50109404D02*
X76829533Y-50109404D01*
X76829533Y-50109404D02*
X76972390Y-50157023D01*
X76972390Y-50157023D02*
X77543819Y-50728451D01*
X77543819Y-50728451D02*
X77543819Y-50109404D01*
X76543819Y-49776070D02*
X76543819Y-49157023D01*
X76543819Y-49157023D02*
X76924771Y-49490356D01*
X76924771Y-49490356D02*
X76924771Y-49347499D01*
X76924771Y-49347499D02*
X76972390Y-49252261D01*
X76972390Y-49252261D02*
X77020009Y-49204642D01*
X77020009Y-49204642D02*
X77115247Y-49157023D01*
X77115247Y-49157023D02*
X77353342Y-49157023D01*
X77353342Y-49157023D02*
X77448580Y-49204642D01*
X77448580Y-49204642D02*
X77496200Y-49252261D01*
X77496200Y-49252261D02*
X77543819Y-49347499D01*
X77543819Y-49347499D02*
X77543819Y-49633213D01*
X77543819Y-49633213D02*
X77496200Y-49728451D01*
X77496200Y-49728451D02*
X77448580Y-49776070D01*
X77543819Y-48680832D02*
X77543819Y-48490356D01*
X77543819Y-48490356D02*
X77496200Y-48395118D01*
X77496200Y-48395118D02*
X77448580Y-48347499D01*
X77448580Y-48347499D02*
X77305723Y-48252261D01*
X77305723Y-48252261D02*
X77115247Y-48204642D01*
X77115247Y-48204642D02*
X76734295Y-48204642D01*
X76734295Y-48204642D02*
X76639057Y-48252261D01*
X76639057Y-48252261D02*
X76591438Y-48299880D01*
X76591438Y-48299880D02*
X76543819Y-48395118D01*
X76543819Y-48395118D02*
X76543819Y-48585594D01*
X76543819Y-48585594D02*
X76591438Y-48680832D01*
X76591438Y-48680832D02*
X76639057Y-48728451D01*
X76639057Y-48728451D02*
X76734295Y-48776070D01*
X76734295Y-48776070D02*
X76972390Y-48776070D01*
X76972390Y-48776070D02*
X77067628Y-48728451D01*
X77067628Y-48728451D02*
X77115247Y-48680832D01*
X77115247Y-48680832D02*
X77162866Y-48585594D01*
X77162866Y-48585594D02*
X77162866Y-48395118D01*
X77162866Y-48395118D02*
X77115247Y-48299880D01*
X77115247Y-48299880D02*
X77067628Y-48252261D01*
X77067628Y-48252261D02*
X76972390Y-48204642D01*
X77543819Y-47728451D02*
X77543819Y-47537975D01*
X77543819Y-47537975D02*
X77496200Y-47442737D01*
X77496200Y-47442737D02*
X77448580Y-47395118D01*
X77448580Y-47395118D02*
X77305723Y-47299880D01*
X77305723Y-47299880D02*
X77115247Y-47252261D01*
X77115247Y-47252261D02*
X76734295Y-47252261D01*
X76734295Y-47252261D02*
X76639057Y-47299880D01*
X76639057Y-47299880D02*
X76591438Y-47347499D01*
X76591438Y-47347499D02*
X76543819Y-47442737D01*
X76543819Y-47442737D02*
X76543819Y-47633213D01*
X76543819Y-47633213D02*
X76591438Y-47728451D01*
X76591438Y-47728451D02*
X76639057Y-47776070D01*
X76639057Y-47776070D02*
X76734295Y-47823689D01*
X76734295Y-47823689D02*
X76972390Y-47823689D01*
X76972390Y-47823689D02*
X77067628Y-47776070D01*
X77067628Y-47776070D02*
X77115247Y-47728451D01*
X77115247Y-47728451D02*
X77162866Y-47633213D01*
X77162866Y-47633213D02*
X77162866Y-47442737D01*
X77162866Y-47442737D02*
X77115247Y-47347499D01*
X77115247Y-47347499D02*
X77067628Y-47299880D01*
X77067628Y-47299880D02*
X76972390Y-47252261D01*
X77684333Y-66717080D02*
X77636714Y-66764700D01*
X77636714Y-66764700D02*
X77493857Y-66812319D01*
X77493857Y-66812319D02*
X77398619Y-66812319D01*
X77398619Y-66812319D02*
X77255762Y-66764700D01*
X77255762Y-66764700D02*
X77160524Y-66669461D01*
X77160524Y-66669461D02*
X77112905Y-66574223D01*
X77112905Y-66574223D02*
X77065286Y-66383747D01*
X77065286Y-66383747D02*
X77065286Y-66240890D01*
X77065286Y-66240890D02*
X77112905Y-66050414D01*
X77112905Y-66050414D02*
X77160524Y-65955176D01*
X77160524Y-65955176D02*
X77255762Y-65859938D01*
X77255762Y-65859938D02*
X77398619Y-65812319D01*
X77398619Y-65812319D02*
X77493857Y-65812319D01*
X77493857Y-65812319D02*
X77636714Y-65859938D01*
X77636714Y-65859938D02*
X77684333Y-65907557D01*
X78065286Y-65907557D02*
X78112905Y-65859938D01*
X78112905Y-65859938D02*
X78208143Y-65812319D01*
X78208143Y-65812319D02*
X78446238Y-65812319D01*
X78446238Y-65812319D02*
X78541476Y-65859938D01*
X78541476Y-65859938D02*
X78589095Y-65907557D01*
X78589095Y-65907557D02*
X78636714Y-66002795D01*
X78636714Y-66002795D02*
X78636714Y-66098033D01*
X78636714Y-66098033D02*
X78589095Y-66240890D01*
X78589095Y-66240890D02*
X78017667Y-66812319D01*
X78017667Y-66812319D02*
X78636714Y-66812319D01*
X93178333Y-66304319D02*
X92845000Y-65828128D01*
X92606905Y-66304319D02*
X92606905Y-65304319D01*
X92606905Y-65304319D02*
X92987857Y-65304319D01*
X92987857Y-65304319D02*
X93083095Y-65351938D01*
X93083095Y-65351938D02*
X93130714Y-65399557D01*
X93130714Y-65399557D02*
X93178333Y-65494795D01*
X93178333Y-65494795D02*
X93178333Y-65637652D01*
X93178333Y-65637652D02*
X93130714Y-65732890D01*
X93130714Y-65732890D02*
X93083095Y-65780509D01*
X93083095Y-65780509D02*
X92987857Y-65828128D01*
X92987857Y-65828128D02*
X92606905Y-65828128D01*
X94083095Y-65304319D02*
X93606905Y-65304319D01*
X93606905Y-65304319D02*
X93559286Y-65780509D01*
X93559286Y-65780509D02*
X93606905Y-65732890D01*
X93606905Y-65732890D02*
X93702143Y-65685271D01*
X93702143Y-65685271D02*
X93940238Y-65685271D01*
X93940238Y-65685271D02*
X94035476Y-65732890D01*
X94035476Y-65732890D02*
X94083095Y-65780509D01*
X94083095Y-65780509D02*
X94130714Y-65875747D01*
X94130714Y-65875747D02*
X94130714Y-66113842D01*
X94130714Y-66113842D02*
X94083095Y-66209080D01*
X94083095Y-66209080D02*
X94035476Y-66256700D01*
X94035476Y-66256700D02*
X93940238Y-66304319D01*
X93940238Y-66304319D02*
X93702143Y-66304319D01*
X93702143Y-66304319D02*
X93606905Y-66256700D01*
X93606905Y-66256700D02*
X93559286Y-66209080D01*
X56787809Y-103293652D02*
X57168761Y-103293652D01*
X56930666Y-103960319D02*
X56930666Y-103103176D01*
X56930666Y-103103176D02*
X56978285Y-103007938D01*
X56978285Y-103007938D02*
X57073523Y-102960319D01*
X57073523Y-102960319D02*
X57168761Y-102960319D01*
X57883047Y-103912700D02*
X57787809Y-103960319D01*
X57787809Y-103960319D02*
X57597333Y-103960319D01*
X57597333Y-103960319D02*
X57502095Y-103912700D01*
X57502095Y-103912700D02*
X57454476Y-103817461D01*
X57454476Y-103817461D02*
X57454476Y-103436509D01*
X57454476Y-103436509D02*
X57502095Y-103341271D01*
X57502095Y-103341271D02*
X57597333Y-103293652D01*
X57597333Y-103293652D02*
X57787809Y-103293652D01*
X57787809Y-103293652D02*
X57883047Y-103341271D01*
X57883047Y-103341271D02*
X57930666Y-103436509D01*
X57930666Y-103436509D02*
X57930666Y-103531747D01*
X57930666Y-103531747D02*
X57454476Y-103626985D01*
X58740190Y-103912700D02*
X58644952Y-103960319D01*
X58644952Y-103960319D02*
X58454476Y-103960319D01*
X58454476Y-103960319D02*
X58359238Y-103912700D01*
X58359238Y-103912700D02*
X58311619Y-103817461D01*
X58311619Y-103817461D02*
X58311619Y-103436509D01*
X58311619Y-103436509D02*
X58359238Y-103341271D01*
X58359238Y-103341271D02*
X58454476Y-103293652D01*
X58454476Y-103293652D02*
X58644952Y-103293652D01*
X58644952Y-103293652D02*
X58740190Y-103341271D01*
X58740190Y-103341271D02*
X58787809Y-103436509D01*
X58787809Y-103436509D02*
X58787809Y-103531747D01*
X58787809Y-103531747D02*
X58311619Y-103626985D01*
X59644952Y-103960319D02*
X59644952Y-102960319D01*
X59644952Y-103912700D02*
X59549714Y-103960319D01*
X59549714Y-103960319D02*
X59359238Y-103960319D01*
X59359238Y-103960319D02*
X59264000Y-103912700D01*
X59264000Y-103912700D02*
X59216381Y-103865080D01*
X59216381Y-103865080D02*
X59168762Y-103769842D01*
X59168762Y-103769842D02*
X59168762Y-103484128D01*
X59168762Y-103484128D02*
X59216381Y-103388890D01*
X59216381Y-103388890D02*
X59264000Y-103341271D01*
X59264000Y-103341271D02*
X59359238Y-103293652D01*
X59359238Y-103293652D02*
X59549714Y-103293652D01*
X59549714Y-103293652D02*
X59644952Y-103341271D01*
X60121143Y-103960319D02*
X60121143Y-102960319D01*
X60121143Y-103341271D02*
X60216381Y-103293652D01*
X60216381Y-103293652D02*
X60406857Y-103293652D01*
X60406857Y-103293652D02*
X60502095Y-103341271D01*
X60502095Y-103341271D02*
X60549714Y-103388890D01*
X60549714Y-103388890D02*
X60597333Y-103484128D01*
X60597333Y-103484128D02*
X60597333Y-103769842D01*
X60597333Y-103769842D02*
X60549714Y-103865080D01*
X60549714Y-103865080D02*
X60502095Y-103912700D01*
X60502095Y-103912700D02*
X60406857Y-103960319D01*
X60406857Y-103960319D02*
X60216381Y-103960319D01*
X60216381Y-103960319D02*
X60121143Y-103912700D01*
X61454476Y-103960319D02*
X61454476Y-103436509D01*
X61454476Y-103436509D02*
X61406857Y-103341271D01*
X61406857Y-103341271D02*
X61311619Y-103293652D01*
X61311619Y-103293652D02*
X61121143Y-103293652D01*
X61121143Y-103293652D02*
X61025905Y-103341271D01*
X61454476Y-103912700D02*
X61359238Y-103960319D01*
X61359238Y-103960319D02*
X61121143Y-103960319D01*
X61121143Y-103960319D02*
X61025905Y-103912700D01*
X61025905Y-103912700D02*
X60978286Y-103817461D01*
X60978286Y-103817461D02*
X60978286Y-103722223D01*
X60978286Y-103722223D02*
X61025905Y-103626985D01*
X61025905Y-103626985D02*
X61121143Y-103579366D01*
X61121143Y-103579366D02*
X61359238Y-103579366D01*
X61359238Y-103579366D02*
X61454476Y-103531747D01*
X62359238Y-103912700D02*
X62264000Y-103960319D01*
X62264000Y-103960319D02*
X62073524Y-103960319D01*
X62073524Y-103960319D02*
X61978286Y-103912700D01*
X61978286Y-103912700D02*
X61930667Y-103865080D01*
X61930667Y-103865080D02*
X61883048Y-103769842D01*
X61883048Y-103769842D02*
X61883048Y-103484128D01*
X61883048Y-103484128D02*
X61930667Y-103388890D01*
X61930667Y-103388890D02*
X61978286Y-103341271D01*
X61978286Y-103341271D02*
X62073524Y-103293652D01*
X62073524Y-103293652D02*
X62264000Y-103293652D01*
X62264000Y-103293652D02*
X62359238Y-103341271D01*
X62787810Y-103960319D02*
X62787810Y-102960319D01*
X62883048Y-103579366D02*
X63168762Y-103960319D01*
X63168762Y-103293652D02*
X62787810Y-103674604D01*
X64311619Y-102912700D02*
X63454477Y-104198414D01*
X64549715Y-103293652D02*
X64740191Y-103960319D01*
X64740191Y-103960319D02*
X64930667Y-103484128D01*
X64930667Y-103484128D02*
X65121143Y-103960319D01*
X65121143Y-103960319D02*
X65311619Y-103293652D01*
X66073524Y-103912700D02*
X65978286Y-103960319D01*
X65978286Y-103960319D02*
X65787810Y-103960319D01*
X65787810Y-103960319D02*
X65692572Y-103912700D01*
X65692572Y-103912700D02*
X65644953Y-103817461D01*
X65644953Y-103817461D02*
X65644953Y-103436509D01*
X65644953Y-103436509D02*
X65692572Y-103341271D01*
X65692572Y-103341271D02*
X65787810Y-103293652D01*
X65787810Y-103293652D02*
X65978286Y-103293652D01*
X65978286Y-103293652D02*
X66073524Y-103341271D01*
X66073524Y-103341271D02*
X66121143Y-103436509D01*
X66121143Y-103436509D02*
X66121143Y-103531747D01*
X66121143Y-103531747D02*
X65644953Y-103626985D01*
X66406858Y-103293652D02*
X66787810Y-103293652D01*
X66549715Y-102960319D02*
X66549715Y-103817461D01*
X66549715Y-103817461D02*
X66597334Y-103912700D01*
X66597334Y-103912700D02*
X66692572Y-103960319D01*
X66692572Y-103960319D02*
X66787810Y-103960319D01*
X67644953Y-103960319D02*
X67073525Y-103960319D01*
X67359239Y-103960319D02*
X67359239Y-102960319D01*
X67359239Y-102960319D02*
X67264001Y-103103176D01*
X67264001Y-103103176D02*
X67168763Y-103198414D01*
X67168763Y-103198414D02*
X67073525Y-103246033D01*
X90130333Y-94752319D02*
X89797000Y-94276128D01*
X89558905Y-94752319D02*
X89558905Y-93752319D01*
X89558905Y-93752319D02*
X89939857Y-93752319D01*
X89939857Y-93752319D02*
X90035095Y-93799938D01*
X90035095Y-93799938D02*
X90082714Y-93847557D01*
X90082714Y-93847557D02*
X90130333Y-93942795D01*
X90130333Y-93942795D02*
X90130333Y-94085652D01*
X90130333Y-94085652D02*
X90082714Y-94180890D01*
X90082714Y-94180890D02*
X90035095Y-94228509D01*
X90035095Y-94228509D02*
X89939857Y-94276128D01*
X89939857Y-94276128D02*
X89558905Y-94276128D01*
X90463667Y-93752319D02*
X91130333Y-93752319D01*
X91130333Y-93752319D02*
X90701762Y-94752319D01*
X61922819Y-67690928D02*
X61446628Y-68024261D01*
X61922819Y-68262356D02*
X60922819Y-68262356D01*
X60922819Y-68262356D02*
X60922819Y-67881404D01*
X60922819Y-67881404D02*
X60970438Y-67786166D01*
X60970438Y-67786166D02*
X61018057Y-67738547D01*
X61018057Y-67738547D02*
X61113295Y-67690928D01*
X61113295Y-67690928D02*
X61256152Y-67690928D01*
X61256152Y-67690928D02*
X61351390Y-67738547D01*
X61351390Y-67738547D02*
X61399009Y-67786166D01*
X61399009Y-67786166D02*
X61446628Y-67881404D01*
X61446628Y-67881404D02*
X61446628Y-68262356D01*
X61922819Y-67357594D02*
X61256152Y-66833785D01*
X61256152Y-67357594D02*
X61922819Y-66833785D01*
X60922819Y-66548070D02*
X60922819Y-65929023D01*
X60922819Y-65929023D02*
X61303771Y-66262356D01*
X61303771Y-66262356D02*
X61303771Y-66119499D01*
X61303771Y-66119499D02*
X61351390Y-66024261D01*
X61351390Y-66024261D02*
X61399009Y-65976642D01*
X61399009Y-65976642D02*
X61494247Y-65929023D01*
X61494247Y-65929023D02*
X61732342Y-65929023D01*
X61732342Y-65929023D02*
X61827580Y-65976642D01*
X61827580Y-65976642D02*
X61875200Y-66024261D01*
X61875200Y-66024261D02*
X61922819Y-66119499D01*
X61922819Y-66119499D02*
X61922819Y-66405213D01*
X61922819Y-66405213D02*
X61875200Y-66500451D01*
X61875200Y-66500451D02*
X61827580Y-66548070D01*
X76327095Y-45365319D02*
X76327095Y-46174842D01*
X76327095Y-46174842D02*
X76374714Y-46270080D01*
X76374714Y-46270080D02*
X76422333Y-46317700D01*
X76422333Y-46317700D02*
X76517571Y-46365319D01*
X76517571Y-46365319D02*
X76708047Y-46365319D01*
X76708047Y-46365319D02*
X76803285Y-46317700D01*
X76803285Y-46317700D02*
X76850904Y-46270080D01*
X76850904Y-46270080D02*
X76898523Y-46174842D01*
X76898523Y-46174842D02*
X76898523Y-45365319D01*
X77803285Y-45698652D02*
X77803285Y-46365319D01*
X77565190Y-45317700D02*
X77327095Y-46031985D01*
X77327095Y-46031985D02*
X77946142Y-46031985D01*
X51805429Y-103960319D02*
X51805429Y-102960319D01*
X52281619Y-103293652D02*
X52281619Y-103960319D01*
X52281619Y-103388890D02*
X52329238Y-103341271D01*
X52329238Y-103341271D02*
X52424476Y-103293652D01*
X52424476Y-103293652D02*
X52567333Y-103293652D01*
X52567333Y-103293652D02*
X52662571Y-103341271D01*
X52662571Y-103341271D02*
X52710190Y-103436509D01*
X52710190Y-103436509D02*
X52710190Y-103960319D01*
X53710190Y-103960319D02*
X53138762Y-103960319D01*
X53424476Y-103960319D02*
X53424476Y-102960319D01*
X53424476Y-102960319D02*
X53329238Y-103103176D01*
X53329238Y-103103176D02*
X53234000Y-103198414D01*
X53234000Y-103198414D02*
X53138762Y-103246033D01*
X65859819Y-67690928D02*
X65383628Y-68024261D01*
X65859819Y-68262356D02*
X64859819Y-68262356D01*
X64859819Y-68262356D02*
X64859819Y-67881404D01*
X64859819Y-67881404D02*
X64907438Y-67786166D01*
X64907438Y-67786166D02*
X64955057Y-67738547D01*
X64955057Y-67738547D02*
X65050295Y-67690928D01*
X65050295Y-67690928D02*
X65193152Y-67690928D01*
X65193152Y-67690928D02*
X65288390Y-67738547D01*
X65288390Y-67738547D02*
X65336009Y-67786166D01*
X65336009Y-67786166D02*
X65383628Y-67881404D01*
X65383628Y-67881404D02*
X65383628Y-68262356D01*
X65859819Y-67357594D02*
X65193152Y-66833785D01*
X65193152Y-67357594D02*
X65859819Y-66833785D01*
X65859819Y-65929023D02*
X65859819Y-66500451D01*
X65859819Y-66214737D02*
X64859819Y-66214737D01*
X64859819Y-66214737D02*
X65002676Y-66309975D01*
X65002676Y-66309975D02*
X65097914Y-66405213D01*
X65097914Y-66405213D02*
X65145533Y-66500451D01*
X77383333Y-71162080D02*
X77335714Y-71209700D01*
X77335714Y-71209700D02*
X77192857Y-71257319D01*
X77192857Y-71257319D02*
X77097619Y-71257319D01*
X77097619Y-71257319D02*
X76954762Y-71209700D01*
X76954762Y-71209700D02*
X76859524Y-71114461D01*
X76859524Y-71114461D02*
X76811905Y-71019223D01*
X76811905Y-71019223D02*
X76764286Y-70828747D01*
X76764286Y-70828747D02*
X76764286Y-70685890D01*
X76764286Y-70685890D02*
X76811905Y-70495414D01*
X76811905Y-70495414D02*
X76859524Y-70400176D01*
X76859524Y-70400176D02*
X76954762Y-70304938D01*
X76954762Y-70304938D02*
X77097619Y-70257319D01*
X77097619Y-70257319D02*
X77192857Y-70257319D01*
X77192857Y-70257319D02*
X77335714Y-70304938D01*
X77335714Y-70304938D02*
X77383333Y-70352557D01*
X77716667Y-70257319D02*
X78383333Y-70257319D01*
X78383333Y-70257319D02*
X77954762Y-71257319D01*
X90751819Y-51966738D02*
X90275628Y-52300071D01*
X90751819Y-52538166D02*
X89751819Y-52538166D01*
X89751819Y-52538166D02*
X89751819Y-52157214D01*
X89751819Y-52157214D02*
X89799438Y-52061976D01*
X89799438Y-52061976D02*
X89847057Y-52014357D01*
X89847057Y-52014357D02*
X89942295Y-51966738D01*
X89942295Y-51966738D02*
X90085152Y-51966738D01*
X90085152Y-51966738D02*
X90180390Y-52014357D01*
X90180390Y-52014357D02*
X90228009Y-52061976D01*
X90228009Y-52061976D02*
X90275628Y-52157214D01*
X90275628Y-52157214D02*
X90275628Y-52538166D01*
X89751819Y-51681023D02*
X90751819Y-51347690D01*
X90751819Y-51347690D02*
X89751819Y-51014357D01*
X90085152Y-50252452D02*
X90751819Y-50252452D01*
X89704200Y-50490547D02*
X90418485Y-50728642D01*
X90418485Y-50728642D02*
X90418485Y-50109595D01*
X93305333Y-70114319D02*
X92972000Y-69638128D01*
X92733905Y-70114319D02*
X92733905Y-69114319D01*
X92733905Y-69114319D02*
X93114857Y-69114319D01*
X93114857Y-69114319D02*
X93210095Y-69161938D01*
X93210095Y-69161938D02*
X93257714Y-69209557D01*
X93257714Y-69209557D02*
X93305333Y-69304795D01*
X93305333Y-69304795D02*
X93305333Y-69447652D01*
X93305333Y-69447652D02*
X93257714Y-69542890D01*
X93257714Y-69542890D02*
X93210095Y-69590509D01*
X93210095Y-69590509D02*
X93114857Y-69638128D01*
X93114857Y-69638128D02*
X92733905Y-69638128D01*
X94162476Y-69114319D02*
X93972000Y-69114319D01*
X93972000Y-69114319D02*
X93876762Y-69161938D01*
X93876762Y-69161938D02*
X93829143Y-69209557D01*
X93829143Y-69209557D02*
X93733905Y-69352414D01*
X93733905Y-69352414D02*
X93686286Y-69542890D01*
X93686286Y-69542890D02*
X93686286Y-69923842D01*
X93686286Y-69923842D02*
X93733905Y-70019080D01*
X93733905Y-70019080D02*
X93781524Y-70066700D01*
X93781524Y-70066700D02*
X93876762Y-70114319D01*
X93876762Y-70114319D02*
X94067238Y-70114319D01*
X94067238Y-70114319D02*
X94162476Y-70066700D01*
X94162476Y-70066700D02*
X94210095Y-70019080D01*
X94210095Y-70019080D02*
X94257714Y-69923842D01*
X94257714Y-69923842D02*
X94257714Y-69685747D01*
X94257714Y-69685747D02*
X94210095Y-69590509D01*
X94210095Y-69590509D02*
X94162476Y-69542890D01*
X94162476Y-69542890D02*
X94067238Y-69495271D01*
X94067238Y-69495271D02*
X93876762Y-69495271D01*
X93876762Y-69495271D02*
X93781524Y-69542890D01*
X93781524Y-69542890D02*
X93733905Y-69590509D01*
X93733905Y-69590509D02*
X93686286Y-69685747D01*
X69574580Y-67286166D02*
X69622200Y-67333785D01*
X69622200Y-67333785D02*
X69669819Y-67476642D01*
X69669819Y-67476642D02*
X69669819Y-67571880D01*
X69669819Y-67571880D02*
X69622200Y-67714737D01*
X69622200Y-67714737D02*
X69526961Y-67809975D01*
X69526961Y-67809975D02*
X69431723Y-67857594D01*
X69431723Y-67857594D02*
X69241247Y-67905213D01*
X69241247Y-67905213D02*
X69098390Y-67905213D01*
X69098390Y-67905213D02*
X68907914Y-67857594D01*
X68907914Y-67857594D02*
X68812676Y-67809975D01*
X68812676Y-67809975D02*
X68717438Y-67714737D01*
X68717438Y-67714737D02*
X68669819Y-67571880D01*
X68669819Y-67571880D02*
X68669819Y-67476642D01*
X68669819Y-67476642D02*
X68717438Y-67333785D01*
X68717438Y-67333785D02*
X68765057Y-67286166D01*
X69669819Y-66333785D02*
X69669819Y-66905213D01*
X69669819Y-66619499D02*
X68669819Y-66619499D01*
X68669819Y-66619499D02*
X68812676Y-66714737D01*
X68812676Y-66714737D02*
X68907914Y-66809975D01*
X68907914Y-66809975D02*
X68955533Y-66905213D01*
X81097332Y-103960319D02*
X80621142Y-103960319D01*
X80621142Y-103960319D02*
X80621142Y-102960319D01*
X81811618Y-103912700D02*
X81716380Y-103960319D01*
X81716380Y-103960319D02*
X81525904Y-103960319D01*
X81525904Y-103960319D02*
X81430666Y-103912700D01*
X81430666Y-103912700D02*
X81383047Y-103817461D01*
X81383047Y-103817461D02*
X81383047Y-103436509D01*
X81383047Y-103436509D02*
X81430666Y-103341271D01*
X81430666Y-103341271D02*
X81525904Y-103293652D01*
X81525904Y-103293652D02*
X81716380Y-103293652D01*
X81716380Y-103293652D02*
X81811618Y-103341271D01*
X81811618Y-103341271D02*
X81859237Y-103436509D01*
X81859237Y-103436509D02*
X81859237Y-103531747D01*
X81859237Y-103531747D02*
X81383047Y-103626985D01*
X82144952Y-103293652D02*
X82525904Y-103293652D01*
X82287809Y-103960319D02*
X82287809Y-103103176D01*
X82287809Y-103103176D02*
X82335428Y-103007938D01*
X82335428Y-103007938D02*
X82430666Y-102960319D01*
X82430666Y-102960319D02*
X82525904Y-102960319D01*
X82716381Y-103293652D02*
X83097333Y-103293652D01*
X82859238Y-102960319D02*
X82859238Y-103817461D01*
X82859238Y-103817461D02*
X82906857Y-103912700D01*
X82906857Y-103912700D02*
X83002095Y-103960319D01*
X83002095Y-103960319D02*
X83097333Y-103960319D01*
X83954476Y-103960319D02*
X83383048Y-103960319D01*
X83668762Y-103960319D02*
X83668762Y-102960319D01*
X83668762Y-102960319D02*
X83573524Y-103103176D01*
X83573524Y-103103176D02*
X83478286Y-103198414D01*
X83478286Y-103198414D02*
X83383048Y-103246033D01*
X58366819Y-67055928D02*
X57890628Y-67389261D01*
X58366819Y-67627356D02*
X57366819Y-67627356D01*
X57366819Y-67627356D02*
X57366819Y-67246404D01*
X57366819Y-67246404D02*
X57414438Y-67151166D01*
X57414438Y-67151166D02*
X57462057Y-67103547D01*
X57462057Y-67103547D02*
X57557295Y-67055928D01*
X57557295Y-67055928D02*
X57700152Y-67055928D01*
X57700152Y-67055928D02*
X57795390Y-67103547D01*
X57795390Y-67103547D02*
X57843009Y-67151166D01*
X57843009Y-67151166D02*
X57890628Y-67246404D01*
X57890628Y-67246404D02*
X57890628Y-67627356D01*
X58366819Y-66722594D02*
X57700152Y-66198785D01*
X57700152Y-66722594D02*
X58366819Y-66198785D01*
X57366819Y-65341642D02*
X57366819Y-65817832D01*
X57366819Y-65817832D02*
X57843009Y-65865451D01*
X57843009Y-65865451D02*
X57795390Y-65817832D01*
X57795390Y-65817832D02*
X57747771Y-65722594D01*
X57747771Y-65722594D02*
X57747771Y-65484499D01*
X57747771Y-65484499D02*
X57795390Y-65389261D01*
X57795390Y-65389261D02*
X57843009Y-65341642D01*
X57843009Y-65341642D02*
X57938247Y-65294023D01*
X57938247Y-65294023D02*
X58176342Y-65294023D01*
X58176342Y-65294023D02*
X58271580Y-65341642D01*
X58271580Y-65341642D02*
X58319200Y-65389261D01*
X58319200Y-65389261D02*
X58366819Y-65484499D01*
X58366819Y-65484499D02*
X58366819Y-65722594D01*
X58366819Y-65722594D02*
X58319200Y-65817832D01*
X58319200Y-65817832D02*
X58271580Y-65865451D01*
X56613819Y-52944738D02*
X56137628Y-53278071D01*
X56613819Y-53516166D02*
X55613819Y-53516166D01*
X55613819Y-53516166D02*
X55613819Y-53135214D01*
X55613819Y-53135214D02*
X55661438Y-53039976D01*
X55661438Y-53039976D02*
X55709057Y-52992357D01*
X55709057Y-52992357D02*
X55804295Y-52944738D01*
X55804295Y-52944738D02*
X55947152Y-52944738D01*
X55947152Y-52944738D02*
X56042390Y-52992357D01*
X56042390Y-52992357D02*
X56090009Y-53039976D01*
X56090009Y-53039976D02*
X56137628Y-53135214D01*
X56137628Y-53135214D02*
X56137628Y-53516166D01*
X55613819Y-52659023D02*
X56613819Y-52325690D01*
X56613819Y-52325690D02*
X55613819Y-51992357D01*
X55613819Y-51754261D02*
X55613819Y-51135214D01*
X55613819Y-51135214D02*
X55994771Y-51468547D01*
X55994771Y-51468547D02*
X55994771Y-51325690D01*
X55994771Y-51325690D02*
X56042390Y-51230452D01*
X56042390Y-51230452D02*
X56090009Y-51182833D01*
X56090009Y-51182833D02*
X56185247Y-51135214D01*
X56185247Y-51135214D02*
X56423342Y-51135214D01*
X56423342Y-51135214D02*
X56518580Y-51182833D01*
X56518580Y-51182833D02*
X56566200Y-51230452D01*
X56566200Y-51230452D02*
X56613819Y-51325690D01*
X56613819Y-51325690D02*
X56613819Y-51611404D01*
X56613819Y-51611404D02*
X56566200Y-51706642D01*
X56566200Y-51706642D02*
X56518580Y-51754261D01*
X63206333Y-94498319D02*
X62873000Y-94022128D01*
X62634905Y-94498319D02*
X62634905Y-93498319D01*
X62634905Y-93498319D02*
X63015857Y-93498319D01*
X63015857Y-93498319D02*
X63111095Y-93545938D01*
X63111095Y-93545938D02*
X63158714Y-93593557D01*
X63158714Y-93593557D02*
X63206333Y-93688795D01*
X63206333Y-93688795D02*
X63206333Y-93831652D01*
X63206333Y-93831652D02*
X63158714Y-93926890D01*
X63158714Y-93926890D02*
X63111095Y-93974509D01*
X63111095Y-93974509D02*
X63015857Y-94022128D01*
X63015857Y-94022128D02*
X62634905Y-94022128D01*
X64158714Y-94498319D02*
X63587286Y-94498319D01*
X63873000Y-94498319D02*
X63873000Y-93498319D01*
X63873000Y-93498319D02*
X63777762Y-93641176D01*
X63777762Y-93641176D02*
X63682524Y-93736414D01*
X63682524Y-93736414D02*
X63587286Y-93784033D01*
X89368333Y-62494319D02*
X89035000Y-62018128D01*
X88796905Y-62494319D02*
X88796905Y-61494319D01*
X88796905Y-61494319D02*
X89177857Y-61494319D01*
X89177857Y-61494319D02*
X89273095Y-61541938D01*
X89273095Y-61541938D02*
X89320714Y-61589557D01*
X89320714Y-61589557D02*
X89368333Y-61684795D01*
X89368333Y-61684795D02*
X89368333Y-61827652D01*
X89368333Y-61827652D02*
X89320714Y-61922890D01*
X89320714Y-61922890D02*
X89273095Y-61970509D01*
X89273095Y-61970509D02*
X89177857Y-62018128D01*
X89177857Y-62018128D02*
X88796905Y-62018128D01*
X89701667Y-61494319D02*
X90320714Y-61494319D01*
X90320714Y-61494319D02*
X89987381Y-61875271D01*
X89987381Y-61875271D02*
X90130238Y-61875271D01*
X90130238Y-61875271D02*
X90225476Y-61922890D01*
X90225476Y-61922890D02*
X90273095Y-61970509D01*
X90273095Y-61970509D02*
X90320714Y-62065747D01*
X90320714Y-62065747D02*
X90320714Y-62303842D01*
X90320714Y-62303842D02*
X90273095Y-62399080D01*
X90273095Y-62399080D02*
X90225476Y-62446700D01*
X90225476Y-62446700D02*
X90130238Y-62494319D01*
X90130238Y-62494319D02*
X89844524Y-62494319D01*
X89844524Y-62494319D02*
X89749286Y-62446700D01*
X89749286Y-62446700D02*
X89701667Y-62399080D01*
X64984333Y-43730080D02*
X64936714Y-43777700D01*
X64936714Y-43777700D02*
X64793857Y-43825319D01*
X64793857Y-43825319D02*
X64698619Y-43825319D01*
X64698619Y-43825319D02*
X64555762Y-43777700D01*
X64555762Y-43777700D02*
X64460524Y-43682461D01*
X64460524Y-43682461D02*
X64412905Y-43587223D01*
X64412905Y-43587223D02*
X64365286Y-43396747D01*
X64365286Y-43396747D02*
X64365286Y-43253890D01*
X64365286Y-43253890D02*
X64412905Y-43063414D01*
X64412905Y-43063414D02*
X64460524Y-42968176D01*
X64460524Y-42968176D02*
X64555762Y-42872938D01*
X64555762Y-42872938D02*
X64698619Y-42825319D01*
X64698619Y-42825319D02*
X64793857Y-42825319D01*
X64793857Y-42825319D02*
X64936714Y-42872938D01*
X64936714Y-42872938D02*
X64984333Y-42920557D01*
X65841476Y-43158652D02*
X65841476Y-43825319D01*
X65603381Y-42777700D02*
X65365286Y-43491985D01*
X65365286Y-43491985D02*
X65984333Y-43491985D01*
X77303333Y-76369080D02*
X77255714Y-76416700D01*
X77255714Y-76416700D02*
X77112857Y-76464319D01*
X77112857Y-76464319D02*
X77017619Y-76464319D01*
X77017619Y-76464319D02*
X76874762Y-76416700D01*
X76874762Y-76416700D02*
X76779524Y-76321461D01*
X76779524Y-76321461D02*
X76731905Y-76226223D01*
X76731905Y-76226223D02*
X76684286Y-76035747D01*
X76684286Y-76035747D02*
X76684286Y-75892890D01*
X76684286Y-75892890D02*
X76731905Y-75702414D01*
X76731905Y-75702414D02*
X76779524Y-75607176D01*
X76779524Y-75607176D02*
X76874762Y-75511938D01*
X76874762Y-75511938D02*
X77017619Y-75464319D01*
X77017619Y-75464319D02*
X77112857Y-75464319D01*
X77112857Y-75464319D02*
X77255714Y-75511938D01*
X77255714Y-75511938D02*
X77303333Y-75559557D01*
X78160476Y-75464319D02*
X77970000Y-75464319D01*
X77970000Y-75464319D02*
X77874762Y-75511938D01*
X77874762Y-75511938D02*
X77827143Y-75559557D01*
X77827143Y-75559557D02*
X77731905Y-75702414D01*
X77731905Y-75702414D02*
X77684286Y-75892890D01*
X77684286Y-75892890D02*
X77684286Y-76273842D01*
X77684286Y-76273842D02*
X77731905Y-76369080D01*
X77731905Y-76369080D02*
X77779524Y-76416700D01*
X77779524Y-76416700D02*
X77874762Y-76464319D01*
X77874762Y-76464319D02*
X78065238Y-76464319D01*
X78065238Y-76464319D02*
X78160476Y-76416700D01*
X78160476Y-76416700D02*
X78208095Y-76369080D01*
X78208095Y-76369080D02*
X78255714Y-76273842D01*
X78255714Y-76273842D02*
X78255714Y-76035747D01*
X78255714Y-76035747D02*
X78208095Y-75940509D01*
X78208095Y-75940509D02*
X78160476Y-75892890D01*
X78160476Y-75892890D02*
X78065238Y-75845271D01*
X78065238Y-75845271D02*
X77874762Y-75845271D01*
X77874762Y-75845271D02*
X77779524Y-75892890D01*
X77779524Y-75892890D02*
X77731905Y-75940509D01*
X77731905Y-75940509D02*
X77684286Y-76035747D01*
X90668761Y-103960319D02*
X90335428Y-103484128D01*
X90097333Y-103960319D02*
X90097333Y-102960319D01*
X90097333Y-102960319D02*
X90478285Y-102960319D01*
X90478285Y-102960319D02*
X90573523Y-103007938D01*
X90573523Y-103007938D02*
X90621142Y-103055557D01*
X90621142Y-103055557D02*
X90668761Y-103150795D01*
X90668761Y-103150795D02*
X90668761Y-103293652D01*
X90668761Y-103293652D02*
X90621142Y-103388890D01*
X90621142Y-103388890D02*
X90573523Y-103436509D01*
X90573523Y-103436509D02*
X90478285Y-103484128D01*
X90478285Y-103484128D02*
X90097333Y-103484128D01*
X91097333Y-103960319D02*
X91097333Y-103293652D01*
X91097333Y-102960319D02*
X91049714Y-103007938D01*
X91049714Y-103007938D02*
X91097333Y-103055557D01*
X91097333Y-103055557D02*
X91144952Y-103007938D01*
X91144952Y-103007938D02*
X91097333Y-102960319D01*
X91097333Y-102960319D02*
X91097333Y-103055557D01*
X92002094Y-103293652D02*
X92002094Y-104103176D01*
X92002094Y-104103176D02*
X91954475Y-104198414D01*
X91954475Y-104198414D02*
X91906856Y-104246033D01*
X91906856Y-104246033D02*
X91811618Y-104293652D01*
X91811618Y-104293652D02*
X91668761Y-104293652D01*
X91668761Y-104293652D02*
X91573523Y-104246033D01*
X92002094Y-103912700D02*
X91906856Y-103960319D01*
X91906856Y-103960319D02*
X91716380Y-103960319D01*
X91716380Y-103960319D02*
X91621142Y-103912700D01*
X91621142Y-103912700D02*
X91573523Y-103865080D01*
X91573523Y-103865080D02*
X91525904Y-103769842D01*
X91525904Y-103769842D02*
X91525904Y-103484128D01*
X91525904Y-103484128D02*
X91573523Y-103388890D01*
X91573523Y-103388890D02*
X91621142Y-103341271D01*
X91621142Y-103341271D02*
X91716380Y-103293652D01*
X91716380Y-103293652D02*
X91906856Y-103293652D01*
X91906856Y-103293652D02*
X92002094Y-103341271D01*
X92478285Y-103960319D02*
X92478285Y-102960319D01*
X92906856Y-103960319D02*
X92906856Y-103436509D01*
X92906856Y-103436509D02*
X92859237Y-103341271D01*
X92859237Y-103341271D02*
X92763999Y-103293652D01*
X92763999Y-103293652D02*
X92621142Y-103293652D01*
X92621142Y-103293652D02*
X92525904Y-103341271D01*
X92525904Y-103341271D02*
X92478285Y-103388890D01*
X93240190Y-103293652D02*
X93621142Y-103293652D01*
X93383047Y-102960319D02*
X93383047Y-103817461D01*
X93383047Y-103817461D02*
X93430666Y-103912700D01*
X93430666Y-103912700D02*
X93525904Y-103960319D01*
X93525904Y-103960319D02*
X93621142Y-103960319D01*
X94478285Y-103960319D02*
X93906857Y-103960319D01*
X94192571Y-103960319D02*
X94192571Y-102960319D01*
X94192571Y-102960319D02*
X94097333Y-103103176D01*
X94097333Y-103103176D02*
X94002095Y-103198414D01*
X94002095Y-103198414D02*
X93906857Y-103246033D01*
X83613819Y-80699738D02*
X83137628Y-81033071D01*
X83613819Y-81271166D02*
X82613819Y-81271166D01*
X82613819Y-81271166D02*
X82613819Y-80890214D01*
X82613819Y-80890214D02*
X82661438Y-80794976D01*
X82661438Y-80794976D02*
X82709057Y-80747357D01*
X82709057Y-80747357D02*
X82804295Y-80699738D01*
X82804295Y-80699738D02*
X82947152Y-80699738D01*
X82947152Y-80699738D02*
X83042390Y-80747357D01*
X83042390Y-80747357D02*
X83090009Y-80794976D01*
X83090009Y-80794976D02*
X83137628Y-80890214D01*
X83137628Y-80890214D02*
X83137628Y-81271166D01*
X82613819Y-80414023D02*
X83613819Y-80080690D01*
X83613819Y-80080690D02*
X82613819Y-79747357D01*
X82709057Y-79461642D02*
X82661438Y-79414023D01*
X82661438Y-79414023D02*
X82613819Y-79318785D01*
X82613819Y-79318785D02*
X82613819Y-79080690D01*
X82613819Y-79080690D02*
X82661438Y-78985452D01*
X82661438Y-78985452D02*
X82709057Y-78937833D01*
X82709057Y-78937833D02*
X82804295Y-78890214D01*
X82804295Y-78890214D02*
X82899533Y-78890214D01*
X82899533Y-78890214D02*
X83042390Y-78937833D01*
X83042390Y-78937833D02*
X83613819Y-79509261D01*
X83613819Y-79509261D02*
X83613819Y-78890214D01*
X76073095Y-100149319D02*
X76073095Y-100958842D01*
X76073095Y-100958842D02*
X76120714Y-101054080D01*
X76120714Y-101054080D02*
X76168333Y-101101700D01*
X76168333Y-101101700D02*
X76263571Y-101149319D01*
X76263571Y-101149319D02*
X76454047Y-101149319D01*
X76454047Y-101149319D02*
X76549285Y-101101700D01*
X76549285Y-101101700D02*
X76596904Y-101054080D01*
X76596904Y-101054080D02*
X76644523Y-100958842D01*
X76644523Y-100958842D02*
X76644523Y-100149319D01*
X77025476Y-100149319D02*
X77644523Y-100149319D01*
X77644523Y-100149319D02*
X77311190Y-100530271D01*
X77311190Y-100530271D02*
X77454047Y-100530271D01*
X77454047Y-100530271D02*
X77549285Y-100577890D01*
X77549285Y-100577890D02*
X77596904Y-100625509D01*
X77596904Y-100625509D02*
X77644523Y-100720747D01*
X77644523Y-100720747D02*
X77644523Y-100958842D01*
X77644523Y-100958842D02*
X77596904Y-101054080D01*
X77596904Y-101054080D02*
X77549285Y-101101700D01*
X77549285Y-101101700D02*
X77454047Y-101149319D01*
X77454047Y-101149319D02*
X77168333Y-101149319D01*
X77168333Y-101149319D02*
X77073095Y-101101700D01*
X77073095Y-101101700D02*
X77025476Y-101054080D01*
X63182571Y-98689319D02*
X62849238Y-98213128D01*
X62611143Y-98689319D02*
X62611143Y-97689319D01*
X62611143Y-97689319D02*
X62992095Y-97689319D01*
X62992095Y-97689319D02*
X63087333Y-97736938D01*
X63087333Y-97736938D02*
X63134952Y-97784557D01*
X63134952Y-97784557D02*
X63182571Y-97879795D01*
X63182571Y-97879795D02*
X63182571Y-98022652D01*
X63182571Y-98022652D02*
X63134952Y-98117890D01*
X63134952Y-98117890D02*
X63087333Y-98165509D01*
X63087333Y-98165509D02*
X62992095Y-98213128D01*
X62992095Y-98213128D02*
X62611143Y-98213128D01*
X63515905Y-98689319D02*
X64039714Y-98022652D01*
X63515905Y-98022652D02*
X64039714Y-98689319D01*
X64849238Y-98022652D02*
X64849238Y-98689319D01*
X64611143Y-97641700D02*
X64373048Y-98355985D01*
X64373048Y-98355985D02*
X64992095Y-98355985D01*
X56560819Y-80699738D02*
X56084628Y-81033071D01*
X56560819Y-81271166D02*
X55560819Y-81271166D01*
X55560819Y-81271166D02*
X55560819Y-80890214D01*
X55560819Y-80890214D02*
X55608438Y-80794976D01*
X55608438Y-80794976D02*
X55656057Y-80747357D01*
X55656057Y-80747357D02*
X55751295Y-80699738D01*
X55751295Y-80699738D02*
X55894152Y-80699738D01*
X55894152Y-80699738D02*
X55989390Y-80747357D01*
X55989390Y-80747357D02*
X56037009Y-80794976D01*
X56037009Y-80794976D02*
X56084628Y-80890214D01*
X56084628Y-80890214D02*
X56084628Y-81271166D01*
X55560819Y-80414023D02*
X56560819Y-80080690D01*
X56560819Y-80080690D02*
X55560819Y-79747357D01*
X56560819Y-78890214D02*
X56560819Y-79461642D01*
X56560819Y-79175928D02*
X55560819Y-79175928D01*
X55560819Y-79175928D02*
X55703676Y-79271166D01*
X55703676Y-79271166D02*
X55798914Y-79366404D01*
X55798914Y-79366404D02*
X55846533Y-79461642D01*
X71335429Y-103960319D02*
X71335429Y-102960319D01*
X71811619Y-103293652D02*
X71811619Y-103960319D01*
X71811619Y-103388890D02*
X71859238Y-103341271D01*
X71859238Y-103341271D02*
X71954476Y-103293652D01*
X71954476Y-103293652D02*
X72097333Y-103293652D01*
X72097333Y-103293652D02*
X72192571Y-103341271D01*
X72192571Y-103341271D02*
X72240190Y-103436509D01*
X72240190Y-103436509D02*
X72240190Y-103960319D01*
X72668762Y-103055557D02*
X72716381Y-103007938D01*
X72716381Y-103007938D02*
X72811619Y-102960319D01*
X72811619Y-102960319D02*
X73049714Y-102960319D01*
X73049714Y-102960319D02*
X73144952Y-103007938D01*
X73144952Y-103007938D02*
X73192571Y-103055557D01*
X73192571Y-103055557D02*
X73240190Y-103150795D01*
X73240190Y-103150795D02*
X73240190Y-103246033D01*
X73240190Y-103246033D02*
X73192571Y-103388890D01*
X73192571Y-103388890D02*
X72621143Y-103960319D01*
X72621143Y-103960319D02*
X73240190Y-103960319D01*
X54429819Y-67690928D02*
X53953628Y-68024261D01*
X54429819Y-68262356D02*
X53429819Y-68262356D01*
X53429819Y-68262356D02*
X53429819Y-67881404D01*
X53429819Y-67881404D02*
X53477438Y-67786166D01*
X53477438Y-67786166D02*
X53525057Y-67738547D01*
X53525057Y-67738547D02*
X53620295Y-67690928D01*
X53620295Y-67690928D02*
X53763152Y-67690928D01*
X53763152Y-67690928D02*
X53858390Y-67738547D01*
X53858390Y-67738547D02*
X53906009Y-67786166D01*
X53906009Y-67786166D02*
X53953628Y-67881404D01*
X53953628Y-67881404D02*
X53953628Y-68262356D01*
X54429819Y-67357594D02*
X53763152Y-66833785D01*
X53763152Y-67357594D02*
X54429819Y-66833785D01*
X53525057Y-66500451D02*
X53477438Y-66452832D01*
X53477438Y-66452832D02*
X53429819Y-66357594D01*
X53429819Y-66357594D02*
X53429819Y-66119499D01*
X53429819Y-66119499D02*
X53477438Y-66024261D01*
X53477438Y-66024261D02*
X53525057Y-65976642D01*
X53525057Y-65976642D02*
X53620295Y-65929023D01*
X53620295Y-65929023D02*
X53715533Y-65929023D01*
X53715533Y-65929023D02*
X53858390Y-65976642D01*
X53858390Y-65976642D02*
X54429819Y-66548070D01*
X54429819Y-66548070D02*
X54429819Y-65929023D01*
X99514819Y-53316166D02*
X99038628Y-53649499D01*
X99514819Y-53887594D02*
X98514819Y-53887594D01*
X98514819Y-53887594D02*
X98514819Y-53506642D01*
X98514819Y-53506642D02*
X98562438Y-53411404D01*
X98562438Y-53411404D02*
X98610057Y-53363785D01*
X98610057Y-53363785D02*
X98705295Y-53316166D01*
X98705295Y-53316166D02*
X98848152Y-53316166D01*
X98848152Y-53316166D02*
X98943390Y-53363785D01*
X98943390Y-53363785D02*
X98991009Y-53411404D01*
X98991009Y-53411404D02*
X99038628Y-53506642D01*
X99038628Y-53506642D02*
X99038628Y-53887594D01*
X98848152Y-52459023D02*
X99514819Y-52459023D01*
X98467200Y-52697118D02*
X99181485Y-52935213D01*
X99181485Y-52935213D02*
X99181485Y-52316166D01*
X51600057Y-77374738D02*
X51552438Y-77469976D01*
X51552438Y-77469976D02*
X51457200Y-77565214D01*
X51457200Y-77565214D02*
X51314342Y-77708071D01*
X51314342Y-77708071D02*
X51266723Y-77803309D01*
X51266723Y-77803309D02*
X51266723Y-77898547D01*
X51504819Y-77850928D02*
X51457200Y-77946166D01*
X51457200Y-77946166D02*
X51361961Y-78041404D01*
X51361961Y-78041404D02*
X51171485Y-78089023D01*
X51171485Y-78089023D02*
X50838152Y-78089023D01*
X50838152Y-78089023D02*
X50647676Y-78041404D01*
X50647676Y-78041404D02*
X50552438Y-77946166D01*
X50552438Y-77946166D02*
X50504819Y-77850928D01*
X50504819Y-77850928D02*
X50504819Y-77660452D01*
X50504819Y-77660452D02*
X50552438Y-77565214D01*
X50552438Y-77565214D02*
X50647676Y-77469976D01*
X50647676Y-77469976D02*
X50838152Y-77422357D01*
X50838152Y-77422357D02*
X51171485Y-77422357D01*
X51171485Y-77422357D02*
X51361961Y-77469976D01*
X51361961Y-77469976D02*
X51457200Y-77565214D01*
X51457200Y-77565214D02*
X51504819Y-77660452D01*
X51504819Y-77660452D02*
X51504819Y-77850928D01*
X51504819Y-76469976D02*
X51504819Y-77041404D01*
X51504819Y-76755690D02*
X50504819Y-76755690D01*
X50504819Y-76755690D02*
X50647676Y-76850928D01*
X50647676Y-76850928D02*
X50742914Y-76946166D01*
X50742914Y-76946166D02*
X50790533Y-77041404D01*
D11*
%TO.C,C2*%
X81811000Y-66357500D02*
X80521000Y-66357500D01*
X80521000Y-68027500D02*
X80521000Y-64687500D01*
X80521000Y-64687500D02*
X75181000Y-64687500D01*
X75181000Y-68027500D02*
X80521000Y-68027500D01*
X75181000Y-64687500D02*
X75181000Y-68027500D01*
X73891000Y-66357500D02*
X75181000Y-66357500D01*
%TO.C,Jpcb1*%
X82876000Y-43883500D02*
X82876000Y-41283500D01*
%TO.C,R5*%
X89305000Y-65849500D02*
X90075000Y-65849500D01*
X90075000Y-64479500D02*
X90075000Y-67219500D01*
X90075000Y-67219500D02*
X96615000Y-67219500D01*
X96615000Y-64479500D02*
X90075000Y-64479500D01*
X96615000Y-67219500D02*
X96615000Y-64479500D01*
X97385000Y-65849500D02*
X96615000Y-65849500D01*
%TO.C,feedback/wet1*%
X61794000Y-104405500D02*
X61794000Y-114905500D01*
X65064000Y-101255500D02*
X65064000Y-102055500D01*
X65064000Y-101255500D02*
X65924000Y-101255500D01*
X65494000Y-114905500D02*
X61794000Y-114905500D01*
X65574000Y-104405500D02*
X61794000Y-104405500D01*
X70794000Y-104405500D02*
X67014000Y-104405500D01*
X70794000Y-104405500D02*
X70794000Y-114905500D01*
X70794000Y-114905500D02*
X67094000Y-114905500D01*
X68094000Y-108905500D02*
G75*
G03*
X68094000Y-108905500I-1800000J0D01*
G01*
%TO.C,R7*%
X94337000Y-94297500D02*
X93567000Y-94297500D01*
X93567000Y-95667500D02*
X93567000Y-92927500D01*
X93567000Y-92927500D02*
X87027000Y-92927500D01*
X87027000Y-95667500D02*
X93567000Y-95667500D01*
X87027000Y-92927500D02*
X87027000Y-95667500D01*
X86257000Y-94297500D02*
X87027000Y-94297500D01*
%TO.C,Rx3*%
X61595000Y-63079500D02*
X61595000Y-63849500D01*
X62965000Y-63849500D02*
X60225000Y-63849500D01*
X60225000Y-63849500D02*
X60225000Y-70389500D01*
X62965000Y-70389500D02*
X62965000Y-63849500D01*
X60225000Y-70389500D02*
X62965000Y-70389500D01*
X61595000Y-71159500D02*
X61595000Y-70389500D01*
%TO.C,U4*%
X74839000Y-43183500D02*
X74839000Y-63623500D01*
X74839000Y-63623500D02*
X79339000Y-63623500D01*
X76089000Y-43183500D02*
X74839000Y-43183500D01*
X79339000Y-43183500D02*
X78089000Y-43183500D01*
X79339000Y-63623500D02*
X79339000Y-43183500D01*
X76089000Y-43183500D02*
G75*
G03*
X78089000Y-43183500I1000000J0D01*
G01*
%TO.C,In1*%
X52264000Y-104405500D02*
X52264000Y-114905500D01*
X55534000Y-101255500D02*
X55534000Y-102055500D01*
X55534000Y-101255500D02*
X56394000Y-101255500D01*
X55964000Y-114905500D02*
X52264000Y-114905500D01*
X56044000Y-104405500D02*
X52264000Y-104405500D01*
X61264000Y-104405500D02*
X57484000Y-104405500D01*
X61264000Y-104405500D02*
X61264000Y-114905500D01*
X61264000Y-114905500D02*
X57564000Y-114905500D01*
X58564000Y-108905500D02*
G75*
G03*
X58564000Y-108905500I-1800000J0D01*
G01*
%TO.C,Rx1*%
X65405000Y-71159500D02*
X65405000Y-70389500D01*
X64035000Y-70389500D02*
X66775000Y-70389500D01*
X66775000Y-70389500D02*
X66775000Y-63849500D01*
X64035000Y-63849500D02*
X64035000Y-70389500D01*
X66775000Y-63849500D02*
X64035000Y-63849500D01*
X65405000Y-63079500D02*
X65405000Y-63849500D01*
%TO.C,C7*%
X81510000Y-70929500D02*
X80220000Y-70929500D01*
X80220000Y-72599500D02*
X80220000Y-69259500D01*
X80220000Y-69259500D02*
X74880000Y-69259500D01*
X74880000Y-72599500D02*
X80220000Y-72599500D01*
X74880000Y-69259500D02*
X74880000Y-72599500D01*
X73590000Y-70929500D02*
X74880000Y-70929500D01*
%TO.C,RV4*%
X85419000Y-58179500D02*
X85419000Y-53459500D01*
X86609000Y-58179500D02*
X85429000Y-58179500D01*
X89509000Y-58179500D02*
X88979000Y-58179500D01*
X91959000Y-58179500D02*
X91129000Y-58179500D01*
X95169000Y-58179500D02*
X93679000Y-58179500D01*
X95169000Y-58179500D02*
X95169000Y-53459500D01*
X85429000Y-49649500D02*
X85429000Y-46589500D01*
X95169000Y-49649500D02*
X95169000Y-46589500D01*
X95169000Y-46589500D02*
X85429000Y-46589500D01*
%TO.C,R6*%
X89305000Y-69659500D02*
X90075000Y-69659500D01*
X90075000Y-68289500D02*
X90075000Y-71029500D01*
X90075000Y-71029500D02*
X96615000Y-71029500D01*
X96615000Y-68289500D02*
X90075000Y-68289500D01*
X96615000Y-71029500D02*
X96615000Y-68289500D01*
X97385000Y-69659500D02*
X96615000Y-69659500D01*
%TO.C,C1*%
X69215000Y-63159500D02*
X69215000Y-64449500D01*
X70885000Y-64449500D02*
X67545000Y-64449500D01*
X67545000Y-64449500D02*
X67545000Y-69789500D01*
X70885000Y-69789500D02*
X70885000Y-64449500D01*
X67545000Y-69789500D02*
X70885000Y-69789500D01*
X69215000Y-71079500D02*
X69215000Y-69789500D01*
%TO.C,Left1*%
X81794000Y-104405500D02*
X81794000Y-114905500D01*
X85064000Y-101255500D02*
X85064000Y-102055500D01*
X85064000Y-101255500D02*
X85924000Y-101255500D01*
X85494000Y-114905500D02*
X81794000Y-114905500D01*
X85574000Y-104405500D02*
X81794000Y-104405500D01*
X90794000Y-104405500D02*
X87014000Y-104405500D01*
X90794000Y-104405500D02*
X90794000Y-114905500D01*
X90794000Y-114905500D02*
X87094000Y-114905500D01*
X88094000Y-108905500D02*
G75*
G03*
X88094000Y-108905500I-1800000J0D01*
G01*
%TO.C,Rx5*%
X57785000Y-63079500D02*
X57785000Y-63849500D01*
X59155000Y-63849500D02*
X56415000Y-63849500D01*
X56415000Y-63849500D02*
X56415000Y-70389500D01*
X59155000Y-70389500D02*
X59155000Y-63849500D01*
X56415000Y-70389500D02*
X59155000Y-70389500D01*
X57785000Y-71159500D02*
X57785000Y-70389500D01*
%TO.C,RV3*%
X58419000Y-58179500D02*
X58419000Y-53459500D01*
X59609000Y-58179500D02*
X58429000Y-58179500D01*
X62509000Y-58179500D02*
X61979000Y-58179500D01*
X64959000Y-58179500D02*
X64129000Y-58179500D01*
X68169000Y-58179500D02*
X66679000Y-58179500D01*
X68169000Y-58179500D02*
X68169000Y-53459500D01*
X58429000Y-49649500D02*
X58429000Y-46589500D01*
X68169000Y-49649500D02*
X68169000Y-46589500D01*
X68169000Y-46589500D02*
X58429000Y-46589500D01*
%TO.C,R1*%
X59333000Y-94043500D02*
X60103000Y-94043500D01*
X60103000Y-92673500D02*
X60103000Y-95413500D01*
X60103000Y-95413500D02*
X66643000Y-95413500D01*
X66643000Y-92673500D02*
X60103000Y-92673500D01*
X66643000Y-95413500D02*
X66643000Y-92673500D01*
X67413000Y-94043500D02*
X66643000Y-94043500D01*
%TO.C,R3*%
X93575000Y-62039500D02*
X92805000Y-62039500D01*
X92805000Y-63409500D02*
X92805000Y-60669500D01*
X92805000Y-60669500D02*
X86265000Y-60669500D01*
X86265000Y-63409500D02*
X92805000Y-63409500D01*
X86265000Y-60669500D02*
X86265000Y-63409500D01*
X85495000Y-62039500D02*
X86265000Y-62039500D01*
%TO.C,C4*%
X61191000Y-43497500D02*
X62481000Y-43497500D01*
X62481000Y-41827500D02*
X62481000Y-45167500D01*
X62481000Y-45167500D02*
X67821000Y-45167500D01*
X67821000Y-41827500D02*
X62481000Y-41827500D01*
X67821000Y-45167500D02*
X67821000Y-41827500D01*
X69111000Y-43497500D02*
X67821000Y-43497500D01*
%TO.C,C6*%
X73510000Y-76009500D02*
X74800000Y-76009500D01*
X74800000Y-74339500D02*
X74800000Y-77679500D01*
X74800000Y-77679500D02*
X80140000Y-77679500D01*
X80140000Y-74339500D02*
X74800000Y-74339500D01*
X80140000Y-77679500D02*
X80140000Y-74339500D01*
X81430000Y-76009500D02*
X80140000Y-76009500D01*
%TO.C,Right1*%
X91794000Y-104405500D02*
X91794000Y-114905500D01*
X95064000Y-101255500D02*
X95064000Y-102055500D01*
X95064000Y-101255500D02*
X95924000Y-101255500D01*
X95494000Y-114905500D02*
X91794000Y-114905500D01*
X95574000Y-104405500D02*
X91794000Y-104405500D01*
X100794000Y-104405500D02*
X97014000Y-104405500D01*
X100794000Y-104405500D02*
X100794000Y-114905500D01*
X100794000Y-114905500D02*
X97094000Y-114905500D01*
X98094000Y-108905500D02*
G75*
G03*
X98094000Y-108905500I-1800000J0D01*
G01*
%TO.C,RV2*%
X85419000Y-85934500D02*
X85419000Y-81214500D01*
X86609000Y-85934500D02*
X85429000Y-85934500D01*
X89509000Y-85934500D02*
X88979000Y-85934500D01*
X91959000Y-85934500D02*
X91129000Y-85934500D01*
X95169000Y-85934500D02*
X93679000Y-85934500D01*
X95169000Y-85934500D02*
X95169000Y-81214500D01*
X85429000Y-77404500D02*
X85429000Y-74344500D01*
X95169000Y-77404500D02*
X95169000Y-74344500D01*
X95169000Y-74344500D02*
X85429000Y-74344500D01*
%TO.C,U3*%
X81955000Y-99694500D02*
X81955000Y-83804500D01*
X81955000Y-99694500D02*
X71715000Y-99694500D01*
X81955000Y-83804500D02*
X71715000Y-83804500D01*
X79375000Y-83804500D02*
X79375000Y-81264500D01*
X76835000Y-83804500D02*
X76835000Y-81264500D01*
X74295000Y-83804500D02*
X74295000Y-81264500D01*
X71715000Y-99694500D02*
X71715000Y-83804500D01*
%TO.C,Rx4*%
X67540000Y-98234500D02*
X66770000Y-98234500D01*
X66770000Y-99604500D02*
X66770000Y-96864500D01*
X66770000Y-96864500D02*
X60230000Y-96864500D01*
X60230000Y-99604500D02*
X66770000Y-99604500D01*
X60230000Y-96864500D02*
X60230000Y-99604500D01*
X59460000Y-98234500D02*
X60230000Y-98234500D01*
%TO.C,RV1*%
X58366000Y-85934500D02*
X58366000Y-81214500D01*
X59556000Y-85934500D02*
X58376000Y-85934500D01*
X62456000Y-85934500D02*
X61926000Y-85934500D01*
X64906000Y-85934500D02*
X64076000Y-85934500D01*
X68116000Y-85934500D02*
X66626000Y-85934500D01*
X68116000Y-85934500D02*
X68116000Y-81214500D01*
X58376000Y-77404500D02*
X58376000Y-74344500D01*
X68116000Y-77404500D02*
X68116000Y-74344500D01*
X68116000Y-74344500D02*
X58376000Y-74344500D01*
%TO.C,In2*%
X71794000Y-104405500D02*
X71794000Y-114905500D01*
X75064000Y-101255500D02*
X75064000Y-102055500D01*
X75064000Y-101255500D02*
X75924000Y-101255500D01*
X75494000Y-114905500D02*
X71794000Y-114905500D01*
X75574000Y-104405500D02*
X71794000Y-104405500D01*
X80794000Y-104405500D02*
X77014000Y-104405500D01*
X80794000Y-104405500D02*
X80794000Y-114905500D01*
X80794000Y-114905500D02*
X77094000Y-114905500D01*
X78094000Y-108905500D02*
G75*
G03*
X78094000Y-108905500I-1800000J0D01*
G01*
%TO.C,Rx2*%
X53975000Y-63079500D02*
X53975000Y-63849500D01*
X55345000Y-63849500D02*
X52605000Y-63849500D01*
X52605000Y-63849500D02*
X52605000Y-70389500D01*
X55345000Y-70389500D02*
X55345000Y-63849500D01*
X52605000Y-70389500D02*
X55345000Y-70389500D01*
X53975000Y-71159500D02*
X53975000Y-70389500D01*
%TO.C,R4*%
X99060000Y-57189500D02*
X99060000Y-56419500D01*
X97690000Y-56419500D02*
X100430000Y-56419500D01*
X100430000Y-56419500D02*
X100430000Y-49879500D01*
X97690000Y-49879500D02*
X97690000Y-56419500D01*
X100430000Y-49879500D02*
X97690000Y-49879500D01*
X99060000Y-49109500D02*
X99060000Y-49879500D01*
%TO.C,Q1*%
X56460000Y-79079500D02*
X56460000Y-75479500D01*
X52010000Y-77279500D02*
G75*
G03*
X56448478Y-79117978I2600000J0D01*
G01*
X56448478Y-75441022D02*
G75*
G03*
X52010000Y-77279500I-1838478J-1838478D01*
G01*
%TD*%
M02*
