%TF.GenerationSoftware,KiCad,Pcbnew,7.0.6*%
%TF.CreationDate,2023-10-15T17:56:32+01:00*%
%TF.ProjectId,DSP 1.1,44535020-312e-4312-9e6b-696361645f70,rev?*%
%TF.SameCoordinates,Original*%
%TF.FileFunction,Copper,L2,Bot*%
%TF.FilePolarity,Positive*%
%FSLAX46Y46*%
G04 Gerber Fmt 4.6, Leading zero omitted, Abs format (unit mm)*
G04 Created by KiCad (PCBNEW 7.0.6) date 2023-10-15 17:56:32*
%MOMM*%
%LPD*%
G01*
G04 APERTURE LIST*
%TA.AperFunction,ComponentPad*%
%ADD10C,1.600000*%
%TD*%
%TA.AperFunction,ComponentPad*%
%ADD11O,1.600000X1.600000*%
%TD*%
%TA.AperFunction,ComponentPad*%
%ADD12R,1.700000X1.700000*%
%TD*%
%TA.AperFunction,ComponentPad*%
%ADD13O,1.700000X1.700000*%
%TD*%
%TA.AperFunction,ComponentPad*%
%ADD14R,1.930000X1.830000*%
%TD*%
%TA.AperFunction,ComponentPad*%
%ADD15C,2.130000*%
%TD*%
%TA.AperFunction,ComponentPad*%
%ADD16R,2.400000X1.600000*%
%TD*%
%TA.AperFunction,ComponentPad*%
%ADD17O,2.400000X1.600000*%
%TD*%
%TA.AperFunction,ComponentPad*%
%ADD18O,2.720000X3.240000*%
%TD*%
%TA.AperFunction,ComponentPad*%
%ADD19R,1.800000X1.800000*%
%TD*%
%TA.AperFunction,ComponentPad*%
%ADD20C,1.800000*%
%TD*%
%TA.AperFunction,ComponentPad*%
%ADD21R,1.600000X1.600000*%
%TD*%
%TA.AperFunction,ComponentPad*%
%ADD22C,3.500000*%
%TD*%
%TA.AperFunction,ComponentPad*%
%ADD23R,1.905000X2.000000*%
%TD*%
%TA.AperFunction,ComponentPad*%
%ADD24O,1.905000X2.000000*%
%TD*%
%TA.AperFunction,ComponentPad*%
%ADD25R,1.500000X1.050000*%
%TD*%
%TA.AperFunction,ComponentPad*%
%ADD26O,1.500000X1.050000*%
%TD*%
%TA.AperFunction,ViaPad*%
%ADD27C,0.800000*%
%TD*%
%TA.AperFunction,Conductor*%
%ADD28C,0.250000*%
%TD*%
G04 APERTURE END LIST*
D10*
%TO.P,C2,1*%
%TO.N,GND*%
X82851000Y-66357500D03*
D11*
%TO.P,C2,2*%
%TO.N,Net-(C2-Pad2)*%
X72851000Y-66357500D03*
%TD*%
D12*
%TO.P,Jpcb1,1,Pin_1*%
%TO.N,Line_raw*%
X84206000Y-45153500D03*
D13*
%TO.P,Jpcb1,2,Pin_2*%
%TO.N,Dry_raw*%
X84206000Y-42613500D03*
%TO.P,Jpcb1,3,Pin_3*%
%TO.N,RIGHT EURO*%
X86746000Y-45153500D03*
%TO.P,Jpcb1,4,Pin_4*%
%TO.N,LEFT EURO*%
X86746000Y-42613500D03*
%TO.P,Jpcb1,5,Pin_5*%
%TO.N,GND*%
X89286000Y-45153500D03*
%TO.P,Jpcb1,6,Pin_6*%
%TO.N,+5V*%
X89286000Y-42613500D03*
%TO.P,Jpcb1,7,Pin_7*%
%TO.N,wet1*%
X91826000Y-45153500D03*
%TO.P,Jpcb1,8,Pin_8*%
%TO.N,in1*%
X91826000Y-42613500D03*
%TO.P,Jpcb1,9,Pin_9*%
%TO.N,X0*%
X94366000Y-45153500D03*
%TO.P,Jpcb1,10,Pin_10*%
%TO.N,in buffed*%
X94366000Y-42613500D03*
%TO.P,Jpcb1,11,Pin_11*%
%TO.N,+12V*%
X96906000Y-45153500D03*
%TO.P,Jpcb1,12,Pin_12*%
%TO.N,unconnected-(Jpcb1-Pad12)*%
X96906000Y-42613500D03*
%TD*%
D10*
%TO.P,R5,1*%
%TO.N,Net-(R3-Pad2)*%
X88265000Y-65849500D03*
D11*
%TO.P,R5,2*%
%TO.N,Line_raw*%
X98425000Y-65849500D03*
%TD*%
D14*
%TO.P,feedback/wet1,S*%
%TO.N,GND*%
X66294000Y-102425500D03*
D15*
%TO.P,feedback/wet1,T*%
%TO.N,Net-(RV2-Pad3)*%
X66294000Y-113825500D03*
%TO.P,feedback/wet1,TN*%
%TO.N,LEFT EURO*%
X66294000Y-105525500D03*
%TD*%
D10*
%TO.P,R7,1*%
%TO.N,Net-(R7-Pad1)*%
X95377000Y-94297500D03*
D11*
%TO.P,R7,2*%
%TO.N,wet1*%
X85217000Y-94297500D03*
%TD*%
D10*
%TO.P,Rx3,1*%
%TO.N,Net-(RV3-Pad2)*%
X61595000Y-62039500D03*
D11*
%TO.P,Rx3,2*%
%TO.N,Net-(Q1-Pad2)*%
X61595000Y-72199500D03*
%TD*%
D16*
%TO.P,U4,1,VCC*%
%TO.N,+5V*%
X73279000Y-44513500D03*
D17*
%TO.P,U4,2,REF*%
%TO.N,Net-(C5-Pad1)*%
X73279000Y-47053500D03*
%TO.P,U4,3,AGND*%
%TO.N,GND*%
X73279000Y-49593500D03*
%TO.P,U4,4,DGND*%
X73279000Y-52133500D03*
%TO.P,U4,5,CLK_O*%
%TO.N,X0*%
X73279000Y-54673500D03*
%TO.P,U4,6,VCO*%
%TO.N,Net-(Rx1-Pad2)*%
X73279000Y-57213500D03*
%TO.P,U4,7,CC1*%
%TO.N,Net-(C2-Pad2)*%
X73279000Y-59753500D03*
%TO.P,U4,8,CC0*%
%TO.N,Net-(C1-Pad2)*%
X73279000Y-62293500D03*
%TO.P,U4,9,OP1-OUT*%
%TO.N,GND*%
X80899000Y-62293500D03*
%TO.P,U4,10,OP1-IN*%
%TO.N,unconnected-(U4-Pad10)*%
X80899000Y-59753500D03*
%TO.P,U4,11,OP2-IN*%
%TO.N,GND*%
X80899000Y-57213500D03*
%TO.P,U4,12,OP2-OUT*%
%TO.N,unconnected-(U4-Pad12)*%
X80899000Y-54673500D03*
%TO.P,U4,13,LPF2-IN*%
%TO.N,GND*%
X80899000Y-52133500D03*
%TO.P,U4,14,LPF2-OUT*%
%TO.N,unconnected-(U4-Pad14)*%
X80899000Y-49593500D03*
%TO.P,U4,15,LPF1-OUT*%
%TO.N,unconnected-(U4-Pad15)*%
X80899000Y-47053500D03*
%TO.P,U4,16,LPF1-IN*%
%TO.N,GND*%
X80899000Y-44513500D03*
%TD*%
D14*
%TO.P,In1,S*%
%TO.N,GND*%
X56764000Y-102425500D03*
D15*
%TO.P,In1,T*%
%TO.N,Net-(In1-PadT)*%
X56764000Y-113825500D03*
%TO.P,In1,TN*%
%TO.N,GND*%
X56764000Y-105525500D03*
%TD*%
D10*
%TO.P,Rx1,1*%
%TO.N,Net-(Q1-Pad3)*%
X65405000Y-72199500D03*
D11*
%TO.P,Rx1,2*%
%TO.N,Net-(Rx1-Pad2)*%
X65405000Y-62039500D03*
%TD*%
D10*
%TO.P,C7,1*%
%TO.N,GND*%
X82550000Y-70929500D03*
D11*
%TO.P,C7,2*%
%TO.N,+5V*%
X72550000Y-70929500D03*
%TD*%
D18*
%TO.P,RV4,*%
%TO.N,*%
X85499000Y-51559500D03*
X95099000Y-51559500D03*
D19*
%TO.P,RV4,1,1*%
%TO.N,Net-(R3-Pad2)*%
X87799000Y-59059500D03*
D20*
%TO.P,RV4,2,2*%
%TO.N,GND*%
X90299000Y-59059500D03*
%TO.P,RV4,3,3*%
%TO.N,Net-(R4-Pad2)*%
X92799000Y-59059500D03*
%TD*%
D10*
%TO.P,R6,1*%
%TO.N,Net-(R4-Pad2)*%
X88265000Y-69659500D03*
D11*
%TO.P,R6,2*%
%TO.N,Dry_raw*%
X98425000Y-69659500D03*
%TD*%
D10*
%TO.P,C1,1*%
%TO.N,GND*%
X69215000Y-62119500D03*
D11*
%TO.P,C1,2*%
%TO.N,Net-(C1-Pad2)*%
X69215000Y-72119500D03*
%TD*%
D14*
%TO.P,Left1,S*%
%TO.N,GND*%
X86294000Y-102425500D03*
D15*
%TO.P,Left1,T*%
%TO.N,LEFT EURO*%
X86294000Y-113825500D03*
%TO.P,Left1,TN*%
%TO.N,unconnected-(Left1-PadTN)*%
X86294000Y-105525500D03*
%TD*%
D10*
%TO.P,Rx5,1*%
%TO.N,Net-(RV3-Pad1)*%
X57785000Y-62039500D03*
D11*
%TO.P,Rx5,2*%
%TO.N,+12V*%
X57785000Y-72199500D03*
%TD*%
D18*
%TO.P,RV3,*%
%TO.N,*%
X58499000Y-51559500D03*
X68099000Y-51559500D03*
D19*
%TO.P,RV3,1,1*%
%TO.N,Net-(RV3-Pad1)*%
X60799000Y-59059500D03*
D20*
%TO.P,RV3,2,2*%
%TO.N,Net-(Rx3-Pad1)*%
X63299000Y-59059500D03*
%TO.P,RV3,3,3*%
%TO.N,GND*%
X65799000Y-59059500D03*
%TD*%
D10*
%TO.P,R1,1*%
%TO.N,Net-(R1-Pad1)*%
X58293000Y-94043500D03*
D11*
%TO.P,R1,2*%
%TO.N,in1*%
X68453000Y-94043500D03*
%TD*%
D21*
%TO.P,C5,1*%
%TO.N,Net-(C5-Pad1)*%
X55245000Y-46799500D03*
D10*
%TO.P,C5,2*%
%TO.N,GND*%
X55245000Y-44299500D03*
%TD*%
%TO.P,R3,1*%
%TO.N,in buffed*%
X94615000Y-62039500D03*
D11*
%TO.P,R3,2*%
%TO.N,Net-(R3-Pad2)*%
X84455000Y-62039500D03*
%TD*%
D10*
%TO.P,C4,1*%
%TO.N,GND*%
X60151000Y-43497500D03*
D11*
%TO.P,C4,2*%
%TO.N,+5V*%
X70151000Y-43497500D03*
%TD*%
D10*
%TO.P,C6,1*%
%TO.N,GND*%
X72470000Y-76009500D03*
D11*
%TO.P,C6,2*%
%TO.N,+12V*%
X82470000Y-76009500D03*
%TD*%
D22*
%TO.P,REF\u002A\u002A,1*%
%TO.N,N/C*%
X55016400Y-98488500D03*
%TD*%
D14*
%TO.P,Right1,S*%
%TO.N,GND*%
X96294000Y-102425500D03*
D15*
%TO.P,Right1,T*%
%TO.N,RIGHT EURO*%
X96294000Y-113825500D03*
%TO.P,Right1,TN*%
%TO.N,unconnected-(Right1-PadTN)*%
X96294000Y-105525500D03*
%TD*%
D18*
%TO.P,RV2,*%
%TO.N,*%
X85499000Y-79314500D03*
X95099000Y-79314500D03*
D19*
%TO.P,RV2,1,1*%
%TO.N,GND*%
X87799000Y-86814500D03*
D20*
%TO.P,RV2,2,2*%
%TO.N,Net-(R7-Pad1)*%
X90299000Y-86814500D03*
%TO.P,RV2,3,3*%
%TO.N,Net-(RV2-Pad3)*%
X92799000Y-86814500D03*
%TD*%
D22*
%TO.P,REF\u002A\u002A,1*%
%TO.N,N/C*%
X98171000Y-98488500D03*
%TD*%
D23*
%TO.P,U3,1,IN*%
%TO.N,+12V*%
X79375000Y-80114500D03*
D24*
%TO.P,U3,2,GND*%
%TO.N,GND*%
X76835000Y-80114500D03*
%TO.P,U3,3,OUT*%
%TO.N,+5V*%
X74295000Y-80114500D03*
%TD*%
D10*
%TO.P,Rx4,1*%
%TO.N,Net-(In2-PadT)*%
X68580000Y-98234500D03*
D11*
%TO.P,Rx4,2*%
%TO.N,Net-(Q1-Pad2)*%
X58420000Y-98234500D03*
%TD*%
D18*
%TO.P,RV1,*%
%TO.N,*%
X58446000Y-79314500D03*
X68046000Y-79314500D03*
D19*
%TO.P,RV1,1,1*%
%TO.N,GND*%
X60746000Y-86814500D03*
D20*
%TO.P,RV1,2,2*%
%TO.N,Net-(R1-Pad1)*%
X63246000Y-86814500D03*
%TO.P,RV1,3,3*%
%TO.N,Net-(In1-PadT)*%
X65746000Y-86814500D03*
%TD*%
D14*
%TO.P,In2,S*%
%TO.N,GND*%
X76294000Y-102425500D03*
D15*
%TO.P,In2,T*%
%TO.N,Net-(In2-PadT)*%
X76294000Y-113825500D03*
%TO.P,In2,TN*%
%TO.N,GND*%
X76294000Y-105525500D03*
%TD*%
D10*
%TO.P,Rx2,1*%
%TO.N,GND*%
X53975000Y-62039500D03*
D11*
%TO.P,Rx2,2*%
%TO.N,Net-(Q1-Pad3)*%
X53975000Y-72199500D03*
%TD*%
D22*
%TO.P,REF\u002A\u002A,1*%
%TO.N,N/C*%
X98221800Y-62496700D03*
%TD*%
%TO.P,REF\u002A\u002A,1*%
%TO.N,N/C*%
X55372000Y-56451500D03*
%TD*%
D10*
%TO.P,R4,1*%
%TO.N,in buffed*%
X99060000Y-58229500D03*
D11*
%TO.P,R4,2*%
%TO.N,Net-(R4-Pad2)*%
X99060000Y-48069500D03*
%TD*%
D25*
%TO.P,Q1,1,E*%
%TO.N,GND*%
X54610000Y-78549500D03*
D26*
%TO.P,Q1,2,B*%
%TO.N,Net-(Q1-Pad2)*%
X54610000Y-77279500D03*
%TO.P,Q1,3,C*%
%TO.N,Net-(Q1-Pad3)*%
X54610000Y-76009500D03*
%TD*%
D27*
%TO.N,in1*%
X85344000Y-76517500D03*
%TO.N,+12V*%
X93853000Y-75755500D03*
X98552000Y-74231500D03*
%TO.N,+5V*%
X77343000Y-42481500D03*
%TO.N,X0*%
X77343000Y-54165500D03*
%TO.N,Line_raw*%
X93091000Y-47307500D03*
%TO.N,Dry_raw*%
X87630000Y-72326500D03*
%TO.N,wet1*%
X91821000Y-49593500D03*
%TO.N,in1*%
X92583000Y-56959500D03*
%TD*%
D28*
%TO.N,RIGHT EURO*%
X92583000Y-61531500D02*
X92583000Y-70421500D01*
X93599000Y-60515500D02*
X92583000Y-61531500D01*
X86746000Y-45153500D02*
X86746000Y-47630000D01*
X88265000Y-51117500D02*
X94869000Y-57721500D01*
X93853000Y-60515500D02*
X93599000Y-60515500D01*
X98425000Y-76263500D02*
X98425000Y-94043500D01*
%TO.N,Line_raw*%
X97536000Y-65849500D02*
X98425000Y-65849500D01*
%TO.N,X0*%
X77343000Y-54165500D02*
X76835000Y-54673500D01*
%TO.N,RIGHT EURO*%
X94869000Y-57721500D02*
X94869000Y-59499500D01*
%TO.N,Net-(Q1-Pad2)*%
X53086000Y-86423500D02*
X53086000Y-77803500D01*
%TO.N,RIGHT EURO*%
X93345000Y-111379500D02*
X96299000Y-114333500D01*
X94869000Y-59499500D02*
X93853000Y-60515500D01*
%TO.N,Net-(Q1-Pad2)*%
X53086000Y-77803500D02*
X53610000Y-77279500D01*
%TO.N,RIGHT EURO*%
X86746000Y-47630000D02*
X88265000Y-49149000D01*
%TO.N,Net-(Q1-Pad2)*%
X54737000Y-94551500D02*
X54737000Y-88074500D01*
%TO.N,RIGHT EURO*%
X98425000Y-94043500D02*
X93345000Y-99123500D01*
X92583000Y-70421500D02*
X98425000Y-76263500D01*
X88265000Y-49149000D02*
X88265000Y-51117500D01*
%TO.N,X0*%
X76835000Y-54673500D02*
X73279000Y-54673500D01*
%TO.N,Net-(Q1-Pad2)*%
X58420000Y-98234500D02*
X54737000Y-94551500D01*
X53610000Y-77279500D02*
X54610000Y-77279500D01*
X54737000Y-88074500D02*
X53086000Y-86423500D01*
%TO.N,RIGHT EURO*%
X93345000Y-99123500D02*
X93345000Y-111379500D01*
%TO.N,Dry_raw*%
X85471000Y-47815500D02*
X87503000Y-49847500D01*
%TO.N,Line_raw*%
X93091000Y-47307500D02*
X93091000Y-54165500D01*
%TO.N,Dry_raw*%
X85598000Y-56959500D02*
X85598000Y-70294500D01*
X84206000Y-42613500D02*
X85471000Y-43878500D01*
%TO.N,wet1*%
X91826000Y-45153500D02*
X91826000Y-49588500D01*
%TO.N,Line_raw*%
X93091000Y-54165500D02*
X95935800Y-57010300D01*
X95935800Y-57010300D02*
X95935800Y-64249300D01*
%TO.N,Dry_raw*%
X87503000Y-55054500D02*
X85598000Y-56959500D01*
X85471000Y-43878500D02*
X85471000Y-47815500D01*
X87503000Y-49847500D02*
X87503000Y-55054500D01*
%TO.N,wet1*%
X91821000Y-49593500D02*
X91826000Y-49588500D01*
%TO.N,Line_raw*%
X95935800Y-64249300D02*
X97536000Y-65849500D01*
%TO.N,Dry_raw*%
X85598000Y-70294500D02*
X87630000Y-72326500D01*
%TO.N,in1*%
X91567000Y-57975500D02*
X92583000Y-56959500D01*
X91567000Y-70294500D02*
X91567000Y-57975500D01*
X85344000Y-76517500D02*
X91567000Y-70294500D01*
%TO.N,LEFT EURO*%
X52451000Y-44132500D02*
X52451000Y-99631500D01*
%TO.N,+5V*%
X75311000Y-44513500D02*
X77343000Y-42481500D01*
X73279000Y-44513500D02*
X75311000Y-44513500D01*
%TO.N,LEFT EURO*%
X52451000Y-99631500D02*
X53086000Y-100266500D01*
X56007000Y-112331500D02*
X57658000Y-112331500D01*
X55626000Y-40957500D02*
X52451000Y-44132500D01*
%TO.N,+12V*%
X100787200Y-71996300D02*
X98552000Y-74231500D01*
X93853000Y-75755500D02*
X87630000Y-81978500D01*
X87630000Y-81978500D02*
X81239000Y-81978500D01*
X81239000Y-81978500D02*
X79375000Y-80114500D01*
%TO.N,LEFT EURO*%
X53086000Y-100266500D02*
X53086000Y-109410500D01*
%TO.N,+12V*%
X96906000Y-45153500D02*
X96906000Y-49725500D01*
X96906000Y-49725500D02*
X100787200Y-53606700D01*
X100787200Y-53606700D02*
X100787200Y-71996300D01*
%TO.N,LEFT EURO*%
X85090000Y-40957500D02*
X55626000Y-40957500D01*
X53086000Y-109410500D02*
X56007000Y-112331500D01*
X86746000Y-42613500D02*
X85090000Y-40957500D01*
X63956000Y-106033500D02*
X66299000Y-106033500D01*
X57658000Y-112331500D02*
X63956000Y-106033500D01*
%TD*%
%TA.AperFunction,Conductor*%
%TO.N,GND*%
G36*
X101390526Y-40470075D02*
G01*
X101437087Y-40523671D01*
X101448540Y-40576119D01*
X101460118Y-76845409D01*
X101472322Y-115076535D01*
X101472460Y-115506960D01*
X101452480Y-115575087D01*
X101398839Y-115621597D01*
X101346460Y-115633000D01*
X51561415Y-115633000D01*
X51493294Y-115612998D01*
X51446801Y-115559342D01*
X51435415Y-115507086D01*
X51425021Y-100198640D01*
X51398972Y-61831156D01*
X51434680Y-40639061D01*
X51454797Y-40570976D01*
X51508531Y-40524573D01*
X51560516Y-40513275D01*
X55307458Y-40508523D01*
X55375604Y-40528439D01*
X55422165Y-40582035D01*
X55432358Y-40652296D01*
X55404137Y-40715518D01*
X55387547Y-40735287D01*
X55383834Y-40739339D01*
X52232843Y-43890329D01*
X52228792Y-43894042D01*
X52197806Y-43920044D01*
X52197804Y-43920047D01*
X52177589Y-43955058D01*
X52174638Y-43959691D01*
X52151445Y-43992816D01*
X52148873Y-43998332D01*
X52142493Y-44013735D01*
X52140412Y-44019452D01*
X52133392Y-44059261D01*
X52132203Y-44064626D01*
X52121736Y-44103692D01*
X52121736Y-44103694D01*
X52125260Y-44143965D01*
X52125500Y-44149459D01*
X52125500Y-99614539D01*
X52125260Y-99620032D01*
X52121736Y-99660304D01*
X52121736Y-99660306D01*
X52132203Y-99699372D01*
X52133393Y-99704740D01*
X52140412Y-99744547D01*
X52142505Y-99750296D01*
X52148866Y-99765652D01*
X52151445Y-99771183D01*
X52174634Y-99804300D01*
X52177587Y-99808936D01*
X52197806Y-99843955D01*
X52228781Y-99869946D01*
X52232835Y-99873661D01*
X52492731Y-100133557D01*
X52723595Y-100364420D01*
X52757620Y-100426733D01*
X52760500Y-100453516D01*
X52760500Y-109393539D01*
X52760260Y-109399032D01*
X52756736Y-109439304D01*
X52756736Y-109439306D01*
X52767203Y-109478372D01*
X52768393Y-109483740D01*
X52775412Y-109523547D01*
X52777505Y-109529296D01*
X52783866Y-109544652D01*
X52786445Y-109550183D01*
X52809634Y-109583300D01*
X52812587Y-109587936D01*
X52832806Y-109622955D01*
X52863787Y-109648951D01*
X52867829Y-109652655D01*
X55764844Y-112549670D01*
X55768547Y-112553711D01*
X55794545Y-112584694D01*
X55820777Y-112599839D01*
X55829558Y-112604909D01*
X55834196Y-112607863D01*
X55867316Y-112631054D01*
X55872870Y-112633644D01*
X55888179Y-112639985D01*
X55893952Y-112642086D01*
X55893955Y-112642088D01*
X55893958Y-112642088D01*
X55901487Y-112644829D01*
X55958658Y-112686924D01*
X55983995Y-112753246D01*
X55969454Y-112822737D01*
X55947487Y-112852325D01*
X55790867Y-113008945D01*
X55706252Y-113129788D01*
X55663858Y-113190333D01*
X55663857Y-113190335D01*
X55663855Y-113190338D01*
X55663854Y-113190338D01*
X55570280Y-113391012D01*
X55570276Y-113391022D01*
X55512965Y-113604909D01*
X55493666Y-113825500D01*
X55512965Y-114046090D01*
X55570276Y-114259977D01*
X55570280Y-114259987D01*
X55663854Y-114460661D01*
X55790868Y-114642055D01*
X55790871Y-114642059D01*
X55947440Y-114798628D01*
X55947444Y-114798631D01*
X55947445Y-114798632D01*
X56128833Y-114925642D01*
X56128838Y-114925644D01*
X56128838Y-114925645D01*
X56271843Y-114992328D01*
X56329520Y-115019223D01*
X56543409Y-115076535D01*
X56764000Y-115095834D01*
X56984591Y-115076535D01*
X57198480Y-115019223D01*
X57399167Y-114925642D01*
X57580555Y-114798632D01*
X57737132Y-114642055D01*
X57864142Y-114460667D01*
X57957723Y-114259980D01*
X58015035Y-114046091D01*
X58034334Y-113825500D01*
X65023666Y-113825500D01*
X65042965Y-114046090D01*
X65100276Y-114259977D01*
X65100280Y-114259987D01*
X65193854Y-114460661D01*
X65320868Y-114642055D01*
X65320871Y-114642059D01*
X65477440Y-114798628D01*
X65477444Y-114798631D01*
X65477445Y-114798632D01*
X65658833Y-114925642D01*
X65658838Y-114925644D01*
X65658838Y-114925645D01*
X65801843Y-114992328D01*
X65859520Y-115019223D01*
X66073409Y-115076535D01*
X66294000Y-115095834D01*
X66514591Y-115076535D01*
X66728480Y-115019223D01*
X66929167Y-114925642D01*
X67110555Y-114798632D01*
X67267132Y-114642055D01*
X67394142Y-114460667D01*
X67487723Y-114259980D01*
X67545035Y-114046091D01*
X67564334Y-113825500D01*
X75023666Y-113825500D01*
X75042965Y-114046090D01*
X75100276Y-114259977D01*
X75100280Y-114259987D01*
X75193854Y-114460661D01*
X75320868Y-114642055D01*
X75320871Y-114642059D01*
X75477440Y-114798628D01*
X75477444Y-114798631D01*
X75477445Y-114798632D01*
X75658833Y-114925642D01*
X75658838Y-114925644D01*
X75658838Y-114925645D01*
X75801843Y-114992328D01*
X75859520Y-115019223D01*
X76073409Y-115076535D01*
X76294000Y-115095834D01*
X76514591Y-115076535D01*
X76728480Y-115019223D01*
X76929167Y-114925642D01*
X77110555Y-114798632D01*
X77267132Y-114642055D01*
X77394142Y-114460667D01*
X77487723Y-114259980D01*
X77545035Y-114046091D01*
X77564334Y-113825500D01*
X85023666Y-113825500D01*
X85042965Y-114046090D01*
X85100276Y-114259977D01*
X85100280Y-114259987D01*
X85193854Y-114460661D01*
X85320868Y-114642055D01*
X85320871Y-114642059D01*
X85477440Y-114798628D01*
X85477444Y-114798631D01*
X85477445Y-114798632D01*
X85658833Y-114925642D01*
X85658838Y-114925644D01*
X85658838Y-114925645D01*
X85801843Y-114992328D01*
X85859520Y-115019223D01*
X86073409Y-115076535D01*
X86294000Y-115095834D01*
X86514591Y-115076535D01*
X86728480Y-115019223D01*
X86929167Y-114925642D01*
X87110555Y-114798632D01*
X87267132Y-114642055D01*
X87394142Y-114460667D01*
X87487723Y-114259980D01*
X87545035Y-114046091D01*
X87564334Y-113825500D01*
X87545035Y-113604909D01*
X87487723Y-113391020D01*
X87460828Y-113333343D01*
X87394145Y-113190338D01*
X87394142Y-113190335D01*
X87394142Y-113190333D01*
X87267132Y-113008945D01*
X87267131Y-113008944D01*
X87267128Y-113008940D01*
X87110559Y-112852371D01*
X87110555Y-112852368D01*
X87110494Y-112852325D01*
X86929167Y-112725358D01*
X86929161Y-112725355D01*
X86929161Y-112725354D01*
X86728487Y-112631780D01*
X86728483Y-112631778D01*
X86728480Y-112631777D01*
X86728478Y-112631776D01*
X86728477Y-112631776D01*
X86633351Y-112606287D01*
X86514591Y-112574465D01*
X86294000Y-112555166D01*
X86073409Y-112574465D01*
X85859522Y-112631776D01*
X85859512Y-112631780D01*
X85658838Y-112725354D01*
X85658838Y-112725355D01*
X85658835Y-112725357D01*
X85658833Y-112725358D01*
X85634118Y-112742664D01*
X85477444Y-112852368D01*
X85477440Y-112852371D01*
X85320871Y-113008940D01*
X85320868Y-113008944D01*
X85246833Y-113114677D01*
X85193858Y-113190333D01*
X85193857Y-113190335D01*
X85193855Y-113190338D01*
X85193854Y-113190338D01*
X85100280Y-113391012D01*
X85100276Y-113391022D01*
X85042965Y-113604909D01*
X85023666Y-113825500D01*
X77564334Y-113825500D01*
X77545035Y-113604909D01*
X77487723Y-113391020D01*
X77460828Y-113333343D01*
X77394145Y-113190338D01*
X77394142Y-113190335D01*
X77394142Y-113190333D01*
X77267132Y-113008945D01*
X77267131Y-113008944D01*
X77267128Y-113008940D01*
X77110559Y-112852371D01*
X77110555Y-112852368D01*
X77110494Y-112852325D01*
X76929167Y-112725358D01*
X76929161Y-112725355D01*
X76929161Y-112725354D01*
X76728487Y-112631780D01*
X76728483Y-112631778D01*
X76728480Y-112631777D01*
X76728478Y-112631776D01*
X76728477Y-112631776D01*
X76633351Y-112606287D01*
X76514591Y-112574465D01*
X76294000Y-112555166D01*
X76073409Y-112574465D01*
X75859522Y-112631776D01*
X75859512Y-112631780D01*
X75658838Y-112725354D01*
X75658838Y-112725355D01*
X75658835Y-112725357D01*
X75658833Y-112725358D01*
X75634118Y-112742664D01*
X75477444Y-112852368D01*
X75477440Y-112852371D01*
X75320871Y-113008940D01*
X75320868Y-113008944D01*
X75246833Y-113114677D01*
X75193858Y-113190333D01*
X75193857Y-113190335D01*
X75193855Y-113190338D01*
X75193854Y-113190338D01*
X75100280Y-113391012D01*
X75100276Y-113391022D01*
X75042965Y-113604909D01*
X75023666Y-113825500D01*
X67564334Y-113825500D01*
X67545035Y-113604909D01*
X67487723Y-113391020D01*
X67460828Y-113333343D01*
X67394145Y-113190338D01*
X67394142Y-113190335D01*
X67394142Y-113190333D01*
X67267132Y-113008945D01*
X67267131Y-113008944D01*
X67267128Y-113008940D01*
X67110559Y-112852371D01*
X67110555Y-112852368D01*
X67110494Y-112852325D01*
X66929167Y-112725358D01*
X66929161Y-112725355D01*
X66929161Y-112725354D01*
X66728487Y-112631780D01*
X66728483Y-112631778D01*
X66728480Y-112631777D01*
X66728478Y-112631776D01*
X66728477Y-112631776D01*
X66633351Y-112606287D01*
X66514591Y-112574465D01*
X66294000Y-112555166D01*
X66073409Y-112574465D01*
X65859522Y-112631776D01*
X65859512Y-112631780D01*
X65658838Y-112725354D01*
X65658838Y-112725355D01*
X65658835Y-112725357D01*
X65658833Y-112725358D01*
X65634118Y-112742664D01*
X65477444Y-112852368D01*
X65477440Y-112852371D01*
X65320871Y-113008940D01*
X65320868Y-113008944D01*
X65246833Y-113114677D01*
X65193858Y-113190333D01*
X65193857Y-113190335D01*
X65193855Y-113190338D01*
X65193854Y-113190338D01*
X65100280Y-113391012D01*
X65100276Y-113391022D01*
X65042965Y-113604909D01*
X65023666Y-113825500D01*
X58034334Y-113825500D01*
X58015035Y-113604909D01*
X57957723Y-113391020D01*
X57930828Y-113333343D01*
X57864145Y-113190338D01*
X57864142Y-113190335D01*
X57864142Y-113190333D01*
X57737132Y-113008945D01*
X57737131Y-113008944D01*
X57737128Y-113008940D01*
X57603979Y-112875791D01*
X57569953Y-112813479D01*
X57575018Y-112742664D01*
X57617565Y-112685828D01*
X57682103Y-112661174D01*
X57686800Y-112660763D01*
X57686807Y-112660764D01*
X57686813Y-112660762D01*
X57686816Y-112660762D01*
X57708632Y-112654915D01*
X57725870Y-112650296D01*
X57731231Y-112649107D01*
X57771045Y-112642088D01*
X57771047Y-112642086D01*
X57776838Y-112639979D01*
X57792101Y-112633657D01*
X57797681Y-112631055D01*
X57797681Y-112631054D01*
X57797684Y-112631054D01*
X57830817Y-112607852D01*
X57835428Y-112604915D01*
X57870455Y-112584694D01*
X57896453Y-112553709D01*
X57900146Y-112549678D01*
X64053920Y-106395905D01*
X64116233Y-106361879D01*
X64143016Y-106359000D01*
X65285623Y-106359000D01*
X65353744Y-106379002D01*
X65374713Y-106395900D01*
X65477445Y-106498632D01*
X65658833Y-106625642D01*
X65658838Y-106625644D01*
X65658838Y-106625645D01*
X65801843Y-106692328D01*
X65859520Y-106719223D01*
X66073409Y-106776535D01*
X66294000Y-106795834D01*
X66514591Y-106776535D01*
X66728480Y-106719223D01*
X66929167Y-106625642D01*
X67110555Y-106498632D01*
X67267132Y-106342055D01*
X67394142Y-106160667D01*
X67487723Y-105959980D01*
X67545035Y-105746091D01*
X67564334Y-105525500D01*
X85023666Y-105525500D01*
X85042965Y-105746091D01*
X85060998Y-105813389D01*
X85100276Y-105959977D01*
X85100280Y-105959987D01*
X85193854Y-106160661D01*
X85320868Y-106342055D01*
X85320871Y-106342059D01*
X85477440Y-106498628D01*
X85477444Y-106498631D01*
X85477445Y-106498632D01*
X85658833Y-106625642D01*
X85658838Y-106625644D01*
X85658838Y-106625645D01*
X85801843Y-106692328D01*
X85859520Y-106719223D01*
X86073409Y-106776535D01*
X86294000Y-106795834D01*
X86514591Y-106776535D01*
X86728480Y-106719223D01*
X86929167Y-106625642D01*
X87110555Y-106498632D01*
X87267132Y-106342055D01*
X87394142Y-106160667D01*
X87487723Y-105959980D01*
X87545035Y-105746091D01*
X87564334Y-105525500D01*
X87545035Y-105304909D01*
X87487723Y-105091020D01*
X87460828Y-105033343D01*
X87394145Y-104890338D01*
X87394142Y-104890335D01*
X87394142Y-104890333D01*
X87267132Y-104708945D01*
X87267131Y-104708944D01*
X87267128Y-104708940D01*
X87110559Y-104552371D01*
X87110555Y-104552368D01*
X87110554Y-104552368D01*
X86929167Y-104425358D01*
X86929161Y-104425355D01*
X86929161Y-104425354D01*
X86728487Y-104331780D01*
X86728483Y-104331778D01*
X86728480Y-104331777D01*
X86728478Y-104331776D01*
X86728477Y-104331776D01*
X86638080Y-104307554D01*
X86514591Y-104274465D01*
X86294000Y-104255166D01*
X86073409Y-104274465D01*
X85859522Y-104331776D01*
X85859512Y-104331780D01*
X85658838Y-104425354D01*
X85658838Y-104425355D01*
X85658835Y-104425357D01*
X85658833Y-104425358D01*
X85583177Y-104478333D01*
X85477444Y-104552368D01*
X85477440Y-104552371D01*
X85320871Y-104708940D01*
X85320868Y-104708944D01*
X85246833Y-104814677D01*
X85193858Y-104890333D01*
X85193857Y-104890335D01*
X85193855Y-104890338D01*
X85193854Y-104890338D01*
X85100280Y-105091012D01*
X85100277Y-105091020D01*
X85042965Y-105304909D01*
X85023666Y-105525500D01*
X67564334Y-105525500D01*
X67545035Y-105304909D01*
X67487723Y-105091020D01*
X67460828Y-105033343D01*
X67394145Y-104890338D01*
X67394142Y-104890335D01*
X67394142Y-104890333D01*
X67267132Y-104708945D01*
X67267131Y-104708944D01*
X67267128Y-104708940D01*
X67110559Y-104552371D01*
X67110555Y-104552368D01*
X67110554Y-104552367D01*
X66929167Y-104425358D01*
X66929161Y-104425355D01*
X66929161Y-104425354D01*
X66728487Y-104331780D01*
X66728483Y-104331778D01*
X66728480Y-104331777D01*
X66728478Y-104331776D01*
X66728477Y-104331776D01*
X66638080Y-104307554D01*
X66514591Y-104274465D01*
X66294000Y-104255166D01*
X66073409Y-104274465D01*
X65859522Y-104331776D01*
X65859512Y-104331780D01*
X65658838Y-104425354D01*
X65658838Y-104425355D01*
X65658835Y-104425357D01*
X65658833Y-104425358D01*
X65583177Y-104478333D01*
X65477444Y-104552368D01*
X65477440Y-104552371D01*
X65320871Y-104708940D01*
X65320868Y-104708944D01*
X65246833Y-104814677D01*
X65193858Y-104890333D01*
X65193857Y-104890335D01*
X65193855Y-104890338D01*
X65193854Y-104890338D01*
X65100280Y-105091012D01*
X65100276Y-105091022D01*
X65042965Y-105304909D01*
X65023666Y-105525505D01*
X65027648Y-105571018D01*
X65013660Y-105640623D01*
X64964261Y-105691615D01*
X64902128Y-105708000D01*
X63972960Y-105708000D01*
X63967475Y-105707760D01*
X63938872Y-105705257D01*
X63927195Y-105704236D01*
X63927192Y-105704236D01*
X63888126Y-105714703D01*
X63882761Y-105715892D01*
X63842952Y-105722912D01*
X63837235Y-105724993D01*
X63821832Y-105731373D01*
X63816316Y-105733945D01*
X63783191Y-105757138D01*
X63778558Y-105760089D01*
X63743547Y-105780304D01*
X63743545Y-105780305D01*
X63717547Y-105811287D01*
X63713834Y-105815339D01*
X57560079Y-111969095D01*
X57497767Y-112003121D01*
X57470984Y-112006000D01*
X56194016Y-112006000D01*
X56125895Y-111985998D01*
X56104921Y-111969095D01*
X55328309Y-111192483D01*
X53448402Y-109312575D01*
X53414378Y-109250266D01*
X53411499Y-109223492D01*
X53411499Y-100283462D01*
X53411739Y-100277968D01*
X53415264Y-100237693D01*
X53404791Y-100198610D01*
X53403611Y-100193287D01*
X53396588Y-100153455D01*
X53396585Y-100153449D01*
X53394485Y-100147681D01*
X53388144Y-100132370D01*
X53385554Y-100126816D01*
X53362363Y-100093696D01*
X53359409Y-100089058D01*
X53339193Y-100054044D01*
X53308212Y-100028047D01*
X53304169Y-100024343D01*
X52813404Y-99533578D01*
X52779378Y-99471266D01*
X52776499Y-99444492D01*
X52776499Y-98488500D01*
X53060918Y-98488500D01*
X53080821Y-98766790D01*
X53140128Y-99039421D01*
X53237631Y-99300836D01*
X53237632Y-99300840D01*
X53371342Y-99545710D01*
X53371344Y-99545713D01*
X53524492Y-99750296D01*
X53538546Y-99769069D01*
X53538554Y-99769078D01*
X53735821Y-99966345D01*
X53735830Y-99966353D01*
X53735832Y-99966355D01*
X53959187Y-100133556D01*
X53959189Y-100133557D01*
X54073496Y-100195974D01*
X54204063Y-100267269D01*
X54465477Y-100364771D01*
X54738106Y-100424078D01*
X55016400Y-100443982D01*
X55294694Y-100424078D01*
X55567323Y-100364771D01*
X55828737Y-100267269D01*
X56073613Y-100133556D01*
X56296968Y-99966355D01*
X56494255Y-99769068D01*
X56661456Y-99545713D01*
X56795169Y-99300837D01*
X56892671Y-99039423D01*
X56951978Y-98766794D01*
X56971882Y-98488500D01*
X56951978Y-98210206D01*
X56892671Y-97937577D01*
X56795169Y-97676163D01*
X56661456Y-97431287D01*
X56494255Y-97207932D01*
X56494253Y-97207930D01*
X56494245Y-97207921D01*
X56296978Y-97010654D01*
X56296969Y-97010646D01*
X56073610Y-96843442D01*
X55828740Y-96709732D01*
X55828737Y-96709731D01*
X55673234Y-96651731D01*
X55567321Y-96612228D01*
X55294690Y-96552921D01*
X55016400Y-96533018D01*
X54738109Y-96552921D01*
X54465478Y-96612228D01*
X54204063Y-96709731D01*
X54204059Y-96709732D01*
X53959189Y-96843442D01*
X53735830Y-97010646D01*
X53735821Y-97010654D01*
X53538554Y-97207921D01*
X53538546Y-97207930D01*
X53371342Y-97431289D01*
X53237632Y-97676159D01*
X53237631Y-97676163D01*
X53140128Y-97937578D01*
X53080821Y-98210209D01*
X53060918Y-98488500D01*
X52776499Y-98488500D01*
X52776499Y-86878514D01*
X52796501Y-86810394D01*
X52850157Y-86763901D01*
X52920431Y-86753797D01*
X52985011Y-86783291D01*
X52991594Y-86789420D01*
X54374595Y-88172421D01*
X54408621Y-88234733D01*
X54411500Y-88261516D01*
X54411500Y-94534539D01*
X54411260Y-94540032D01*
X54407736Y-94580304D01*
X54407736Y-94580306D01*
X54418203Y-94619372D01*
X54419393Y-94624740D01*
X54426412Y-94664547D01*
X54428505Y-94670296D01*
X54434866Y-94685652D01*
X54437445Y-94691183D01*
X54460634Y-94724300D01*
X54463587Y-94728936D01*
X54483806Y-94763955D01*
X54514014Y-94789303D01*
X54514787Y-94789951D01*
X54518829Y-94793655D01*
X56214246Y-96489072D01*
X57457278Y-97732104D01*
X57491304Y-97794416D01*
X57488758Y-97857774D01*
X57433975Y-98038370D01*
X57433974Y-98038375D01*
X57414659Y-98234496D01*
X57414659Y-98234503D01*
X57433974Y-98430624D01*
X57433974Y-98430626D01*
X57491186Y-98619228D01*
X57566268Y-98759696D01*
X57584090Y-98793038D01*
X57709117Y-98945383D01*
X57861462Y-99070410D01*
X58035273Y-99163314D01*
X58223868Y-99220524D01*
X58223872Y-99220524D01*
X58223874Y-99220525D01*
X58419997Y-99239841D01*
X58420000Y-99239841D01*
X58420003Y-99239841D01*
X58616124Y-99220525D01*
X58616126Y-99220525D01*
X58616127Y-99220524D01*
X58616132Y-99220524D01*
X58804727Y-99163314D01*
X58978538Y-99070410D01*
X59130883Y-98945383D01*
X59255910Y-98793038D01*
X59348814Y-98619227D01*
X59406024Y-98430632D01*
X59406025Y-98430624D01*
X59425341Y-98234503D01*
X67574659Y-98234503D01*
X67593974Y-98430624D01*
X67593974Y-98430626D01*
X67651186Y-98619228D01*
X67726268Y-98759696D01*
X67744090Y-98793038D01*
X67869117Y-98945383D01*
X68021462Y-99070410D01*
X68195273Y-99163314D01*
X68383868Y-99220524D01*
X68383872Y-99220524D01*
X68383874Y-99220525D01*
X68579997Y-99239841D01*
X68580000Y-99239841D01*
X68580003Y-99239841D01*
X68776124Y-99220525D01*
X68776126Y-99220525D01*
X68776127Y-99220524D01*
X68776132Y-99220524D01*
X68964727Y-99163314D01*
X69138538Y-99070410D01*
X69290883Y-98945383D01*
X69415910Y-98793038D01*
X69508814Y-98619227D01*
X69566024Y-98430632D01*
X69566025Y-98430624D01*
X69585341Y-98234503D01*
X69585341Y-98234496D01*
X69566025Y-98038375D01*
X69566025Y-98038373D01*
X69566024Y-98038370D01*
X69566024Y-98038368D01*
X69508814Y-97849773D01*
X69415910Y-97675962D01*
X69290883Y-97523617D01*
X69138538Y-97398590D01*
X69028075Y-97339546D01*
X68964728Y-97305686D01*
X68776125Y-97248474D01*
X68580003Y-97229159D01*
X68579997Y-97229159D01*
X68383875Y-97248474D01*
X68383873Y-97248474D01*
X68195271Y-97305686D01*
X68021461Y-97398590D01*
X67869117Y-97523617D01*
X67744090Y-97675961D01*
X67651186Y-97849771D01*
X67593974Y-98038373D01*
X67593974Y-98038375D01*
X67574659Y-98234496D01*
X67574659Y-98234503D01*
X59425341Y-98234503D01*
X59425341Y-98234496D01*
X59406025Y-98038375D01*
X59406025Y-98038373D01*
X59406024Y-98038370D01*
X59406024Y-98038368D01*
X59348814Y-97849773D01*
X59255910Y-97675962D01*
X59130883Y-97523617D01*
X58978538Y-97398590D01*
X58868075Y-97339546D01*
X58804728Y-97305686D01*
X58616125Y-97248474D01*
X58420003Y-97229159D01*
X58419997Y-97229159D01*
X58223875Y-97248474D01*
X58223870Y-97248475D01*
X58043274Y-97303258D01*
X57972280Y-97303891D01*
X57917604Y-97271778D01*
X57420325Y-96774499D01*
X74829390Y-96774499D01*
X74849803Y-97059924D01*
X74910631Y-97339546D01*
X75010632Y-97607660D01*
X75010637Y-97607670D01*
X75147768Y-97858807D01*
X75147772Y-97858812D01*
X75147774Y-97858815D01*
X75282189Y-98038373D01*
X75319262Y-98087896D01*
X75319270Y-98087905D01*
X75521594Y-98290229D01*
X75521603Y-98290237D01*
X75521605Y-98290239D01*
X75750685Y-98461726D01*
X75750687Y-98461727D01*
X75750692Y-98461731D01*
X76001829Y-98598862D01*
X76001839Y-98598867D01*
X76269954Y-98698869D01*
X76549572Y-98759696D01*
X76763552Y-98775000D01*
X76763558Y-98775000D01*
X76906442Y-98775000D01*
X76906448Y-98775000D01*
X77120428Y-98759696D01*
X77400046Y-98698869D01*
X77668161Y-98598867D01*
X77698144Y-98582494D01*
X77919307Y-98461731D01*
X77919309Y-98461729D01*
X77919315Y-98461726D01*
X78148395Y-98290239D01*
X78350739Y-98087895D01*
X78522226Y-97858815D01*
X78522229Y-97858809D01*
X78522231Y-97858807D01*
X78659362Y-97607670D01*
X78659367Y-97607661D01*
X78759369Y-97339546D01*
X78820196Y-97059928D01*
X78840610Y-96774500D01*
X78820196Y-96489072D01*
X78759369Y-96209454D01*
X78659367Y-95941339D01*
X78659362Y-95941329D01*
X78522231Y-95690192D01*
X78522227Y-95690187D01*
X78522226Y-95690185D01*
X78350739Y-95461105D01*
X78350737Y-95461103D01*
X78350729Y-95461094D01*
X78148405Y-95258770D01*
X78148396Y-95258762D01*
X78105049Y-95226313D01*
X77919315Y-95087274D01*
X77919313Y-95087273D01*
X77919312Y-95087272D01*
X77919307Y-95087268D01*
X77668170Y-94950137D01*
X77668160Y-94950132D01*
X77400046Y-94850131D01*
X77120424Y-94789303D01*
X76986775Y-94779745D01*
X76906448Y-94774000D01*
X76763552Y-94774000D01*
X76687954Y-94779406D01*
X76549575Y-94789303D01*
X76269953Y-94850131D01*
X76001839Y-94950132D01*
X76001829Y-94950137D01*
X75750692Y-95087268D01*
X75750687Y-95087272D01*
X75521603Y-95258762D01*
X75521594Y-95258770D01*
X75319270Y-95461094D01*
X75319262Y-95461103D01*
X75147772Y-95690187D01*
X75147768Y-95690192D01*
X75010637Y-95941329D01*
X75010632Y-95941339D01*
X74910631Y-96209453D01*
X74849803Y-96489075D01*
X74829390Y-96774499D01*
X57420325Y-96774499D01*
X55099404Y-94453578D01*
X55065378Y-94391266D01*
X55062499Y-94364483D01*
X55062499Y-94043503D01*
X57287659Y-94043503D01*
X57306974Y-94239624D01*
X57306974Y-94239626D01*
X57364186Y-94428228D01*
X57457090Y-94602037D01*
X57457090Y-94602038D01*
X57582117Y-94754383D01*
X57734462Y-94879410D01*
X57908273Y-94972314D01*
X58096868Y-95029524D01*
X58096872Y-95029524D01*
X58096874Y-95029525D01*
X58292997Y-95048841D01*
X58293000Y-95048841D01*
X58293003Y-95048841D01*
X58489124Y-95029525D01*
X58489126Y-95029525D01*
X58489127Y-95029524D01*
X58489132Y-95029524D01*
X58677727Y-94972314D01*
X58851538Y-94879410D01*
X59003883Y-94754383D01*
X59128910Y-94602038D01*
X59221814Y-94428227D01*
X59279024Y-94239632D01*
X59279025Y-94239624D01*
X59298341Y-94043503D01*
X67447659Y-94043503D01*
X67466974Y-94239624D01*
X67466974Y-94239626D01*
X67524186Y-94428228D01*
X67617090Y-94602038D01*
X67742117Y-94754383D01*
X67894462Y-94879410D01*
X68068273Y-94972314D01*
X68256868Y-95029524D01*
X68256872Y-95029524D01*
X68256874Y-95029525D01*
X68452997Y-95048841D01*
X68453000Y-95048841D01*
X68453003Y-95048841D01*
X68649124Y-95029525D01*
X68649126Y-95029525D01*
X68649127Y-95029524D01*
X68649132Y-95029524D01*
X68837727Y-94972314D01*
X69011538Y-94879410D01*
X69163883Y-94754383D01*
X69288910Y-94602038D01*
X69381814Y-94428227D01*
X69421469Y-94297503D01*
X84211659Y-94297503D01*
X84230974Y-94493624D01*
X84230974Y-94493626D01*
X84288186Y-94682228D01*
X84347751Y-94793666D01*
X84381090Y-94856038D01*
X84506117Y-95008383D01*
X84658462Y-95133410D01*
X84832273Y-95226314D01*
X85020868Y-95283524D01*
X85020872Y-95283524D01*
X85020874Y-95283525D01*
X85216997Y-95302841D01*
X85217000Y-95302841D01*
X85217003Y-95302841D01*
X85413124Y-95283525D01*
X85413126Y-95283525D01*
X85413127Y-95283524D01*
X85413132Y-95283524D01*
X85601727Y-95226314D01*
X85775538Y-95133410D01*
X85927883Y-95008383D01*
X86052910Y-94856038D01*
X86145814Y-94682227D01*
X86203024Y-94493632D01*
X86222341Y-94297503D01*
X94371659Y-94297503D01*
X94390974Y-94493624D01*
X94390974Y-94493626D01*
X94448186Y-94682228D01*
X94507751Y-94793666D01*
X94541090Y-94856038D01*
X94666117Y-95008383D01*
X94818462Y-95133410D01*
X94992273Y-95226314D01*
X95180868Y-95283524D01*
X95180872Y-95283524D01*
X95180874Y-95283525D01*
X95376997Y-95302841D01*
X95377000Y-95302841D01*
X95377003Y-95302841D01*
X95573124Y-95283525D01*
X95573126Y-95283525D01*
X95573127Y-95283524D01*
X95573132Y-95283524D01*
X95761727Y-95226314D01*
X95935538Y-95133410D01*
X96087883Y-95008383D01*
X96212910Y-94856038D01*
X96305814Y-94682227D01*
X96363024Y-94493632D01*
X96382341Y-94297500D01*
X96380983Y-94283713D01*
X96363025Y-94101375D01*
X96363025Y-94101373D01*
X96363024Y-94101370D01*
X96363024Y-94101368D01*
X96305814Y-93912773D01*
X96212910Y-93738962D01*
X96087883Y-93586617D01*
X95935538Y-93461590D01*
X95761728Y-93368686D01*
X95573125Y-93311474D01*
X95377003Y-93292159D01*
X95376997Y-93292159D01*
X95180875Y-93311474D01*
X95180873Y-93311474D01*
X94992271Y-93368686D01*
X94818461Y-93461590D01*
X94666117Y-93586617D01*
X94541090Y-93738961D01*
X94448186Y-93912771D01*
X94390974Y-94101373D01*
X94390974Y-94101375D01*
X94371659Y-94297496D01*
X94371659Y-94297503D01*
X86222341Y-94297503D01*
X86222341Y-94297500D01*
X86220983Y-94283713D01*
X86203025Y-94101375D01*
X86203025Y-94101373D01*
X86203024Y-94101370D01*
X86203024Y-94101368D01*
X86145814Y-93912773D01*
X86052910Y-93738962D01*
X85927883Y-93586617D01*
X85775538Y-93461590D01*
X85601728Y-93368686D01*
X85413125Y-93311474D01*
X85217003Y-93292159D01*
X85216997Y-93292159D01*
X85020875Y-93311474D01*
X85020873Y-93311474D01*
X84832271Y-93368686D01*
X84658461Y-93461590D01*
X84506117Y-93586617D01*
X84381090Y-93738961D01*
X84288186Y-93912771D01*
X84230974Y-94101373D01*
X84230974Y-94101375D01*
X84211659Y-94297496D01*
X84211659Y-94297503D01*
X69421469Y-94297503D01*
X69439024Y-94239632D01*
X69439025Y-94239624D01*
X69458341Y-94043503D01*
X69458341Y-94043496D01*
X69439025Y-93847375D01*
X69439025Y-93847373D01*
X69439024Y-93847370D01*
X69439024Y-93847368D01*
X69381814Y-93658773D01*
X69288910Y-93484962D01*
X69163883Y-93332617D01*
X69011538Y-93207590D01*
X69011537Y-93207590D01*
X68837728Y-93114686D01*
X68649125Y-93057474D01*
X68453003Y-93038159D01*
X68452997Y-93038159D01*
X68256875Y-93057474D01*
X68256873Y-93057474D01*
X68068271Y-93114686D01*
X67894461Y-93207590D01*
X67742117Y-93332617D01*
X67617090Y-93484961D01*
X67524186Y-93658771D01*
X67466974Y-93847373D01*
X67466974Y-93847375D01*
X67447659Y-94043496D01*
X67447659Y-94043503D01*
X59298341Y-94043503D01*
X59298341Y-94043496D01*
X59279025Y-93847375D01*
X59279025Y-93847373D01*
X59279024Y-93847370D01*
X59279024Y-93847368D01*
X59221814Y-93658773D01*
X59128910Y-93484962D01*
X59003883Y-93332617D01*
X58851538Y-93207590D01*
X58851537Y-93207590D01*
X58677728Y-93114686D01*
X58489125Y-93057474D01*
X58293003Y-93038159D01*
X58292997Y-93038159D01*
X58096875Y-93057474D01*
X58096873Y-93057474D01*
X57908271Y-93114686D01*
X57734461Y-93207590D01*
X57582117Y-93332617D01*
X57457090Y-93484961D01*
X57364186Y-93658771D01*
X57306974Y-93847373D01*
X57306974Y-93847375D01*
X57287659Y-94043496D01*
X57287659Y-94043503D01*
X55062499Y-94043503D01*
X55062499Y-93038159D01*
X55062499Y-88091436D01*
X55062737Y-88085998D01*
X55066264Y-88045693D01*
X55055792Y-88006614D01*
X55054610Y-88001282D01*
X55047588Y-87961455D01*
X55047585Y-87961449D01*
X55045485Y-87955681D01*
X55039144Y-87940370D01*
X55036554Y-87934816D01*
X55013363Y-87901696D01*
X55010409Y-87897058D01*
X54990193Y-87862044D01*
X54959212Y-87836047D01*
X54955169Y-87832343D01*
X53937327Y-86814500D01*
X62140785Y-86814500D01*
X62159603Y-87017584D01*
X62215416Y-87213745D01*
X62215417Y-87213747D01*
X62215418Y-87213750D01*
X62306327Y-87396321D01*
X62306328Y-87396322D01*
X62306329Y-87396324D01*
X62429234Y-87559078D01*
X62579959Y-87696481D01*
X62579960Y-87696482D01*
X62753351Y-87803841D01*
X62753354Y-87803842D01*
X62753363Y-87803848D01*
X62943544Y-87877524D01*
X63144024Y-87915000D01*
X63144026Y-87915000D01*
X63347974Y-87915000D01*
X63347976Y-87915000D01*
X63548456Y-87877524D01*
X63738637Y-87803848D01*
X63912041Y-87696481D01*
X64062764Y-87559079D01*
X64185673Y-87396321D01*
X64276582Y-87213750D01*
X64332397Y-87017583D01*
X64351215Y-86814500D01*
X64640785Y-86814500D01*
X64659603Y-87017584D01*
X64715416Y-87213745D01*
X64715417Y-87213747D01*
X64715418Y-87213750D01*
X64806327Y-87396321D01*
X64806328Y-87396322D01*
X64806329Y-87396324D01*
X64929234Y-87559078D01*
X65079959Y-87696481D01*
X65079960Y-87696482D01*
X65253351Y-87803841D01*
X65253354Y-87803842D01*
X65253363Y-87803848D01*
X65443544Y-87877524D01*
X65644024Y-87915000D01*
X65644026Y-87915000D01*
X65847974Y-87915000D01*
X65847976Y-87915000D01*
X66048456Y-87877524D01*
X66238637Y-87803848D01*
X66412041Y-87696481D01*
X66562764Y-87559079D01*
X66685673Y-87396321D01*
X66776582Y-87213750D01*
X66832397Y-87017583D01*
X66851215Y-86814500D01*
X66851215Y-86814499D01*
X89193785Y-86814499D01*
X89212603Y-87017584D01*
X89268416Y-87213745D01*
X89268417Y-87213747D01*
X89268418Y-87213750D01*
X89359327Y-87396321D01*
X89359328Y-87396322D01*
X89359329Y-87396324D01*
X89482234Y-87559078D01*
X89632959Y-87696481D01*
X89632960Y-87696482D01*
X89806351Y-87803841D01*
X89806354Y-87803842D01*
X89806363Y-87803848D01*
X89996544Y-87877524D01*
X90197024Y-87915000D01*
X90197026Y-87915000D01*
X90400974Y-87915000D01*
X90400976Y-87915000D01*
X90601456Y-87877524D01*
X90791637Y-87803848D01*
X90965041Y-87696481D01*
X91115764Y-87559079D01*
X91238673Y-87396321D01*
X91329582Y-87213750D01*
X91385397Y-87017583D01*
X91404215Y-86814500D01*
X91404215Y-86814499D01*
X91693785Y-86814499D01*
X91712603Y-87017584D01*
X91768416Y-87213745D01*
X91768417Y-87213747D01*
X91768418Y-87213750D01*
X91859327Y-87396321D01*
X91859328Y-87396322D01*
X91859329Y-87396324D01*
X91982234Y-87559078D01*
X92132959Y-87696481D01*
X92132960Y-87696482D01*
X92306351Y-87803841D01*
X92306354Y-87803842D01*
X92306363Y-87803848D01*
X92496544Y-87877524D01*
X92697024Y-87915000D01*
X92697026Y-87915000D01*
X92900974Y-87915000D01*
X92900976Y-87915000D01*
X93101456Y-87877524D01*
X93291637Y-87803848D01*
X93465041Y-87696481D01*
X93615764Y-87559079D01*
X93738673Y-87396321D01*
X93829582Y-87213750D01*
X93885397Y-87017583D01*
X93904215Y-86814500D01*
X93885397Y-86611417D01*
X93829582Y-86415250D01*
X93738673Y-86232679D01*
X93738670Y-86232675D01*
X93615765Y-86069921D01*
X93465040Y-85932518D01*
X93465039Y-85932517D01*
X93291648Y-85825158D01*
X93291641Y-85825154D01*
X93291637Y-85825152D01*
X93175132Y-85780018D01*
X93101457Y-85751476D01*
X93034629Y-85738984D01*
X92900976Y-85714000D01*
X92697024Y-85714000D01*
X92596784Y-85732737D01*
X92496542Y-85751476D01*
X92349189Y-85808560D01*
X92306363Y-85825152D01*
X92306362Y-85825152D01*
X92306361Y-85825153D01*
X92306351Y-85825158D01*
X92132960Y-85932517D01*
X92132959Y-85932518D01*
X91982234Y-86069921D01*
X91859329Y-86232675D01*
X91768416Y-86415254D01*
X91712603Y-86611415D01*
X91693785Y-86814499D01*
X91404215Y-86814499D01*
X91385397Y-86611417D01*
X91329582Y-86415250D01*
X91238673Y-86232679D01*
X91238670Y-86232675D01*
X91115765Y-86069921D01*
X90965040Y-85932518D01*
X90965039Y-85932517D01*
X90791648Y-85825158D01*
X90791641Y-85825154D01*
X90791637Y-85825152D01*
X90675132Y-85780018D01*
X90601457Y-85751476D01*
X90534629Y-85738984D01*
X90400976Y-85714000D01*
X90197024Y-85714000D01*
X90096784Y-85732737D01*
X89996542Y-85751476D01*
X89849189Y-85808560D01*
X89806363Y-85825152D01*
X89806362Y-85825152D01*
X89806361Y-85825153D01*
X89806351Y-85825158D01*
X89632960Y-85932517D01*
X89632959Y-85932518D01*
X89482234Y-86069921D01*
X89359329Y-86232675D01*
X89268416Y-86415254D01*
X89212603Y-86611415D01*
X89193785Y-86814499D01*
X66851215Y-86814499D01*
X66832397Y-86611417D01*
X66776582Y-86415250D01*
X66685673Y-86232679D01*
X66685670Y-86232675D01*
X66562765Y-86069921D01*
X66412040Y-85932518D01*
X66412039Y-85932517D01*
X66238648Y-85825158D01*
X66238641Y-85825154D01*
X66238637Y-85825152D01*
X66122133Y-85780018D01*
X66048457Y-85751476D01*
X65981629Y-85738984D01*
X65847976Y-85714000D01*
X65644024Y-85714000D01*
X65543784Y-85732737D01*
X65443542Y-85751476D01*
X65296189Y-85808560D01*
X65253363Y-85825152D01*
X65253362Y-85825152D01*
X65253361Y-85825153D01*
X65253351Y-85825158D01*
X65079960Y-85932517D01*
X65079959Y-85932518D01*
X64929234Y-86069921D01*
X64806329Y-86232675D01*
X64715416Y-86415254D01*
X64659603Y-86611415D01*
X64640785Y-86814500D01*
X64351215Y-86814500D01*
X64332397Y-86611417D01*
X64276582Y-86415250D01*
X64185673Y-86232679D01*
X64185670Y-86232675D01*
X64062765Y-86069921D01*
X63912040Y-85932518D01*
X63912039Y-85932517D01*
X63738648Y-85825158D01*
X63738641Y-85825154D01*
X63738637Y-85825152D01*
X63622132Y-85780018D01*
X63548457Y-85751476D01*
X63481629Y-85738984D01*
X63347976Y-85714000D01*
X63144024Y-85714000D01*
X63043784Y-85732737D01*
X62943542Y-85751476D01*
X62796189Y-85808560D01*
X62753363Y-85825152D01*
X62753362Y-85825152D01*
X62753361Y-85825153D01*
X62753351Y-85825158D01*
X62579960Y-85932517D01*
X62579959Y-85932518D01*
X62429234Y-86069921D01*
X62306329Y-86232675D01*
X62215416Y-86415254D01*
X62159603Y-86611415D01*
X62140785Y-86814500D01*
X53937327Y-86814500D01*
X53448405Y-86325578D01*
X53414379Y-86263266D01*
X53411500Y-86236483D01*
X53411500Y-79637393D01*
X56885500Y-79637393D01*
X56900696Y-79825633D01*
X56960992Y-80070268D01*
X57059749Y-80302058D01*
X57194413Y-80515011D01*
X57194414Y-80515012D01*
X57361481Y-80703592D01*
X57361484Y-80703595D01*
X57361487Y-80703598D01*
X57556651Y-80862945D01*
X57774849Y-80988921D01*
X58010429Y-81078265D01*
X58257291Y-81128662D01*
X58509039Y-81138807D01*
X58759156Y-81108438D01*
X59001161Y-81038340D01*
X59228788Y-80930329D01*
X59228788Y-80930328D01*
X59228790Y-80930328D01*
X59361897Y-80838450D01*
X59436142Y-80787204D01*
X59617851Y-80612670D01*
X59769210Y-80411247D01*
X59886299Y-80188154D01*
X59966084Y-79949167D01*
X60006500Y-79700477D01*
X60006500Y-79637393D01*
X66485500Y-79637393D01*
X66500696Y-79825633D01*
X66560992Y-80070268D01*
X66659749Y-80302058D01*
X66794413Y-80515011D01*
X66794414Y-80515012D01*
X66961481Y-80703592D01*
X66961484Y-80703595D01*
X66961487Y-80703598D01*
X67156651Y-80862945D01*
X67374849Y-80988921D01*
X67610429Y-81078265D01*
X67857291Y-81128662D01*
X68109039Y-81138807D01*
X68359156Y-81108438D01*
X68601161Y-81038340D01*
X68828788Y-80930329D01*
X68828788Y-80930328D01*
X68828790Y-80930328D01*
X68961897Y-80838450D01*
X69036142Y-80787204D01*
X69217851Y-80612670D01*
X69369210Y-80411247D01*
X69472046Y-80215311D01*
X73142000Y-80215311D01*
X73152343Y-80326933D01*
X73156776Y-80374774D01*
X73215250Y-80580288D01*
X73215256Y-80580305D01*
X73310496Y-80771572D01*
X73310500Y-80771577D01*
X73439270Y-80942098D01*
X73597182Y-81086054D01*
X73597184Y-81086055D01*
X73597185Y-81086056D01*
X73778862Y-81198545D01*
X73978115Y-81275736D01*
X74188159Y-81315000D01*
X74188161Y-81315000D01*
X74401839Y-81315000D01*
X74401841Y-81315000D01*
X74611885Y-81275736D01*
X74811138Y-81198545D01*
X74914979Y-81134250D01*
X78222000Y-81134250D01*
X78222906Y-81138807D01*
X78233633Y-81192731D01*
X78277948Y-81259052D01*
X78344269Y-81303367D01*
X78402752Y-81315000D01*
X80062984Y-81315000D01*
X80131105Y-81335002D01*
X80152079Y-81351905D01*
X80996844Y-82196670D01*
X81000547Y-82200711D01*
X81026545Y-82231694D01*
X81052777Y-82246839D01*
X81061558Y-82251909D01*
X81066196Y-82254863D01*
X81099316Y-82278054D01*
X81104870Y-82280644D01*
X81120181Y-82286985D01*
X81125949Y-82289085D01*
X81125955Y-82289088D01*
X81165782Y-82296110D01*
X81171114Y-82297292D01*
X81210193Y-82307764D01*
X81250474Y-82304239D01*
X81255960Y-82304000D01*
X87613040Y-82304000D01*
X87618525Y-82304239D01*
X87658807Y-82307764D01*
X87697870Y-82297296D01*
X87703231Y-82296107D01*
X87743045Y-82289088D01*
X87743047Y-82289086D01*
X87748838Y-82286979D01*
X87764101Y-82280657D01*
X87769681Y-82278055D01*
X87769681Y-82278054D01*
X87769684Y-82278054D01*
X87802817Y-82254852D01*
X87807428Y-82251915D01*
X87842455Y-82231694D01*
X87868453Y-82200709D01*
X87872146Y-82196678D01*
X90431431Y-79637393D01*
X93538500Y-79637393D01*
X93553696Y-79825633D01*
X93613992Y-80070268D01*
X93712749Y-80302058D01*
X93847413Y-80515011D01*
X93847414Y-80515012D01*
X94014481Y-80703592D01*
X94014484Y-80703595D01*
X94014487Y-80703598D01*
X94209651Y-80862945D01*
X94427849Y-80988921D01*
X94663429Y-81078265D01*
X94910291Y-81128662D01*
X95162039Y-81138807D01*
X95412156Y-81108438D01*
X95654161Y-81038340D01*
X95881788Y-80930329D01*
X95881788Y-80930328D01*
X95881790Y-80930328D01*
X96014897Y-80838450D01*
X96089142Y-80787204D01*
X96270851Y-80612670D01*
X96422210Y-80411247D01*
X96539299Y-80188154D01*
X96619084Y-79949167D01*
X96659500Y-79700477D01*
X96659500Y-78991611D01*
X96656404Y-78953265D01*
X96644303Y-78803366D01*
X96613855Y-78679833D01*
X96584007Y-78558732D01*
X96485250Y-78326940D01*
X96350589Y-78113992D01*
X96350587Y-78113990D01*
X96350586Y-78113988D01*
X96350585Y-78113987D01*
X96183518Y-77925407D01*
X96183515Y-77925404D01*
X96183513Y-77925402D01*
X96077748Y-77839047D01*
X95988353Y-77766058D01*
X95988351Y-77766057D01*
X95988349Y-77766055D01*
X95770151Y-77640079D01*
X95534571Y-77550735D01*
X95287709Y-77500338D01*
X95161835Y-77495265D01*
X95035962Y-77490193D01*
X95035953Y-77490193D01*
X94785843Y-77520561D01*
X94785841Y-77520562D01*
X94543849Y-77590656D01*
X94543845Y-77590657D01*
X94316209Y-77698671D01*
X94108866Y-77841789D01*
X94108849Y-77841803D01*
X93927152Y-78016326D01*
X93927142Y-78016337D01*
X93775788Y-78217755D01*
X93775786Y-78217757D01*
X93658702Y-78440842D01*
X93658701Y-78440843D01*
X93578915Y-78679834D01*
X93538501Y-78928513D01*
X93538500Y-78928527D01*
X93538500Y-79637393D01*
X90431431Y-79637393D01*
X93680618Y-76388206D01*
X93742928Y-76354182D01*
X93786154Y-76352381D01*
X93853000Y-76361182D01*
X94009762Y-76340544D01*
X94155841Y-76280036D01*
X94281282Y-76183782D01*
X94377536Y-76058341D01*
X94438044Y-75912262D01*
X94458682Y-75755500D01*
X94438044Y-75598738D01*
X94377536Y-75452659D01*
X94281282Y-75327218D01*
X94155841Y-75230964D01*
X94017329Y-75173590D01*
X94009760Y-75170455D01*
X93853000Y-75149818D01*
X93696239Y-75170455D01*
X93550160Y-75230963D01*
X93550157Y-75230965D01*
X93424718Y-75327218D01*
X93328465Y-75452657D01*
X93328463Y-75452660D01*
X93267955Y-75598739D01*
X93247318Y-75755499D01*
X93247318Y-75755501D01*
X93256117Y-75822342D01*
X93245177Y-75892491D01*
X93220290Y-75927882D01*
X87532079Y-81616095D01*
X87469767Y-81650121D01*
X87442984Y-81653000D01*
X81426017Y-81653000D01*
X81357896Y-81632998D01*
X81336921Y-81616095D01*
X80564904Y-80844077D01*
X80530879Y-80781765D01*
X80528000Y-80754982D01*
X80528000Y-79637393D01*
X83938500Y-79637393D01*
X83953696Y-79825633D01*
X84013992Y-80070268D01*
X84112749Y-80302058D01*
X84247413Y-80515011D01*
X84247414Y-80515012D01*
X84414481Y-80703592D01*
X84414484Y-80703595D01*
X84414487Y-80703598D01*
X84609651Y-80862945D01*
X84827849Y-80988921D01*
X85063429Y-81078265D01*
X85310291Y-81128662D01*
X85562039Y-81138807D01*
X85812156Y-81108438D01*
X86054161Y-81038340D01*
X86281788Y-80930329D01*
X86281788Y-80930328D01*
X86281790Y-80930328D01*
X86414897Y-80838450D01*
X86489142Y-80787204D01*
X86670851Y-80612670D01*
X86822210Y-80411247D01*
X86939299Y-80188154D01*
X87019084Y-79949167D01*
X87059500Y-79700477D01*
X87059500Y-78991611D01*
X87056404Y-78953265D01*
X87044303Y-78803366D01*
X87013855Y-78679833D01*
X86984007Y-78558732D01*
X86885250Y-78326940D01*
X86750589Y-78113992D01*
X86750587Y-78113990D01*
X86750586Y-78113988D01*
X86750585Y-78113987D01*
X86583518Y-77925407D01*
X86583515Y-77925404D01*
X86583513Y-77925402D01*
X86477748Y-77839047D01*
X86388353Y-77766058D01*
X86388351Y-77766057D01*
X86388349Y-77766055D01*
X86170151Y-77640079D01*
X85934571Y-77550735D01*
X85687709Y-77500338D01*
X85561835Y-77495265D01*
X85435962Y-77490193D01*
X85435953Y-77490193D01*
X85185843Y-77520561D01*
X85185841Y-77520562D01*
X84943849Y-77590656D01*
X84943845Y-77590657D01*
X84716209Y-77698671D01*
X84508866Y-77841789D01*
X84508849Y-77841803D01*
X84327152Y-78016326D01*
X84327142Y-78016337D01*
X84175788Y-78217755D01*
X84175786Y-78217757D01*
X84058702Y-78440842D01*
X84058701Y-78440843D01*
X83978915Y-78679834D01*
X83938501Y-78928513D01*
X83938500Y-78928527D01*
X83938500Y-79637393D01*
X80528000Y-79637393D01*
X80528000Y-79094753D01*
X80527999Y-79094749D01*
X80516367Y-79036271D01*
X80516367Y-79036269D01*
X80472052Y-78969948D01*
X80405731Y-78925633D01*
X80405728Y-78925632D01*
X80347250Y-78914000D01*
X80347248Y-78914000D01*
X78402752Y-78914000D01*
X78402749Y-78914000D01*
X78344271Y-78925632D01*
X78344268Y-78925633D01*
X78277948Y-78969948D01*
X78233633Y-79036268D01*
X78233632Y-79036271D01*
X78222000Y-79094749D01*
X78222000Y-81134250D01*
X74914979Y-81134250D01*
X74992815Y-81086056D01*
X75150728Y-80942099D01*
X75279500Y-80771577D01*
X75279501Y-80771573D01*
X75279503Y-80771572D01*
X75374743Y-80580305D01*
X75374744Y-80580301D01*
X75374747Y-80580296D01*
X75433224Y-80374771D01*
X75448000Y-80215311D01*
X75448000Y-80013689D01*
X75433224Y-79854229D01*
X75374747Y-79648704D01*
X75374745Y-79648700D01*
X75374743Y-79648694D01*
X75279503Y-79457427D01*
X75279499Y-79457422D01*
X75150729Y-79286901D01*
X74992817Y-79142945D01*
X74811138Y-79030455D01*
X74811131Y-79030452D01*
X74611888Y-78953265D01*
X74611887Y-78953264D01*
X74611885Y-78953264D01*
X74401841Y-78914000D01*
X74188159Y-78914000D01*
X73978115Y-78953264D01*
X73978113Y-78953264D01*
X73978111Y-78953265D01*
X73778868Y-79030452D01*
X73778861Y-79030455D01*
X73597182Y-79142945D01*
X73439270Y-79286901D01*
X73310500Y-79457422D01*
X73310496Y-79457427D01*
X73215256Y-79648694D01*
X73215250Y-79648711D01*
X73156776Y-79854225D01*
X73156776Y-79854229D01*
X73142000Y-80013689D01*
X73142000Y-80215311D01*
X69472046Y-80215311D01*
X69486299Y-80188154D01*
X69566084Y-79949167D01*
X69606500Y-79700477D01*
X69606500Y-78991611D01*
X69603404Y-78953265D01*
X69591303Y-78803366D01*
X69560855Y-78679833D01*
X69531007Y-78558732D01*
X69432250Y-78326940D01*
X69297589Y-78113992D01*
X69297587Y-78113990D01*
X69297586Y-78113988D01*
X69297585Y-78113987D01*
X69130518Y-77925407D01*
X69130515Y-77925404D01*
X69130513Y-77925402D01*
X69024748Y-77839047D01*
X68935353Y-77766058D01*
X68935351Y-77766057D01*
X68935349Y-77766055D01*
X68717151Y-77640079D01*
X68481571Y-77550735D01*
X68234709Y-77500338D01*
X68108835Y-77495265D01*
X67982962Y-77490193D01*
X67982953Y-77490193D01*
X67732843Y-77520561D01*
X67732841Y-77520562D01*
X67490849Y-77590656D01*
X67490845Y-77590657D01*
X67263209Y-77698671D01*
X67055866Y-77841789D01*
X67055849Y-77841803D01*
X66874152Y-78016326D01*
X66874142Y-78016337D01*
X66722788Y-78217755D01*
X66722786Y-78217757D01*
X66605702Y-78440842D01*
X66605701Y-78440843D01*
X66525915Y-78679834D01*
X66485501Y-78928513D01*
X66485500Y-78928527D01*
X66485500Y-79637393D01*
X60006500Y-79637393D01*
X60006500Y-78991611D01*
X60003404Y-78953265D01*
X59991303Y-78803366D01*
X59960855Y-78679833D01*
X59931007Y-78558732D01*
X59832250Y-78326940D01*
X59697589Y-78113992D01*
X59697587Y-78113990D01*
X59697586Y-78113988D01*
X59697585Y-78113987D01*
X59530518Y-77925407D01*
X59530515Y-77925404D01*
X59530513Y-77925402D01*
X59424748Y-77839047D01*
X59335353Y-77766058D01*
X59335351Y-77766057D01*
X59335349Y-77766055D01*
X59117151Y-77640079D01*
X58881571Y-77550735D01*
X58634709Y-77500338D01*
X58508835Y-77495265D01*
X58382962Y-77490193D01*
X58382953Y-77490193D01*
X58132843Y-77520561D01*
X58132841Y-77520562D01*
X57890849Y-77590656D01*
X57890845Y-77590657D01*
X57663209Y-77698671D01*
X57455866Y-77841789D01*
X57455849Y-77841803D01*
X57274152Y-78016326D01*
X57274142Y-78016337D01*
X57122788Y-78217755D01*
X57122786Y-78217757D01*
X57005702Y-78440842D01*
X57005701Y-78440843D01*
X56925915Y-78679834D01*
X56885501Y-78928513D01*
X56885500Y-78928527D01*
X56885500Y-79637393D01*
X53411500Y-79637393D01*
X53411500Y-77990516D01*
X53431502Y-77922395D01*
X53448400Y-77901425D01*
X53629133Y-77720691D01*
X53691443Y-77686668D01*
X53762259Y-77691732D01*
X53819095Y-77734279D01*
X53819251Y-77734488D01*
X53853698Y-77780758D01*
X53983617Y-77889773D01*
X54135175Y-77965888D01*
X54300201Y-78005000D01*
X54300203Y-78005000D01*
X54877259Y-78005000D01*
X54910020Y-78001170D01*
X55003451Y-77990250D01*
X55162820Y-77932244D01*
X55304517Y-77839049D01*
X55420902Y-77715688D01*
X55505701Y-77568812D01*
X55554342Y-77406339D01*
X55564203Y-77237029D01*
X55534753Y-77070008D01*
X55495904Y-76979945D01*
X55467581Y-76914284D01*
X55450247Y-76891000D01*
X55366302Y-76778242D01*
X55323965Y-76742717D01*
X55284639Y-76683607D01*
X55283513Y-76612620D01*
X55313305Y-76559734D01*
X55420902Y-76445688D01*
X55505701Y-76298812D01*
X55554342Y-76136339D01*
X55561729Y-76009503D01*
X81464659Y-76009503D01*
X81483974Y-76205624D01*
X81483974Y-76205626D01*
X81541186Y-76394228D01*
X81603473Y-76510758D01*
X81634090Y-76568038D01*
X81759117Y-76720383D01*
X81911462Y-76845410D01*
X82085273Y-76938314D01*
X82273868Y-76995524D01*
X82273872Y-76995524D01*
X82273874Y-76995525D01*
X82469997Y-77014841D01*
X82470000Y-77014841D01*
X82470003Y-77014841D01*
X82666124Y-76995525D01*
X82666126Y-76995525D01*
X82666127Y-76995524D01*
X82666132Y-76995524D01*
X82854727Y-76938314D01*
X83028538Y-76845410D01*
X83180883Y-76720383D01*
X83305910Y-76568038D01*
X83398814Y-76394227D01*
X83456024Y-76205632D01*
X83457271Y-76192974D01*
X83475341Y-76009503D01*
X83475341Y-76009496D01*
X83456025Y-75813375D01*
X83456025Y-75813373D01*
X83456024Y-75813370D01*
X83456024Y-75813368D01*
X83398814Y-75624773D01*
X83305910Y-75450962D01*
X83180883Y-75298617D01*
X83028538Y-75173590D01*
X82984064Y-75149818D01*
X82854728Y-75080686D01*
X82666125Y-75023474D01*
X82470003Y-75004159D01*
X82469997Y-75004159D01*
X82273875Y-75023474D01*
X82273873Y-75023474D01*
X82085271Y-75080686D01*
X81911461Y-75173590D01*
X81759117Y-75298617D01*
X81634090Y-75450961D01*
X81541186Y-75624771D01*
X81483974Y-75813373D01*
X81483974Y-75813375D01*
X81464659Y-76009496D01*
X81464659Y-76009503D01*
X55561729Y-76009503D01*
X55564203Y-75967029D01*
X55534753Y-75800008D01*
X55500321Y-75720185D01*
X55467581Y-75644284D01*
X55467579Y-75644281D01*
X55366302Y-75508242D01*
X55236383Y-75399227D01*
X55084825Y-75323112D01*
X54919799Y-75284000D01*
X54342744Y-75284000D01*
X54342741Y-75284000D01*
X54216548Y-75298750D01*
X54057181Y-75356755D01*
X53915481Y-75449952D01*
X53915480Y-75449953D01*
X53799099Y-75573310D01*
X53799098Y-75573311D01*
X53714300Y-75720185D01*
X53714299Y-75720187D01*
X53714299Y-75720188D01*
X53665658Y-75882661D01*
X53664249Y-75906848D01*
X53658271Y-76009500D01*
X53655797Y-76051971D01*
X53684483Y-76214660D01*
X53685248Y-76218995D01*
X53752418Y-76374715D01*
X53752421Y-76374719D01*
X53788910Y-76423733D01*
X53853699Y-76510759D01*
X53896034Y-76546282D01*
X53935360Y-76605391D01*
X53936486Y-76676379D01*
X53906691Y-76729269D01*
X53799099Y-76843309D01*
X53799096Y-76843313D01*
X53771565Y-76891000D01*
X53720183Y-76939993D01*
X53662446Y-76954000D01*
X53626960Y-76954000D01*
X53621475Y-76953760D01*
X53592872Y-76951257D01*
X53581195Y-76950236D01*
X53581192Y-76950236D01*
X53542126Y-76960703D01*
X53536761Y-76961892D01*
X53496952Y-76968912D01*
X53491235Y-76970993D01*
X53475832Y-76977373D01*
X53470316Y-76979945D01*
X53437191Y-77003138D01*
X53432558Y-77006089D01*
X53397547Y-77026304D01*
X53397545Y-77026305D01*
X53371547Y-77057287D01*
X53367834Y-77061339D01*
X52991594Y-77437578D01*
X52929282Y-77471604D01*
X52858467Y-77466539D01*
X52801631Y-77423992D01*
X52776820Y-77357472D01*
X52776499Y-77348483D01*
X52776499Y-72544612D01*
X52796501Y-72476491D01*
X52850157Y-72429998D01*
X52920431Y-72419894D01*
X52985011Y-72449388D01*
X53023073Y-72508036D01*
X53046183Y-72584222D01*
X53046185Y-72584226D01*
X53070299Y-72629339D01*
X53139090Y-72758038D01*
X53264117Y-72910383D01*
X53416462Y-73035410D01*
X53590273Y-73128314D01*
X53778868Y-73185524D01*
X53778872Y-73185524D01*
X53778874Y-73185525D01*
X53974997Y-73204841D01*
X53975000Y-73204841D01*
X53975003Y-73204841D01*
X54171124Y-73185525D01*
X54171126Y-73185525D01*
X54171127Y-73185524D01*
X54171132Y-73185524D01*
X54359727Y-73128314D01*
X54533538Y-73035410D01*
X54685883Y-72910383D01*
X54810910Y-72758038D01*
X54903814Y-72584227D01*
X54961024Y-72395632D01*
X54968904Y-72315624D01*
X54980341Y-72199503D01*
X56779659Y-72199503D01*
X56798974Y-72395624D01*
X56798974Y-72395626D01*
X56856186Y-72584228D01*
X56880300Y-72629341D01*
X56949090Y-72758038D01*
X57074117Y-72910383D01*
X57226462Y-73035410D01*
X57400273Y-73128314D01*
X57588868Y-73185524D01*
X57588872Y-73185524D01*
X57588874Y-73185525D01*
X57784997Y-73204841D01*
X57785000Y-73204841D01*
X57785003Y-73204841D01*
X57981124Y-73185525D01*
X57981126Y-73185525D01*
X57981127Y-73185524D01*
X57981132Y-73185524D01*
X58169727Y-73128314D01*
X58343538Y-73035410D01*
X58495883Y-72910383D01*
X58620910Y-72758038D01*
X58713814Y-72584227D01*
X58771024Y-72395632D01*
X58778904Y-72315624D01*
X58790341Y-72199503D01*
X60589659Y-72199503D01*
X60608974Y-72395624D01*
X60608974Y-72395626D01*
X60666186Y-72584228D01*
X60690300Y-72629341D01*
X60759090Y-72758038D01*
X60884117Y-72910383D01*
X61036462Y-73035410D01*
X61210273Y-73128314D01*
X61398868Y-73185524D01*
X61398872Y-73185524D01*
X61398874Y-73185525D01*
X61594997Y-73204841D01*
X61595000Y-73204841D01*
X61595003Y-73204841D01*
X61791124Y-73185525D01*
X61791126Y-73185525D01*
X61791127Y-73185524D01*
X61791132Y-73185524D01*
X61979727Y-73128314D01*
X62153538Y-73035410D01*
X62305883Y-72910383D01*
X62430910Y-72758038D01*
X62523814Y-72584227D01*
X62581024Y-72395632D01*
X62588904Y-72315624D01*
X62600341Y-72199503D01*
X64399659Y-72199503D01*
X64418974Y-72395624D01*
X64418974Y-72395626D01*
X64476186Y-72584228D01*
X64500300Y-72629341D01*
X64569090Y-72758038D01*
X64694117Y-72910383D01*
X64846462Y-73035410D01*
X65020273Y-73128314D01*
X65208868Y-73185524D01*
X65208872Y-73185524D01*
X65208874Y-73185525D01*
X65404997Y-73204841D01*
X65405000Y-73204841D01*
X65405003Y-73204841D01*
X65601124Y-73185525D01*
X65601126Y-73185525D01*
X65601127Y-73185524D01*
X65601132Y-73185524D01*
X65789727Y-73128314D01*
X65963538Y-73035410D01*
X66115883Y-72910383D01*
X66240910Y-72758038D01*
X66333814Y-72584227D01*
X66391024Y-72395632D01*
X66398904Y-72315624D01*
X66410341Y-72199503D01*
X66410341Y-72199496D01*
X66402462Y-72119503D01*
X68209659Y-72119503D01*
X68228974Y-72315624D01*
X68228974Y-72315626D01*
X68286186Y-72504228D01*
X68307772Y-72544612D01*
X68379090Y-72678038D01*
X68504117Y-72830383D01*
X68656462Y-72955410D01*
X68830273Y-73048314D01*
X69018868Y-73105524D01*
X69018872Y-73105524D01*
X69018874Y-73105525D01*
X69214997Y-73124841D01*
X69215000Y-73124841D01*
X69215003Y-73124841D01*
X69411124Y-73105525D01*
X69411126Y-73105525D01*
X69411127Y-73105524D01*
X69411132Y-73105524D01*
X69599727Y-73048314D01*
X69773538Y-72955410D01*
X69925883Y-72830383D01*
X70050910Y-72678038D01*
X70143814Y-72504227D01*
X70201024Y-72315632D01*
X70211550Y-72208756D01*
X70220341Y-72119503D01*
X70220341Y-72119496D01*
X70201025Y-71923375D01*
X70201025Y-71923373D01*
X70201024Y-71923370D01*
X70201024Y-71923368D01*
X70143814Y-71734773D01*
X70050910Y-71560962D01*
X69925883Y-71408617D01*
X69773538Y-71283590D01*
X69749396Y-71270686D01*
X69599728Y-71190686D01*
X69411125Y-71133474D01*
X69215003Y-71114159D01*
X69214997Y-71114159D01*
X69018875Y-71133474D01*
X69018873Y-71133474D01*
X68830271Y-71190686D01*
X68656461Y-71283590D01*
X68504117Y-71408617D01*
X68379090Y-71560961D01*
X68286186Y-71734771D01*
X68228974Y-71923373D01*
X68228974Y-71923375D01*
X68209659Y-72119496D01*
X68209659Y-72119503D01*
X66402462Y-72119503D01*
X66391025Y-72003375D01*
X66391025Y-72003373D01*
X66391024Y-72003370D01*
X66391024Y-72003368D01*
X66333814Y-71814773D01*
X66240910Y-71640962D01*
X66115883Y-71488617D01*
X65963538Y-71363590D01*
X65963537Y-71363590D01*
X65789728Y-71270686D01*
X65601125Y-71213474D01*
X65405003Y-71194159D01*
X65404997Y-71194159D01*
X65208875Y-71213474D01*
X65208873Y-71213474D01*
X65020271Y-71270686D01*
X64846461Y-71363590D01*
X64694117Y-71488617D01*
X64569090Y-71640961D01*
X64476186Y-71814771D01*
X64418974Y-72003373D01*
X64418974Y-72003375D01*
X64399659Y-72199496D01*
X64399659Y-72199503D01*
X62600341Y-72199503D01*
X62600341Y-72199496D01*
X62581025Y-72003375D01*
X62581025Y-72003373D01*
X62581024Y-72003370D01*
X62581024Y-72003368D01*
X62523814Y-71814773D01*
X62430910Y-71640962D01*
X62305883Y-71488617D01*
X62153538Y-71363590D01*
X62153537Y-71363590D01*
X61979728Y-71270686D01*
X61791125Y-71213474D01*
X61595003Y-71194159D01*
X61594997Y-71194159D01*
X61398875Y-71213474D01*
X61398873Y-71213474D01*
X61210271Y-71270686D01*
X61036461Y-71363590D01*
X60884117Y-71488617D01*
X60759090Y-71640961D01*
X60666186Y-71814771D01*
X60608974Y-72003373D01*
X60608974Y-72003375D01*
X60589659Y-72199496D01*
X60589659Y-72199503D01*
X58790341Y-72199503D01*
X58790341Y-72199496D01*
X58771025Y-72003375D01*
X58771025Y-72003373D01*
X58771024Y-72003370D01*
X58771024Y-72003368D01*
X58713814Y-71814773D01*
X58620910Y-71640962D01*
X58495883Y-71488617D01*
X58343538Y-71363590D01*
X58169728Y-71270686D01*
X57981125Y-71213474D01*
X57785003Y-71194159D01*
X57784997Y-71194159D01*
X57588875Y-71213474D01*
X57588873Y-71213474D01*
X57400271Y-71270686D01*
X57226461Y-71363590D01*
X57074117Y-71488617D01*
X56949090Y-71640961D01*
X56856186Y-71814771D01*
X56798974Y-72003373D01*
X56798974Y-72003375D01*
X56779659Y-72199496D01*
X56779659Y-72199503D01*
X54980341Y-72199503D01*
X54980341Y-72199496D01*
X54961025Y-72003375D01*
X54961025Y-72003373D01*
X54961024Y-72003370D01*
X54961024Y-72003368D01*
X54903814Y-71814773D01*
X54810910Y-71640962D01*
X54685883Y-71488617D01*
X54533538Y-71363590D01*
X54359728Y-71270686D01*
X54171125Y-71213474D01*
X53975003Y-71194159D01*
X53974997Y-71194159D01*
X53778875Y-71213474D01*
X53778873Y-71213474D01*
X53590271Y-71270686D01*
X53416461Y-71363590D01*
X53264117Y-71488617D01*
X53139090Y-71640961D01*
X53046185Y-71814773D01*
X53046183Y-71814778D01*
X53023073Y-71890963D01*
X52984158Y-71950344D01*
X52919316Y-71979260D01*
X52849136Y-71968529D01*
X52795897Y-71921559D01*
X52776499Y-71854387D01*
X52776499Y-70929503D01*
X71544659Y-70929503D01*
X71563974Y-71125624D01*
X71563974Y-71125626D01*
X71621186Y-71314228D01*
X71714090Y-71488038D01*
X71839117Y-71640383D01*
X71991462Y-71765410D01*
X72165273Y-71858314D01*
X72353868Y-71915524D01*
X72353872Y-71915524D01*
X72353874Y-71915525D01*
X72549997Y-71934841D01*
X72550000Y-71934841D01*
X72550003Y-71934841D01*
X72746124Y-71915525D01*
X72746126Y-71915525D01*
X72746127Y-71915524D01*
X72746132Y-71915524D01*
X72934727Y-71858314D01*
X73108538Y-71765410D01*
X73260883Y-71640383D01*
X73385910Y-71488038D01*
X73478814Y-71314227D01*
X73536024Y-71125632D01*
X73555341Y-70929500D01*
X73536025Y-70733375D01*
X73536025Y-70733373D01*
X73536024Y-70733370D01*
X73536024Y-70733368D01*
X73478814Y-70544773D01*
X73385910Y-70370962D01*
X73260883Y-70218617D01*
X73108538Y-70093590D01*
X73108537Y-70093589D01*
X72934728Y-70000686D01*
X72746125Y-69943474D01*
X72550003Y-69924159D01*
X72549997Y-69924159D01*
X72353875Y-69943474D01*
X72353873Y-69943474D01*
X72165271Y-70000686D01*
X71991461Y-70093590D01*
X71839117Y-70218617D01*
X71714090Y-70370961D01*
X71621186Y-70544771D01*
X71563974Y-70733373D01*
X71563974Y-70733375D01*
X71544659Y-70929496D01*
X71544659Y-70929503D01*
X52776499Y-70929503D01*
X52776499Y-66357503D01*
X71845659Y-66357503D01*
X71864974Y-66553624D01*
X71864974Y-66553626D01*
X71922186Y-66742228D01*
X71972054Y-66835524D01*
X72015090Y-66916038D01*
X72140117Y-67068383D01*
X72292462Y-67193410D01*
X72466273Y-67286314D01*
X72654868Y-67343524D01*
X72654872Y-67343524D01*
X72654874Y-67343525D01*
X72850997Y-67362841D01*
X72851000Y-67362841D01*
X72851003Y-67362841D01*
X73047124Y-67343525D01*
X73047126Y-67343525D01*
X73047127Y-67343524D01*
X73047132Y-67343524D01*
X73235727Y-67286314D01*
X73409538Y-67193410D01*
X73561883Y-67068383D01*
X73686910Y-66916038D01*
X73779814Y-66742227D01*
X73837024Y-66553632D01*
X73856341Y-66357500D01*
X73844200Y-66234231D01*
X73837025Y-66161375D01*
X73837025Y-66161373D01*
X73837024Y-66161370D01*
X73837024Y-66161368D01*
X73779814Y-65972773D01*
X73686910Y-65798962D01*
X73561883Y-65646617D01*
X73409538Y-65521590D01*
X73409538Y-65521589D01*
X73235728Y-65428686D01*
X73047125Y-65371474D01*
X72851003Y-65352159D01*
X72850997Y-65352159D01*
X72654875Y-65371474D01*
X72654873Y-65371474D01*
X72466271Y-65428686D01*
X72292461Y-65521590D01*
X72140117Y-65646617D01*
X72015090Y-65798961D01*
X71922186Y-65972771D01*
X71864974Y-66161373D01*
X71864974Y-66161375D01*
X71845659Y-66357496D01*
X71845659Y-66357503D01*
X52776499Y-66357503D01*
X52776499Y-62039503D01*
X56779659Y-62039503D01*
X56798974Y-62235624D01*
X56798974Y-62235626D01*
X56856186Y-62424228D01*
X56921045Y-62545569D01*
X56949090Y-62598038D01*
X57074117Y-62750383D01*
X57226462Y-62875410D01*
X57400273Y-62968314D01*
X57588868Y-63025524D01*
X57588872Y-63025524D01*
X57588874Y-63025525D01*
X57784997Y-63044841D01*
X57785000Y-63044841D01*
X57785003Y-63044841D01*
X57981124Y-63025525D01*
X57981126Y-63025525D01*
X57981127Y-63025524D01*
X57981132Y-63025524D01*
X58169727Y-62968314D01*
X58343538Y-62875410D01*
X58495883Y-62750383D01*
X58620910Y-62598038D01*
X58713814Y-62424227D01*
X58771024Y-62235632D01*
X58771025Y-62235624D01*
X58790341Y-62039503D01*
X60589659Y-62039503D01*
X60608974Y-62235624D01*
X60608974Y-62235626D01*
X60666186Y-62424228D01*
X60731045Y-62545569D01*
X60759090Y-62598038D01*
X60884117Y-62750383D01*
X61036462Y-62875410D01*
X61210273Y-62968314D01*
X61398868Y-63025524D01*
X61398872Y-63025524D01*
X61398874Y-63025525D01*
X61594997Y-63044841D01*
X61595000Y-63044841D01*
X61595003Y-63044841D01*
X61791124Y-63025525D01*
X61791126Y-63025525D01*
X61791127Y-63025524D01*
X61791132Y-63025524D01*
X61979727Y-62968314D01*
X62153538Y-62875410D01*
X62305883Y-62750383D01*
X62430910Y-62598038D01*
X62523814Y-62424227D01*
X62581024Y-62235632D01*
X62581025Y-62235624D01*
X62600341Y-62039503D01*
X64399659Y-62039503D01*
X64418974Y-62235624D01*
X64418974Y-62235626D01*
X64476186Y-62424228D01*
X64541045Y-62545569D01*
X64569090Y-62598038D01*
X64694117Y-62750383D01*
X64846462Y-62875410D01*
X65020273Y-62968314D01*
X65208868Y-63025524D01*
X65208872Y-63025524D01*
X65208874Y-63025525D01*
X65404997Y-63044841D01*
X65405000Y-63044841D01*
X65405003Y-63044841D01*
X65601124Y-63025525D01*
X65601126Y-63025525D01*
X65601127Y-63025524D01*
X65601132Y-63025524D01*
X65789727Y-62968314D01*
X65963538Y-62875410D01*
X66115883Y-62750383D01*
X66240910Y-62598038D01*
X66333814Y-62424227D01*
X66358019Y-62344435D01*
X71874630Y-62344435D01*
X71890156Y-62445777D01*
X71905444Y-62545571D01*
X71924876Y-62598038D01*
X71976111Y-62736381D01*
X71976115Y-62736389D01*
X72083744Y-62909066D01*
X72083754Y-62909079D01*
X72215450Y-63047621D01*
X72223941Y-63056553D01*
X72223944Y-63056555D01*
X72390952Y-63172796D01*
X72390953Y-63172797D01*
X72577938Y-63253039D01*
X72577941Y-63253039D01*
X72577942Y-63253040D01*
X72777259Y-63294000D01*
X72777260Y-63294000D01*
X73729741Y-63294000D01*
X73729742Y-63294000D01*
X73729743Y-63293999D01*
X73729760Y-63293999D01*
X73823833Y-63284431D01*
X73881438Y-63278574D01*
X74075588Y-63217659D01*
X74253502Y-63118909D01*
X74253503Y-63118908D01*
X74253505Y-63118907D01*
X74407890Y-62986370D01*
X74407895Y-62986366D01*
X74532448Y-62825458D01*
X74578172Y-62732242D01*
X74622058Y-62642776D01*
X74622058Y-62642774D01*
X74622060Y-62642771D01*
X74673063Y-62445785D01*
X74683369Y-62242564D01*
X74652556Y-62041429D01*
X74581886Y-61850613D01*
X74499550Y-61718516D01*
X74474255Y-61677933D01*
X74474245Y-61677920D01*
X74334063Y-61530451D01*
X74334061Y-61530449D01*
X74334059Y-61530447D01*
X74334055Y-61530444D01*
X74167047Y-61414203D01*
X74167046Y-61414202D01*
X73980061Y-61333960D01*
X73830570Y-61303240D01*
X73780741Y-61293000D01*
X72828258Y-61293000D01*
X72828239Y-61293000D01*
X72676566Y-61308425D01*
X72676563Y-61308425D01*
X72676562Y-61308426D01*
X72630006Y-61323033D01*
X72482413Y-61369340D01*
X72304494Y-61468092D01*
X72150109Y-61600629D01*
X72150102Y-61600636D01*
X72025555Y-61761536D01*
X72025550Y-61761544D01*
X71935941Y-61944223D01*
X71884936Y-62141219D01*
X71884936Y-62141222D01*
X71874630Y-62344435D01*
X66358019Y-62344435D01*
X66391024Y-62235632D01*
X66391025Y-62235624D01*
X66410341Y-62039503D01*
X66410341Y-62039496D01*
X66391025Y-61843375D01*
X66391025Y-61843373D01*
X66391024Y-61843370D01*
X66391024Y-61843368D01*
X66333814Y-61654773D01*
X66240910Y-61480962D01*
X66115883Y-61328617D01*
X65963538Y-61203590D01*
X65862736Y-61149710D01*
X65789728Y-61110686D01*
X65601125Y-61053474D01*
X65405003Y-61034159D01*
X65404997Y-61034159D01*
X65208875Y-61053474D01*
X65208873Y-61053474D01*
X65020271Y-61110686D01*
X64846461Y-61203590D01*
X64694117Y-61328617D01*
X64569090Y-61480961D01*
X64476186Y-61654771D01*
X64418974Y-61843373D01*
X64418974Y-61843375D01*
X64399659Y-62039496D01*
X64399659Y-62039503D01*
X62600341Y-62039503D01*
X62600341Y-62039496D01*
X62581025Y-61843375D01*
X62581025Y-61843373D01*
X62581024Y-61843370D01*
X62581024Y-61843368D01*
X62523814Y-61654773D01*
X62430910Y-61480962D01*
X62305883Y-61328617D01*
X62153538Y-61203590D01*
X62052736Y-61149710D01*
X61979728Y-61110686D01*
X61791125Y-61053474D01*
X61595003Y-61034159D01*
X61594997Y-61034159D01*
X61398875Y-61053474D01*
X61398873Y-61053474D01*
X61210271Y-61110686D01*
X61036461Y-61203590D01*
X60884117Y-61328617D01*
X60759090Y-61480961D01*
X60666186Y-61654771D01*
X60608974Y-61843373D01*
X60608974Y-61843375D01*
X60589659Y-62039496D01*
X60589659Y-62039503D01*
X58790341Y-62039503D01*
X58790341Y-62039496D01*
X58771025Y-61843375D01*
X58771025Y-61843373D01*
X58771024Y-61843370D01*
X58771024Y-61843368D01*
X58713814Y-61654773D01*
X58620910Y-61480962D01*
X58495883Y-61328617D01*
X58343538Y-61203590D01*
X58242736Y-61149710D01*
X58169728Y-61110686D01*
X57981125Y-61053474D01*
X57785003Y-61034159D01*
X57784997Y-61034159D01*
X57588875Y-61053474D01*
X57588873Y-61053474D01*
X57400271Y-61110686D01*
X57226461Y-61203590D01*
X57074117Y-61328617D01*
X56949090Y-61480961D01*
X56856186Y-61654771D01*
X56798974Y-61843373D01*
X56798974Y-61843375D01*
X56779659Y-62039496D01*
X56779659Y-62039503D01*
X52776499Y-62039503D01*
X52776499Y-61018845D01*
X52776499Y-59979250D01*
X59698500Y-59979250D01*
X59703736Y-60005575D01*
X59710133Y-60037731D01*
X59754448Y-60104052D01*
X59820769Y-60148367D01*
X59879252Y-60160000D01*
X59879253Y-60160000D01*
X61718747Y-60160000D01*
X61718748Y-60160000D01*
X61777231Y-60148367D01*
X61843552Y-60104052D01*
X61887867Y-60037731D01*
X61899500Y-59979248D01*
X61899500Y-59059499D01*
X62193785Y-59059499D01*
X62212603Y-59262584D01*
X62268416Y-59458745D01*
X62268417Y-59458747D01*
X62268418Y-59458750D01*
X62359327Y-59641321D01*
X62359328Y-59641322D01*
X62359329Y-59641324D01*
X62482234Y-59804078D01*
X62632959Y-59941481D01*
X62632960Y-59941482D01*
X62806351Y-60048841D01*
X62806354Y-60048842D01*
X62806363Y-60048848D01*
X62996544Y-60122524D01*
X63197024Y-60160000D01*
X63197026Y-60160000D01*
X63400974Y-60160000D01*
X63400976Y-60160000D01*
X63601456Y-60122524D01*
X63791637Y-60048848D01*
X63965041Y-59941481D01*
X64115373Y-59804435D01*
X71874630Y-59804435D01*
X71895325Y-59939516D01*
X71905444Y-60005571D01*
X71933404Y-60081065D01*
X71976111Y-60196381D01*
X71976115Y-60196389D01*
X72083744Y-60369066D01*
X72083754Y-60369079D01*
X72223936Y-60516548D01*
X72223941Y-60516553D01*
X72223944Y-60516555D01*
X72390952Y-60632796D01*
X72390953Y-60632797D01*
X72577938Y-60713039D01*
X72577941Y-60713039D01*
X72577942Y-60713040D01*
X72777259Y-60754000D01*
X72777260Y-60754000D01*
X73729741Y-60754000D01*
X73729742Y-60754000D01*
X73729743Y-60753999D01*
X73729760Y-60753999D01*
X73823833Y-60744431D01*
X73881438Y-60738574D01*
X74075588Y-60677659D01*
X74253502Y-60578909D01*
X74253503Y-60578908D01*
X74253505Y-60578907D01*
X74407890Y-60446370D01*
X74407895Y-60446366D01*
X74532448Y-60285458D01*
X74593988Y-60160000D01*
X74622058Y-60102776D01*
X74622058Y-60102774D01*
X74622060Y-60102771D01*
X74673063Y-59905785D01*
X74678203Y-59804435D01*
X79494630Y-59804435D01*
X79515325Y-59939516D01*
X79525444Y-60005571D01*
X79553404Y-60081065D01*
X79596111Y-60196381D01*
X79596115Y-60196389D01*
X79703744Y-60369066D01*
X79703754Y-60369079D01*
X79843936Y-60516548D01*
X79843941Y-60516553D01*
X79843944Y-60516555D01*
X80010952Y-60632796D01*
X80010953Y-60632797D01*
X80197938Y-60713039D01*
X80197941Y-60713039D01*
X80197942Y-60713040D01*
X80397259Y-60754000D01*
X80397260Y-60754000D01*
X81349741Y-60754000D01*
X81349742Y-60754000D01*
X81349743Y-60753999D01*
X81349760Y-60753999D01*
X81443833Y-60744431D01*
X81501438Y-60738574D01*
X81695588Y-60677659D01*
X81873502Y-60578909D01*
X81873503Y-60578908D01*
X81873505Y-60578907D01*
X82027890Y-60446370D01*
X82027895Y-60446366D01*
X82152448Y-60285458D01*
X82213988Y-60160000D01*
X82242058Y-60102776D01*
X82242058Y-60102774D01*
X82242060Y-60102771D01*
X82293063Y-59905785D01*
X82303369Y-59702564D01*
X82272556Y-59501429D01*
X82201886Y-59310613D01*
X82106958Y-59158314D01*
X82094255Y-59137933D01*
X82094245Y-59137920D01*
X81954063Y-58990451D01*
X81954061Y-58990449D01*
X81954059Y-58990447D01*
X81882130Y-58940383D01*
X81787047Y-58874203D01*
X81787046Y-58874202D01*
X81600061Y-58793960D01*
X81450570Y-58763240D01*
X81400741Y-58753000D01*
X80448258Y-58753000D01*
X80448239Y-58753000D01*
X80296566Y-58768425D01*
X80296563Y-58768425D01*
X80296562Y-58768426D01*
X80243965Y-58784928D01*
X80102413Y-58829340D01*
X79924494Y-58928092D01*
X79770109Y-59060629D01*
X79770102Y-59060636D01*
X79645555Y-59221536D01*
X79645550Y-59221544D01*
X79555941Y-59404223D01*
X79504936Y-59601219D01*
X79504936Y-59601222D01*
X79494630Y-59804435D01*
X74678203Y-59804435D01*
X74683369Y-59702564D01*
X74652556Y-59501429D01*
X74581886Y-59310613D01*
X74486958Y-59158314D01*
X74474255Y-59137933D01*
X74474245Y-59137920D01*
X74334063Y-58990451D01*
X74334061Y-58990449D01*
X74334059Y-58990447D01*
X74262130Y-58940383D01*
X74167047Y-58874203D01*
X74167046Y-58874202D01*
X73980061Y-58793960D01*
X73830570Y-58763240D01*
X73780741Y-58753000D01*
X72828258Y-58753000D01*
X72828239Y-58753000D01*
X72676566Y-58768425D01*
X72676563Y-58768425D01*
X72676562Y-58768426D01*
X72623965Y-58784928D01*
X72482413Y-58829340D01*
X72304494Y-58928092D01*
X72150109Y-59060629D01*
X72150102Y-59060636D01*
X72025555Y-59221536D01*
X72025550Y-59221544D01*
X71935941Y-59404223D01*
X71884936Y-59601219D01*
X71884936Y-59601222D01*
X71874630Y-59804435D01*
X64115373Y-59804435D01*
X64115764Y-59804079D01*
X64238673Y-59641321D01*
X64329582Y-59458750D01*
X64385397Y-59262583D01*
X64404215Y-59059500D01*
X64385397Y-58856417D01*
X64329582Y-58660250D01*
X64238673Y-58477679D01*
X64238670Y-58477675D01*
X64115765Y-58314921D01*
X63965040Y-58177518D01*
X63965039Y-58177517D01*
X63791648Y-58070158D01*
X63791641Y-58070154D01*
X63791637Y-58070152D01*
X63649138Y-58014948D01*
X63601457Y-57996476D01*
X63494887Y-57976555D01*
X63400976Y-57959000D01*
X63197024Y-57959000D01*
X63134793Y-57970633D01*
X62996542Y-57996476D01*
X62887016Y-58038907D01*
X62806363Y-58070152D01*
X62806362Y-58070152D01*
X62806361Y-58070153D01*
X62806351Y-58070158D01*
X62632960Y-58177517D01*
X62632959Y-58177518D01*
X62482234Y-58314921D01*
X62359329Y-58477675D01*
X62268416Y-58660254D01*
X62212603Y-58856415D01*
X62193785Y-59059499D01*
X61899500Y-59059499D01*
X61899500Y-58139752D01*
X61887867Y-58081269D01*
X61843552Y-58014948D01*
X61777231Y-57970633D01*
X61777228Y-57970632D01*
X61718750Y-57959000D01*
X61718748Y-57959000D01*
X59879252Y-57959000D01*
X59879249Y-57959000D01*
X59820771Y-57970632D01*
X59820768Y-57970633D01*
X59754448Y-58014948D01*
X59710133Y-58081268D01*
X59710132Y-58081271D01*
X59698500Y-58139749D01*
X59698500Y-59979250D01*
X52776499Y-59979250D01*
X52776499Y-56451499D01*
X53416518Y-56451499D01*
X53436421Y-56729790D01*
X53495728Y-57002421D01*
X53495729Y-57002423D01*
X53592673Y-57262342D01*
X53593231Y-57263836D01*
X53593232Y-57263840D01*
X53713468Y-57484034D01*
X53726944Y-57508713D01*
X53864669Y-57692693D01*
X53894146Y-57732069D01*
X53894154Y-57732078D01*
X54091421Y-57929345D01*
X54091430Y-57929353D01*
X54091432Y-57929355D01*
X54314787Y-58096556D01*
X54314789Y-58096557D01*
X54558254Y-58229500D01*
X54559663Y-58230269D01*
X54821077Y-58327771D01*
X55093706Y-58387078D01*
X55372000Y-58406982D01*
X55650294Y-58387078D01*
X55922923Y-58327771D01*
X56184337Y-58230269D01*
X56429213Y-58096556D01*
X56652568Y-57929355D01*
X56849855Y-57732068D01*
X57017056Y-57508713D01*
X57150442Y-57264435D01*
X71874630Y-57264435D01*
X71880184Y-57300686D01*
X71905444Y-57465571D01*
X71911919Y-57483053D01*
X71976111Y-57656381D01*
X71976115Y-57656389D01*
X72083744Y-57829066D01*
X72083754Y-57829079D01*
X72223936Y-57976548D01*
X72223941Y-57976553D01*
X72223944Y-57976555D01*
X72390952Y-58092796D01*
X72390953Y-58092797D01*
X72577938Y-58173039D01*
X72577941Y-58173039D01*
X72577942Y-58173040D01*
X72777259Y-58214000D01*
X72777260Y-58214000D01*
X73729741Y-58214000D01*
X73729742Y-58214000D01*
X73729743Y-58213999D01*
X73729760Y-58213999D01*
X73823833Y-58204431D01*
X73881438Y-58198574D01*
X74075588Y-58137659D01*
X74253502Y-58038909D01*
X74253503Y-58038908D01*
X74253505Y-58038907D01*
X74381116Y-57929355D01*
X74407895Y-57906366D01*
X74532448Y-57745458D01*
X74612718Y-57581816D01*
X74622058Y-57562776D01*
X74622058Y-57562774D01*
X74622060Y-57562771D01*
X74673063Y-57365785D01*
X74683369Y-57162564D01*
X74652556Y-56961429D01*
X74581886Y-56770613D01*
X74526364Y-56681536D01*
X74474255Y-56597933D01*
X74474245Y-56597920D01*
X74334063Y-56450451D01*
X74334061Y-56450449D01*
X74334059Y-56450447D01*
X74334055Y-56450444D01*
X74167047Y-56334203D01*
X74167046Y-56334202D01*
X73980061Y-56253960D01*
X73829894Y-56223101D01*
X73780741Y-56213000D01*
X72828258Y-56213000D01*
X72828239Y-56213000D01*
X72676566Y-56228425D01*
X72676563Y-56228425D01*
X72676562Y-56228426D01*
X72623965Y-56244928D01*
X72482413Y-56289340D01*
X72304494Y-56388092D01*
X72150109Y-56520629D01*
X72150102Y-56520636D01*
X72025555Y-56681536D01*
X72025550Y-56681544D01*
X71935941Y-56864223D01*
X71884936Y-57061219D01*
X71884936Y-57061222D01*
X71874630Y-57264435D01*
X57150442Y-57264435D01*
X57150769Y-57263837D01*
X57248271Y-57002423D01*
X57307578Y-56729794D01*
X57327482Y-56451500D01*
X57307578Y-56173206D01*
X57248271Y-55900577D01*
X57150769Y-55639163D01*
X57017056Y-55394287D01*
X56849855Y-55170932D01*
X56849853Y-55170930D01*
X56849845Y-55170921D01*
X56652578Y-54973654D01*
X56652569Y-54973646D01*
X56651778Y-54973054D01*
X56429213Y-54806444D01*
X56429211Y-54806443D01*
X56429210Y-54806442D01*
X56279026Y-54724435D01*
X71874630Y-54724435D01*
X71887194Y-54806442D01*
X71905444Y-54925571D01*
X71923030Y-54973054D01*
X71976111Y-55116381D01*
X71976115Y-55116389D01*
X72083744Y-55289066D01*
X72083754Y-55289079D01*
X72223936Y-55436548D01*
X72223941Y-55436553D01*
X72223944Y-55436555D01*
X72390952Y-55552796D01*
X72390953Y-55552797D01*
X72577938Y-55633039D01*
X72577941Y-55633039D01*
X72577942Y-55633040D01*
X72777259Y-55674000D01*
X72777260Y-55674000D01*
X73729741Y-55674000D01*
X73729742Y-55674000D01*
X73729743Y-55673999D01*
X73729760Y-55673999D01*
X73823833Y-55664431D01*
X73881438Y-55658574D01*
X74075588Y-55597659D01*
X74253502Y-55498909D01*
X74253503Y-55498908D01*
X74253505Y-55498907D01*
X74407890Y-55366370D01*
X74407895Y-55366366D01*
X74532448Y-55205458D01*
X74599134Y-55069508D01*
X74647090Y-55017160D01*
X74712256Y-54999000D01*
X76818040Y-54999000D01*
X76823525Y-54999239D01*
X76863807Y-55002764D01*
X76902870Y-54992296D01*
X76908231Y-54991107D01*
X76948045Y-54984088D01*
X76948047Y-54984086D01*
X76953838Y-54981979D01*
X76969101Y-54975657D01*
X76974681Y-54973055D01*
X76974681Y-54973054D01*
X76974684Y-54973054D01*
X77007817Y-54949852D01*
X77012428Y-54946915D01*
X77047455Y-54926694D01*
X77073453Y-54895709D01*
X77077146Y-54891678D01*
X77170618Y-54798206D01*
X77232928Y-54764182D01*
X77276154Y-54762381D01*
X77343000Y-54771182D01*
X77499762Y-54750544D01*
X77562795Y-54724435D01*
X79494630Y-54724435D01*
X79507194Y-54806442D01*
X79525444Y-54925571D01*
X79543030Y-54973054D01*
X79596111Y-55116381D01*
X79596115Y-55116389D01*
X79703744Y-55289066D01*
X79703754Y-55289079D01*
X79843936Y-55436548D01*
X79843941Y-55436553D01*
X79843944Y-55436555D01*
X80010952Y-55552796D01*
X80010953Y-55552797D01*
X80197938Y-55633039D01*
X80197941Y-55633039D01*
X80197942Y-55633040D01*
X80397259Y-55674000D01*
X80397260Y-55674000D01*
X81349741Y-55674000D01*
X81349742Y-55674000D01*
X81349743Y-55673999D01*
X81349760Y-55673999D01*
X81443833Y-55664431D01*
X81501438Y-55658574D01*
X81695588Y-55597659D01*
X81873502Y-55498909D01*
X81873503Y-55498908D01*
X81873505Y-55498907D01*
X82027890Y-55366370D01*
X82027895Y-55366366D01*
X82152448Y-55205458D01*
X82232124Y-55043027D01*
X82242058Y-55022776D01*
X82242058Y-55022774D01*
X82242060Y-55022771D01*
X82293063Y-54825785D01*
X82303369Y-54622564D01*
X82272556Y-54421429D01*
X82201886Y-54230613D01*
X82161301Y-54165500D01*
X82094255Y-54057933D01*
X82094245Y-54057920D01*
X81954063Y-53910451D01*
X81954061Y-53910449D01*
X81954059Y-53910447D01*
X81954055Y-53910444D01*
X81787047Y-53794203D01*
X81787046Y-53794202D01*
X81600061Y-53713960D01*
X81450570Y-53683240D01*
X81400741Y-53673000D01*
X80448258Y-53673000D01*
X80448239Y-53673000D01*
X80296566Y-53688425D01*
X80296563Y-53688425D01*
X80296562Y-53688426D01*
X80244945Y-53704621D01*
X80102413Y-53749340D01*
X79924494Y-53848092D01*
X79770109Y-53980629D01*
X79770102Y-53980636D01*
X79645555Y-54141536D01*
X79645550Y-54141544D01*
X79555941Y-54324223D01*
X79504936Y-54521219D01*
X79504936Y-54521222D01*
X79494630Y-54724435D01*
X77562795Y-54724435D01*
X77645841Y-54690036D01*
X77771282Y-54593782D01*
X77867536Y-54468341D01*
X77928044Y-54322262D01*
X77948682Y-54165500D01*
X77928044Y-54008738D01*
X77867536Y-53862659D01*
X77771282Y-53737218D01*
X77645841Y-53640964D01*
X77604064Y-53623659D01*
X77499760Y-53580455D01*
X77343000Y-53559818D01*
X77186239Y-53580455D01*
X77040160Y-53640963D01*
X77040157Y-53640965D01*
X76914718Y-53737218D01*
X76818465Y-53862657D01*
X76818463Y-53862660D01*
X76757955Y-54008739D01*
X76737318Y-54165499D01*
X76737318Y-54165500D01*
X76742591Y-54205554D01*
X76731651Y-54275703D01*
X76684523Y-54328801D01*
X76617669Y-54348000D01*
X74713060Y-54348000D01*
X74644939Y-54327998D01*
X74598446Y-54274342D01*
X74594903Y-54265760D01*
X74581888Y-54230618D01*
X74581884Y-54230610D01*
X74474255Y-54057933D01*
X74474245Y-54057920D01*
X74334063Y-53910451D01*
X74334061Y-53910449D01*
X74334059Y-53910447D01*
X74334055Y-53910444D01*
X74167047Y-53794203D01*
X74167046Y-53794202D01*
X73980061Y-53713960D01*
X73830570Y-53683240D01*
X73780741Y-53673000D01*
X72828258Y-53673000D01*
X72828239Y-53673000D01*
X72676566Y-53688425D01*
X72676563Y-53688425D01*
X72676562Y-53688426D01*
X72624945Y-53704621D01*
X72482413Y-53749340D01*
X72304494Y-53848092D01*
X72150109Y-53980629D01*
X72150102Y-53980636D01*
X72025555Y-54141536D01*
X72025550Y-54141544D01*
X71935941Y-54324223D01*
X71884936Y-54521219D01*
X71884936Y-54521222D01*
X71874630Y-54724435D01*
X56279026Y-54724435D01*
X56184340Y-54672732D01*
X56184337Y-54672731D01*
X55972663Y-54593781D01*
X55922921Y-54575228D01*
X55650290Y-54515921D01*
X55372000Y-54496018D01*
X55093709Y-54515921D01*
X54821078Y-54575228D01*
X54559663Y-54672731D01*
X54559659Y-54672732D01*
X54314789Y-54806442D01*
X54091430Y-54973646D01*
X54091421Y-54973654D01*
X53894154Y-55170921D01*
X53894146Y-55170930D01*
X53726942Y-55394289D01*
X53593232Y-55639159D01*
X53593231Y-55639163D01*
X53495728Y-55900578D01*
X53436421Y-56173209D01*
X53416518Y-56451499D01*
X52776499Y-56451499D01*
X52776499Y-51882393D01*
X56938500Y-51882393D01*
X56953696Y-52070633D01*
X57013992Y-52315268D01*
X57112749Y-52547058D01*
X57247413Y-52760011D01*
X57247414Y-52760012D01*
X57414481Y-52948592D01*
X57414484Y-52948595D01*
X57414487Y-52948598D01*
X57609651Y-53107945D01*
X57827849Y-53233921D01*
X58063429Y-53323265D01*
X58310291Y-53373662D01*
X58562039Y-53383807D01*
X58812156Y-53353438D01*
X59054161Y-53283340D01*
X59281788Y-53175329D01*
X59281788Y-53175328D01*
X59281790Y-53175328D01*
X59489133Y-53032210D01*
X59489142Y-53032204D01*
X59670851Y-52857670D01*
X59822210Y-52656247D01*
X59939299Y-52433154D01*
X60019084Y-52194167D01*
X60059500Y-51945477D01*
X60059500Y-51236611D01*
X60059010Y-51230545D01*
X60054407Y-51173527D01*
X66538499Y-51173527D01*
X66538500Y-51882393D01*
X66553696Y-52070633D01*
X66613992Y-52315268D01*
X66712749Y-52547058D01*
X66847413Y-52760011D01*
X66847414Y-52760012D01*
X67014481Y-52948592D01*
X67014484Y-52948595D01*
X67014487Y-52948598D01*
X67209651Y-53107945D01*
X67427849Y-53233921D01*
X67663429Y-53323265D01*
X67910291Y-53373662D01*
X68162039Y-53383807D01*
X68412156Y-53353438D01*
X68654161Y-53283340D01*
X68881788Y-53175329D01*
X68881788Y-53175328D01*
X68881790Y-53175328D01*
X69089133Y-53032210D01*
X69089142Y-53032204D01*
X69270851Y-52857670D01*
X69422210Y-52656247D01*
X69539299Y-52433154D01*
X69619084Y-52194167D01*
X69659500Y-51945477D01*
X69659500Y-51236611D01*
X69659010Y-51230545D01*
X69644303Y-51048366D01*
X69628111Y-50982673D01*
X69584007Y-50803732D01*
X69567677Y-50765405D01*
X69485250Y-50571941D01*
X69485250Y-50571940D01*
X69350589Y-50358992D01*
X69350587Y-50358990D01*
X69350586Y-50358988D01*
X69350585Y-50358987D01*
X69183518Y-50170407D01*
X69183515Y-50170404D01*
X69183513Y-50170402D01*
X69081106Y-50086789D01*
X68988353Y-50011058D01*
X68988351Y-50011057D01*
X68988349Y-50011055D01*
X68789659Y-49896342D01*
X68770153Y-49885080D01*
X68770152Y-49885079D01*
X68770151Y-49885079D01*
X68534571Y-49795735D01*
X68287709Y-49745338D01*
X68161834Y-49740265D01*
X68035962Y-49735193D01*
X68035953Y-49735193D01*
X67785843Y-49765561D01*
X67785841Y-49765562D01*
X67543849Y-49835656D01*
X67543845Y-49835657D01*
X67316209Y-49943671D01*
X67108866Y-50086789D01*
X67108849Y-50086803D01*
X66927152Y-50261326D01*
X66927142Y-50261337D01*
X66775788Y-50462755D01*
X66775786Y-50462757D01*
X66658702Y-50685842D01*
X66658701Y-50685843D01*
X66578915Y-50924834D01*
X66538501Y-51173513D01*
X66538499Y-51173527D01*
X60054407Y-51173527D01*
X60044303Y-51048366D01*
X60028111Y-50982673D01*
X59984007Y-50803732D01*
X59967677Y-50765405D01*
X59885250Y-50571941D01*
X59885250Y-50571940D01*
X59750589Y-50358992D01*
X59750587Y-50358990D01*
X59750586Y-50358988D01*
X59750585Y-50358987D01*
X59583518Y-50170407D01*
X59583515Y-50170404D01*
X59583513Y-50170402D01*
X59481106Y-50086789D01*
X59388353Y-50011058D01*
X59388351Y-50011057D01*
X59388349Y-50011055D01*
X59189659Y-49896342D01*
X59170153Y-49885080D01*
X59170152Y-49885079D01*
X59170151Y-49885079D01*
X58934571Y-49795735D01*
X58687709Y-49745338D01*
X58561834Y-49740265D01*
X58435962Y-49735193D01*
X58435953Y-49735193D01*
X58185843Y-49765561D01*
X58185841Y-49765562D01*
X57943849Y-49835656D01*
X57943845Y-49835657D01*
X57716209Y-49943671D01*
X57508866Y-50086789D01*
X57508849Y-50086803D01*
X57327152Y-50261326D01*
X57327142Y-50261337D01*
X57175788Y-50462755D01*
X57175786Y-50462757D01*
X57058702Y-50685842D01*
X57058701Y-50685843D01*
X56978915Y-50924834D01*
X56938501Y-51173513D01*
X56938500Y-51173527D01*
X56938500Y-51882393D01*
X52776499Y-51882393D01*
X52776499Y-49644435D01*
X79494630Y-49644435D01*
X79511463Y-49754307D01*
X79525444Y-49845571D01*
X79544973Y-49898300D01*
X79596111Y-50036381D01*
X79596115Y-50036389D01*
X79703744Y-50209066D01*
X79703754Y-50209079D01*
X79843936Y-50356548D01*
X79843941Y-50356553D01*
X79847445Y-50358992D01*
X80010952Y-50472796D01*
X80010953Y-50472797D01*
X80197938Y-50553039D01*
X80197941Y-50553039D01*
X80197942Y-50553040D01*
X80397259Y-50594000D01*
X80397260Y-50594000D01*
X81349741Y-50594000D01*
X81349742Y-50594000D01*
X81349743Y-50593999D01*
X81349760Y-50593999D01*
X81443833Y-50584431D01*
X81501438Y-50578574D01*
X81695588Y-50517659D01*
X81873502Y-50418909D01*
X81873503Y-50418908D01*
X81873505Y-50418907D01*
X82027890Y-50286370D01*
X82027895Y-50286366D01*
X82152448Y-50125458D01*
X82210195Y-50007733D01*
X82242058Y-49942776D01*
X82242058Y-49942774D01*
X82242060Y-49942771D01*
X82293063Y-49745785D01*
X82303369Y-49542564D01*
X82272556Y-49341429D01*
X82201886Y-49150613D01*
X82179898Y-49115337D01*
X82094255Y-48977933D01*
X82094245Y-48977920D01*
X81954063Y-48830451D01*
X81954061Y-48830449D01*
X81954059Y-48830447D01*
X81882130Y-48780383D01*
X81787047Y-48714203D01*
X81787046Y-48714202D01*
X81600061Y-48633960D01*
X81450570Y-48603240D01*
X81400741Y-48593000D01*
X80448258Y-48593000D01*
X80448239Y-48593000D01*
X80296566Y-48608425D01*
X80296563Y-48608425D01*
X80296562Y-48608426D01*
X80243965Y-48624928D01*
X80102413Y-48669340D01*
X79924494Y-48768092D01*
X79770109Y-48900629D01*
X79770102Y-48900636D01*
X79645555Y-49061536D01*
X79645550Y-49061544D01*
X79555941Y-49244223D01*
X79504936Y-49441219D01*
X79504936Y-49441222D01*
X79494630Y-49644435D01*
X52776499Y-49644435D01*
X52776499Y-47619250D01*
X54244500Y-47619250D01*
X54252368Y-47658807D01*
X54256133Y-47677731D01*
X54300448Y-47744052D01*
X54366769Y-47788367D01*
X54425252Y-47800000D01*
X54425253Y-47800000D01*
X56064747Y-47800000D01*
X56064748Y-47800000D01*
X56123231Y-47788367D01*
X56189552Y-47744052D01*
X56233867Y-47677731D01*
X56245500Y-47619248D01*
X56245500Y-47104435D01*
X71874630Y-47104435D01*
X71880184Y-47140686D01*
X71905444Y-47305571D01*
X71925090Y-47358617D01*
X71976111Y-47496381D01*
X71976115Y-47496389D01*
X72083744Y-47669066D01*
X72083754Y-47669079D01*
X72216442Y-47808664D01*
X72223941Y-47816553D01*
X72223944Y-47816555D01*
X72390952Y-47932796D01*
X72390953Y-47932797D01*
X72577938Y-48013039D01*
X72577941Y-48013039D01*
X72577942Y-48013040D01*
X72777259Y-48054000D01*
X72777260Y-48054000D01*
X73729741Y-48054000D01*
X73729742Y-48054000D01*
X73729743Y-48053999D01*
X73729760Y-48053999D01*
X73823833Y-48044431D01*
X73881438Y-48038574D01*
X74075588Y-47977659D01*
X74253502Y-47878909D01*
X74253503Y-47878908D01*
X74253505Y-47878907D01*
X74387177Y-47764152D01*
X74407895Y-47746366D01*
X74532448Y-47585458D01*
X74622060Y-47402771D01*
X74673063Y-47205785D01*
X74678203Y-47104435D01*
X79494630Y-47104435D01*
X79500184Y-47140686D01*
X79525444Y-47305571D01*
X79545090Y-47358617D01*
X79596111Y-47496381D01*
X79596115Y-47496389D01*
X79703744Y-47669066D01*
X79703754Y-47669079D01*
X79836442Y-47808664D01*
X79843941Y-47816553D01*
X79843944Y-47816555D01*
X80010952Y-47932796D01*
X80010953Y-47932797D01*
X80197938Y-48013039D01*
X80197941Y-48013039D01*
X80197942Y-48013040D01*
X80397259Y-48054000D01*
X80397260Y-48054000D01*
X81349741Y-48054000D01*
X81349742Y-48054000D01*
X81349743Y-48053999D01*
X81349760Y-48053999D01*
X81443833Y-48044431D01*
X81501438Y-48038574D01*
X81695588Y-47977659D01*
X81873502Y-47878909D01*
X81873503Y-47878908D01*
X81873505Y-47878907D01*
X82007177Y-47764152D01*
X82027895Y-47746366D01*
X82152448Y-47585458D01*
X82242060Y-47402771D01*
X82293063Y-47205785D01*
X82303369Y-47002564D01*
X82272556Y-46801429D01*
X82201886Y-46610613D01*
X82146364Y-46521536D01*
X82094255Y-46437933D01*
X82094245Y-46437920D01*
X81954063Y-46290451D01*
X81954061Y-46290449D01*
X81954059Y-46290447D01*
X81954055Y-46290444D01*
X81787047Y-46174203D01*
X81787046Y-46174202D01*
X81600061Y-46093960D01*
X81450570Y-46063240D01*
X81400741Y-46053000D01*
X80448258Y-46053000D01*
X80448239Y-46053000D01*
X80296566Y-46068425D01*
X80296563Y-46068425D01*
X80296562Y-46068426D01*
X80254156Y-46081731D01*
X80102413Y-46129340D01*
X79924494Y-46228092D01*
X79770109Y-46360629D01*
X79770102Y-46360636D01*
X79645555Y-46521536D01*
X79645550Y-46521544D01*
X79555941Y-46704223D01*
X79504936Y-46901219D01*
X79504936Y-46901222D01*
X79494630Y-47104435D01*
X74678203Y-47104435D01*
X74683369Y-47002564D01*
X74652556Y-46801429D01*
X74581886Y-46610613D01*
X74526364Y-46521536D01*
X74474255Y-46437933D01*
X74474245Y-46437920D01*
X74334063Y-46290451D01*
X74334061Y-46290449D01*
X74334059Y-46290447D01*
X74334055Y-46290444D01*
X74167047Y-46174203D01*
X74167046Y-46174202D01*
X73980061Y-46093960D01*
X73830570Y-46063240D01*
X73780741Y-46053000D01*
X72828258Y-46053000D01*
X72828239Y-46053000D01*
X72676566Y-46068425D01*
X72676563Y-46068425D01*
X72676562Y-46068426D01*
X72634156Y-46081731D01*
X72482413Y-46129340D01*
X72304494Y-46228092D01*
X72150109Y-46360629D01*
X72150102Y-46360636D01*
X72025555Y-46521536D01*
X72025550Y-46521544D01*
X71935941Y-46704223D01*
X71884936Y-46901219D01*
X71884936Y-46901222D01*
X71874630Y-47104435D01*
X56245500Y-47104435D01*
X56245500Y-45979752D01*
X56233867Y-45921269D01*
X56189552Y-45854948D01*
X56123231Y-45810633D01*
X56123228Y-45810632D01*
X56064750Y-45799000D01*
X56064748Y-45799000D01*
X54425252Y-45799000D01*
X54425249Y-45799000D01*
X54366771Y-45810632D01*
X54366768Y-45810633D01*
X54300448Y-45854948D01*
X54256133Y-45921268D01*
X54256132Y-45921271D01*
X54244500Y-45979749D01*
X54244500Y-47619250D01*
X52776499Y-47619250D01*
X52776499Y-45333250D01*
X71878500Y-45333250D01*
X71883708Y-45359434D01*
X71890133Y-45391731D01*
X71934448Y-45458052D01*
X72000769Y-45502367D01*
X72059252Y-45514000D01*
X72059253Y-45514000D01*
X74498747Y-45514000D01*
X74498748Y-45514000D01*
X74557231Y-45502367D01*
X74623552Y-45458052D01*
X74667867Y-45391731D01*
X74679500Y-45333248D01*
X74679500Y-44965000D01*
X74699502Y-44896879D01*
X74753158Y-44850386D01*
X74805500Y-44839000D01*
X75294040Y-44839000D01*
X75299525Y-44839239D01*
X75339807Y-44842764D01*
X75378870Y-44832296D01*
X75384231Y-44831107D01*
X75424045Y-44824088D01*
X75424047Y-44824086D01*
X75429838Y-44821979D01*
X75445101Y-44815657D01*
X75450681Y-44813055D01*
X75450681Y-44813054D01*
X75450684Y-44813054D01*
X75483817Y-44789852D01*
X75488428Y-44786915D01*
X75523455Y-44766694D01*
X75549453Y-44735709D01*
X75553146Y-44731678D01*
X77170618Y-43114206D01*
X77232928Y-43080182D01*
X77276154Y-43078381D01*
X77343000Y-43087182D01*
X77499762Y-43066544D01*
X77645841Y-43006036D01*
X77771282Y-42909782D01*
X77867536Y-42784341D01*
X77928044Y-42638262D01*
X77931304Y-42613503D01*
X83150417Y-42613503D01*
X83170698Y-42819427D01*
X83170699Y-42819433D01*
X83170700Y-42819434D01*
X83206958Y-42938961D01*
X83230768Y-43017454D01*
X83304523Y-43155440D01*
X83328315Y-43199950D01*
X83459590Y-43359910D01*
X83619550Y-43491185D01*
X83802046Y-43588732D01*
X84000066Y-43648800D01*
X84000070Y-43648800D01*
X84000072Y-43648801D01*
X84205997Y-43669083D01*
X84206000Y-43669083D01*
X84206003Y-43669083D01*
X84411927Y-43648801D01*
X84411928Y-43648800D01*
X84411934Y-43648800D01*
X84609954Y-43588732D01*
X84609962Y-43588727D01*
X84610614Y-43588458D01*
X84610990Y-43588417D01*
X84615878Y-43586935D01*
X84616158Y-43587861D01*
X84681203Y-43580862D01*
X84744693Y-43612635D01*
X84747939Y-43615766D01*
X84897631Y-43765458D01*
X85020078Y-43887904D01*
X85054103Y-43950217D01*
X85049039Y-44021032D01*
X85006492Y-44077868D01*
X84939972Y-44102679D01*
X84930983Y-44103000D01*
X83336249Y-44103000D01*
X83277771Y-44114632D01*
X83277768Y-44114633D01*
X83211448Y-44158948D01*
X83167133Y-44225268D01*
X83167132Y-44225271D01*
X83155500Y-44283749D01*
X83155500Y-46023250D01*
X83157078Y-46031185D01*
X83167133Y-46081731D01*
X83211448Y-46148052D01*
X83277769Y-46192367D01*
X83336252Y-46204000D01*
X83336253Y-46204000D01*
X85019500Y-46204000D01*
X85087621Y-46224002D01*
X85134114Y-46277658D01*
X85145500Y-46330000D01*
X85145500Y-47798539D01*
X85145260Y-47804026D01*
X85144331Y-47814649D01*
X85141736Y-47844304D01*
X85141736Y-47844306D01*
X85152203Y-47883372D01*
X85153393Y-47888740D01*
X85160412Y-47928547D01*
X85162505Y-47934296D01*
X85168866Y-47949652D01*
X85171445Y-47955183D01*
X85194634Y-47988300D01*
X85197587Y-47992936D01*
X85217806Y-48027955D01*
X85248787Y-48053951D01*
X85252829Y-48057655D01*
X86204490Y-49009316D01*
X87140595Y-49945421D01*
X87174621Y-50007733D01*
X87177500Y-50034516D01*
X87177500Y-50640687D01*
X87157498Y-50708808D01*
X87103842Y-50755301D01*
X87033568Y-50765405D01*
X86968988Y-50735911D01*
X86935583Y-50690075D01*
X86885250Y-50571941D01*
X86885250Y-50571940D01*
X86750589Y-50358992D01*
X86750587Y-50358990D01*
X86750586Y-50358988D01*
X86750585Y-50358987D01*
X86583518Y-50170407D01*
X86583515Y-50170404D01*
X86583513Y-50170402D01*
X86481106Y-50086789D01*
X86388353Y-50011058D01*
X86388351Y-50011057D01*
X86388349Y-50011055D01*
X86189659Y-49896342D01*
X86170153Y-49885080D01*
X86170152Y-49885079D01*
X86170151Y-49885079D01*
X85934571Y-49795735D01*
X85687709Y-49745338D01*
X85561834Y-49740265D01*
X85435962Y-49735193D01*
X85435953Y-49735193D01*
X85185843Y-49765561D01*
X85185841Y-49765562D01*
X84943849Y-49835656D01*
X84943845Y-49835657D01*
X84716209Y-49943671D01*
X84508866Y-50086789D01*
X84508849Y-50086803D01*
X84327152Y-50261326D01*
X84327142Y-50261337D01*
X84175788Y-50462755D01*
X84175786Y-50462757D01*
X84058702Y-50685842D01*
X84058701Y-50685843D01*
X83978915Y-50924834D01*
X83938501Y-51173513D01*
X83938500Y-51173527D01*
X83938500Y-51882393D01*
X83953696Y-52070633D01*
X84013992Y-52315268D01*
X84112749Y-52547058D01*
X84247413Y-52760011D01*
X84247414Y-52760012D01*
X84414481Y-52948592D01*
X84414484Y-52948595D01*
X84414487Y-52948598D01*
X84609651Y-53107945D01*
X84827849Y-53233921D01*
X85063429Y-53323265D01*
X85310291Y-53373662D01*
X85562039Y-53383807D01*
X85812156Y-53353438D01*
X86054161Y-53283340D01*
X86281788Y-53175329D01*
X86281788Y-53175328D01*
X86281790Y-53175328D01*
X86489133Y-53032210D01*
X86489142Y-53032204D01*
X86670851Y-52857670D01*
X86822210Y-52656247D01*
X86939299Y-52433154D01*
X86939299Y-52433153D01*
X86939933Y-52431946D01*
X86989301Y-52380923D01*
X87058417Y-52364691D01*
X87125337Y-52388402D01*
X87168814Y-52444529D01*
X87177500Y-52490501D01*
X87177500Y-54867482D01*
X87157498Y-54935603D01*
X87140595Y-54956577D01*
X85379843Y-56717329D01*
X85375792Y-56721042D01*
X85344806Y-56747044D01*
X85344804Y-56747047D01*
X85324589Y-56782058D01*
X85321638Y-56786691D01*
X85298445Y-56819816D01*
X85295873Y-56825332D01*
X85289493Y-56840735D01*
X85287412Y-56846452D01*
X85280392Y-56886261D01*
X85279203Y-56891626D01*
X85268736Y-56930693D01*
X85271425Y-56961430D01*
X85272260Y-56970965D01*
X85272500Y-56976459D01*
X85272500Y-61149710D01*
X85252498Y-61217831D01*
X85198842Y-61264324D01*
X85128568Y-61274428D01*
X85066566Y-61247109D01*
X85013538Y-61203590D01*
X84839728Y-61110686D01*
X84651125Y-61053474D01*
X84455003Y-61034159D01*
X84454997Y-61034159D01*
X84258875Y-61053474D01*
X84258873Y-61053474D01*
X84070271Y-61110686D01*
X83896461Y-61203590D01*
X83744117Y-61328617D01*
X83619090Y-61480961D01*
X83526186Y-61654771D01*
X83468974Y-61843373D01*
X83468974Y-61843375D01*
X83449659Y-62039496D01*
X83449659Y-62039503D01*
X83468974Y-62235624D01*
X83468974Y-62235626D01*
X83526186Y-62424228D01*
X83591045Y-62545569D01*
X83619090Y-62598038D01*
X83744117Y-62750383D01*
X83896462Y-62875410D01*
X84070273Y-62968314D01*
X84258868Y-63025524D01*
X84258872Y-63025524D01*
X84258874Y-63025525D01*
X84454997Y-63044841D01*
X84455000Y-63044841D01*
X84455003Y-63044841D01*
X84651124Y-63025525D01*
X84651126Y-63025525D01*
X84651127Y-63025524D01*
X84651132Y-63025524D01*
X84839727Y-62968314D01*
X85013538Y-62875410D01*
X85066566Y-62831890D01*
X85131912Y-62804136D01*
X85201891Y-62816117D01*
X85254283Y-62864029D01*
X85272500Y-62929289D01*
X85272500Y-70277539D01*
X85272260Y-70283032D01*
X85268736Y-70323304D01*
X85268736Y-70323306D01*
X85279203Y-70362372D01*
X85280393Y-70367740D01*
X85287412Y-70407547D01*
X85289505Y-70413296D01*
X85295866Y-70428652D01*
X85298445Y-70434183D01*
X85321634Y-70467300D01*
X85324587Y-70471936D01*
X85344806Y-70506955D01*
X85375778Y-70532944D01*
X85375787Y-70532951D01*
X85379829Y-70536655D01*
X86206764Y-71363590D01*
X86997290Y-72154116D01*
X87031316Y-72216428D01*
X87033117Y-72259656D01*
X87024318Y-72326497D01*
X87024318Y-72326500D01*
X87044955Y-72483260D01*
X87086778Y-72584228D01*
X87105464Y-72629341D01*
X87201718Y-72754782D01*
X87327159Y-72851036D01*
X87473238Y-72911544D01*
X87630000Y-72932182D01*
X87786762Y-72911544D01*
X87932841Y-72851036D01*
X88058282Y-72754782D01*
X88154536Y-72629341D01*
X88215044Y-72483262D01*
X88235682Y-72326500D01*
X88234250Y-72315626D01*
X88215044Y-72169739D01*
X88214781Y-72169102D01*
X88154536Y-72023659D01*
X88058282Y-71898218D01*
X87932841Y-71801964D01*
X87786762Y-71741456D01*
X87786760Y-71741455D01*
X87630000Y-71720818D01*
X87629998Y-71720818D01*
X87563156Y-71729617D01*
X87493007Y-71718677D01*
X87457616Y-71693790D01*
X85960405Y-70196579D01*
X85926379Y-70134267D01*
X85923500Y-70107484D01*
X85923500Y-69659503D01*
X87259659Y-69659503D01*
X87278974Y-69855624D01*
X87278974Y-69855626D01*
X87336186Y-70044228D01*
X87417619Y-70196578D01*
X87429090Y-70218038D01*
X87554117Y-70370383D01*
X87706462Y-70495410D01*
X87880273Y-70588314D01*
X88068868Y-70645524D01*
X88068872Y-70645524D01*
X88068874Y-70645525D01*
X88264997Y-70664841D01*
X88265000Y-70664841D01*
X88265003Y-70664841D01*
X88461124Y-70645525D01*
X88461126Y-70645525D01*
X88461127Y-70645524D01*
X88461132Y-70645524D01*
X88649727Y-70588314D01*
X88823538Y-70495410D01*
X88975883Y-70370383D01*
X89100910Y-70218038D01*
X89193814Y-70044227D01*
X89251024Y-69855632D01*
X89270341Y-69659500D01*
X89251025Y-69463375D01*
X89251025Y-69463373D01*
X89251024Y-69463370D01*
X89251024Y-69463368D01*
X89193814Y-69274773D01*
X89100910Y-69100962D01*
X88975883Y-68948617D01*
X88823538Y-68823590D01*
X88823538Y-68823589D01*
X88649728Y-68730686D01*
X88461125Y-68673474D01*
X88265003Y-68654159D01*
X88264997Y-68654159D01*
X88068875Y-68673474D01*
X88068873Y-68673474D01*
X87880271Y-68730686D01*
X87706461Y-68823590D01*
X87554117Y-68948617D01*
X87429090Y-69100961D01*
X87336186Y-69274771D01*
X87278974Y-69463373D01*
X87278974Y-69463375D01*
X87259659Y-69659496D01*
X87259659Y-69659503D01*
X85923500Y-69659503D01*
X85923500Y-65849503D01*
X87259659Y-65849503D01*
X87278974Y-66045624D01*
X87278974Y-66045626D01*
X87336186Y-66234228D01*
X87336188Y-66234231D01*
X87429090Y-66408038D01*
X87554117Y-66560383D01*
X87706462Y-66685410D01*
X87880273Y-66778314D01*
X88068868Y-66835524D01*
X88068872Y-66835524D01*
X88068874Y-66835525D01*
X88264997Y-66854841D01*
X88265000Y-66854841D01*
X88265003Y-66854841D01*
X88461124Y-66835525D01*
X88461126Y-66835525D01*
X88461127Y-66835524D01*
X88461132Y-66835524D01*
X88649727Y-66778314D01*
X88823538Y-66685410D01*
X88975883Y-66560383D01*
X89100910Y-66408038D01*
X89193814Y-66234227D01*
X89251024Y-66045632D01*
X89270341Y-65849500D01*
X89265363Y-65798961D01*
X89251025Y-65653375D01*
X89251025Y-65653373D01*
X89251024Y-65653370D01*
X89251024Y-65653368D01*
X89193814Y-65464773D01*
X89100910Y-65290962D01*
X88975883Y-65138617D01*
X88823538Y-65013590D01*
X88823537Y-65013589D01*
X88649728Y-64920686D01*
X88461125Y-64863474D01*
X88265003Y-64844159D01*
X88264997Y-64844159D01*
X88068875Y-64863474D01*
X88068873Y-64863474D01*
X87880271Y-64920686D01*
X87706461Y-65013590D01*
X87554117Y-65138617D01*
X87429090Y-65290961D01*
X87336186Y-65464771D01*
X87278974Y-65653373D01*
X87278974Y-65653375D01*
X87259659Y-65849496D01*
X87259659Y-65849503D01*
X85923500Y-65849503D01*
X85923500Y-59979250D01*
X86698500Y-59979250D01*
X86703736Y-60005575D01*
X86710133Y-60037731D01*
X86754448Y-60104052D01*
X86820769Y-60148367D01*
X86879252Y-60160000D01*
X86879253Y-60160000D01*
X88718747Y-60160000D01*
X88718748Y-60160000D01*
X88777231Y-60148367D01*
X88843552Y-60104052D01*
X88887867Y-60037731D01*
X88899500Y-59979248D01*
X88899500Y-58139752D01*
X88887867Y-58081269D01*
X88843552Y-58014948D01*
X88777231Y-57970633D01*
X88777228Y-57970632D01*
X88718750Y-57959000D01*
X88718748Y-57959000D01*
X86879252Y-57959000D01*
X86879249Y-57959000D01*
X86820771Y-57970632D01*
X86820768Y-57970633D01*
X86754448Y-58014948D01*
X86710133Y-58081268D01*
X86710132Y-58081271D01*
X86698500Y-58139749D01*
X86698500Y-59979250D01*
X85923500Y-59979250D01*
X85923500Y-57146515D01*
X85943502Y-57078394D01*
X85960400Y-57057425D01*
X87721186Y-55296638D01*
X87725204Y-55292956D01*
X87756194Y-55266955D01*
X87776415Y-55231928D01*
X87779352Y-55227317D01*
X87802554Y-55194184D01*
X87802554Y-55194181D01*
X87805157Y-55188601D01*
X87811479Y-55173338D01*
X87813587Y-55167546D01*
X87813588Y-55167545D01*
X87820607Y-55127731D01*
X87821791Y-55122386D01*
X87832264Y-55083307D01*
X87828738Y-55043022D01*
X87828499Y-55037533D01*
X87828499Y-52468924D01*
X87828499Y-51446347D01*
X87848501Y-51378229D01*
X87902157Y-51331736D01*
X87972431Y-51321632D01*
X88035493Y-51349831D01*
X88042789Y-51355953D01*
X88046830Y-51359656D01*
X90454107Y-53766933D01*
X92847963Y-56160789D01*
X92881989Y-56223101D01*
X92876924Y-56293916D01*
X92834377Y-56350752D01*
X92767857Y-56375563D01*
X92742422Y-56374806D01*
X92583000Y-56353818D01*
X92426239Y-56374455D01*
X92280160Y-56434963D01*
X92280157Y-56434965D01*
X92154718Y-56531218D01*
X92058465Y-56656657D01*
X92058463Y-56656660D01*
X91997955Y-56802739D01*
X91977318Y-56959499D01*
X91977318Y-56959501D01*
X91986117Y-57026342D01*
X91975177Y-57096491D01*
X91950290Y-57131882D01*
X91348843Y-57733329D01*
X91344792Y-57737042D01*
X91313806Y-57763044D01*
X91313804Y-57763047D01*
X91293589Y-57798058D01*
X91290638Y-57802691D01*
X91267445Y-57835816D01*
X91264873Y-57841332D01*
X91258493Y-57856735D01*
X91256412Y-57862452D01*
X91249392Y-57902261D01*
X91248203Y-57907626D01*
X91237736Y-57946692D01*
X91237736Y-57946694D01*
X91241260Y-57986965D01*
X91241500Y-57992459D01*
X91241500Y-70107483D01*
X91221498Y-70175604D01*
X91204595Y-70196578D01*
X85516382Y-75884790D01*
X85454070Y-75918816D01*
X85410842Y-75920617D01*
X85344002Y-75911818D01*
X85344000Y-75911818D01*
X85187239Y-75932455D01*
X85041160Y-75992963D01*
X85041157Y-75992965D01*
X84915718Y-76089218D01*
X84819465Y-76214657D01*
X84819463Y-76214660D01*
X84758955Y-76360739D01*
X84738318Y-76517499D01*
X84738318Y-76517500D01*
X84758955Y-76674260D01*
X84778060Y-76720382D01*
X84819464Y-76820341D01*
X84915718Y-76945782D01*
X85041159Y-77042036D01*
X85187238Y-77102544D01*
X85344000Y-77123182D01*
X85500762Y-77102544D01*
X85646841Y-77042036D01*
X85772282Y-76945782D01*
X85868536Y-76820341D01*
X85929044Y-76674262D01*
X85949682Y-76517500D01*
X85940881Y-76450656D01*
X85951820Y-76380510D01*
X85976705Y-76345119D01*
X91785186Y-70536638D01*
X91789204Y-70532956D01*
X91820194Y-70506955D01*
X91840415Y-70471928D01*
X91843352Y-70467317D01*
X91866554Y-70434184D01*
X91866554Y-70434181D01*
X91869157Y-70428601D01*
X91875479Y-70413338D01*
X91877587Y-70407546D01*
X91877588Y-70407545D01*
X91884607Y-70367731D01*
X91885798Y-70362363D01*
X91896263Y-70323311D01*
X91896263Y-70323310D01*
X91896264Y-70323307D01*
X91892739Y-70283025D01*
X91892500Y-70277540D01*
X91892500Y-60007637D01*
X91912502Y-59939516D01*
X91966158Y-59893023D01*
X92036432Y-59882919D01*
X92101012Y-59912413D01*
X92103386Y-59914522D01*
X92132959Y-59941481D01*
X92132960Y-59941482D01*
X92306351Y-60048841D01*
X92306354Y-60048842D01*
X92306363Y-60048848D01*
X92496544Y-60122524D01*
X92697024Y-60160000D01*
X92697026Y-60160000D01*
X92900974Y-60160000D01*
X92900976Y-60160000D01*
X93101456Y-60122524D01*
X93240426Y-60068686D01*
X93311172Y-60062730D01*
X93362365Y-60089851D01*
X93359479Y-60081065D01*
X93377307Y-60012344D01*
X93419083Y-59969936D01*
X93465041Y-59941481D01*
X93615764Y-59804079D01*
X93738673Y-59641321D01*
X93829582Y-59458750D01*
X93885397Y-59262583D01*
X93904215Y-59059500D01*
X93885397Y-58856417D01*
X93829582Y-58660250D01*
X93738673Y-58477679D01*
X93738670Y-58477675D01*
X93615765Y-58314921D01*
X93465040Y-58177518D01*
X93465039Y-58177517D01*
X93291648Y-58070158D01*
X93291641Y-58070154D01*
X93291637Y-58070152D01*
X93149138Y-58014948D01*
X93101457Y-57996476D01*
X92994887Y-57976555D01*
X92900976Y-57959000D01*
X92697024Y-57959000D01*
X92634793Y-57970633D01*
X92496542Y-57996476D01*
X92387016Y-58038907D01*
X92306363Y-58070152D01*
X92306362Y-58070152D01*
X92306361Y-58070153D01*
X92306359Y-58070154D01*
X92248487Y-58105987D01*
X92180040Y-58124841D01*
X92112265Y-58103697D01*
X92066680Y-58049268D01*
X92057758Y-57978834D01*
X92088333Y-57914758D01*
X92093049Y-57909776D01*
X92410618Y-57592206D01*
X92472929Y-57558183D01*
X92516154Y-57556381D01*
X92583000Y-57565182D01*
X92739762Y-57544544D01*
X92885841Y-57484036D01*
X93011282Y-57387782D01*
X93107536Y-57262341D01*
X93168044Y-57116262D01*
X93188682Y-56959500D01*
X93168044Y-56802738D01*
X93168042Y-56802735D01*
X93167693Y-56800078D01*
X93178632Y-56729929D01*
X93225760Y-56676830D01*
X93294114Y-56657640D01*
X93361992Y-56678451D01*
X93381710Y-56694536D01*
X94506595Y-57819421D01*
X94540621Y-57881733D01*
X94543500Y-57908516D01*
X94543500Y-59312484D01*
X94523498Y-59380605D01*
X94506595Y-59401579D01*
X93755079Y-60153095D01*
X93692767Y-60187121D01*
X93665984Y-60190000D01*
X93615960Y-60190000D01*
X93610475Y-60189760D01*
X93580308Y-60187121D01*
X93570195Y-60186236D01*
X93570192Y-60186236D01*
X93531126Y-60196703D01*
X93525762Y-60197892D01*
X93507299Y-60201148D01*
X93436740Y-60193281D01*
X93408003Y-60169936D01*
X93404543Y-60228719D01*
X93382462Y-60267172D01*
X93360548Y-60293286D01*
X93356834Y-60297339D01*
X92364843Y-61289329D01*
X92360792Y-61293042D01*
X92329806Y-61319044D01*
X92329804Y-61319047D01*
X92309589Y-61354058D01*
X92306638Y-61358691D01*
X92283445Y-61391816D01*
X92280873Y-61397332D01*
X92274493Y-61412735D01*
X92272412Y-61418452D01*
X92265392Y-61458261D01*
X92264203Y-61463626D01*
X92253736Y-61502692D01*
X92253736Y-61502693D01*
X92256164Y-61530447D01*
X92257260Y-61542965D01*
X92257500Y-61548459D01*
X92257500Y-70404539D01*
X92257260Y-70410026D01*
X92256376Y-70420137D01*
X92253736Y-70450304D01*
X92253736Y-70450306D01*
X92264203Y-70489372D01*
X92265393Y-70494740D01*
X92272412Y-70534547D01*
X92274505Y-70540296D01*
X92280866Y-70555652D01*
X92283445Y-70561183D01*
X92283446Y-70561184D01*
X92302442Y-70588314D01*
X92306634Y-70594300D01*
X92309587Y-70598936D01*
X92329806Y-70633955D01*
X92360787Y-70659951D01*
X92364829Y-70663655D01*
X95299964Y-73598790D01*
X98062595Y-76361421D01*
X98096621Y-76423733D01*
X98099500Y-76450516D01*
X98099500Y-93856483D01*
X98079498Y-93924604D01*
X98062595Y-93945578D01*
X93126843Y-98881329D01*
X93122792Y-98885042D01*
X93091806Y-98911044D01*
X93091804Y-98911047D01*
X93071589Y-98946058D01*
X93068638Y-98950691D01*
X93045445Y-98983816D01*
X93042873Y-98989332D01*
X93036493Y-99004735D01*
X93034412Y-99010452D01*
X93027392Y-99050261D01*
X93026203Y-99055626D01*
X93015736Y-99094692D01*
X93015736Y-99094694D01*
X93019260Y-99134965D01*
X93019500Y-99140459D01*
X93019500Y-111362539D01*
X93019260Y-111368032D01*
X93015736Y-111408304D01*
X93015736Y-111408306D01*
X93026203Y-111447372D01*
X93027393Y-111452740D01*
X93034412Y-111492547D01*
X93036505Y-111498296D01*
X93042866Y-111513652D01*
X93045445Y-111519183D01*
X93068634Y-111552300D01*
X93071587Y-111556936D01*
X93091806Y-111591955D01*
X93122787Y-111617951D01*
X93126829Y-111621655D01*
X94079639Y-112574465D01*
X95006818Y-113501644D01*
X95040844Y-113563956D01*
X95043244Y-113601720D01*
X95023666Y-113825499D01*
X95042965Y-114046090D01*
X95100276Y-114259977D01*
X95100280Y-114259987D01*
X95193854Y-114460661D01*
X95320868Y-114642055D01*
X95320871Y-114642059D01*
X95477440Y-114798628D01*
X95477444Y-114798631D01*
X95477445Y-114798632D01*
X95658833Y-114925642D01*
X95658838Y-114925644D01*
X95658838Y-114925645D01*
X95801843Y-114992328D01*
X95859520Y-115019223D01*
X96073409Y-115076535D01*
X96294000Y-115095834D01*
X96514591Y-115076535D01*
X96728480Y-115019223D01*
X96929167Y-114925642D01*
X97110555Y-114798632D01*
X97267132Y-114642055D01*
X97394142Y-114460667D01*
X97487723Y-114259980D01*
X97545035Y-114046091D01*
X97564334Y-113825500D01*
X97545035Y-113604909D01*
X97487723Y-113391020D01*
X97460828Y-113333343D01*
X97394145Y-113190338D01*
X97394142Y-113190335D01*
X97394142Y-113190333D01*
X97267132Y-113008945D01*
X97267131Y-113008944D01*
X97267128Y-113008940D01*
X97110559Y-112852371D01*
X97110555Y-112852368D01*
X97110494Y-112852325D01*
X96929167Y-112725358D01*
X96929161Y-112725355D01*
X96929161Y-112725354D01*
X96728487Y-112631780D01*
X96728483Y-112631778D01*
X96728480Y-112631777D01*
X96728478Y-112631776D01*
X96728477Y-112631776D01*
X96633351Y-112606287D01*
X96514591Y-112574465D01*
X96294000Y-112555166D01*
X96073409Y-112574465D01*
X95859522Y-112631776D01*
X95859512Y-112631780D01*
X95658838Y-112725354D01*
X95658838Y-112725355D01*
X95658835Y-112725357D01*
X95658833Y-112725358D01*
X95634118Y-112742664D01*
X95477444Y-112852368D01*
X95477442Y-112852369D01*
X95466907Y-112862904D01*
X95404593Y-112896924D01*
X95333777Y-112891855D01*
X95288723Y-112862897D01*
X93707405Y-111281578D01*
X93673379Y-111219266D01*
X93670500Y-111192483D01*
X93670500Y-105525500D01*
X95023666Y-105525500D01*
X95042965Y-105746091D01*
X95060998Y-105813389D01*
X95100276Y-105959977D01*
X95100280Y-105959987D01*
X95193854Y-106160661D01*
X95320868Y-106342055D01*
X95320871Y-106342059D01*
X95477440Y-106498628D01*
X95477444Y-106498631D01*
X95477445Y-106498632D01*
X95658833Y-106625642D01*
X95658838Y-106625644D01*
X95658838Y-106625645D01*
X95801843Y-106692328D01*
X95859520Y-106719223D01*
X96073409Y-106776535D01*
X96294000Y-106795834D01*
X96514591Y-106776535D01*
X96728480Y-106719223D01*
X96929167Y-106625642D01*
X97110555Y-106498632D01*
X97267132Y-106342055D01*
X97394142Y-106160667D01*
X97487723Y-105959980D01*
X97545035Y-105746091D01*
X97564334Y-105525500D01*
X97545035Y-105304909D01*
X97487723Y-105091020D01*
X97460828Y-105033343D01*
X97394145Y-104890338D01*
X97394142Y-104890335D01*
X97394142Y-104890333D01*
X97267132Y-104708945D01*
X97267131Y-104708944D01*
X97267128Y-104708940D01*
X97110559Y-104552371D01*
X97110555Y-104552368D01*
X97110554Y-104552368D01*
X96929167Y-104425358D01*
X96929161Y-104425355D01*
X96929161Y-104425354D01*
X96728487Y-104331780D01*
X96728483Y-104331778D01*
X96728480Y-104331777D01*
X96728478Y-104331776D01*
X96728477Y-104331776D01*
X96638080Y-104307554D01*
X96514591Y-104274465D01*
X96294000Y-104255166D01*
X96073409Y-104274465D01*
X95859522Y-104331776D01*
X95859512Y-104331780D01*
X95658838Y-104425354D01*
X95658838Y-104425355D01*
X95658835Y-104425357D01*
X95658833Y-104425358D01*
X95583177Y-104478333D01*
X95477444Y-104552368D01*
X95477440Y-104552371D01*
X95320871Y-104708940D01*
X95320868Y-104708944D01*
X95246833Y-104814677D01*
X95193858Y-104890333D01*
X95193857Y-104890335D01*
X95193855Y-104890338D01*
X95193854Y-104890338D01*
X95100280Y-105091012D01*
X95100277Y-105091020D01*
X95042965Y-105304909D01*
X95023666Y-105525500D01*
X93670500Y-105525500D01*
X93670500Y-99310515D01*
X93690502Y-99242394D01*
X93707405Y-99221420D01*
X94440325Y-98488500D01*
X96215518Y-98488500D01*
X96235421Y-98766790D01*
X96294728Y-99039421D01*
X96392231Y-99300836D01*
X96392232Y-99300840D01*
X96525942Y-99545710D01*
X96525944Y-99545713D01*
X96679092Y-99750296D01*
X96693146Y-99769069D01*
X96693154Y-99769078D01*
X96890421Y-99966345D01*
X96890430Y-99966353D01*
X96890432Y-99966355D01*
X97113787Y-100133556D01*
X97113789Y-100133557D01*
X97228096Y-100195974D01*
X97358663Y-100267269D01*
X97620077Y-100364771D01*
X97892706Y-100424078D01*
X98171000Y-100443982D01*
X98449294Y-100424078D01*
X98721923Y-100364771D01*
X98983337Y-100267269D01*
X99228213Y-100133556D01*
X99451568Y-99966355D01*
X99648855Y-99769068D01*
X99816056Y-99545713D01*
X99949769Y-99300837D01*
X100047271Y-99039423D01*
X100106578Y-98766794D01*
X100126482Y-98488500D01*
X100106578Y-98210206D01*
X100047271Y-97937577D01*
X99949769Y-97676163D01*
X99816056Y-97431287D01*
X99648855Y-97207932D01*
X99648853Y-97207930D01*
X99648845Y-97207921D01*
X99451578Y-97010654D01*
X99451569Y-97010646D01*
X99228210Y-96843442D01*
X98983340Y-96709732D01*
X98983337Y-96709731D01*
X98827834Y-96651731D01*
X98721921Y-96612228D01*
X98449290Y-96552921D01*
X98196340Y-96534830D01*
X98171000Y-96533018D01*
X98170999Y-96533018D01*
X97892709Y-96552921D01*
X97620078Y-96612228D01*
X97358663Y-96709731D01*
X97358659Y-96709732D01*
X97113789Y-96843442D01*
X96890430Y-97010646D01*
X96890421Y-97010654D01*
X96693154Y-97207921D01*
X96693146Y-97207930D01*
X96525942Y-97431289D01*
X96392232Y-97676159D01*
X96392231Y-97676163D01*
X96294728Y-97937578D01*
X96235421Y-98210209D01*
X96215518Y-98488500D01*
X94440325Y-98488500D01*
X94890457Y-98038368D01*
X98643186Y-94285638D01*
X98647204Y-94281956D01*
X98678194Y-94255955D01*
X98698415Y-94220928D01*
X98701352Y-94216317D01*
X98724554Y-94183184D01*
X98724554Y-94183181D01*
X98727157Y-94177601D01*
X98733479Y-94162338D01*
X98735587Y-94156546D01*
X98735588Y-94156545D01*
X98742607Y-94116731D01*
X98743798Y-94111363D01*
X98746477Y-94101368D01*
X98754264Y-94072307D01*
X98750739Y-94032025D01*
X98750500Y-94026540D01*
X98750500Y-76280459D01*
X98750740Y-76274965D01*
X98754264Y-76234693D01*
X98743792Y-76195614D01*
X98742610Y-76190282D01*
X98735588Y-76150455D01*
X98735585Y-76150449D01*
X98733485Y-76144681D01*
X98727144Y-76129370D01*
X98724554Y-76123816D01*
X98701363Y-76090696D01*
X98698409Y-76086058D01*
X98682405Y-76058339D01*
X98678194Y-76051045D01*
X98678193Y-76051044D01*
X98647212Y-76025047D01*
X98643169Y-76021343D01*
X92945404Y-70323578D01*
X92911379Y-70261267D01*
X92908500Y-70234484D01*
X92908500Y-69659503D01*
X97419659Y-69659503D01*
X97438974Y-69855624D01*
X97438974Y-69855626D01*
X97496186Y-70044228D01*
X97577619Y-70196578D01*
X97589090Y-70218038D01*
X97714117Y-70370383D01*
X97866462Y-70495410D01*
X98040273Y-70588314D01*
X98228868Y-70645524D01*
X98228872Y-70645524D01*
X98228874Y-70645525D01*
X98424997Y-70664841D01*
X98425000Y-70664841D01*
X98425003Y-70664841D01*
X98621124Y-70645525D01*
X98621126Y-70645525D01*
X98621127Y-70645524D01*
X98621132Y-70645524D01*
X98809727Y-70588314D01*
X98983538Y-70495410D01*
X99135883Y-70370383D01*
X99260910Y-70218038D01*
X99353814Y-70044227D01*
X99411024Y-69855632D01*
X99430341Y-69659500D01*
X99411025Y-69463375D01*
X99411025Y-69463373D01*
X99411024Y-69463370D01*
X99411024Y-69463368D01*
X99353814Y-69274773D01*
X99260910Y-69100962D01*
X99135883Y-68948617D01*
X98983538Y-68823590D01*
X98983538Y-68823589D01*
X98809728Y-68730686D01*
X98621125Y-68673474D01*
X98425003Y-68654159D01*
X98424997Y-68654159D01*
X98228875Y-68673474D01*
X98228873Y-68673474D01*
X98040271Y-68730686D01*
X97866461Y-68823590D01*
X97714117Y-68948617D01*
X97589090Y-69100961D01*
X97496186Y-69274771D01*
X97438974Y-69463373D01*
X97438974Y-69463375D01*
X97419659Y-69659496D01*
X97419659Y-69659503D01*
X92908500Y-69659503D01*
X92908500Y-61718516D01*
X92928502Y-61650395D01*
X92945405Y-61629420D01*
X93696922Y-60877904D01*
X93759234Y-60843879D01*
X93786017Y-60841000D01*
X93836040Y-60841000D01*
X93841525Y-60841239D01*
X93881807Y-60844764D01*
X93920870Y-60834296D01*
X93926231Y-60833107D01*
X93966045Y-60826088D01*
X93966047Y-60826086D01*
X93971838Y-60823979D01*
X93987101Y-60817657D01*
X93992681Y-60815055D01*
X93992681Y-60815054D01*
X93992684Y-60815054D01*
X94025817Y-60791852D01*
X94030428Y-60788915D01*
X94065455Y-60768694D01*
X94091453Y-60737709D01*
X94095146Y-60733678D01*
X95087186Y-59741638D01*
X95091204Y-59737956D01*
X95122194Y-59711955D01*
X95142415Y-59676928D01*
X95145352Y-59672317D01*
X95168554Y-59639184D01*
X95168554Y-59639181D01*
X95171157Y-59633601D01*
X95177479Y-59618338D01*
X95179587Y-59612546D01*
X95179588Y-59612545D01*
X95186607Y-59572731D01*
X95187798Y-59567363D01*
X95198263Y-59528311D01*
X95198264Y-59528307D01*
X95194737Y-59488000D01*
X95194500Y-59482562D01*
X95194500Y-57738448D01*
X95194740Y-57732955D01*
X95194818Y-57732068D01*
X95198263Y-57692693D01*
X95187796Y-57653631D01*
X95186610Y-57648284D01*
X95179588Y-57608455D01*
X95179585Y-57608449D01*
X95177486Y-57602682D01*
X95171146Y-57587376D01*
X95168555Y-57581820D01*
X95168554Y-57581816D01*
X95145354Y-57548683D01*
X95142410Y-57544061D01*
X95122195Y-57509047D01*
X95122194Y-57509045D01*
X95091215Y-57483050D01*
X95087175Y-57479348D01*
X88627405Y-51019578D01*
X88593379Y-50957266D01*
X88590500Y-50930483D01*
X88590500Y-49165948D01*
X88590740Y-49160455D01*
X88591601Y-49150613D01*
X88594263Y-49120193D01*
X88583794Y-49081126D01*
X88582610Y-49075779D01*
X88575588Y-49035955D01*
X88573492Y-49030196D01*
X88567146Y-49014876D01*
X88564553Y-49009316D01*
X88541364Y-48976198D01*
X88538410Y-48971561D01*
X88518195Y-48936547D01*
X88518194Y-48936545D01*
X88487215Y-48910550D01*
X88483175Y-48906848D01*
X87108404Y-47532077D01*
X87074378Y-47469765D01*
X87071500Y-47442991D01*
X87071500Y-46245419D01*
X87091502Y-46177298D01*
X87145158Y-46130805D01*
X87149286Y-46129009D01*
X87149951Y-46128733D01*
X87149951Y-46128732D01*
X87149954Y-46128732D01*
X87332450Y-46031185D01*
X87492410Y-45899910D01*
X87623685Y-45739950D01*
X87721232Y-45557454D01*
X87781300Y-45359434D01*
X87783880Y-45333246D01*
X87801583Y-45153503D01*
X90770417Y-45153503D01*
X90790698Y-45359427D01*
X90850768Y-45557454D01*
X90876499Y-45605594D01*
X90948315Y-45739950D01*
X91079590Y-45899910D01*
X91239550Y-46031185D01*
X91334109Y-46081728D01*
X91422048Y-46128733D01*
X91422714Y-46129009D01*
X91423009Y-46129247D01*
X91427505Y-46131650D01*
X91427049Y-46132502D01*
X91477997Y-46173555D01*
X91500420Y-46240918D01*
X91500500Y-46245419D01*
X91500500Y-49020377D01*
X91480498Y-49088498D01*
X91451205Y-49120339D01*
X91392718Y-49165217D01*
X91296465Y-49290657D01*
X91296463Y-49290660D01*
X91235955Y-49436739D01*
X91215318Y-49593499D01*
X91215318Y-49593500D01*
X91235955Y-49750260D01*
X91291800Y-49885080D01*
X91296464Y-49896341D01*
X91392718Y-50021782D01*
X91518159Y-50118036D01*
X91664238Y-50178544D01*
X91821000Y-50199182D01*
X91977762Y-50178544D01*
X92123841Y-50118036D01*
X92249282Y-50021782D01*
X92345536Y-49896341D01*
X92406044Y-49750262D01*
X92426682Y-49593500D01*
X92406044Y-49436738D01*
X92345536Y-49290659D01*
X92249282Y-49165218D01*
X92200794Y-49128012D01*
X92158929Y-49070676D01*
X92151500Y-49028051D01*
X92151500Y-47307500D01*
X92485318Y-47307500D01*
X92505955Y-47464260D01*
X92519263Y-47496387D01*
X92566464Y-47610341D01*
X92635665Y-47700525D01*
X92662719Y-47735783D01*
X92716203Y-47776822D01*
X92758071Y-47834159D01*
X92765500Y-47876785D01*
X92765500Y-54148539D01*
X92765260Y-54154026D01*
X92764256Y-54165500D01*
X92761736Y-54194304D01*
X92761736Y-54194306D01*
X92772203Y-54233372D01*
X92773393Y-54238740D01*
X92780412Y-54278547D01*
X92782505Y-54284296D01*
X92788866Y-54299652D01*
X92791445Y-54305183D01*
X92814634Y-54338300D01*
X92817587Y-54342936D01*
X92837806Y-54377955D01*
X92868787Y-54403951D01*
X92872829Y-54407655D01*
X95573396Y-57108222D01*
X95607421Y-57170532D01*
X95610300Y-57197315D01*
X95610300Y-61323033D01*
X95590298Y-61391154D01*
X95536642Y-61437647D01*
X95466368Y-61447751D01*
X95401788Y-61418257D01*
X95386901Y-61402967D01*
X95325883Y-61328617D01*
X95173538Y-61203590D01*
X94999728Y-61110686D01*
X94811125Y-61053474D01*
X94615003Y-61034159D01*
X94614997Y-61034159D01*
X94418875Y-61053474D01*
X94418873Y-61053474D01*
X94230271Y-61110686D01*
X94056461Y-61203590D01*
X93904117Y-61328617D01*
X93779090Y-61480961D01*
X93686186Y-61654771D01*
X93628974Y-61843373D01*
X93628974Y-61843375D01*
X93609659Y-62039496D01*
X93609659Y-62039503D01*
X93628974Y-62235624D01*
X93628974Y-62235626D01*
X93686186Y-62424228D01*
X93751045Y-62545569D01*
X93779090Y-62598038D01*
X93904117Y-62750383D01*
X94056462Y-62875410D01*
X94230273Y-62968314D01*
X94418868Y-63025524D01*
X94418872Y-63025524D01*
X94418874Y-63025525D01*
X94614997Y-63044841D01*
X94615000Y-63044841D01*
X94615003Y-63044841D01*
X94811124Y-63025525D01*
X94811126Y-63025525D01*
X94811127Y-63025524D01*
X94811132Y-63025524D01*
X94999727Y-62968314D01*
X95173538Y-62875410D01*
X95325883Y-62750383D01*
X95337370Y-62736387D01*
X95386901Y-62676033D01*
X95445578Y-62636064D01*
X95516549Y-62634163D01*
X95577281Y-62670934D01*
X95608493Y-62734702D01*
X95610300Y-62755966D01*
X95610300Y-64232339D01*
X95610060Y-64237832D01*
X95606536Y-64278104D01*
X95606536Y-64278106D01*
X95617003Y-64317172D01*
X95618193Y-64322540D01*
X95625212Y-64362347D01*
X95627305Y-64368096D01*
X95633666Y-64383452D01*
X95636245Y-64388983D01*
X95659434Y-64422100D01*
X95662387Y-64426736D01*
X95682606Y-64461755D01*
X95713587Y-64487751D01*
X95717629Y-64491455D01*
X97293844Y-66067670D01*
X97297548Y-66071712D01*
X97323545Y-66102694D01*
X97349777Y-66117839D01*
X97358558Y-66122909D01*
X97363196Y-66125863D01*
X97396316Y-66149054D01*
X97401870Y-66151644D01*
X97417186Y-66157988D01*
X97420928Y-66159350D01*
X97421511Y-66159779D01*
X97424726Y-66161111D01*
X97432498Y-66165598D01*
X97431577Y-66167191D01*
X97478099Y-66201445D01*
X97494243Y-66229535D01*
X97496185Y-66234223D01*
X97496186Y-66234227D01*
X97589090Y-66408038D01*
X97714117Y-66560383D01*
X97866462Y-66685410D01*
X98040273Y-66778314D01*
X98228868Y-66835524D01*
X98228872Y-66835524D01*
X98228874Y-66835525D01*
X98424997Y-66854841D01*
X98425000Y-66854841D01*
X98425003Y-66854841D01*
X98621124Y-66835525D01*
X98621126Y-66835525D01*
X98621127Y-66835524D01*
X98621132Y-66835524D01*
X98809727Y-66778314D01*
X98983538Y-66685410D01*
X99135883Y-66560383D01*
X99260910Y-66408038D01*
X99353814Y-66234227D01*
X99411024Y-66045632D01*
X99430341Y-65849500D01*
X99425363Y-65798961D01*
X99411025Y-65653375D01*
X99411025Y-65653373D01*
X99411024Y-65653370D01*
X99411024Y-65653368D01*
X99353814Y-65464773D01*
X99260910Y-65290962D01*
X99135883Y-65138617D01*
X98983538Y-65013590D01*
X98983537Y-65013589D01*
X98809728Y-64920686D01*
X98621125Y-64863474D01*
X98425003Y-64844159D01*
X98424997Y-64844159D01*
X98228875Y-64863474D01*
X98228873Y-64863474D01*
X98040271Y-64920686D01*
X97866461Y-65013590D01*
X97714116Y-65138617D01*
X97609082Y-65266601D01*
X97550404Y-65306570D01*
X97479433Y-65308470D01*
X97422588Y-65275762D01*
X96298205Y-64151378D01*
X96264179Y-64089066D01*
X96261300Y-64062283D01*
X96261300Y-63469884D01*
X96281302Y-63401763D01*
X96334958Y-63355270D01*
X96405232Y-63345166D01*
X96469812Y-63374660D01*
X96497886Y-63409497D01*
X96576744Y-63553913D01*
X96743945Y-63777268D01*
X96743946Y-63777269D01*
X96743954Y-63777278D01*
X96941221Y-63974545D01*
X96941230Y-63974553D01*
X96941232Y-63974555D01*
X97164587Y-64141756D01*
X97164589Y-64141757D01*
X97330476Y-64232339D01*
X97409463Y-64275469D01*
X97670877Y-64372971D01*
X97943506Y-64432278D01*
X98221800Y-64452182D01*
X98500094Y-64432278D01*
X98772723Y-64372971D01*
X99034137Y-64275469D01*
X99279013Y-64141756D01*
X99502368Y-63974555D01*
X99699655Y-63777268D01*
X99866856Y-63553913D01*
X100000569Y-63309037D01*
X100098071Y-63047623D01*
X100157378Y-62774994D01*
X100177282Y-62496700D01*
X100157378Y-62218406D01*
X100098071Y-61945777D01*
X100000569Y-61684363D01*
X99990719Y-61666325D01*
X99877107Y-61458261D01*
X99866856Y-61439487D01*
X99699655Y-61216132D01*
X99699653Y-61216130D01*
X99699645Y-61216121D01*
X99502378Y-61018854D01*
X99502369Y-61018846D01*
X99279010Y-60851642D01*
X99034140Y-60717932D01*
X99034137Y-60717931D01*
X98805883Y-60632797D01*
X98772721Y-60620428D01*
X98500090Y-60561121D01*
X98221800Y-60541218D01*
X97943509Y-60561121D01*
X97670878Y-60620428D01*
X97409463Y-60717931D01*
X97409459Y-60717932D01*
X97164589Y-60851642D01*
X96941230Y-61018846D01*
X96941221Y-61018854D01*
X96743954Y-61216121D01*
X96743946Y-61216130D01*
X96576742Y-61439489D01*
X96497887Y-61583901D01*
X96447685Y-61634103D01*
X96378311Y-61649194D01*
X96311791Y-61624383D01*
X96269244Y-61567547D01*
X96261300Y-61523515D01*
X96261300Y-58229503D01*
X98054659Y-58229503D01*
X98073974Y-58425624D01*
X98073974Y-58425626D01*
X98131186Y-58614228D01*
X98155788Y-58660254D01*
X98224090Y-58788038D01*
X98349117Y-58940383D01*
X98501462Y-59065410D01*
X98675273Y-59158314D01*
X98863868Y-59215524D01*
X98863872Y-59215524D01*
X98863874Y-59215525D01*
X99059997Y-59234841D01*
X99060000Y-59234841D01*
X99060003Y-59234841D01*
X99256124Y-59215525D01*
X99256126Y-59215525D01*
X99256127Y-59215524D01*
X99256132Y-59215524D01*
X99444727Y-59158314D01*
X99618538Y-59065410D01*
X99770883Y-58940383D01*
X99895910Y-58788038D01*
X99988814Y-58614227D01*
X100046024Y-58425632D01*
X100049821Y-58387078D01*
X100065341Y-58229503D01*
X100065341Y-58229496D01*
X100046025Y-58033375D01*
X100046025Y-58033373D01*
X100046024Y-58033370D01*
X100046024Y-58033368D01*
X99988814Y-57844773D01*
X99895910Y-57670962D01*
X99770883Y-57518617D01*
X99618538Y-57393590D01*
X99566504Y-57365777D01*
X99444728Y-57300686D01*
X99256125Y-57243474D01*
X99060003Y-57224159D01*
X99059997Y-57224159D01*
X98863875Y-57243474D01*
X98863873Y-57243474D01*
X98675271Y-57300686D01*
X98501461Y-57393590D01*
X98349117Y-57518617D01*
X98224090Y-57670961D01*
X98131186Y-57844771D01*
X98073974Y-58033373D01*
X98073974Y-58033375D01*
X98054659Y-58229496D01*
X98054659Y-58229503D01*
X96261300Y-58229503D01*
X96261300Y-57027259D01*
X96261540Y-57021765D01*
X96265064Y-56981493D01*
X96254592Y-56942414D01*
X96253410Y-56937082D01*
X96246388Y-56897255D01*
X96246385Y-56897249D01*
X96244285Y-56891481D01*
X96237944Y-56876170D01*
X96235354Y-56870616D01*
X96212163Y-56837496D01*
X96209209Y-56832858D01*
X96201679Y-56819816D01*
X96188994Y-56797845D01*
X96188993Y-56797844D01*
X96158012Y-56771847D01*
X96153969Y-56768143D01*
X93453402Y-54067575D01*
X93419378Y-54005266D01*
X93416500Y-53978492D01*
X93416500Y-52468923D01*
X93436502Y-52400803D01*
X93490158Y-52354310D01*
X93560432Y-52344207D01*
X93625013Y-52373700D01*
X93658417Y-52419536D01*
X93712749Y-52547058D01*
X93847413Y-52760011D01*
X93847414Y-52760012D01*
X94014481Y-52948592D01*
X94014484Y-52948595D01*
X94014487Y-52948598D01*
X94209651Y-53107945D01*
X94427849Y-53233921D01*
X94663429Y-53323265D01*
X94910291Y-53373662D01*
X95162039Y-53383807D01*
X95412156Y-53353438D01*
X95654161Y-53283340D01*
X95881788Y-53175329D01*
X95881788Y-53175328D01*
X95881790Y-53175328D01*
X96089133Y-53032210D01*
X96089142Y-53032204D01*
X96270851Y-52857670D01*
X96422210Y-52656247D01*
X96539299Y-52433154D01*
X96619084Y-52194167D01*
X96659500Y-51945477D01*
X96659500Y-51236611D01*
X96659010Y-51230545D01*
X96644303Y-51048366D01*
X96628111Y-50982673D01*
X96584007Y-50803732D01*
X96567677Y-50765405D01*
X96485250Y-50571941D01*
X96485250Y-50571940D01*
X96350589Y-50358992D01*
X96350587Y-50358990D01*
X96350586Y-50358988D01*
X96350585Y-50358987D01*
X96183518Y-50170407D01*
X96183515Y-50170404D01*
X96183513Y-50170402D01*
X96081106Y-50086789D01*
X95988353Y-50011058D01*
X95988351Y-50011057D01*
X95988349Y-50011055D01*
X95789659Y-49896342D01*
X95770153Y-49885080D01*
X95770152Y-49885079D01*
X95770151Y-49885079D01*
X95534571Y-49795735D01*
X95287709Y-49745338D01*
X95161834Y-49740265D01*
X95035962Y-49735193D01*
X95035953Y-49735193D01*
X94785843Y-49765561D01*
X94785841Y-49765562D01*
X94543849Y-49835656D01*
X94543845Y-49835657D01*
X94316209Y-49943671D01*
X94108866Y-50086789D01*
X94108849Y-50086803D01*
X93927152Y-50261326D01*
X93927142Y-50261337D01*
X93775788Y-50462755D01*
X93775786Y-50462757D01*
X93658694Y-50685858D01*
X93658404Y-50686539D01*
X93658218Y-50686763D01*
X93656341Y-50690342D01*
X93655595Y-50689950D01*
X93613288Y-50741358D01*
X93545697Y-50763082D01*
X93477091Y-50744816D01*
X93429251Y-50692358D01*
X93416500Y-50637127D01*
X93416500Y-47876784D01*
X93436502Y-47808664D01*
X93465797Y-47776822D01*
X93519282Y-47735782D01*
X93615536Y-47610341D01*
X93676044Y-47464262D01*
X93696682Y-47307500D01*
X93676044Y-47150738D01*
X93615536Y-47004659D01*
X93519282Y-46879218D01*
X93393841Y-46782964D01*
X93247762Y-46722456D01*
X93247760Y-46722455D01*
X93091000Y-46701818D01*
X92934239Y-46722455D01*
X92788160Y-46782963D01*
X92788157Y-46782965D01*
X92662718Y-46879218D01*
X92566465Y-47004657D01*
X92566463Y-47004660D01*
X92505955Y-47150739D01*
X92485318Y-47307499D01*
X92485318Y-47307500D01*
X92151500Y-47307500D01*
X92151500Y-46245419D01*
X92171502Y-46177298D01*
X92225158Y-46130805D01*
X92229286Y-46129009D01*
X92229951Y-46128733D01*
X92229951Y-46128732D01*
X92229954Y-46128732D01*
X92412450Y-46031185D01*
X92572410Y-45899910D01*
X92703685Y-45739950D01*
X92801232Y-45557454D01*
X92861300Y-45359434D01*
X92863880Y-45333246D01*
X92881583Y-45153503D01*
X93310417Y-45153503D01*
X93330698Y-45359427D01*
X93390768Y-45557454D01*
X93416499Y-45605594D01*
X93488315Y-45739950D01*
X93619590Y-45899910D01*
X93779550Y-46031185D01*
X93962046Y-46128732D01*
X94160066Y-46188800D01*
X94160070Y-46188800D01*
X94160072Y-46188801D01*
X94365997Y-46209083D01*
X94366000Y-46209083D01*
X94366003Y-46209083D01*
X94571927Y-46188801D01*
X94571928Y-46188800D01*
X94571934Y-46188800D01*
X94769954Y-46128732D01*
X94952450Y-46031185D01*
X95112410Y-45899910D01*
X95243685Y-45739950D01*
X95341232Y-45557454D01*
X95401300Y-45359434D01*
X95403880Y-45333246D01*
X95421583Y-45153503D01*
X95850417Y-45153503D01*
X95870698Y-45359427D01*
X95930768Y-45557454D01*
X95956499Y-45605594D01*
X96028315Y-45739950D01*
X96159590Y-45899910D01*
X96319550Y-46031185D01*
X96414109Y-46081728D01*
X96502048Y-46128733D01*
X96502714Y-46129009D01*
X96503009Y-46129247D01*
X96507505Y-46131650D01*
X96507049Y-46132502D01*
X96557997Y-46173555D01*
X96580420Y-46240918D01*
X96580500Y-46245419D01*
X96580500Y-49708539D01*
X96580260Y-49714032D01*
X96577482Y-49745785D01*
X96576736Y-49754307D01*
X96579752Y-49765562D01*
X96587203Y-49793372D01*
X96588393Y-49798740D01*
X96595412Y-49838547D01*
X96597505Y-49844296D01*
X96603866Y-49859652D01*
X96606445Y-49865183D01*
X96629634Y-49898300D01*
X96632587Y-49902936D01*
X96652806Y-49937955D01*
X96658545Y-49942771D01*
X96683787Y-49963951D01*
X96687829Y-49967655D01*
X98602563Y-51882389D01*
X100424795Y-53704621D01*
X100458821Y-53766933D01*
X100461700Y-53793716D01*
X100461700Y-71809283D01*
X100441698Y-71877404D01*
X100424795Y-71898378D01*
X98724382Y-73598790D01*
X98662070Y-73632816D01*
X98618842Y-73634617D01*
X98552002Y-73625818D01*
X98552000Y-73625818D01*
X98395239Y-73646455D01*
X98249160Y-73706963D01*
X98249157Y-73706965D01*
X98123718Y-73803218D01*
X98027465Y-73928657D01*
X98027463Y-73928660D01*
X97966955Y-74074739D01*
X97946318Y-74231499D01*
X97946318Y-74231500D01*
X97966955Y-74388260D01*
X97966956Y-74388262D01*
X98027464Y-74534341D01*
X98123718Y-74659782D01*
X98249159Y-74756036D01*
X98395238Y-74816544D01*
X98473618Y-74826862D01*
X98551999Y-74837182D01*
X98551999Y-74837181D01*
X98552000Y-74837182D01*
X98708762Y-74816544D01*
X98854841Y-74756036D01*
X98980282Y-74659782D01*
X99076536Y-74534341D01*
X99137044Y-74388262D01*
X99157682Y-74231500D01*
X99148881Y-74164656D01*
X99159820Y-74094510D01*
X99184705Y-74059119D01*
X101005392Y-72238433D01*
X101009410Y-72234751D01*
X101040394Y-72208755D01*
X101060621Y-72173718D01*
X101063552Y-72169117D01*
X101086754Y-72135984D01*
X101086754Y-72135981D01*
X101089347Y-72130422D01*
X101095680Y-72115133D01*
X101097785Y-72109349D01*
X101097788Y-72109345D01*
X101104811Y-72069506D01*
X101105991Y-72064184D01*
X101116463Y-72025107D01*
X101114562Y-72003373D01*
X101112940Y-71984829D01*
X101112700Y-71979337D01*
X101112700Y-53623659D01*
X101112940Y-53618165D01*
X101116464Y-53577893D01*
X101105992Y-53538814D01*
X101104810Y-53533482D01*
X101097788Y-53493655D01*
X101097785Y-53493649D01*
X101095685Y-53487881D01*
X101089344Y-53472570D01*
X101086754Y-53467016D01*
X101063563Y-53433896D01*
X101060609Y-53429258D01*
X101040393Y-53394244D01*
X101009412Y-53368247D01*
X101005369Y-53364543D01*
X98212766Y-50571940D01*
X97268405Y-49627578D01*
X97234379Y-49565266D01*
X97231500Y-49538483D01*
X97231500Y-48069503D01*
X98054659Y-48069503D01*
X98073974Y-48265624D01*
X98073974Y-48265626D01*
X98131186Y-48454228D01*
X98205362Y-48593000D01*
X98224090Y-48628038D01*
X98349117Y-48780383D01*
X98501462Y-48905410D01*
X98675273Y-48998314D01*
X98863868Y-49055524D01*
X98863872Y-49055524D01*
X98863874Y-49055525D01*
X99059997Y-49074841D01*
X99060000Y-49074841D01*
X99060003Y-49074841D01*
X99256124Y-49055525D01*
X99256126Y-49055525D01*
X99256127Y-49055524D01*
X99256132Y-49055524D01*
X99444727Y-48998314D01*
X99618538Y-48905410D01*
X99770883Y-48780383D01*
X99895910Y-48628038D01*
X99988814Y-48454227D01*
X100046024Y-48265632D01*
X100065341Y-48069500D01*
X100064175Y-48057666D01*
X100046025Y-47873375D01*
X100046025Y-47873373D01*
X100046024Y-47873370D01*
X100046024Y-47873368D01*
X99988814Y-47684773D01*
X99895910Y-47510962D01*
X99770883Y-47358617D01*
X99618538Y-47233590D01*
X99566504Y-47205777D01*
X99444728Y-47140686D01*
X99256125Y-47083474D01*
X99060003Y-47064159D01*
X99059997Y-47064159D01*
X98863875Y-47083474D01*
X98863873Y-47083474D01*
X98675271Y-47140686D01*
X98501461Y-47233590D01*
X98349117Y-47358617D01*
X98224090Y-47510961D01*
X98131186Y-47684771D01*
X98073974Y-47873373D01*
X98073974Y-47873375D01*
X98054659Y-48069496D01*
X98054659Y-48069503D01*
X97231500Y-48069503D01*
X97231500Y-46245419D01*
X97251502Y-46177298D01*
X97305158Y-46130805D01*
X97309286Y-46129009D01*
X97309951Y-46128733D01*
X97309951Y-46128732D01*
X97309954Y-46128732D01*
X97492450Y-46031185D01*
X97652410Y-45899910D01*
X97783685Y-45739950D01*
X97881232Y-45557454D01*
X97941300Y-45359434D01*
X97943880Y-45333246D01*
X97961583Y-45153503D01*
X97961583Y-45153496D01*
X97941301Y-44947572D01*
X97941300Y-44947570D01*
X97941300Y-44947566D01*
X97881232Y-44749546D01*
X97783685Y-44567050D01*
X97652410Y-44407090D01*
X97492450Y-44275815D01*
X97492448Y-44275814D01*
X97492447Y-44275813D01*
X97309954Y-44178268D01*
X97246264Y-44158948D01*
X97111934Y-44118200D01*
X97111933Y-44118199D01*
X97111927Y-44118198D01*
X96906003Y-44097917D01*
X96905997Y-44097917D01*
X96700072Y-44118198D01*
X96502045Y-44178268D01*
X96319552Y-44275813D01*
X96159590Y-44407090D01*
X96028313Y-44567052D01*
X95930768Y-44749545D01*
X95870698Y-44947572D01*
X95850417Y-45153496D01*
X95850417Y-45153503D01*
X95421583Y-45153503D01*
X95421583Y-45153496D01*
X95401301Y-44947572D01*
X95401300Y-44947570D01*
X95401300Y-44947566D01*
X95341232Y-44749546D01*
X95243685Y-44567050D01*
X95112410Y-44407090D01*
X94952450Y-44275815D01*
X94952448Y-44275814D01*
X94952447Y-44275813D01*
X94769954Y-44178268D01*
X94706264Y-44158948D01*
X94571934Y-44118200D01*
X94571933Y-44118199D01*
X94571927Y-44118198D01*
X94366003Y-44097917D01*
X94365997Y-44097917D01*
X94160072Y-44118198D01*
X93962045Y-44178268D01*
X93779552Y-44275813D01*
X93619590Y-44407090D01*
X93488313Y-44567052D01*
X93390768Y-44749545D01*
X93330698Y-44947572D01*
X93310417Y-45153496D01*
X93310417Y-45153503D01*
X92881583Y-45153503D01*
X92881583Y-45153496D01*
X92861301Y-44947572D01*
X92861300Y-44947570D01*
X92861300Y-44947566D01*
X92801232Y-44749546D01*
X92703685Y-44567050D01*
X92572410Y-44407090D01*
X92412450Y-44275815D01*
X92412448Y-44275814D01*
X92412447Y-44275813D01*
X92229954Y-44178268D01*
X92166264Y-44158948D01*
X92031934Y-44118200D01*
X92031933Y-44118199D01*
X92031927Y-44118198D01*
X91826003Y-44097917D01*
X91825997Y-44097917D01*
X91620072Y-44118198D01*
X91422045Y-44178268D01*
X91239552Y-44275813D01*
X91079590Y-44407090D01*
X90948313Y-44567052D01*
X90850768Y-44749545D01*
X90790698Y-44947572D01*
X90770417Y-45153496D01*
X90770417Y-45153503D01*
X87801583Y-45153503D01*
X87801583Y-45153496D01*
X87781301Y-44947572D01*
X87781300Y-44947570D01*
X87781300Y-44947566D01*
X87721232Y-44749546D01*
X87623685Y-44567050D01*
X87492410Y-44407090D01*
X87332450Y-44275815D01*
X87332448Y-44275814D01*
X87332447Y-44275813D01*
X87149954Y-44178268D01*
X87086264Y-44158948D01*
X86951934Y-44118200D01*
X86951933Y-44118199D01*
X86951927Y-44118198D01*
X86746003Y-44097917D01*
X86745997Y-44097917D01*
X86540072Y-44118198D01*
X86342045Y-44178268D01*
X86159552Y-44275813D01*
X86002433Y-44404756D01*
X85937085Y-44432509D01*
X85867107Y-44420527D01*
X85814716Y-44372614D01*
X85796500Y-44307356D01*
X85796500Y-43895461D01*
X85796740Y-43889969D01*
X85797867Y-43877077D01*
X85800263Y-43849693D01*
X85789796Y-43810631D01*
X85788610Y-43805284D01*
X85781588Y-43765455D01*
X85781585Y-43765449D01*
X85779486Y-43759682D01*
X85773146Y-43744376D01*
X85770555Y-43738820D01*
X85770554Y-43738816D01*
X85747354Y-43705683D01*
X85744410Y-43701061D01*
X85740190Y-43693752D01*
X85724194Y-43666045D01*
X85693215Y-43640050D01*
X85689175Y-43636348D01*
X85208266Y-43155440D01*
X85174241Y-43093128D01*
X85179306Y-43022313D01*
X85180955Y-43018121D01*
X85181223Y-43017469D01*
X85181232Y-43017454D01*
X85241300Y-42819434D01*
X85244533Y-42786617D01*
X85261583Y-42613503D01*
X85261583Y-42613496D01*
X85241301Y-42407572D01*
X85241300Y-42407570D01*
X85241300Y-42407566D01*
X85181232Y-42209546D01*
X85083685Y-42027050D01*
X84952410Y-41867090D01*
X84792450Y-41735815D01*
X84792448Y-41735814D01*
X84792447Y-41735813D01*
X84609954Y-41638268D01*
X84411927Y-41578198D01*
X84206003Y-41557917D01*
X84205997Y-41557917D01*
X84000072Y-41578198D01*
X83802045Y-41638268D01*
X83619552Y-41735813D01*
X83459590Y-41867090D01*
X83328313Y-42027052D01*
X83230768Y-42209545D01*
X83170698Y-42407572D01*
X83150417Y-42613496D01*
X83150417Y-42613503D01*
X77931304Y-42613503D01*
X77948682Y-42481500D01*
X77928044Y-42324738D01*
X77867536Y-42178659D01*
X77771282Y-42053218D01*
X77645841Y-41956964D01*
X77499762Y-41896456D01*
X77499760Y-41896455D01*
X77343000Y-41875818D01*
X77186239Y-41896455D01*
X77040160Y-41956963D01*
X77040157Y-41956965D01*
X76914718Y-42053218D01*
X76818465Y-42178657D01*
X76818463Y-42178660D01*
X76757955Y-42324739D01*
X76737318Y-42481499D01*
X76737318Y-42481501D01*
X76746117Y-42548342D01*
X76735177Y-42618491D01*
X76710290Y-42653882D01*
X75213077Y-44151096D01*
X75150767Y-44185120D01*
X75123984Y-44188000D01*
X74805500Y-44188000D01*
X74737379Y-44167998D01*
X74690886Y-44114342D01*
X74679500Y-44062000D01*
X74679500Y-43693753D01*
X74679499Y-43693749D01*
X74679474Y-43693624D01*
X74667867Y-43635269D01*
X74623552Y-43568948D01*
X74557231Y-43524633D01*
X74557228Y-43524632D01*
X74498750Y-43513000D01*
X74498748Y-43513000D01*
X72059252Y-43513000D01*
X72059249Y-43513000D01*
X72000771Y-43524632D01*
X72000768Y-43524633D01*
X71934448Y-43568948D01*
X71890133Y-43635268D01*
X71890132Y-43635271D01*
X71878500Y-43693749D01*
X71878500Y-45333250D01*
X52776499Y-45333250D01*
X52776499Y-44319512D01*
X52796501Y-44251395D01*
X52813399Y-44230426D01*
X53546322Y-43497503D01*
X69145659Y-43497503D01*
X69164974Y-43693624D01*
X69164974Y-43693626D01*
X69222186Y-43882228D01*
X69295534Y-44019452D01*
X69315090Y-44056038D01*
X69440117Y-44208383D01*
X69592462Y-44333410D01*
X69766273Y-44426314D01*
X69954868Y-44483524D01*
X69954872Y-44483524D01*
X69954874Y-44483525D01*
X70150997Y-44502841D01*
X70151000Y-44502841D01*
X70151003Y-44502841D01*
X70347124Y-44483525D01*
X70347126Y-44483525D01*
X70347127Y-44483524D01*
X70347132Y-44483524D01*
X70535727Y-44426314D01*
X70709538Y-44333410D01*
X70861883Y-44208383D01*
X70986910Y-44056038D01*
X71079814Y-43882227D01*
X71137024Y-43693632D01*
X71139741Y-43666045D01*
X71156341Y-43497503D01*
X71156341Y-43497496D01*
X71137025Y-43301375D01*
X71137025Y-43301373D01*
X71137024Y-43301370D01*
X71137024Y-43301368D01*
X71079814Y-43112773D01*
X70986910Y-42938962D01*
X70861883Y-42786617D01*
X70709538Y-42661590D01*
X70695117Y-42653882D01*
X70535728Y-42568686D01*
X70347125Y-42511474D01*
X70151003Y-42492159D01*
X70150997Y-42492159D01*
X69954875Y-42511474D01*
X69954873Y-42511474D01*
X69766271Y-42568686D01*
X69592461Y-42661590D01*
X69440117Y-42786617D01*
X69315090Y-42938961D01*
X69222186Y-43112771D01*
X69164974Y-43301373D01*
X69164974Y-43301375D01*
X69145659Y-43497496D01*
X69145659Y-43497503D01*
X53546322Y-43497503D01*
X55723921Y-41319905D01*
X55786233Y-41285879D01*
X55813016Y-41283000D01*
X84902984Y-41283000D01*
X84971105Y-41303002D01*
X84992079Y-41319905D01*
X85743733Y-42071559D01*
X85777759Y-42133871D01*
X85772694Y-42204686D01*
X85771047Y-42208871D01*
X85770769Y-42209540D01*
X85710698Y-42407572D01*
X85690417Y-42613496D01*
X85690417Y-42613503D01*
X85710698Y-42819427D01*
X85710699Y-42819433D01*
X85710700Y-42819434D01*
X85746958Y-42938961D01*
X85770768Y-43017454D01*
X85844523Y-43155440D01*
X85868315Y-43199950D01*
X85999590Y-43359910D01*
X86159550Y-43491185D01*
X86342046Y-43588732D01*
X86540066Y-43648800D01*
X86540070Y-43648800D01*
X86540072Y-43648801D01*
X86745997Y-43669083D01*
X86746000Y-43669083D01*
X86746003Y-43669083D01*
X86951927Y-43648801D01*
X86951928Y-43648800D01*
X86951934Y-43648800D01*
X87149954Y-43588732D01*
X87332450Y-43491185D01*
X87492410Y-43359910D01*
X87623685Y-43199950D01*
X87721232Y-43017454D01*
X87781300Y-42819434D01*
X87784533Y-42786617D01*
X87801583Y-42613503D01*
X88230417Y-42613503D01*
X88250698Y-42819427D01*
X88250699Y-42819433D01*
X88250700Y-42819434D01*
X88286958Y-42938961D01*
X88310768Y-43017454D01*
X88384523Y-43155440D01*
X88408315Y-43199950D01*
X88539590Y-43359910D01*
X88699550Y-43491185D01*
X88882046Y-43588732D01*
X89080066Y-43648800D01*
X89080070Y-43648800D01*
X89080072Y-43648801D01*
X89285997Y-43669083D01*
X89286000Y-43669083D01*
X89286003Y-43669083D01*
X89491927Y-43648801D01*
X89491928Y-43648800D01*
X89491934Y-43648800D01*
X89689954Y-43588732D01*
X89872450Y-43491185D01*
X90032410Y-43359910D01*
X90163685Y-43199950D01*
X90261232Y-43017454D01*
X90321300Y-42819434D01*
X90324533Y-42786617D01*
X90341583Y-42613503D01*
X90770417Y-42613503D01*
X90790698Y-42819427D01*
X90790699Y-42819433D01*
X90790700Y-42819434D01*
X90826958Y-42938961D01*
X90850768Y-43017454D01*
X90924523Y-43155440D01*
X90948315Y-43199950D01*
X91079590Y-43359910D01*
X91239550Y-43491185D01*
X91422046Y-43588732D01*
X91620066Y-43648800D01*
X91620070Y-43648800D01*
X91620072Y-43648801D01*
X91825997Y-43669083D01*
X91826000Y-43669083D01*
X91826003Y-43669083D01*
X92031927Y-43648801D01*
X92031928Y-43648800D01*
X92031934Y-43648800D01*
X92229954Y-43588732D01*
X92412450Y-43491185D01*
X92572410Y-43359910D01*
X92703685Y-43199950D01*
X92801232Y-43017454D01*
X92861300Y-42819434D01*
X92864533Y-42786617D01*
X92881583Y-42613503D01*
X93310417Y-42613503D01*
X93330698Y-42819427D01*
X93330699Y-42819433D01*
X93330700Y-42819434D01*
X93366958Y-42938961D01*
X93390768Y-43017454D01*
X93464523Y-43155440D01*
X93488315Y-43199950D01*
X93619590Y-43359910D01*
X93779550Y-43491185D01*
X93962046Y-43588732D01*
X94160066Y-43648800D01*
X94160070Y-43648800D01*
X94160072Y-43648801D01*
X94365997Y-43669083D01*
X94366000Y-43669083D01*
X94366003Y-43669083D01*
X94571927Y-43648801D01*
X94571928Y-43648800D01*
X94571934Y-43648800D01*
X94769954Y-43588732D01*
X94952450Y-43491185D01*
X95112410Y-43359910D01*
X95243685Y-43199950D01*
X95341232Y-43017454D01*
X95401300Y-42819434D01*
X95404533Y-42786617D01*
X95421583Y-42613503D01*
X95850417Y-42613503D01*
X95870698Y-42819427D01*
X95870699Y-42819433D01*
X95870700Y-42819434D01*
X95906958Y-42938961D01*
X95930768Y-43017454D01*
X96004523Y-43155440D01*
X96028315Y-43199950D01*
X96159590Y-43359910D01*
X96319550Y-43491185D01*
X96502046Y-43588732D01*
X96700066Y-43648800D01*
X96700070Y-43648800D01*
X96700072Y-43648801D01*
X96905997Y-43669083D01*
X96906000Y-43669083D01*
X96906003Y-43669083D01*
X97111927Y-43648801D01*
X97111928Y-43648800D01*
X97111934Y-43648800D01*
X97309954Y-43588732D01*
X97492450Y-43491185D01*
X97652410Y-43359910D01*
X97783685Y-43199950D01*
X97881232Y-43017454D01*
X97941300Y-42819434D01*
X97944533Y-42786617D01*
X97961583Y-42613503D01*
X97961583Y-42613496D01*
X97941301Y-42407572D01*
X97941300Y-42407570D01*
X97941300Y-42407566D01*
X97881232Y-42209546D01*
X97783685Y-42027050D01*
X97652410Y-41867090D01*
X97492450Y-41735815D01*
X97492448Y-41735814D01*
X97492447Y-41735813D01*
X97309954Y-41638268D01*
X97111927Y-41578198D01*
X96906003Y-41557917D01*
X96905997Y-41557917D01*
X96700072Y-41578198D01*
X96502045Y-41638268D01*
X96319552Y-41735813D01*
X96159590Y-41867090D01*
X96028313Y-42027052D01*
X95930768Y-42209545D01*
X95870698Y-42407572D01*
X95850417Y-42613496D01*
X95850417Y-42613503D01*
X95421583Y-42613503D01*
X95421583Y-42613496D01*
X95401301Y-42407572D01*
X95401300Y-42407570D01*
X95401300Y-42407566D01*
X95341232Y-42209546D01*
X95243685Y-42027050D01*
X95112410Y-41867090D01*
X94952450Y-41735815D01*
X94952448Y-41735814D01*
X94952447Y-41735813D01*
X94769954Y-41638268D01*
X94571927Y-41578198D01*
X94366003Y-41557917D01*
X94365997Y-41557917D01*
X94160072Y-41578198D01*
X93962045Y-41638268D01*
X93779552Y-41735813D01*
X93619590Y-41867090D01*
X93488313Y-42027052D01*
X93390768Y-42209545D01*
X93330698Y-42407572D01*
X93310417Y-42613496D01*
X93310417Y-42613503D01*
X92881583Y-42613503D01*
X92881583Y-42613496D01*
X92861301Y-42407572D01*
X92861300Y-42407570D01*
X92861300Y-42407566D01*
X92801232Y-42209546D01*
X92703685Y-42027050D01*
X92572410Y-41867090D01*
X92412450Y-41735815D01*
X92412448Y-41735814D01*
X92412447Y-41735813D01*
X92229954Y-41638268D01*
X92031927Y-41578198D01*
X91826003Y-41557917D01*
X91825997Y-41557917D01*
X91620072Y-41578198D01*
X91422045Y-41638268D01*
X91239552Y-41735813D01*
X91079590Y-41867090D01*
X90948313Y-42027052D01*
X90850768Y-42209545D01*
X90790698Y-42407572D01*
X90770417Y-42613496D01*
X90770417Y-42613503D01*
X90341583Y-42613503D01*
X90341583Y-42613496D01*
X90321301Y-42407572D01*
X90321300Y-42407570D01*
X90321300Y-42407566D01*
X90261232Y-42209546D01*
X90163685Y-42027050D01*
X90032410Y-41867090D01*
X89872450Y-41735815D01*
X89872448Y-41735814D01*
X89872447Y-41735813D01*
X89689954Y-41638268D01*
X89491927Y-41578198D01*
X89286003Y-41557917D01*
X89285997Y-41557917D01*
X89080072Y-41578198D01*
X88882045Y-41638268D01*
X88699552Y-41735813D01*
X88539590Y-41867090D01*
X88408313Y-42027052D01*
X88310768Y-42209545D01*
X88250698Y-42407572D01*
X88230417Y-42613496D01*
X88230417Y-42613503D01*
X87801583Y-42613503D01*
X87801583Y-42613496D01*
X87781301Y-42407572D01*
X87781300Y-42407570D01*
X87781300Y-42407566D01*
X87721232Y-42209546D01*
X87623685Y-42027050D01*
X87492410Y-41867090D01*
X87332450Y-41735815D01*
X87332448Y-41735814D01*
X87332447Y-41735813D01*
X87149954Y-41638268D01*
X86951927Y-41578198D01*
X86746003Y-41557917D01*
X86745997Y-41557917D01*
X86540072Y-41578198D01*
X86342040Y-41638269D01*
X86341371Y-41638547D01*
X86340991Y-41638587D01*
X86336122Y-41640065D01*
X86335841Y-41639141D01*
X86270781Y-41646136D01*
X86207295Y-41614356D01*
X86204059Y-41611233D01*
X85332165Y-40739339D01*
X85328450Y-40735286D01*
X85302454Y-40704305D01*
X85294007Y-40697217D01*
X85295238Y-40695749D01*
X85255554Y-40654126D01*
X85242122Y-40584412D01*
X85268513Y-40518502D01*
X85326347Y-40477323D01*
X85367387Y-40470396D01*
X101322383Y-40450159D01*
X101390526Y-40470075D01*
G37*
%TD.AperFunction*%
%TD*%
M02*
