M48
; DRILL file {KiCad 7.0.6} date Sun Oct 15 17:56:26 2023
; FORMAT={-:-/ absolute / inch / decimal}
; #@! TF.CreationDate,2023-10-15T17:56:26+01:00
; #@! TF.GenerationSoftware,Kicad,Pcbnew,7.0.6
; #@! TF.FileFunction,Plated,1,2,PTH
FMAT,2
INCH
; #@! TA.AperFunction,Plated,PTH,ViaDrill
T1C0.0157
; #@! TA.AperFunction,Plated,PTH,ComponentDrill
T2C0.0295
; #@! TA.AperFunction,Plated,PTH,ComponentDrill
T3C0.0315
; #@! TA.AperFunction,Plated,PTH,ComponentDrill
T4C0.0394
; #@! TA.AperFunction,Plated,PTH,ComponentDrill
T5C0.0433
; #@! TA.AperFunction,Plated,PTH,ComponentDrill
T6C0.0480
; #@! TA.AperFunction,Plated,PTH,ComponentDrill
T7C0.0559
; #@! TA.AperFunction,Plated,PTH,ComponentDrill
T8C0.0563
; #@! TA.AperFunction,Plated,PTH,ComponentDrill
T9C0.1260
%
G90
G05
T1
X3.045Y-1.6725
X3.045Y-2.1325
X3.36Y-3.0125
X3.45Y-2.8475
X3.615Y-1.9525
X3.645Y-2.2425
X3.665Y-1.8625
X3.695Y-2.9825
X3.88Y-2.9225
T2
X2.15Y-2.9925
X2.15Y-3.0425
X2.15Y-3.0925
T3
X2.125Y-2.4425
X2.125Y-2.8425
X2.175Y-1.7441
X2.175Y-1.8425
X2.275Y-2.4425
X2.275Y-2.8425
X2.295Y-3.7025
X2.3Y-3.8675
X2.3681Y-1.7125
X2.425Y-2.4425
X2.425Y-2.8425
X2.575Y-2.4425
X2.575Y-2.8425
X2.695Y-3.7025
X2.7Y-3.8675
X2.725Y-2.4456
X2.725Y-2.8394
X2.7619Y-1.7125
X2.8531Y-2.9925
X2.8563Y-2.7925
X2.8681Y-2.6125
X2.885Y-1.7525
X2.885Y-1.8525
X2.885Y-1.9525
X2.885Y-2.0525
X2.885Y-2.1525
X2.885Y-2.2525
X2.885Y-2.3525
X2.885Y-2.4525
X3.185Y-1.7525
X3.185Y-1.8525
X3.185Y-1.9525
X3.185Y-2.0525
X3.185Y-2.1525
X3.185Y-2.2525
X3.185Y-2.3525
X3.185Y-2.4525
X3.2469Y-2.9925
X3.25Y-2.7925
X3.2619Y-2.6125
X3.325Y-2.4425
X3.355Y-3.7125
X3.475Y-2.5925
X3.475Y-2.7425
X3.725Y-2.4425
X3.755Y-3.7125
X3.875Y-2.5925
X3.875Y-2.7425
X3.9Y-1.8925
X3.9Y-2.2925
T4
X2.3916Y-3.4179
X2.3937Y-2.3252
X2.49Y-3.4179
X2.4921Y-2.3252
X2.5884Y-3.4179
X2.5905Y-2.3252
X3.3152Y-1.6777
X3.3152Y-1.7777
X3.4152Y-1.6777
X3.4152Y-1.7777
X3.4567Y-2.3252
X3.4567Y-3.4179
X3.5152Y-1.6777
X3.5152Y-1.7777
X3.5551Y-2.3252
X3.5551Y-3.4179
X3.6152Y-1.6777
X3.6152Y-1.7777
X3.6535Y-2.3252
X3.6535Y-3.4179
X3.7152Y-1.6777
X3.7152Y-1.7777
X3.8152Y-1.6777
X3.8152Y-1.7777
T5
X2.925Y-3.1541
X3.025Y-3.1541
X3.125Y-3.1541
T6
X2.2348Y-4.0325
X2.61Y-4.0325
X3.0037Y-4.0325
X3.3974Y-4.0325
X3.7911Y-4.0325
T7
X2.2348Y-4.1545
X2.61Y-4.1545
X3.0037Y-4.1545
X3.3974Y-4.1545
X3.7911Y-4.1545
T8
X2.2348Y-4.4813
X2.61Y-4.4813
X3.0037Y-4.4813
X3.3974Y-4.4813
X3.7911Y-4.4813
T9
X2.166Y-3.8775
X2.18Y-2.2225
X3.865Y-3.8775
X3.867Y-2.4605
T5
G00X2.301Y-3.1364
M15
G01X2.301Y-3.1088
M16
G05
G00X2.3031Y-2.0437
M15
G01X2.3031Y-2.0161
M16
G05
G00X2.679Y-3.1364
M15
G01X2.679Y-3.1088
M16
G05
G00X2.6811Y-2.0437
M15
G01X2.6811Y-2.0161
M16
G05
G00X3.3661Y-2.0437
M15
G01X3.3661Y-2.0161
M16
G05
G00X3.3661Y-3.1364
M15
G01X3.3661Y-3.1088
M16
G05
G00X3.7441Y-2.0437
M15
G01X3.7441Y-2.0161
M16
G05
G00X3.7441Y-3.1364
M15
G01X3.7441Y-3.1088
M16
G05
T0
M30
