%TF.GenerationSoftware,KiCad,Pcbnew,7.0.6*%
%TF.CreationDate,2023-10-15T17:55:57+01:00*%
%TF.ProjectId,DSP 1.1,44535020-312e-4312-9e6b-696361645f70,rev?*%
%TF.SameCoordinates,Original*%
%TF.FileFunction,Legend,Top*%
%TF.FilePolarity,Positive*%
%FSLAX46Y46*%
G04 Gerber Fmt 4.6, Leading zero omitted, Abs format (unit mm)*
G04 Created by KiCad (PCBNEW 7.0.6) date 2023-10-15 17:55:57*
%MOMM*%
%LPD*%
G01*
G04 APERTURE LIST*
%ADD10C,0.500000*%
%ADD11C,0.150000*%
G04 APERTURE END LIST*
D10*
X9428400Y-264242200D02*
X10698400Y-262972200D01*
X13238400Y-256622200D02*
X14508400Y-257892200D01*
X13238400Y-260432200D02*
X14508400Y-259162200D01*
X6888400Y-259162200D02*
X6888400Y-257892200D01*
X9428400Y-260432200D02*
X10698400Y-261702200D01*
X10698400Y-257892200D02*
X10698400Y-259162200D01*
X14508400Y-259162200D02*
X14508400Y-257892200D01*
X8158400Y-260432200D02*
X9428400Y-260432200D01*
X6888400Y-261702200D02*
X6888400Y-262972200D01*
X9428400Y-256622200D02*
X8158400Y-256622200D01*
X11968400Y-256622200D02*
X10698400Y-257892200D01*
X8158400Y-264242200D02*
X6888400Y-262972200D01*
X10698400Y-262972200D02*
X11968400Y-264242200D01*
X10698400Y-262972200D02*
X10698400Y-261702200D01*
X9428400Y-264242200D02*
X8158400Y-264242200D01*
X10698400Y-261702200D02*
X9428400Y-260432200D01*
X11968400Y-260432200D02*
X10698400Y-259162200D01*
X13238400Y-260432200D02*
X11968400Y-260432200D01*
X6888400Y-257892200D02*
X8158400Y-256622200D01*
X10698400Y-257892200D02*
X9428400Y-256622200D01*
X8158400Y-260432200D02*
X6888400Y-261702200D01*
X10698400Y-259162200D02*
X11968400Y-260432200D01*
X10698400Y-262972200D02*
X10698400Y-261702200D01*
X11968400Y-264242200D02*
X13238400Y-264242200D01*
X8158400Y-260432200D02*
X9428400Y-260432200D01*
X6888400Y-259162200D02*
X8158400Y-260432200D01*
X13238400Y-260432200D02*
X11968400Y-260432200D01*
X11968400Y-256622200D02*
X13238400Y-256622200D01*
X14508400Y-262972200D02*
X13238400Y-264242200D01*
X14508400Y-261702200D02*
X13238400Y-260432200D01*
X10698400Y-257892200D02*
X10698400Y-259162200D01*
X14508400Y-261702200D02*
X14508400Y-262972200D01*
D11*
X31361466Y-187396819D02*
X31028133Y-186920628D01*
X30790038Y-187396819D02*
X30790038Y-186396819D01*
X30790038Y-186396819D02*
X31170990Y-186396819D01*
X31170990Y-186396819D02*
X31266228Y-186444438D01*
X31266228Y-186444438D02*
X31313847Y-186492057D01*
X31313847Y-186492057D02*
X31361466Y-186587295D01*
X31361466Y-186587295D02*
X31361466Y-186730152D01*
X31361466Y-186730152D02*
X31313847Y-186825390D01*
X31313847Y-186825390D02*
X31266228Y-186873009D01*
X31266228Y-186873009D02*
X31170990Y-186920628D01*
X31170990Y-186920628D02*
X30790038Y-186920628D01*
X31790038Y-186873009D02*
X32123371Y-186873009D01*
X32266228Y-187396819D02*
X31790038Y-187396819D01*
X31790038Y-187396819D02*
X31790038Y-186396819D01*
X31790038Y-186396819D02*
X32266228Y-186396819D01*
X33028133Y-186873009D02*
X32694800Y-186873009D01*
X32694800Y-187396819D02*
X32694800Y-186396819D01*
X32694800Y-186396819D02*
X33170990Y-186396819D01*
X33694800Y-186396819D02*
X33694800Y-186634914D01*
X33456705Y-186539676D02*
X33694800Y-186634914D01*
X33694800Y-186634914D02*
X33932895Y-186539676D01*
X33551943Y-186825390D02*
X33694800Y-186634914D01*
X33694800Y-186634914D02*
X33837657Y-186825390D01*
X34456705Y-186396819D02*
X34456705Y-186634914D01*
X34218610Y-186539676D02*
X34456705Y-186634914D01*
X34456705Y-186634914D02*
X34694800Y-186539676D01*
X34313848Y-186825390D02*
X34456705Y-186634914D01*
X34456705Y-186634914D02*
X34599562Y-186825390D01*
X31361466Y-215133619D02*
X31028133Y-214657428D01*
X30790038Y-215133619D02*
X30790038Y-214133619D01*
X30790038Y-214133619D02*
X31170990Y-214133619D01*
X31170990Y-214133619D02*
X31266228Y-214181238D01*
X31266228Y-214181238D02*
X31313847Y-214228857D01*
X31313847Y-214228857D02*
X31361466Y-214324095D01*
X31361466Y-214324095D02*
X31361466Y-214466952D01*
X31361466Y-214466952D02*
X31313847Y-214562190D01*
X31313847Y-214562190D02*
X31266228Y-214609809D01*
X31266228Y-214609809D02*
X31170990Y-214657428D01*
X31170990Y-214657428D02*
X30790038Y-214657428D01*
X31790038Y-214609809D02*
X32123371Y-214609809D01*
X32266228Y-215133619D02*
X31790038Y-215133619D01*
X31790038Y-215133619D02*
X31790038Y-214133619D01*
X31790038Y-214133619D02*
X32266228Y-214133619D01*
X33028133Y-214609809D02*
X32694800Y-214609809D01*
X32694800Y-215133619D02*
X32694800Y-214133619D01*
X32694800Y-214133619D02*
X33170990Y-214133619D01*
X33694800Y-214133619D02*
X33694800Y-214371714D01*
X33456705Y-214276476D02*
X33694800Y-214371714D01*
X33694800Y-214371714D02*
X33932895Y-214276476D01*
X33551943Y-214562190D02*
X33694800Y-214371714D01*
X33694800Y-214371714D02*
X33837657Y-214562190D01*
X34456705Y-214133619D02*
X34456705Y-214371714D01*
X34218610Y-214276476D02*
X34456705Y-214371714D01*
X34456705Y-214371714D02*
X34694800Y-214276476D01*
X34313848Y-214562190D02*
X34456705Y-214371714D01*
X34456705Y-214371714D02*
X34599562Y-214562190D01*
%TO.C,kibuzzard-643BAFCE*%
G36*
X-1657720Y-253305813D02*
G01*
X-2122808Y-253305813D01*
X-2122808Y-251048587D01*
X-1657720Y-251048587D01*
X-1657720Y-253305813D01*
G37*
G36*
X145271Y-252536868D02*
G01*
X145271Y-251048587D01*
X608808Y-251048587D01*
X608808Y-253305813D01*
X143720Y-253305813D01*
X-761651Y-251820633D01*
X-761651Y-253305813D01*
X-1226739Y-253305813D01*
X-1226739Y-251048587D01*
X-761651Y-251048587D01*
X145271Y-252536868D01*
G37*
%TO.C,kibuzzard-643BB339*%
G36*
X39015455Y-251041775D02*
G01*
X39130370Y-251110375D01*
X39198389Y-251218896D01*
X39221062Y-251361523D01*
X39197033Y-251501243D01*
X39124944Y-251607244D01*
X39009060Y-251674100D01*
X38853643Y-251696386D01*
X38478472Y-251696386D01*
X38478472Y-251018908D01*
X38852093Y-251018908D01*
X39015455Y-251041775D01*
G37*
G36*
X40608332Y-249989348D02*
G01*
X40782100Y-250015124D01*
X40952505Y-250057808D01*
X41117905Y-250116990D01*
X41276708Y-250192098D01*
X41427385Y-250282410D01*
X41568484Y-250387056D01*
X41698646Y-250505028D01*
X41816618Y-250635191D01*
X41921265Y-250776290D01*
X42011577Y-250926966D01*
X42086685Y-251085769D01*
X42145866Y-251251170D01*
X42188550Y-251421574D01*
X42214326Y-251595342D01*
X42222946Y-251770800D01*
X42214326Y-251946258D01*
X42188550Y-252120026D01*
X42145866Y-252290430D01*
X42086685Y-252455831D01*
X42011577Y-252614634D01*
X41921265Y-252765310D01*
X41816618Y-252906409D01*
X41698646Y-253036572D01*
X41568484Y-253154544D01*
X41427385Y-253259190D01*
X41276708Y-253349502D01*
X41117905Y-253424610D01*
X40952505Y-253483792D01*
X40782100Y-253526476D01*
X40608332Y-253552252D01*
X40432875Y-253560872D01*
X39771416Y-253560872D01*
X38478472Y-253560872D01*
X38013384Y-253560872D01*
X37351926Y-253560872D01*
X37176468Y-253552252D01*
X37002700Y-253526476D01*
X36832295Y-253483792D01*
X36666895Y-253424611D01*
X36508092Y-253349502D01*
X36357415Y-253259190D01*
X36216316Y-253154544D01*
X36086154Y-253036572D01*
X35968182Y-252906409D01*
X35863536Y-252765311D01*
X35773223Y-252614634D01*
X35698115Y-252455831D01*
X35638934Y-252290430D01*
X35596250Y-252120026D01*
X35570474Y-251946258D01*
X35561854Y-251770800D01*
X35570474Y-251595342D01*
X35596250Y-251421574D01*
X35638934Y-251251170D01*
X35698115Y-251085769D01*
X35773223Y-250926966D01*
X35863536Y-250776289D01*
X35962993Y-250642187D01*
X38013384Y-250642187D01*
X38013384Y-252899413D01*
X38478472Y-252899413D01*
X38478472Y-252073107D01*
X38848992Y-252073107D01*
X39272222Y-252899413D01*
X39771416Y-252899413D01*
X39771416Y-252877709D01*
X39283074Y-251955285D01*
X39460389Y-251848121D01*
X39586156Y-251709563D01*
X39661152Y-251536124D01*
X39686150Y-251324316D01*
X39662034Y-251123639D01*
X39589687Y-250955690D01*
X39469109Y-250820470D01*
X39304089Y-250721424D01*
X39098417Y-250661996D01*
X38852093Y-250642187D01*
X38013384Y-250642187D01*
X35962993Y-250642187D01*
X35968182Y-250635191D01*
X36086154Y-250505028D01*
X36216316Y-250387056D01*
X36357415Y-250282410D01*
X36508092Y-250192098D01*
X36666895Y-250116989D01*
X36832295Y-250057808D01*
X37002700Y-250015124D01*
X37176468Y-249989348D01*
X37351926Y-249980728D01*
X38013384Y-249980728D01*
X39771416Y-249980728D01*
X40432875Y-249980728D01*
X40608332Y-249989348D01*
G37*
%TO.C,kibuzzard-643BAFC1*%
G36*
X11870856Y-251247508D02*
G01*
X11179425Y-251247508D01*
X11179425Y-253128013D01*
X10714337Y-253128013D01*
X10714337Y-251247508D01*
X10032208Y-251247508D01*
X10032208Y-250870787D01*
X11870856Y-250870787D01*
X11870856Y-251247508D01*
G37*
G36*
X9895782Y-251247508D02*
G01*
X8850885Y-251247508D01*
X8850885Y-251785460D01*
X9743854Y-251785460D01*
X9743854Y-252149778D01*
X8850885Y-252149778D01*
X8850885Y-252754393D01*
X9898883Y-252754393D01*
X9898883Y-253128013D01*
X8385797Y-253128013D01*
X8385797Y-250870787D01*
X9895782Y-250870787D01*
X9895782Y-251247508D01*
G37*
G36*
X6230890Y-252473790D02*
G01*
X6602960Y-250870787D01*
X6996734Y-250870787D01*
X7367254Y-252476890D01*
X7671112Y-250870787D01*
X8134650Y-250870787D01*
X7633905Y-253128013D01*
X7165716Y-253128013D01*
X6798297Y-251618028D01*
X6430878Y-253128013D01*
X5962689Y-253128013D01*
X5461944Y-250870787D01*
X5925482Y-250870787D01*
X6230890Y-252473790D01*
G37*
%TO.C,kibuzzard-644033FD*%
G36*
X26803643Y-263163686D02*
G01*
X26354058Y-263163686D01*
X26354058Y-261486269D01*
X26803643Y-261486269D01*
X26803643Y-263163686D01*
G37*
G36*
X26761785Y-260886306D02*
G01*
X26829998Y-261052187D01*
X26761010Y-261219619D01*
X26578851Y-261284731D01*
X26396691Y-261219619D01*
X26327703Y-261052187D01*
X26395141Y-260886306D01*
X26578851Y-260821193D01*
X26761785Y-260886306D01*
G37*
G36*
X17946820Y-262529616D02*
G01*
X18256878Y-261486269D01*
X18737469Y-261486269D01*
X18063092Y-263424135D01*
X18025885Y-263512502D01*
X17903928Y-263695092D01*
X17738564Y-263804646D01*
X17529791Y-263841164D01*
X17331353Y-263811708D01*
X17331353Y-263472194D01*
X17399566Y-263473745D01*
X17589477Y-263434987D01*
X17687921Y-263306313D01*
X17740631Y-263168337D01*
X17153070Y-261486269D01*
X17635211Y-261486269D01*
X17946820Y-262529616D01*
G37*
G36*
X20055218Y-261494408D02*
G01*
X20219549Y-261611843D01*
X20317993Y-261807180D01*
X20352874Y-262080031D01*
X20352874Y-263163686D01*
X19904840Y-263163686D01*
X19904840Y-262090883D01*
X19842828Y-261883919D01*
X19636639Y-261819582D01*
X19471145Y-261859890D01*
X19352935Y-261980812D01*
X19352935Y-263163686D01*
X18904901Y-263163686D01*
X18904901Y-261486269D01*
X19326580Y-261486269D01*
X19340533Y-261680056D01*
X19474030Y-261555171D01*
X19634744Y-261480240D01*
X19822674Y-261455263D01*
X20055218Y-261494408D01*
G37*
G36*
X22202374Y-261669204D02*
G01*
X22331393Y-261550348D01*
X22480737Y-261479034D01*
X22650408Y-261455263D01*
X22847172Y-261480626D01*
X23000899Y-261556714D01*
X23111590Y-261683528D01*
X23179244Y-261861068D01*
X23203863Y-262089333D01*
X23203863Y-263163686D01*
X22755828Y-263163686D01*
X22755828Y-262101735D01*
X22693817Y-261888570D01*
X22487628Y-261819582D01*
X22317871Y-261857564D01*
X22202374Y-261971511D01*
X22202374Y-263163686D01*
X21754339Y-263163686D01*
X21754339Y-260782436D01*
X22202374Y-260782436D01*
X22202374Y-261669204D01*
G37*
G36*
X21228790Y-261486269D02*
G01*
X21515594Y-261486269D01*
X21515594Y-261814931D01*
X21228790Y-261814931D01*
X21228790Y-262652089D01*
X21264447Y-262785415D01*
X21400872Y-262825722D01*
X21532647Y-262814870D01*
X21532647Y-263154384D01*
X21398934Y-263184615D01*
X21261346Y-263194692D01*
X21054576Y-263164946D01*
X20905554Y-263075707D01*
X20814280Y-262926976D01*
X20780755Y-262718752D01*
X20780755Y-261814931D01*
X20535809Y-261814931D01*
X20535809Y-261486269D01*
X20780755Y-261486269D01*
X20780755Y-261073891D01*
X21228790Y-261073891D01*
X21228790Y-261486269D01*
G37*
G36*
X25794403Y-261486269D02*
G01*
X26081207Y-261486269D01*
X26081207Y-261814931D01*
X25794403Y-261814931D01*
X25794403Y-262652089D01*
X25830059Y-262785415D01*
X25966485Y-262825722D01*
X26098260Y-262814870D01*
X26098260Y-263154384D01*
X25964547Y-263184615D01*
X25826959Y-263194692D01*
X25620188Y-263164946D01*
X25471167Y-263075707D01*
X25379893Y-262926976D01*
X25346368Y-262718752D01*
X25346368Y-261814931D01*
X25101422Y-261814931D01*
X25101422Y-261486269D01*
X25346368Y-261486269D01*
X25346368Y-261073891D01*
X25794403Y-261073891D01*
X25794403Y-261486269D01*
G37*
G36*
X28070836Y-261475159D02*
G01*
X28239042Y-261534845D01*
X28379516Y-261634322D01*
X28485367Y-261766872D01*
X28549704Y-261925777D01*
X28572528Y-262111037D01*
X28152398Y-262111037D01*
X28071783Y-261899422D01*
X27867144Y-261818032D01*
X27729750Y-261846518D01*
X27630725Y-261931978D01*
X27570845Y-262081388D01*
X27550885Y-262301723D01*
X27550885Y-262348232D01*
X27570651Y-262570699D01*
X27629949Y-262720302D01*
X27729556Y-262805181D01*
X27870245Y-262833474D01*
X28071783Y-262765261D01*
X28152398Y-262583876D01*
X28572528Y-262583876D01*
X28548498Y-262747239D01*
X28479510Y-262896260D01*
X28371183Y-263022222D01*
X28229138Y-263116402D01*
X28061900Y-263175119D01*
X27877996Y-263194692D01*
X27655099Y-263169284D01*
X27465963Y-263093062D01*
X27310589Y-262966024D01*
X27195178Y-262794199D01*
X27125932Y-262583618D01*
X27102850Y-262334279D01*
X27102850Y-262304824D01*
X27125760Y-262063839D01*
X27194489Y-261857650D01*
X27309039Y-261686257D01*
X27463551Y-261557927D01*
X27652170Y-261480929D01*
X27874896Y-261455263D01*
X28070836Y-261475159D01*
G37*
G36*
X24477429Y-261479379D02*
G01*
X24658038Y-261551726D01*
X24806091Y-261672304D01*
X24915903Y-261837152D01*
X24981791Y-262042307D01*
X25003753Y-262287770D01*
X25003753Y-262470705D01*
X23940252Y-262470705D01*
X23935601Y-262470705D01*
X23979203Y-262618758D01*
X24066601Y-262734255D01*
X24190431Y-262808669D01*
X24343328Y-262833474D01*
X24573934Y-262786577D01*
X24747955Y-262645888D01*
X24968096Y-262892385D01*
X24849499Y-263019315D01*
X24695245Y-263114852D01*
X24513861Y-263174732D01*
X24313873Y-263194692D01*
X24083138Y-263169543D01*
X23882891Y-263094095D01*
X23713134Y-262968349D01*
X23584374Y-262800745D01*
X23507118Y-262599724D01*
X23481365Y-262365285D01*
X23481365Y-262321877D01*
X23497341Y-262165297D01*
X23940252Y-262165297D01*
X24563470Y-262165297D01*
X24563470Y-262129641D01*
X24482855Y-261899422D01*
X24262713Y-261818032D01*
X24046447Y-261907949D01*
X23978428Y-262017244D01*
X23940252Y-262165297D01*
X23497341Y-262165297D01*
X23505783Y-262082550D01*
X23579034Y-261869967D01*
X23697050Y-261693621D01*
X23855761Y-261563008D01*
X24047416Y-261482199D01*
X24264263Y-261455263D01*
X24477429Y-261479379D01*
G37*
G36*
X29664192Y-261471972D02*
G01*
X29834466Y-261522098D01*
X29976318Y-261605642D01*
X30119914Y-261778499D01*
X30167779Y-261996315D01*
X29719744Y-261996315D01*
X29657733Y-261837410D01*
X29463946Y-261774623D01*
X29288763Y-261825783D01*
X29226751Y-261956008D01*
X29297290Y-262076155D01*
X29535260Y-262155220D01*
X29689514Y-262190683D01*
X29817413Y-262230410D01*
X30014645Y-262338413D01*
X30132984Y-262488792D01*
X30172430Y-262681545D01*
X30123208Y-262889090D01*
X29975543Y-263052840D01*
X29831538Y-263131647D01*
X29662039Y-263178931D01*
X29467047Y-263194692D01*
X29268028Y-263175895D01*
X29092651Y-263119503D01*
X28946730Y-263030361D01*
X28836077Y-262913314D01*
X28766314Y-262777082D01*
X28743060Y-262630385D01*
X29167840Y-262630385D01*
X29256207Y-262813320D01*
X29476348Y-262876882D01*
X29670910Y-262828048D01*
X29736798Y-262700148D01*
X29655407Y-262570699D01*
X29549406Y-262525934D01*
X29394183Y-262486208D01*
X29132377Y-262407337D01*
X28945373Y-262296297D01*
X28833171Y-262153089D01*
X28795770Y-261977712D01*
X28842085Y-261772879D01*
X28981030Y-261604866D01*
X29117197Y-261521753D01*
X29278686Y-261471886D01*
X29465496Y-261455263D01*
X29664192Y-261471972D01*
G37*
G36*
X16434509Y-260897351D02*
G01*
X16636822Y-260963045D01*
X16804835Y-261068659D01*
X16930603Y-261210317D01*
X17009086Y-261380849D01*
X17035247Y-261573085D01*
X16570159Y-261573085D01*
X16545742Y-261435303D01*
X16472491Y-261332015D01*
X16355056Y-261267484D01*
X16198089Y-261245974D01*
X16046548Y-261263996D01*
X15932989Y-261318062D01*
X15838421Y-261507973D01*
X15949267Y-261692458D01*
X16086274Y-261764547D01*
X16275604Y-261831984D01*
X16516244Y-261917939D01*
X16708997Y-262016641D01*
X16853863Y-262128090D01*
X16989901Y-262326528D01*
X17035247Y-262568373D01*
X17010615Y-262749672D01*
X16936718Y-262902892D01*
X16813555Y-263028035D01*
X16648708Y-263120622D01*
X16449753Y-263176174D01*
X16216693Y-263194692D01*
X15967871Y-263170856D01*
X15742303Y-263099349D01*
X15553749Y-262986371D01*
X15415966Y-262838124D01*
X15331669Y-262659066D01*
X15303570Y-262453652D01*
X15770208Y-262453652D01*
X15798114Y-262617111D01*
X15881829Y-262733867D01*
X16021356Y-262803921D01*
X16216693Y-262827272D01*
X16364358Y-262810413D01*
X16475592Y-262759835D01*
X16568609Y-262571474D01*
X16475592Y-262369161D01*
X16345367Y-262296685D01*
X16140728Y-262220333D01*
X15924075Y-262142624D01*
X15757806Y-262066079D01*
X15544210Y-261911566D01*
X15416052Y-261725014D01*
X15373333Y-261506423D01*
X15399107Y-261333371D01*
X15476428Y-261180086D01*
X15602001Y-261052381D01*
X15772534Y-260956069D01*
X15977366Y-260895607D01*
X16205841Y-260875454D01*
X16434509Y-260897351D01*
G37*
%TO.C,kibuzzard-643BB3B1*%
G36*
X33031201Y-226147162D02*
G01*
X33138172Y-226252065D01*
X33173828Y-226424837D01*
X33081586Y-226641103D01*
X32971321Y-226699820D01*
X32825012Y-226719393D01*
X32426587Y-226719393D01*
X32426587Y-226110128D01*
X32852918Y-226110128D01*
X33031201Y-226147162D01*
G37*
G36*
X32918611Y-225229367D02*
G01*
X33033527Y-225279946D01*
X33100383Y-225368894D01*
X33122669Y-225500862D01*
X33083567Y-225653997D01*
X32966261Y-225747531D01*
X32770752Y-225781465D01*
X32426587Y-225781465D01*
X32426587Y-225212508D01*
X32752149Y-225212508D01*
X32918611Y-225229367D01*
G37*
G36*
X36664846Y-224182948D02*
G01*
X36838614Y-224208724D01*
X37009018Y-224251408D01*
X37174419Y-224310590D01*
X37333222Y-224385698D01*
X37483899Y-224476010D01*
X37624997Y-224580656D01*
X37755160Y-224698628D01*
X37873132Y-224828791D01*
X37977778Y-224969890D01*
X38068090Y-225120566D01*
X38143198Y-225279369D01*
X38202380Y-225444770D01*
X38245064Y-225615174D01*
X38270840Y-225788942D01*
X38279459Y-225964400D01*
X38270840Y-226139858D01*
X38245064Y-226313626D01*
X38202380Y-226484030D01*
X38143198Y-226649431D01*
X38068090Y-226808234D01*
X37977778Y-226958910D01*
X37873132Y-227100009D01*
X37755160Y-227230172D01*
X37624997Y-227348144D01*
X37483899Y-227452790D01*
X37333222Y-227543102D01*
X37174419Y-227618210D01*
X37009018Y-227677392D01*
X36838614Y-227720076D01*
X36664846Y-227745852D01*
X36489388Y-227754472D01*
X35827930Y-227754472D01*
X34452820Y-227754472D01*
X31961499Y-227754472D01*
X30687158Y-227754472D01*
X30222070Y-227754472D01*
X29560612Y-227754472D01*
X29385154Y-227745852D01*
X29211386Y-227720076D01*
X29040982Y-227677392D01*
X28875581Y-227618211D01*
X28716778Y-227543102D01*
X28566102Y-227452790D01*
X28425003Y-227348144D01*
X28294840Y-227230172D01*
X28176868Y-227100009D01*
X28072222Y-226958911D01*
X27981910Y-226808234D01*
X27906802Y-226649431D01*
X27847620Y-226484030D01*
X27804936Y-226313626D01*
X27779160Y-226139858D01*
X27770541Y-225964400D01*
X27779160Y-225788942D01*
X27804936Y-225615174D01*
X27847620Y-225444770D01*
X27906802Y-225279369D01*
X27981910Y-225120566D01*
X28072222Y-224969889D01*
X28171679Y-224835787D01*
X30222070Y-224835787D01*
X30222070Y-227093013D01*
X30687158Y-227093013D01*
X30687158Y-226170589D01*
X31580127Y-226170589D01*
X31580127Y-225795418D01*
X30687158Y-225795418D01*
X30687158Y-225212508D01*
X31691748Y-225212508D01*
X31691748Y-224835787D01*
X31961499Y-224835787D01*
X31961499Y-227093013D01*
X32838965Y-227093013D01*
X33075643Y-227072687D01*
X33273047Y-227015843D01*
X33431177Y-226922481D01*
X33546588Y-226793290D01*
X33615834Y-226628959D01*
X33638916Y-226429488D01*
X33613918Y-226253530D01*
X33538922Y-226107027D01*
X33420519Y-225997344D01*
X33265296Y-225931844D01*
X33400559Y-225856073D01*
X33502490Y-225746584D01*
X33566440Y-225610352D01*
X33587756Y-225454354D01*
X33564158Y-225268060D01*
X33493361Y-225114323D01*
X33375366Y-224993141D01*
X33211724Y-224905722D01*
X33003985Y-224853271D01*
X32752149Y-224835787D01*
X33987732Y-224835787D01*
X33987732Y-227093013D01*
X34452820Y-227093013D01*
X34452820Y-226448091D01*
X34694666Y-226187642D01*
X35274475Y-227093013D01*
X35827930Y-227093013D01*
X35003174Y-225838826D01*
X35804675Y-224835787D01*
X35232617Y-224835787D01*
X34657459Y-225578377D01*
X34452820Y-225858980D01*
X34452820Y-224835787D01*
X33987732Y-224835787D01*
X32752149Y-224835787D01*
X31961499Y-224835787D01*
X31691748Y-224835787D01*
X30222070Y-224835787D01*
X28171679Y-224835787D01*
X28176868Y-224828791D01*
X28294840Y-224698628D01*
X28425003Y-224580656D01*
X28566102Y-224476010D01*
X28716778Y-224385698D01*
X28875581Y-224310589D01*
X29040982Y-224251408D01*
X29211386Y-224208724D01*
X29385154Y-224182948D01*
X29560612Y-224174328D01*
X30222070Y-224174328D01*
X35827930Y-224174328D01*
X36489388Y-224174328D01*
X36664846Y-224182948D01*
G37*
%TO.C,kibuzzard-643BAFCE*%
G36*
X4743080Y-227397813D02*
G01*
X4277992Y-227397813D01*
X4277992Y-225140587D01*
X4743080Y-225140587D01*
X4743080Y-227397813D01*
G37*
G36*
X6546071Y-226628868D02*
G01*
X6546071Y-225140587D01*
X7009608Y-225140587D01*
X7009608Y-227397813D01*
X6544520Y-227397813D01*
X5639149Y-225912633D01*
X5639149Y-227397813D01*
X5174061Y-227397813D01*
X5174061Y-225140587D01*
X5639149Y-225140587D01*
X6546071Y-226628868D01*
G37*
%TO.C,kibuzzard-643BB390*%
G36*
X36301910Y-196496948D02*
G01*
X36475678Y-196522724D01*
X36646082Y-196565408D01*
X36811483Y-196624590D01*
X36970286Y-196699698D01*
X37120963Y-196790010D01*
X37262061Y-196894656D01*
X37392224Y-197012628D01*
X37510196Y-197142791D01*
X37614842Y-197283890D01*
X37705154Y-197434566D01*
X37780262Y-197593369D01*
X37839444Y-197758770D01*
X37882128Y-197929174D01*
X37907904Y-198102942D01*
X37916524Y-198278400D01*
X37907904Y-198453858D01*
X37882128Y-198627626D01*
X37839444Y-198798030D01*
X37780262Y-198963431D01*
X37705154Y-199122234D01*
X37614842Y-199272910D01*
X37510196Y-199414009D01*
X37392224Y-199544172D01*
X37262061Y-199662144D01*
X37120963Y-199766790D01*
X36970286Y-199857102D01*
X36811483Y-199932210D01*
X36646082Y-199991392D01*
X36475678Y-200034076D01*
X36301910Y-200059852D01*
X36126452Y-200068472D01*
X35464994Y-200068472D01*
X33251175Y-200068472D01*
X32350455Y-200068472D01*
X29975406Y-200068472D01*
X29313948Y-200068472D01*
X29138490Y-200059852D01*
X28964722Y-200034076D01*
X28794318Y-199991392D01*
X28628917Y-199932211D01*
X28470114Y-199857102D01*
X28319438Y-199766790D01*
X28178339Y-199662144D01*
X28048176Y-199544172D01*
X27930204Y-199414009D01*
X27825558Y-199272911D01*
X27735246Y-199122234D01*
X27660138Y-198963431D01*
X27600956Y-198798030D01*
X27558272Y-198627626D01*
X27532496Y-198453858D01*
X27523876Y-198278400D01*
X27532496Y-198102942D01*
X27558272Y-197929174D01*
X27600956Y-197758770D01*
X27660138Y-197593369D01*
X27735246Y-197434566D01*
X27825558Y-197283889D01*
X27925015Y-197149787D01*
X29975406Y-197149787D01*
X29975406Y-199407013D01*
X30440494Y-199407013D01*
X30440494Y-198789997D01*
X30393986Y-197726496D01*
X31001700Y-199407013D01*
X31321061Y-199407013D01*
X31930326Y-197724945D01*
X31883817Y-198789997D01*
X31883817Y-199407013D01*
X32350455Y-199407013D01*
X32350455Y-197149787D01*
X32786088Y-197149787D01*
X32786088Y-199407013D01*
X33251175Y-199407013D01*
X33514725Y-199407013D01*
X34055778Y-199407013D01*
X34489860Y-198616364D01*
X34923942Y-199407013D01*
X35464994Y-199407013D01*
X34790616Y-198269098D01*
X35447941Y-197149787D01*
X34913090Y-197149787D01*
X34489860Y-197928034D01*
X34066630Y-197149787D01*
X33531779Y-197149787D01*
X34189103Y-198269098D01*
X33514725Y-199407013D01*
X33251175Y-199407013D01*
X33251175Y-197149787D01*
X32786088Y-197149787D01*
X32350455Y-197149787D01*
X31739640Y-197149787D01*
X31162931Y-198786896D01*
X30583121Y-197149787D01*
X29975406Y-197149787D01*
X27925015Y-197149787D01*
X27930204Y-197142791D01*
X28048176Y-197012628D01*
X28178339Y-196894656D01*
X28319438Y-196790010D01*
X28470114Y-196699698D01*
X28628917Y-196624589D01*
X28794318Y-196565408D01*
X28964722Y-196522724D01*
X29138490Y-196496948D01*
X29313948Y-196488328D01*
X29975406Y-196488328D01*
X35464994Y-196488328D01*
X36126452Y-196488328D01*
X36301910Y-196496948D01*
G37*
%TO.C,kibuzzard-644033EB*%
G36*
X20302831Y-257564400D02*
G01*
X20298180Y-257911665D01*
X20161754Y-257897713D01*
X19972231Y-257957012D01*
X19909056Y-258134908D01*
X19909056Y-258269783D01*
X20242369Y-258269783D01*
X20242369Y-258598445D01*
X19909056Y-258598445D01*
X19909056Y-259947200D01*
X19459471Y-259947200D01*
X19459471Y-258598445D01*
X19209874Y-258598445D01*
X19209874Y-258269783D01*
X19459471Y-258269783D01*
X19459471Y-258127156D01*
X19499973Y-257876590D01*
X19621477Y-257689198D01*
X19815845Y-257572345D01*
X20074938Y-257533394D01*
X20302831Y-257564400D01*
G37*
G36*
X21011315Y-258269783D02*
G01*
X21298119Y-258269783D01*
X21298119Y-258598445D01*
X21011315Y-258598445D01*
X21011315Y-259435603D01*
X21046971Y-259568929D01*
X21183397Y-259609236D01*
X21315172Y-259598384D01*
X21315172Y-259937898D01*
X21181459Y-259968129D01*
X21043871Y-259978206D01*
X20837101Y-259948460D01*
X20688079Y-259859221D01*
X20596805Y-259710490D01*
X20563280Y-259502266D01*
X20563280Y-258598445D01*
X20318334Y-258598445D01*
X20318334Y-258269783D01*
X20563280Y-258269783D01*
X20563280Y-257857405D01*
X21011315Y-257857405D01*
X21011315Y-258269783D01*
G37*
G36*
X18476672Y-258261859D02*
G01*
X18661415Y-258331106D01*
X18818425Y-258446517D01*
X18940468Y-258601546D01*
X19020308Y-258789648D01*
X19057946Y-259010823D01*
X19061046Y-259125545D01*
X19037103Y-259365926D01*
X18965272Y-259572374D01*
X18845555Y-259744887D01*
X18685531Y-259874509D01*
X18492778Y-259952282D01*
X18267296Y-259978206D01*
X18041729Y-259952368D01*
X17848717Y-259874853D01*
X17688262Y-259745662D01*
X17568114Y-259572029D01*
X17496025Y-259361189D01*
X17473197Y-259125545D01*
X17920031Y-259125545D01*
X17942510Y-259336191D01*
X18009948Y-259490639D01*
X18119243Y-259585401D01*
X18267296Y-259616988D01*
X18412249Y-259585788D01*
X18521544Y-259492189D01*
X18590145Y-259329990D01*
X18613011Y-259092989D01*
X18590145Y-258885249D01*
X18521544Y-258730220D01*
X18411473Y-258633714D01*
X18264196Y-258601546D01*
X18118468Y-258633521D01*
X18009948Y-258729445D01*
X17942510Y-258892420D01*
X17920031Y-259125545D01*
X17473197Y-259125545D01*
X17471996Y-259113143D01*
X17471996Y-259092989D01*
X17496025Y-258856957D01*
X17568114Y-258648055D01*
X17685355Y-258474809D01*
X17844841Y-258345748D01*
X18039984Y-258265520D01*
X18264196Y-258238777D01*
X18476672Y-258261859D01*
G37*
G36*
X16655767Y-257680866D02*
G01*
X16858080Y-257746559D01*
X17026093Y-257852173D01*
X17151860Y-257993831D01*
X17230344Y-258164363D01*
X17256505Y-258356600D01*
X16791417Y-258356600D01*
X16767000Y-258218817D01*
X16693749Y-258115529D01*
X16576314Y-258050998D01*
X16419347Y-258029488D01*
X16267806Y-258047510D01*
X16154247Y-258101576D01*
X16059679Y-258291487D01*
X16170525Y-258475972D01*
X16307532Y-258548061D01*
X16496862Y-258615498D01*
X16737501Y-258701454D01*
X16930255Y-258800156D01*
X17075121Y-258911604D01*
X17211159Y-259110042D01*
X17256505Y-259351888D01*
X17231873Y-259533186D01*
X17157975Y-259686406D01*
X17034813Y-259811550D01*
X16869965Y-259904136D01*
X16671011Y-259959689D01*
X16437950Y-259978206D01*
X16189128Y-259954370D01*
X15963561Y-259882863D01*
X15775006Y-259769885D01*
X15637224Y-259621639D01*
X15552927Y-259442580D01*
X15524828Y-259237166D01*
X15991466Y-259237166D01*
X16019371Y-259400625D01*
X16103087Y-259517381D01*
X16242614Y-259587435D01*
X16437950Y-259610787D01*
X16585616Y-259593927D01*
X16696849Y-259543349D01*
X16789867Y-259354988D01*
X16696849Y-259152675D01*
X16566625Y-259080199D01*
X16361986Y-259003847D01*
X16145333Y-258926138D01*
X15979064Y-258849593D01*
X15765468Y-258695080D01*
X15637310Y-258508528D01*
X15594591Y-258289937D01*
X15620365Y-258116886D01*
X15697686Y-257963600D01*
X15823259Y-257835895D01*
X15993792Y-257739583D01*
X16198624Y-257679122D01*
X16427098Y-257658968D01*
X16655767Y-257680866D01*
G37*
%TO.C,kibuzzard-643BAF55*%
G36*
X5325754Y-198957193D02*
G01*
X6313291Y-198957193D01*
X6313291Y-199330813D01*
X4860666Y-199330813D01*
X4860666Y-197073587D01*
X5325754Y-197073587D01*
X5325754Y-198957193D01*
G37*
G36*
X7045029Y-198096780D02*
G01*
X7249668Y-197816177D01*
X7824827Y-197073587D01*
X8396885Y-197073587D01*
X7595383Y-198076626D01*
X8420139Y-199330813D01*
X7866684Y-199330813D01*
X7286875Y-198425442D01*
X7045029Y-198685891D01*
X7045029Y-199330813D01*
X6579941Y-199330813D01*
X6579941Y-197073587D01*
X7045029Y-197073587D01*
X7045029Y-198096780D01*
G37*
G36*
X3896556Y-197065835D02*
G01*
X4106363Y-197135598D01*
X4282407Y-197251870D01*
X4419177Y-197410173D01*
X4511161Y-197606026D01*
X4558359Y-197839431D01*
X4093271Y-197839431D01*
X4054320Y-197650877D01*
X3971573Y-197522397D01*
X3839605Y-197448564D01*
X3652988Y-197423953D01*
X3449706Y-197465617D01*
X3304947Y-197590609D01*
X3240438Y-197722126D01*
X3200906Y-197894467D01*
X3186350Y-198107632D01*
X3186350Y-198278164D01*
X3198666Y-198500201D01*
X3235615Y-198678484D01*
X3297196Y-198813015D01*
X3440017Y-198939752D01*
X3646787Y-198981997D01*
X3834954Y-198957386D01*
X3968473Y-198883554D01*
X4051995Y-198758174D01*
X4090171Y-198578921D01*
X4555259Y-198578921D01*
X4513659Y-198804575D01*
X4424001Y-198995778D01*
X4286283Y-199152530D01*
X4107396Y-199268802D01*
X3894231Y-199338565D01*
X3646787Y-199361819D01*
X3441325Y-199343555D01*
X3259020Y-199288762D01*
X3099873Y-199197440D01*
X2963883Y-199069589D01*
X2855023Y-198909860D01*
X2777266Y-198722905D01*
X2730612Y-198508722D01*
X2715061Y-198267312D01*
X2715061Y-198129336D01*
X2727808Y-197920908D01*
X2766048Y-197729705D01*
X2829783Y-197555728D01*
X2969115Y-197336555D01*
X3157670Y-197175131D01*
X3307445Y-197101492D01*
X3472551Y-197057309D01*
X3652988Y-197042581D01*
X3896556Y-197065835D01*
G37*
%TO.C,kibuzzard-643BB32E*%
G36*
X30117828Y-250040148D02*
G01*
X30291596Y-250065924D01*
X30462001Y-250108608D01*
X30627401Y-250167790D01*
X30786205Y-250242898D01*
X30936881Y-250333210D01*
X31077980Y-250437856D01*
X31208142Y-250555828D01*
X31326115Y-250685991D01*
X31430761Y-250827090D01*
X31521073Y-250977766D01*
X31596181Y-251136569D01*
X31655362Y-251301970D01*
X31698046Y-251472374D01*
X31723822Y-251646142D01*
X31732442Y-251821600D01*
X31723822Y-251997058D01*
X31698046Y-252170826D01*
X31655362Y-252341230D01*
X31596181Y-252506631D01*
X31521073Y-252665434D01*
X31430761Y-252816110D01*
X31326115Y-252957209D01*
X31208142Y-253087372D01*
X31077980Y-253205344D01*
X30936881Y-253309990D01*
X30786205Y-253400302D01*
X30627401Y-253475410D01*
X30462001Y-253534592D01*
X30291596Y-253577276D01*
X30117828Y-253603052D01*
X29942371Y-253611672D01*
X29280912Y-253611672D01*
X27828288Y-253611672D01*
X27166830Y-253611672D01*
X26991372Y-253603052D01*
X26817604Y-253577276D01*
X26647199Y-253534592D01*
X26481799Y-253475411D01*
X26322996Y-253400302D01*
X26172319Y-253309990D01*
X26031220Y-253205344D01*
X25901058Y-253087372D01*
X25783085Y-252957209D01*
X25678439Y-252816111D01*
X25588127Y-252665434D01*
X25513019Y-252506631D01*
X25453838Y-252341230D01*
X25411154Y-252170826D01*
X25385378Y-251997058D01*
X25376758Y-251821600D01*
X25385378Y-251646142D01*
X25411154Y-251472374D01*
X25453838Y-251301970D01*
X25513019Y-251136569D01*
X25588127Y-250977766D01*
X25678439Y-250827089D01*
X25777896Y-250692987D01*
X27828288Y-250692987D01*
X27828288Y-252950213D01*
X29280912Y-252950213D01*
X29280912Y-252576593D01*
X28293376Y-252576593D01*
X28293376Y-250692987D01*
X27828288Y-250692987D01*
X25777896Y-250692987D01*
X25783085Y-250685991D01*
X25901058Y-250555828D01*
X26031220Y-250437856D01*
X26172319Y-250333210D01*
X26322996Y-250242898D01*
X26481799Y-250167789D01*
X26647199Y-250108608D01*
X26817604Y-250065924D01*
X26991372Y-250040148D01*
X27166830Y-250031528D01*
X27828288Y-250031528D01*
X29280912Y-250031528D01*
X29942371Y-250031528D01*
X30117828Y-250040148D01*
G37*
%TO.C,kibuzzard-64D80CCD*%
G36*
X22451985Y-137754962D02*
G01*
X22760754Y-137785919D01*
X23008669Y-137837512D01*
X23287275Y-137963123D01*
X23470631Y-138154219D01*
X23572430Y-138424491D01*
X23606362Y-138787631D01*
X23577192Y-139146009D01*
X23489681Y-139411519D01*
X23331923Y-139599042D01*
X23092013Y-139723462D01*
X22878758Y-139775056D01*
X22613646Y-139806013D01*
X22296675Y-139816331D01*
X22249050Y-139816331D01*
X21949012Y-139816331D01*
X21949012Y-140997431D01*
X21339413Y-140997431D01*
X21339413Y-138273281D01*
X21949012Y-138273281D01*
X21949012Y-139287694D01*
X22249050Y-139287694D01*
X22510987Y-139275787D01*
X22706250Y-139240069D01*
X22934850Y-139082906D01*
X23001525Y-138768581D01*
X22925325Y-138468544D01*
X22670531Y-138318525D01*
X22454433Y-138284592D01*
X22163325Y-138273281D01*
X21949012Y-138273281D01*
X21339413Y-138273281D01*
X21339413Y-137758931D01*
X22082363Y-137744644D01*
X22451985Y-137754962D01*
G37*
G36*
X16329263Y-137745834D02*
G01*
X16557862Y-137763694D01*
X16892560Y-137811319D01*
X17172754Y-137884344D01*
X17398444Y-137982769D01*
X17652642Y-138191723D01*
X17819925Y-138485212D01*
X17888717Y-138738419D01*
X17929992Y-139050362D01*
X17943750Y-139421044D01*
X17927875Y-139808658D01*
X17880250Y-140133302D01*
X17800875Y-140394975D01*
X17609184Y-140690845D01*
X17319862Y-140887894D01*
X17063217Y-140969915D01*
X16744129Y-141019127D01*
X16505475Y-141029388D01*
X16362600Y-141035531D01*
X16112304Y-141031298D01*
X15831317Y-141018598D01*
X15519638Y-140997431D01*
X15519638Y-138263756D01*
X16129237Y-138263756D01*
X16129237Y-140497369D01*
X16505475Y-140511656D01*
X16792416Y-140471175D01*
X17005538Y-140387831D01*
X17156152Y-140250314D01*
X17255569Y-140047312D01*
X17310933Y-139764539D01*
X17329387Y-139387706D01*
X17311528Y-139031114D01*
X17257950Y-138761437D01*
X17162105Y-138564984D01*
X17017444Y-138428062D01*
X16813252Y-138339361D01*
X16538812Y-138287569D01*
X16314975Y-138269709D01*
X16129237Y-138263756D01*
X15519638Y-138263756D01*
X15519638Y-137758931D01*
X15810150Y-137744644D01*
X16072088Y-137739881D01*
X16329263Y-137745834D01*
G37*
G36*
X19944595Y-137731547D02*
G01*
X20246419Y-137792269D01*
X20461327Y-137901806D01*
X20605988Y-138068494D01*
X20686950Y-138305428D01*
X20710763Y-138625706D01*
X20105925Y-138625706D01*
X20036869Y-138385200D01*
X19860656Y-138266137D01*
X19520137Y-138230419D01*
X19170094Y-138263756D01*
X18996263Y-138373294D01*
X18943875Y-138597131D01*
X19127231Y-138842400D01*
X19382620Y-138959677D01*
X19782075Y-139097194D01*
X20127952Y-139222209D01*
X20384531Y-139349606D01*
X20566102Y-139491886D01*
X20686950Y-139661550D01*
X20754816Y-139870505D01*
X20777438Y-140130656D01*
X20750053Y-140447362D01*
X20667900Y-140683106D01*
X20520858Y-140849794D01*
X20298806Y-140959331D01*
X19983886Y-141020053D01*
X19558237Y-141040294D01*
X19119492Y-141017672D01*
X18793856Y-140949806D01*
X18564661Y-140827172D01*
X18415237Y-140640244D01*
X18336656Y-140375925D01*
X18319988Y-140021119D01*
X18915300Y-140021119D01*
X18991500Y-140328300D01*
X19193906Y-140478319D01*
X19364761Y-140510466D01*
X19596337Y-140521181D01*
X19951144Y-140487844D01*
X20129737Y-140371162D01*
X20182125Y-140135419D01*
X20105925Y-139892531D01*
X19855894Y-139709175D01*
X19645748Y-139622855D01*
X19362975Y-139530581D01*
X19008764Y-139410923D01*
X18746231Y-139290075D01*
X18561089Y-139157320D01*
X18439050Y-139001944D01*
X18371184Y-138812634D01*
X18348562Y-138578081D01*
X18375352Y-138278044D01*
X18455719Y-138054206D01*
X18599784Y-137895258D01*
X18817669Y-137789887D01*
X19125445Y-137730952D01*
X19539187Y-137711306D01*
X19944595Y-137731547D01*
G37*
%TO.C,kibuzzard-643BAF55*%
G36*
X18635354Y-252703593D02*
G01*
X19622891Y-252703593D01*
X19622891Y-253077213D01*
X18170266Y-253077213D01*
X18170266Y-250819987D01*
X18635354Y-250819987D01*
X18635354Y-252703593D01*
G37*
G36*
X20354629Y-251843180D02*
G01*
X20559268Y-251562577D01*
X21134427Y-250819987D01*
X21706485Y-250819987D01*
X20904983Y-251823026D01*
X21729739Y-253077213D01*
X21176284Y-253077213D01*
X20596475Y-252171842D01*
X20354629Y-252432291D01*
X20354629Y-253077213D01*
X19889541Y-253077213D01*
X19889541Y-250819987D01*
X20354629Y-250819987D01*
X20354629Y-251843180D01*
G37*
G36*
X17206156Y-250812235D02*
G01*
X17415963Y-250881998D01*
X17592007Y-250998270D01*
X17728777Y-251156573D01*
X17820761Y-251352426D01*
X17867959Y-251585831D01*
X17402871Y-251585831D01*
X17363920Y-251397277D01*
X17281173Y-251268797D01*
X17149205Y-251194964D01*
X16962588Y-251170353D01*
X16759306Y-251212017D01*
X16614547Y-251337009D01*
X16550038Y-251468526D01*
X16510506Y-251640867D01*
X16495950Y-251854032D01*
X16495950Y-252024564D01*
X16508266Y-252246601D01*
X16545215Y-252424884D01*
X16606796Y-252559415D01*
X16749617Y-252686152D01*
X16956387Y-252728397D01*
X17144554Y-252703786D01*
X17278073Y-252629954D01*
X17361595Y-252504574D01*
X17399771Y-252325321D01*
X17864859Y-252325321D01*
X17823259Y-252550975D01*
X17733601Y-252742178D01*
X17595883Y-252898930D01*
X17416996Y-253015202D01*
X17203831Y-253084965D01*
X16956387Y-253108219D01*
X16750925Y-253089955D01*
X16568620Y-253035162D01*
X16409473Y-252943840D01*
X16273483Y-252815989D01*
X16164623Y-252656260D01*
X16086866Y-252469305D01*
X16040212Y-252255122D01*
X16024661Y-252013712D01*
X16024661Y-251875736D01*
X16037408Y-251667308D01*
X16075648Y-251476105D01*
X16139383Y-251302128D01*
X16278715Y-251082955D01*
X16467270Y-250921531D01*
X16617045Y-250847892D01*
X16782151Y-250803709D01*
X16962588Y-250788981D01*
X17206156Y-250812235D01*
G37*
%TD*%
M02*
