%TF.GenerationSoftware,KiCad,Pcbnew,(6.0.8)*%
%TF.CreationDate,2023-04-30T16:13:03+01:00*%
%TF.ProjectId,Panel,50616e65-6c2e-46b6-9963-61645f706362,rev?*%
%TF.SameCoordinates,Original*%
%TF.FileFunction,Copper,L2,Bot*%
%TF.FilePolarity,Positive*%
%FSLAX46Y46*%
G04 Gerber Fmt 4.6, Leading zero omitted, Abs format (unit mm)*
G04 Created by KiCad (PCBNEW (6.0.8)) date 2023-04-30 16:13:03*
%MOMM*%
%LPD*%
G01*
G04 APERTURE LIST*
%TA.AperFunction,NonConductor*%
%ADD10C,0.150000*%
%TD*%
%TA.AperFunction,ComponentPad*%
%ADD11O,8.500000X5.000000*%
%TD*%
%TA.AperFunction,ComponentPad*%
%ADD12C,8.000000*%
%TD*%
%TA.AperFunction,ComponentPad*%
%ADD13C,7.000000*%
%TD*%
G04 APERTURE END LIST*
D10*
X161544000Y-159258000D02*
X110744000Y-159258000D01*
X110744000Y-159258000D02*
X110744000Y-115189000D01*
X110744000Y-115189000D02*
X161544000Y-115189000D01*
X161544000Y-115189000D02*
X161544000Y-159258000D01*
G36*
X161544000Y-159258000D02*
G01*
X110744000Y-159258000D01*
X110744000Y-115189000D01*
X161544000Y-115189000D01*
X161544000Y-159258000D01*
G37*
X161544000Y-74549000D02*
X110744000Y-74549000D01*
X110744000Y-74549000D02*
X110744000Y-30480000D01*
X110744000Y-30480000D02*
X161544000Y-30480000D01*
X161544000Y-30480000D02*
X161544000Y-74549000D01*
G36*
X161544000Y-74549000D02*
G01*
X110744000Y-74549000D01*
X110744000Y-30480000D01*
X161544000Y-30480000D01*
X161544000Y-74549000D01*
G37*
%TO.C,kibuzzard-644E6FAF*%
G36*
X144994003Y-95185485D02*
G01*
X145102523Y-95281409D01*
X145169961Y-95444383D01*
X145192440Y-95677509D01*
X145169961Y-95888155D01*
X145102523Y-96042603D01*
X144993227Y-96137364D01*
X144845174Y-96168952D01*
X144700222Y-96137752D01*
X144590926Y-96044153D01*
X144522326Y-95881954D01*
X144499459Y-95644953D01*
X144522326Y-95437213D01*
X144590926Y-95282184D01*
X144700997Y-95185678D01*
X144848275Y-95153510D01*
X144994003Y-95185485D01*
G37*
G36*
X125092566Y-97827473D02*
G01*
X124878315Y-97795692D01*
X124668212Y-97743063D01*
X124464278Y-97670095D01*
X124268479Y-97577489D01*
X124082700Y-97466137D01*
X123908730Y-97337112D01*
X123748244Y-97191656D01*
X123602788Y-97031170D01*
X123473762Y-96857199D01*
X123362410Y-96671420D01*
X123269804Y-96475621D01*
X123196836Y-96271687D01*
X123144208Y-96061584D01*
X123137598Y-96017023D01*
X125970358Y-96017023D01*
X126019579Y-96224568D01*
X126167245Y-96388318D01*
X126311250Y-96467125D01*
X126480748Y-96514409D01*
X126675741Y-96530170D01*
X126874760Y-96511373D01*
X127050137Y-96454981D01*
X127196058Y-96365839D01*
X127306710Y-96248792D01*
X127376473Y-96112560D01*
X127399728Y-95965863D01*
X126974947Y-95965863D01*
X126886581Y-96148798D01*
X126666439Y-96212360D01*
X126471877Y-96163526D01*
X126405990Y-96035626D01*
X126479095Y-95919354D01*
X127570260Y-95919354D01*
X127594289Y-96082717D01*
X127663277Y-96231739D01*
X127771604Y-96357700D01*
X127913650Y-96451880D01*
X128080888Y-96510597D01*
X128264791Y-96530170D01*
X128487689Y-96504762D01*
X128676825Y-96428540D01*
X128832198Y-96301502D01*
X128947609Y-96129678D01*
X129016855Y-95919096D01*
X129039938Y-95669757D01*
X129039938Y-95640302D01*
X129017028Y-95399317D01*
X128948298Y-95193128D01*
X128833749Y-95021735D01*
X128679236Y-94893405D01*
X128503698Y-94821747D01*
X129339144Y-94821747D01*
X129339144Y-96499164D01*
X129788729Y-96499164D01*
X129788729Y-96489862D01*
X130044527Y-96489862D01*
X130178240Y-96520093D01*
X130315829Y-96530170D01*
X130522599Y-96500424D01*
X130671621Y-96411185D01*
X130762894Y-96262454D01*
X130796420Y-96054230D01*
X130796420Y-95806183D01*
X131139034Y-95806183D01*
X132207186Y-95806183D01*
X132163584Y-95954236D01*
X132076186Y-96069733D01*
X131952357Y-96144147D01*
X131799459Y-96168952D01*
X131568853Y-96122055D01*
X131394833Y-95981366D01*
X131174691Y-96227863D01*
X131293288Y-96354793D01*
X131447543Y-96450330D01*
X131628927Y-96510210D01*
X131828915Y-96530170D01*
X132059650Y-96505021D01*
X132075195Y-96499164D01*
X132938924Y-96499164D01*
X133386959Y-96499164D01*
X133386959Y-95437213D01*
X133448971Y-95224048D01*
X133655160Y-95155060D01*
X133824917Y-95193042D01*
X133940414Y-95306989D01*
X133940414Y-96499164D01*
X134388448Y-96499164D01*
X134388448Y-96489862D01*
X134610140Y-96489862D01*
X134743853Y-96520093D01*
X134881442Y-96530170D01*
X135088212Y-96500424D01*
X135090316Y-96499164D01*
X135789913Y-96499164D01*
X136237948Y-96499164D01*
X136237948Y-95426361D01*
X136299960Y-95219397D01*
X136506149Y-95155060D01*
X136671642Y-95195368D01*
X136789852Y-95316291D01*
X136789852Y-96499164D01*
X137237887Y-96499164D01*
X137237887Y-94821747D01*
X137405318Y-94821747D01*
X138079696Y-96759613D01*
X138116903Y-96847980D01*
X138238859Y-97030570D01*
X138404224Y-97140124D01*
X138612997Y-97176642D01*
X138811434Y-97147187D01*
X138811434Y-96807672D01*
X138743221Y-96809223D01*
X138553310Y-96770465D01*
X138454867Y-96641791D01*
X138402157Y-96503815D01*
X138611729Y-95903852D01*
X139107540Y-95903852D01*
X139132173Y-96085150D01*
X139206070Y-96238370D01*
X139329232Y-96363513D01*
X139494080Y-96456100D01*
X139693034Y-96511653D01*
X139926095Y-96530170D01*
X140174917Y-96506334D01*
X140226878Y-96489862D01*
X141797298Y-96489862D01*
X141931011Y-96520093D01*
X142068600Y-96530170D01*
X142275370Y-96500424D01*
X142424392Y-96411185D01*
X142515665Y-96262454D01*
X142549191Y-96054230D01*
X142549191Y-95150409D01*
X142794137Y-95150409D01*
X142794137Y-94821747D01*
X142549191Y-94821747D01*
X142549191Y-94409369D01*
X142101156Y-94409369D01*
X142101156Y-94821747D01*
X141814352Y-94821747D01*
X141814352Y-95150409D01*
X142101156Y-95150409D01*
X142101156Y-95987567D01*
X142065499Y-96120893D01*
X141929073Y-96161200D01*
X141797298Y-96150348D01*
X141797298Y-96489862D01*
X140226878Y-96489862D01*
X140400485Y-96434827D01*
X140589039Y-96321849D01*
X140726821Y-96173603D01*
X140811118Y-95994544D01*
X140839217Y-95789130D01*
X140372579Y-95789130D01*
X140344674Y-95952589D01*
X140260958Y-96069345D01*
X140121432Y-96139399D01*
X139926095Y-96162750D01*
X139778429Y-96145891D01*
X139667196Y-96095313D01*
X139574178Y-95906952D01*
X139667196Y-95704639D01*
X139797421Y-95632163D01*
X140002059Y-95555811D01*
X140218713Y-95478102D01*
X140384982Y-95401557D01*
X140598577Y-95247044D01*
X140726735Y-95060492D01*
X140769454Y-94841901D01*
X140743681Y-94668849D01*
X140666360Y-94515564D01*
X140540786Y-94387859D01*
X140370254Y-94291547D01*
X140165421Y-94231085D01*
X139936947Y-94210932D01*
X139708279Y-94232830D01*
X139505965Y-94298523D01*
X139337952Y-94404137D01*
X139212185Y-94545795D01*
X139133701Y-94716327D01*
X139107540Y-94908563D01*
X139572628Y-94908563D01*
X139597045Y-94770781D01*
X139670297Y-94667493D01*
X139787731Y-94602962D01*
X139944698Y-94581452D01*
X140096240Y-94599474D01*
X140209798Y-94653540D01*
X140304366Y-94843451D01*
X140193520Y-95027936D01*
X140056513Y-95100025D01*
X139867184Y-95167462D01*
X139626544Y-95253418D01*
X139433791Y-95352120D01*
X139288924Y-95463568D01*
X139152886Y-95662006D01*
X139107540Y-95903852D01*
X138611729Y-95903852D01*
X138989718Y-94821747D01*
X138507577Y-94821747D01*
X138195968Y-95865094D01*
X137885909Y-94821747D01*
X137405318Y-94821747D01*
X137237887Y-94821747D01*
X136816207Y-94821747D01*
X136802255Y-95015534D01*
X136668757Y-94890649D01*
X136508043Y-94815718D01*
X136320113Y-94790741D01*
X136087569Y-94829886D01*
X135923238Y-94947321D01*
X135824795Y-95142658D01*
X135789913Y-95415509D01*
X135789913Y-96499164D01*
X135090316Y-96499164D01*
X135237234Y-96411185D01*
X135328507Y-96262454D01*
X135362032Y-96054230D01*
X135362032Y-95150409D01*
X135606979Y-95150409D01*
X135606979Y-94821747D01*
X135362032Y-94821747D01*
X135362032Y-94409369D01*
X134913998Y-94409369D01*
X134913998Y-94821747D01*
X134627193Y-94821747D01*
X134627193Y-95150409D01*
X134913998Y-95150409D01*
X134913998Y-95987567D01*
X134878341Y-96120893D01*
X134741915Y-96161200D01*
X134610140Y-96150348D01*
X134610140Y-96489862D01*
X134388448Y-96489862D01*
X134388448Y-94117914D01*
X133940414Y-94117914D01*
X133940414Y-95004682D01*
X133811395Y-94885826D01*
X133662050Y-94814512D01*
X133492379Y-94790741D01*
X133295616Y-94816104D01*
X133141889Y-94892192D01*
X133031198Y-95019006D01*
X132963543Y-95196546D01*
X132938924Y-95424811D01*
X132938924Y-96499164D01*
X132075195Y-96499164D01*
X132259896Y-96429573D01*
X132429653Y-96303827D01*
X132558414Y-96136223D01*
X132635670Y-95935202D01*
X132661422Y-95700763D01*
X132661422Y-95657355D01*
X132637005Y-95418029D01*
X132563754Y-95205445D01*
X132445737Y-95029099D01*
X132287026Y-94898487D01*
X132095371Y-94817678D01*
X131878524Y-94790741D01*
X131665359Y-94814857D01*
X131484750Y-94887204D01*
X131336697Y-95007782D01*
X131226884Y-95172630D01*
X131160997Y-95377785D01*
X131139034Y-95623249D01*
X131139034Y-95806183D01*
X130796420Y-95806183D01*
X130796420Y-95150409D01*
X131041366Y-95150409D01*
X131041366Y-94821747D01*
X130796420Y-94821747D01*
X130796420Y-94409369D01*
X130348385Y-94409369D01*
X130348385Y-94821747D01*
X130061581Y-94821747D01*
X130061581Y-95150409D01*
X130348385Y-95150409D01*
X130348385Y-95987567D01*
X130312728Y-96120893D01*
X130176302Y-96161200D01*
X130044527Y-96150348D01*
X130044527Y-96489862D01*
X129788729Y-96489862D01*
X129788729Y-94821747D01*
X129339144Y-94821747D01*
X128503698Y-94821747D01*
X128490617Y-94816407D01*
X128267892Y-94790741D01*
X128071952Y-94810637D01*
X127903745Y-94870323D01*
X127763271Y-94969800D01*
X127657421Y-95102350D01*
X127593084Y-95261255D01*
X127570260Y-95446515D01*
X127990389Y-95446515D01*
X128071005Y-95234900D01*
X128275643Y-95153510D01*
X128413038Y-95181996D01*
X128512063Y-95267456D01*
X128571943Y-95416866D01*
X128591903Y-95637201D01*
X128591903Y-95683710D01*
X128572137Y-95906177D01*
X128512838Y-96055780D01*
X128413232Y-96140659D01*
X128272543Y-96168952D01*
X128071005Y-96100739D01*
X127990389Y-95919354D01*
X127570260Y-95919354D01*
X126479095Y-95919354D01*
X126487380Y-95906177D01*
X126593382Y-95861412D01*
X126748605Y-95821686D01*
X127010410Y-95742815D01*
X127197414Y-95631775D01*
X127309617Y-95488567D01*
X127347018Y-95313190D01*
X127300703Y-95108357D01*
X127161758Y-94940344D01*
X127025590Y-94857232D01*
X126864101Y-94807364D01*
X126677291Y-94790741D01*
X126478595Y-94807450D01*
X126308321Y-94857576D01*
X126166470Y-94941120D01*
X126022874Y-95113977D01*
X125975008Y-95331793D01*
X126423043Y-95331793D01*
X126485055Y-95172888D01*
X126678841Y-95110102D01*
X126854025Y-95161261D01*
X126916036Y-95291486D01*
X126845498Y-95411634D01*
X126607528Y-95490698D01*
X126453274Y-95526161D01*
X126325375Y-95565888D01*
X126128143Y-95673891D01*
X126009804Y-95824270D01*
X125970358Y-96017023D01*
X123137598Y-96017023D01*
X123112427Y-95847334D01*
X123101799Y-95631000D01*
X123112427Y-95414666D01*
X123144208Y-95200416D01*
X123196836Y-94990313D01*
X123269804Y-94786379D01*
X123362410Y-94590580D01*
X123473762Y-94404801D01*
X123486471Y-94387665D01*
X129312789Y-94387665D01*
X129381777Y-94555097D01*
X129563937Y-94620209D01*
X129746096Y-94555097D01*
X129815084Y-94387665D01*
X129747646Y-94221784D01*
X129563937Y-94156671D01*
X129381002Y-94221784D01*
X129312789Y-94387665D01*
X123486471Y-94387665D01*
X123602788Y-94230830D01*
X123706534Y-94116364D01*
X142809640Y-94116364D01*
X142814291Y-94463629D01*
X142950716Y-94449677D01*
X143140240Y-94508975D01*
X143203414Y-94686872D01*
X143203414Y-94821747D01*
X142870101Y-94821747D01*
X142870101Y-95150409D01*
X143203414Y-95150409D01*
X143203414Y-96499164D01*
X143652999Y-96499164D01*
X143652999Y-95677509D01*
X144051424Y-95677509D01*
X144075368Y-95917890D01*
X144147198Y-96124338D01*
X144266915Y-96296851D01*
X144426940Y-96426473D01*
X144619693Y-96504246D01*
X144845174Y-96530170D01*
X145070742Y-96504332D01*
X145263754Y-96426817D01*
X145424209Y-96297626D01*
X145544357Y-96123993D01*
X145616445Y-95913153D01*
X145617346Y-95903852D01*
X145855965Y-95903852D01*
X145880598Y-96085150D01*
X145954495Y-96238370D01*
X146077657Y-96363513D01*
X146242505Y-96456100D01*
X146441459Y-96511653D01*
X146674520Y-96530170D01*
X146923342Y-96506334D01*
X147148910Y-96434827D01*
X147337464Y-96321849D01*
X147475246Y-96173603D01*
X147559544Y-95994544D01*
X147587643Y-95789130D01*
X147121005Y-95789130D01*
X147093099Y-95952589D01*
X147009383Y-96069345D01*
X146869857Y-96139399D01*
X146674520Y-96162750D01*
X146526855Y-96145891D01*
X146415621Y-96095313D01*
X146322604Y-95906952D01*
X146415621Y-95704639D01*
X146545846Y-95632163D01*
X146750485Y-95555811D01*
X146967138Y-95478102D01*
X147133407Y-95401557D01*
X147347003Y-95247044D01*
X147475160Y-95060492D01*
X147517880Y-94841901D01*
X147492106Y-94668849D01*
X147414785Y-94515564D01*
X147289211Y-94387859D01*
X147118679Y-94291547D01*
X146913847Y-94231085D01*
X146685372Y-94210932D01*
X146456704Y-94232830D01*
X146254391Y-94298523D01*
X146086378Y-94404137D01*
X145960610Y-94545795D01*
X145882127Y-94716327D01*
X145855965Y-94908563D01*
X146321053Y-94908563D01*
X146345470Y-94770781D01*
X146418722Y-94667493D01*
X146536157Y-94602962D01*
X146693124Y-94581452D01*
X146844665Y-94599474D01*
X146958224Y-94653540D01*
X147052792Y-94843451D01*
X146941946Y-95027936D01*
X146804939Y-95100025D01*
X146615609Y-95167462D01*
X146374969Y-95253418D01*
X146182216Y-95352120D01*
X146037350Y-95463568D01*
X145901312Y-95662006D01*
X145855965Y-95903852D01*
X145617346Y-95903852D01*
X145640475Y-95665106D01*
X145640475Y-95644953D01*
X145616445Y-95408921D01*
X145544357Y-95200019D01*
X145427116Y-95026773D01*
X145267629Y-94897711D01*
X145072486Y-94817484D01*
X144848275Y-94790741D01*
X144635799Y-94813823D01*
X144451056Y-94883070D01*
X144294045Y-94998480D01*
X144172003Y-95153510D01*
X144092163Y-95341612D01*
X144054525Y-95562787D01*
X144051424Y-95677509D01*
X143652999Y-95677509D01*
X143652999Y-95150409D01*
X143902596Y-95150409D01*
X143902596Y-94821747D01*
X143652999Y-94821747D01*
X143652999Y-94679120D01*
X143612498Y-94428554D01*
X143490994Y-94241162D01*
X143296626Y-94124309D01*
X143037533Y-94085358D01*
X142809640Y-94116364D01*
X123706534Y-94116364D01*
X123748244Y-94070344D01*
X123908730Y-93924888D01*
X124082700Y-93795863D01*
X124268479Y-93684511D01*
X124464278Y-93591905D01*
X124668212Y-93518937D01*
X124878315Y-93466308D01*
X125092566Y-93434527D01*
X125308899Y-93423900D01*
X148249101Y-93423900D01*
X148465435Y-93434527D01*
X148679685Y-93466308D01*
X148889788Y-93518937D01*
X149093722Y-93591905D01*
X149289521Y-93684511D01*
X149475300Y-93795863D01*
X149649271Y-93924888D01*
X149809757Y-94070344D01*
X149955213Y-94230830D01*
X150084238Y-94404801D01*
X150195590Y-94590580D01*
X150288196Y-94786379D01*
X150361164Y-94990313D01*
X150413792Y-95200416D01*
X150445573Y-95414666D01*
X150456201Y-95631000D01*
X150445573Y-95847334D01*
X150413792Y-96061584D01*
X150361164Y-96271687D01*
X150288196Y-96475621D01*
X150195590Y-96671420D01*
X150084238Y-96857199D01*
X149955213Y-97031170D01*
X149809757Y-97191656D01*
X149649271Y-97337112D01*
X149475300Y-97466137D01*
X149289521Y-97577489D01*
X149093722Y-97670095D01*
X148889788Y-97743063D01*
X148679685Y-97795692D01*
X148465435Y-97827473D01*
X148249101Y-97838100D01*
X125308899Y-97838100D01*
X125092566Y-97827473D01*
G37*
G36*
X132096340Y-95243427D02*
G01*
X132164359Y-95352722D01*
X132202535Y-95500775D01*
X131579318Y-95500775D01*
X131579318Y-95465119D01*
X131659933Y-95234900D01*
X131880074Y-95153510D01*
X132096340Y-95243427D01*
G37*
%TD*%
D11*
%TO.P,REF\u002A\u002A,1*%
%TO.N,N/C*%
X118157000Y-33353000D03*
%TD*%
D12*
%TO.P,,1*%
%TO.N,N/C*%
X122885200Y-80390471D03*
%TD*%
D13*
%TO.P,REF\u002A\u002A,1*%
%TO.N,N/C*%
X155829000Y-137668000D03*
%TD*%
D12*
%TO.P,REF\u002A\u002A,1*%
%TO.N,N/C*%
X149860000Y-108077000D03*
%TD*%
D13*
%TO.P,REF\u002A\u002A,1*%
%TO.N,N/C*%
X116332000Y-137668000D03*
%TD*%
D11*
%TO.P,REF\u002A\u002A,1*%
%TO.N,N/C*%
X153877000Y-155853000D03*
%TD*%
%TO.P,REF\u002A\u002A,1*%
%TO.N,N/C*%
X153877000Y-33353000D03*
%TD*%
D12*
%TO.P,REF\u002A\u002A,1*%
%TO.N,N/C*%
X149860000Y-80340200D03*
%TD*%
D13*
%TO.P,REF\u002A\u002A,1*%
%TO.N,N/C*%
X135890000Y-137668000D03*
%TD*%
D12*
%TO.P,,1*%
%TO.N,N/C*%
X122809000Y-108077000D03*
%TD*%
D11*
%TO.P,REF\u002A\u002A,1*%
%TO.N,N/C*%
X118157000Y-155853000D03*
%TD*%
D12*
%TO.P,REF\u002A\u002A,1*%
%TO.N,N/C*%
X151256800Y-56808200D03*
%TD*%
D13*
%TO.P,REF\u002A\u002A,1*%
%TO.N,N/C*%
X145796000Y-137668000D03*
%TD*%
%TO.P,,1*%
%TO.N,N/C*%
X125857000Y-137668000D03*
%TD*%
M02*
