%TF.GenerationSoftware,KiCad,Pcbnew,(6.0.8)*%
%TF.CreationDate,2023-04-30T16:13:03+01:00*%
%TF.ProjectId,Panel,50616e65-6c2e-46b6-9963-61645f706362,rev?*%
%TF.SameCoordinates,Original*%
%TF.FileFunction,Legend,Bot*%
%TF.FilePolarity,Positive*%
%FSLAX46Y46*%
G04 Gerber Fmt 4.6, Leading zero omitted, Abs format (unit mm)*
G04 Created by KiCad (PCBNEW (6.0.8)) date 2023-04-30 16:13:03*
%MOMM*%
%LPD*%
G01*
G04 APERTURE LIST*
%ADD10C,0.500000*%
G04 APERTURE END LIST*
D10*
X145382095Y-128317761D02*
X145382095Y-129746333D01*
X145477333Y-130032047D01*
X145667809Y-130222523D01*
X145953523Y-130317761D01*
X146144000Y-130317761D01*
X143477333Y-130317761D02*
X144429714Y-130317761D01*
X144429714Y-128317761D01*
X141667809Y-130127285D02*
X141763047Y-130222523D01*
X142048761Y-130317761D01*
X142239238Y-130317761D01*
X142524952Y-130222523D01*
X142715428Y-130032047D01*
X142810666Y-129841571D01*
X142905904Y-129460619D01*
X142905904Y-129174904D01*
X142810666Y-128793952D01*
X142715428Y-128603476D01*
X142524952Y-128413000D01*
X142239238Y-128317761D01*
X142048761Y-128317761D01*
X141763047Y-128413000D01*
X141667809Y-128508238D01*
X140239238Y-128317761D02*
X140239238Y-129746333D01*
X140334476Y-130032047D01*
X140524952Y-130222523D01*
X140810666Y-130317761D01*
X141001142Y-130317761D01*
X138334476Y-130317761D02*
X139286857Y-130317761D01*
X139286857Y-128317761D01*
X136524952Y-130127285D02*
X136620190Y-130222523D01*
X136905904Y-130317761D01*
X137096380Y-130317761D01*
X137382095Y-130222523D01*
X137572571Y-130032047D01*
X137667809Y-129841571D01*
X137763047Y-129460619D01*
X137763047Y-129174904D01*
X137667809Y-128793952D01*
X137572571Y-128603476D01*
X137382095Y-128413000D01*
X137096380Y-128317761D01*
X136905904Y-128317761D01*
X136620190Y-128413000D01*
X136524952Y-128508238D01*
X135096380Y-128317761D02*
X135096380Y-129746333D01*
X135191619Y-130032047D01*
X135382095Y-130222523D01*
X135667809Y-130317761D01*
X135858285Y-130317761D01*
X133191619Y-130317761D02*
X134144000Y-130317761D01*
X134144000Y-128317761D01*
X131382095Y-130127285D02*
X131477333Y-130222523D01*
X131763047Y-130317761D01*
X131953523Y-130317761D01*
X132239238Y-130222523D01*
X132429714Y-130032047D01*
X132524952Y-129841571D01*
X132620190Y-129460619D01*
X132620190Y-129174904D01*
X132524952Y-128793952D01*
X132429714Y-128603476D01*
X132239238Y-128413000D01*
X131953523Y-128317761D01*
X131763047Y-128317761D01*
X131477333Y-128413000D01*
X131382095Y-128508238D01*
X129953523Y-128317761D02*
X129953523Y-129746333D01*
X130048761Y-130032047D01*
X130239238Y-130222523D01*
X130524952Y-130317761D01*
X130715428Y-130317761D01*
X128048761Y-130317761D02*
X129001142Y-130317761D01*
X129001142Y-128317761D01*
X126239238Y-130127285D02*
X126334476Y-130222523D01*
X126620190Y-130317761D01*
X126810666Y-130317761D01*
X127096380Y-130222523D01*
X127286857Y-130032047D01*
X127382095Y-129841571D01*
X127477333Y-129460619D01*
X127477333Y-129174904D01*
X127382095Y-128793952D01*
X127286857Y-128603476D01*
X127096380Y-128413000D01*
X126810666Y-128317761D01*
X126620190Y-128317761D01*
X126334476Y-128413000D01*
X126239238Y-128508238D01*
M02*
