%TF.GenerationSoftware,KiCad,Pcbnew,(6.0.8)*%
%TF.CreationDate,2022-12-02T10:00:09+00:00*%
%TF.ProjectId,DSP 1.0,44535020-312e-4302-9e6b-696361645f70,rev?*%
%TF.SameCoordinates,Original*%
%TF.FileFunction,Legend,Bot*%
%TF.FilePolarity,Positive*%
%FSLAX46Y46*%
G04 Gerber Fmt 4.6, Leading zero omitted, Abs format (unit mm)*
G04 Created by KiCad (PCBNEW (6.0.8)) date 2022-12-02 10:00:09*
%MOMM*%
%LPD*%
G01*
G04 APERTURE LIST*
%ADD10C,0.150000*%
%ADD11C,0.120000*%
G04 APERTURE END LIST*
D10*
X74350238Y-119703380D02*
X74350238Y-118703380D01*
X74350238Y-119655761D02*
X74445476Y-119703380D01*
X74635952Y-119703380D01*
X74731190Y-119655761D01*
X74778809Y-119608142D01*
X74826428Y-119512904D01*
X74826428Y-119227190D01*
X74778809Y-119131952D01*
X74731190Y-119084333D01*
X74635952Y-119036714D01*
X74445476Y-119036714D01*
X74350238Y-119084333D01*
X73921666Y-119655761D02*
X73826428Y-119703380D01*
X73635952Y-119703380D01*
X73540714Y-119655761D01*
X73493095Y-119560523D01*
X73493095Y-119512904D01*
X73540714Y-119417666D01*
X73635952Y-119370047D01*
X73778809Y-119370047D01*
X73874047Y-119322428D01*
X73921666Y-119227190D01*
X73921666Y-119179571D01*
X73874047Y-119084333D01*
X73778809Y-119036714D01*
X73635952Y-119036714D01*
X73540714Y-119084333D01*
X73064523Y-119036714D02*
X73064523Y-120036714D01*
X73064523Y-119084333D02*
X72969285Y-119036714D01*
X72778809Y-119036714D01*
X72683571Y-119084333D01*
X72635952Y-119131952D01*
X72588333Y-119227190D01*
X72588333Y-119512904D01*
X72635952Y-119608142D01*
X72683571Y-119655761D01*
X72778809Y-119703380D01*
X72969285Y-119703380D01*
X73064523Y-119655761D01*
X72159761Y-119322428D02*
X71397857Y-119322428D01*
X70874047Y-119703380D02*
X70683571Y-119703380D01*
X70588333Y-119655761D01*
X70540714Y-119608142D01*
X70445476Y-119465285D01*
X70397857Y-119274809D01*
X70397857Y-118893857D01*
X70445476Y-118798619D01*
X70493095Y-118751000D01*
X70588333Y-118703380D01*
X70778809Y-118703380D01*
X70874047Y-118751000D01*
X70921666Y-118798619D01*
X70969285Y-118893857D01*
X70969285Y-119131952D01*
X70921666Y-119227190D01*
X70874047Y-119274809D01*
X70778809Y-119322428D01*
X70588333Y-119322428D01*
X70493095Y-119274809D01*
X70445476Y-119227190D01*
X70397857Y-119131952D01*
X69921666Y-119703380D02*
X69731190Y-119703380D01*
X69635952Y-119655761D01*
X69588333Y-119608142D01*
X69493095Y-119465285D01*
X69445476Y-119274809D01*
X69445476Y-118893857D01*
X69493095Y-118798619D01*
X69540714Y-118751000D01*
X69635952Y-118703380D01*
X69826428Y-118703380D01*
X69921666Y-118751000D01*
X69969285Y-118798619D01*
X70016904Y-118893857D01*
X70016904Y-119131952D01*
X69969285Y-119227190D01*
X69921666Y-119274809D01*
X69826428Y-119322428D01*
X69635952Y-119322428D01*
X69540714Y-119274809D01*
X69493095Y-119227190D01*
X69445476Y-119131952D01*
X79397857Y-120789571D02*
X79064523Y-120789571D01*
X78921666Y-121313380D02*
X79397857Y-121313380D01*
X79397857Y-120313380D01*
X78921666Y-120313380D01*
X78493095Y-120313380D02*
X78493095Y-121122904D01*
X78445476Y-121218142D01*
X78397857Y-121265761D01*
X78302619Y-121313380D01*
X78112142Y-121313380D01*
X78016904Y-121265761D01*
X77969285Y-121218142D01*
X77921666Y-121122904D01*
X77921666Y-120313380D01*
X76874047Y-121313380D02*
X77207380Y-120837190D01*
X77445476Y-121313380D02*
X77445476Y-120313380D01*
X77064523Y-120313380D01*
X76969285Y-120361000D01*
X76921666Y-120408619D01*
X76874047Y-120503857D01*
X76874047Y-120646714D01*
X76921666Y-120741952D01*
X76969285Y-120789571D01*
X77064523Y-120837190D01*
X77445476Y-120837190D01*
X76255000Y-120313380D02*
X76064523Y-120313380D01*
X75969285Y-120361000D01*
X75874047Y-120456238D01*
X75826428Y-120646714D01*
X75826428Y-120980047D01*
X75874047Y-121170523D01*
X75969285Y-121265761D01*
X76064523Y-121313380D01*
X76255000Y-121313380D01*
X76350238Y-121265761D01*
X76445476Y-121170523D01*
X76493095Y-120980047D01*
X76493095Y-120646714D01*
X76445476Y-120456238D01*
X76350238Y-120361000D01*
X76255000Y-120313380D01*
X74826428Y-121313380D02*
X75159761Y-120837190D01*
X75397857Y-121313380D02*
X75397857Y-120313380D01*
X75016904Y-120313380D01*
X74921666Y-120361000D01*
X74874047Y-120408619D01*
X74826428Y-120503857D01*
X74826428Y-120646714D01*
X74874047Y-120741952D01*
X74921666Y-120789571D01*
X75016904Y-120837190D01*
X75397857Y-120837190D01*
X74445476Y-121027666D02*
X73969285Y-121027666D01*
X74540714Y-121313380D02*
X74207380Y-120313380D01*
X73874047Y-121313380D01*
X72969285Y-121218142D02*
X73016904Y-121265761D01*
X73159761Y-121313380D01*
X73255000Y-121313380D01*
X73397857Y-121265761D01*
X73493095Y-121170523D01*
X73540714Y-121075285D01*
X73588333Y-120884809D01*
X73588333Y-120741952D01*
X73540714Y-120551476D01*
X73493095Y-120456238D01*
X73397857Y-120361000D01*
X73255000Y-120313380D01*
X73159761Y-120313380D01*
X73016904Y-120361000D01*
X72969285Y-120408619D01*
X72540714Y-121313380D02*
X72540714Y-120313380D01*
X71969285Y-121313380D02*
X72397857Y-120741952D01*
X71969285Y-120313380D02*
X72540714Y-120884809D01*
X70826428Y-121027666D02*
X70350238Y-121027666D01*
X70921666Y-121313380D02*
X70588333Y-120313380D01*
X70255000Y-121313380D01*
X69921666Y-121313380D02*
X69921666Y-120313380D01*
X69683571Y-120313380D01*
X69540714Y-120361000D01*
X69445476Y-120456238D01*
X69397857Y-120551476D01*
X69350238Y-120741952D01*
X69350238Y-120884809D01*
X69397857Y-121075285D01*
X69445476Y-121170523D01*
X69540714Y-121265761D01*
X69683571Y-121313380D01*
X69921666Y-121313380D01*
X68969285Y-121027666D02*
X68493095Y-121027666D01*
X69064523Y-121313380D02*
X68731190Y-120313380D01*
X68397857Y-121313380D01*
X68064523Y-121313380D02*
X68064523Y-120313380D01*
X67683571Y-120313380D01*
X67588333Y-120361000D01*
X67540714Y-120408619D01*
X67493095Y-120503857D01*
X67493095Y-120646714D01*
X67540714Y-120741952D01*
X67588333Y-120789571D01*
X67683571Y-120837190D01*
X68064523Y-120837190D01*
X67207380Y-120313380D02*
X66635952Y-120313380D01*
X66921666Y-121313380D02*
X66921666Y-120313380D01*
X66302619Y-120789571D02*
X65969285Y-120789571D01*
X65826428Y-121313380D02*
X66302619Y-121313380D01*
X66302619Y-120313380D01*
X65826428Y-120313380D01*
X64826428Y-121313380D02*
X65159761Y-120837190D01*
X65397857Y-121313380D02*
X65397857Y-120313380D01*
X65016904Y-120313380D01*
X64921666Y-120361000D01*
X64874047Y-120408619D01*
X64826428Y-120503857D01*
X64826428Y-120646714D01*
X64874047Y-120741952D01*
X64921666Y-120789571D01*
X65016904Y-120837190D01*
X65397857Y-120837190D01*
X78255000Y-122923380D02*
X78255000Y-121923380D01*
X77778809Y-122923380D02*
X77778809Y-121923380D01*
X77207380Y-122923380D01*
X77207380Y-121923380D01*
X76874047Y-121923380D02*
X76302619Y-121923380D01*
X76588333Y-122923380D02*
X76588333Y-121923380D01*
X75969285Y-122399571D02*
X75635952Y-122399571D01*
X75493095Y-122923380D02*
X75969285Y-122923380D01*
X75969285Y-121923380D01*
X75493095Y-121923380D01*
X74493095Y-122923380D02*
X74826428Y-122447190D01*
X75064523Y-122923380D02*
X75064523Y-121923380D01*
X74683571Y-121923380D01*
X74588333Y-121971000D01*
X74540714Y-122018619D01*
X74493095Y-122113857D01*
X74493095Y-122256714D01*
X74540714Y-122351952D01*
X74588333Y-122399571D01*
X74683571Y-122447190D01*
X75064523Y-122447190D01*
X73731190Y-122399571D02*
X74064523Y-122399571D01*
X74064523Y-122923380D02*
X74064523Y-121923380D01*
X73588333Y-121923380D01*
X73255000Y-122637666D02*
X72778809Y-122637666D01*
X73350238Y-122923380D02*
X73016904Y-121923380D01*
X72683571Y-122923380D01*
X71778809Y-122828142D02*
X71826428Y-122875761D01*
X71969285Y-122923380D01*
X72064523Y-122923380D01*
X72207380Y-122875761D01*
X72302619Y-122780523D01*
X72350238Y-122685285D01*
X72397857Y-122494809D01*
X72397857Y-122351952D01*
X72350238Y-122161476D01*
X72302619Y-122066238D01*
X72207380Y-121971000D01*
X72064523Y-121923380D01*
X71969285Y-121923380D01*
X71826428Y-121971000D01*
X71778809Y-122018619D01*
X71350238Y-122399571D02*
X71016904Y-122399571D01*
X70874047Y-122923380D02*
X71350238Y-122923380D01*
X71350238Y-121923380D01*
X70874047Y-121923380D01*
X69350238Y-122399571D02*
X69207380Y-122447190D01*
X69159761Y-122494809D01*
X69112142Y-122590047D01*
X69112142Y-122732904D01*
X69159761Y-122828142D01*
X69207380Y-122875761D01*
X69302619Y-122923380D01*
X69683571Y-122923380D01*
X69683571Y-121923380D01*
X69350238Y-121923380D01*
X69255000Y-121971000D01*
X69207380Y-122018619D01*
X69159761Y-122113857D01*
X69159761Y-122209095D01*
X69207380Y-122304333D01*
X69255000Y-122351952D01*
X69350238Y-122399571D01*
X69683571Y-122399571D01*
X68493095Y-121923380D02*
X68302619Y-121923380D01*
X68207380Y-121971000D01*
X68112142Y-122066238D01*
X68064523Y-122256714D01*
X68064523Y-122590047D01*
X68112142Y-122780523D01*
X68207380Y-122875761D01*
X68302619Y-122923380D01*
X68493095Y-122923380D01*
X68588333Y-122875761D01*
X68683571Y-122780523D01*
X68731190Y-122590047D01*
X68731190Y-122256714D01*
X68683571Y-122066238D01*
X68588333Y-121971000D01*
X68493095Y-121923380D01*
X67683571Y-122637666D02*
X67207380Y-122637666D01*
X67778809Y-122923380D02*
X67445476Y-121923380D01*
X67112142Y-122923380D01*
X66207380Y-122923380D02*
X66540714Y-122447190D01*
X66778809Y-122923380D02*
X66778809Y-121923380D01*
X66397857Y-121923380D01*
X66302619Y-121971000D01*
X66255000Y-122018619D01*
X66207380Y-122113857D01*
X66207380Y-122256714D01*
X66255000Y-122351952D01*
X66302619Y-122399571D01*
X66397857Y-122447190D01*
X66778809Y-122447190D01*
X65778809Y-122923380D02*
X65778809Y-121923380D01*
X65540714Y-121923380D01*
X65397857Y-121971000D01*
X65302619Y-122066238D01*
X65255000Y-122161476D01*
X65207380Y-122351952D01*
X65207380Y-122494809D01*
X65255000Y-122685285D01*
X65302619Y-122780523D01*
X65397857Y-122875761D01*
X65540714Y-122923380D01*
X65778809Y-122923380D01*
X79635952Y-123866714D02*
X79445476Y-124533380D01*
X79255000Y-124057190D01*
X79064523Y-124533380D01*
X78874047Y-123866714D01*
X78588333Y-123866714D02*
X78397857Y-124533380D01*
X78207380Y-124057190D01*
X78016904Y-124533380D01*
X77826428Y-123866714D01*
X77540714Y-123866714D02*
X77350238Y-124533380D01*
X77159761Y-124057190D01*
X76969285Y-124533380D01*
X76778809Y-123866714D01*
X76397857Y-124438142D02*
X76350238Y-124485761D01*
X76397857Y-124533380D01*
X76445476Y-124485761D01*
X76397857Y-124438142D01*
X76397857Y-124533380D01*
X75778809Y-124533380D02*
X75874047Y-124485761D01*
X75921666Y-124438142D01*
X75969285Y-124342904D01*
X75969285Y-124057190D01*
X75921666Y-123961952D01*
X75874047Y-123914333D01*
X75778809Y-123866714D01*
X75635952Y-123866714D01*
X75540714Y-123914333D01*
X75493095Y-123961952D01*
X75445476Y-124057190D01*
X75445476Y-124342904D01*
X75493095Y-124438142D01*
X75540714Y-124485761D01*
X75635952Y-124533380D01*
X75778809Y-124533380D01*
X75112142Y-123866714D02*
X74921666Y-124533380D01*
X74731190Y-124057190D01*
X74540714Y-124533380D01*
X74350238Y-123866714D01*
X73588333Y-124485761D02*
X73683571Y-124533380D01*
X73874047Y-124533380D01*
X73969285Y-124485761D01*
X74016904Y-124390523D01*
X74016904Y-124009571D01*
X73969285Y-123914333D01*
X73874047Y-123866714D01*
X73683571Y-123866714D01*
X73588333Y-123914333D01*
X73540714Y-124009571D01*
X73540714Y-124104809D01*
X74016904Y-124200047D01*
X73112142Y-123866714D02*
X73112142Y-124533380D01*
X73112142Y-123961952D02*
X73064523Y-123914333D01*
X72969285Y-123866714D01*
X72826428Y-123866714D01*
X72731190Y-123914333D01*
X72683571Y-124009571D01*
X72683571Y-124533380D01*
X72207380Y-123866714D02*
X72207380Y-124866714D01*
X72207380Y-123914333D02*
X72112142Y-123866714D01*
X71921666Y-123866714D01*
X71826428Y-123914333D01*
X71778809Y-123961952D01*
X71731190Y-124057190D01*
X71731190Y-124342904D01*
X71778809Y-124438142D01*
X71826428Y-124485761D01*
X71921666Y-124533380D01*
X72112142Y-124533380D01*
X72207380Y-124485761D01*
X70874047Y-124533380D02*
X70874047Y-124009571D01*
X70921666Y-123914333D01*
X71016904Y-123866714D01*
X71207380Y-123866714D01*
X71302619Y-123914333D01*
X70874047Y-124485761D02*
X70969285Y-124533380D01*
X71207380Y-124533380D01*
X71302619Y-124485761D01*
X71350238Y-124390523D01*
X71350238Y-124295285D01*
X71302619Y-124200047D01*
X71207380Y-124152428D01*
X70969285Y-124152428D01*
X70874047Y-124104809D01*
X70540714Y-123866714D02*
X70159761Y-123866714D01*
X70397857Y-123533380D02*
X70397857Y-124390523D01*
X70350238Y-124485761D01*
X70255000Y-124533380D01*
X70159761Y-124533380D01*
X69826428Y-124533380D02*
X69826428Y-123866714D01*
X69826428Y-124057190D02*
X69778809Y-123961952D01*
X69731190Y-123914333D01*
X69635952Y-123866714D01*
X69540714Y-123866714D01*
X69207380Y-124533380D02*
X69207380Y-123866714D01*
X69207380Y-123533380D02*
X69255000Y-123581000D01*
X69207380Y-123628619D01*
X69159761Y-123581000D01*
X69207380Y-123533380D01*
X69207380Y-123628619D01*
X68302619Y-124485761D02*
X68397857Y-124533380D01*
X68588333Y-124533380D01*
X68683571Y-124485761D01*
X68731190Y-124438142D01*
X68778809Y-124342904D01*
X68778809Y-124057190D01*
X68731190Y-123961952D01*
X68683571Y-123914333D01*
X68588333Y-123866714D01*
X68397857Y-123866714D01*
X68302619Y-123914333D01*
X67874047Y-124533380D02*
X67874047Y-123533380D01*
X67778809Y-124152428D02*
X67493095Y-124533380D01*
X67493095Y-123866714D02*
X67874047Y-124247666D01*
X67064523Y-124438142D02*
X67016904Y-124485761D01*
X67064523Y-124533380D01*
X67112142Y-124485761D01*
X67064523Y-124438142D01*
X67064523Y-124533380D01*
X66159761Y-124485761D02*
X66255000Y-124533380D01*
X66445476Y-124533380D01*
X66540714Y-124485761D01*
X66588333Y-124438142D01*
X66635952Y-124342904D01*
X66635952Y-124057190D01*
X66588333Y-123961952D01*
X66540714Y-123914333D01*
X66445476Y-123866714D01*
X66255000Y-123866714D01*
X66159761Y-123914333D01*
X65588333Y-124533380D02*
X65683571Y-124485761D01*
X65731190Y-124438142D01*
X65778809Y-124342904D01*
X65778809Y-124057190D01*
X65731190Y-123961952D01*
X65683571Y-123914333D01*
X65588333Y-123866714D01*
X65445476Y-123866714D01*
X65350238Y-123914333D01*
X65302619Y-123961952D01*
X65255000Y-124057190D01*
X65255000Y-124342904D01*
X65302619Y-124438142D01*
X65350238Y-124485761D01*
X65445476Y-124533380D01*
X65588333Y-124533380D01*
X64826428Y-124533380D02*
X64826428Y-123866714D01*
X64826428Y-123961952D02*
X64778809Y-123914333D01*
X64683571Y-123866714D01*
X64540714Y-123866714D01*
X64445476Y-123914333D01*
X64397857Y-124009571D01*
X64397857Y-124533380D01*
X64397857Y-124009571D02*
X64350238Y-123914333D01*
X64255000Y-123866714D01*
X64112142Y-123866714D01*
X64016904Y-123914333D01*
X63969285Y-124009571D01*
X63969285Y-124533380D01*
X90169476Y-121372380D02*
X89836142Y-122372380D01*
X89502809Y-121372380D01*
X88788523Y-122324761D02*
X88883761Y-122372380D01*
X89074238Y-122372380D01*
X89169476Y-122324761D01*
X89217095Y-122229523D01*
X89217095Y-121848571D01*
X89169476Y-121753333D01*
X89074238Y-121705714D01*
X88883761Y-121705714D01*
X88788523Y-121753333D01*
X88740904Y-121848571D01*
X88740904Y-121943809D01*
X89217095Y-122039047D01*
X88312333Y-122372380D02*
X88312333Y-121705714D01*
X88312333Y-121896190D02*
X88264714Y-121800952D01*
X88217095Y-121753333D01*
X88121857Y-121705714D01*
X88026619Y-121705714D01*
X87740904Y-122324761D02*
X87645666Y-122372380D01*
X87455190Y-122372380D01*
X87359952Y-122324761D01*
X87312333Y-122229523D01*
X87312333Y-122181904D01*
X87359952Y-122086666D01*
X87455190Y-122039047D01*
X87598047Y-122039047D01*
X87693285Y-121991428D01*
X87740904Y-121896190D01*
X87740904Y-121848571D01*
X87693285Y-121753333D01*
X87598047Y-121705714D01*
X87455190Y-121705714D01*
X87359952Y-121753333D01*
X86883761Y-122372380D02*
X86883761Y-121705714D01*
X86883761Y-121372380D02*
X86931380Y-121420000D01*
X86883761Y-121467619D01*
X86836142Y-121420000D01*
X86883761Y-121372380D01*
X86883761Y-121467619D01*
X86264714Y-122372380D02*
X86359952Y-122324761D01*
X86407571Y-122277142D01*
X86455190Y-122181904D01*
X86455190Y-121896190D01*
X86407571Y-121800952D01*
X86359952Y-121753333D01*
X86264714Y-121705714D01*
X86121857Y-121705714D01*
X86026619Y-121753333D01*
X85979000Y-121800952D01*
X85931380Y-121896190D01*
X85931380Y-122181904D01*
X85979000Y-122277142D01*
X86026619Y-122324761D01*
X86121857Y-122372380D01*
X86264714Y-122372380D01*
X85502809Y-121705714D02*
X85502809Y-122372380D01*
X85502809Y-121800952D02*
X85455190Y-121753333D01*
X85359952Y-121705714D01*
X85217095Y-121705714D01*
X85121857Y-121753333D01*
X85074238Y-121848571D01*
X85074238Y-122372380D01*
X83645666Y-121372380D02*
X83550428Y-121372380D01*
X83455190Y-121420000D01*
X83407571Y-121467619D01*
X83359952Y-121562857D01*
X83312333Y-121753333D01*
X83312333Y-121991428D01*
X83359952Y-122181904D01*
X83407571Y-122277142D01*
X83455190Y-122324761D01*
X83550428Y-122372380D01*
X83645666Y-122372380D01*
X83740904Y-122324761D01*
X83788523Y-122277142D01*
X83836142Y-122181904D01*
X83883761Y-121991428D01*
X83883761Y-121753333D01*
X83836142Y-121562857D01*
X83788523Y-121467619D01*
X83740904Y-121420000D01*
X83645666Y-121372380D01*
X82883761Y-122277142D02*
X82836142Y-122324761D01*
X82883761Y-122372380D01*
X82931380Y-122324761D01*
X82883761Y-122277142D01*
X82883761Y-122372380D01*
X81883761Y-122372380D02*
X82455190Y-122372380D01*
X82169476Y-122372380D02*
X82169476Y-121372380D01*
X82264714Y-121515238D01*
X82359952Y-121610476D01*
X82455190Y-121658095D01*
%TO.C,C5*%
X55557142Y-77323333D02*
X55604761Y-77275714D01*
X55652380Y-77132857D01*
X55652380Y-77037619D01*
X55604761Y-76894761D01*
X55509523Y-76799523D01*
X55414285Y-76751904D01*
X55223809Y-76704285D01*
X55080952Y-76704285D01*
X54890476Y-76751904D01*
X54795238Y-76799523D01*
X54700000Y-76894761D01*
X54652380Y-77037619D01*
X54652380Y-77132857D01*
X54700000Y-77275714D01*
X54747619Y-77323333D01*
X54652380Y-78228095D02*
X54652380Y-77751904D01*
X55128571Y-77704285D01*
X55080952Y-77751904D01*
X55033333Y-77847142D01*
X55033333Y-78085238D01*
X55080952Y-78180476D01*
X55128571Y-78228095D01*
X55223809Y-78275714D01*
X55461904Y-78275714D01*
X55557142Y-78228095D01*
X55604761Y-78180476D01*
X55652380Y-78085238D01*
X55652380Y-77847142D01*
X55604761Y-77751904D01*
X55557142Y-77704285D01*
D11*
X53931000Y-76689000D02*
X51840000Y-76689000D01*
X53716000Y-76089000D02*
X51840000Y-76089000D01*
X52514000Y-74729000D02*
X49086000Y-74729000D01*
X53656000Y-75969000D02*
X51840000Y-75969000D01*
X54015000Y-77170000D02*
X51840000Y-77170000D01*
X49760000Y-76209000D02*
X47830000Y-76209000D01*
X52150000Y-74529000D02*
X49450000Y-74529000D01*
X49760000Y-75689000D02*
X48110000Y-75689000D01*
X49760000Y-75969000D02*
X47944000Y-75969000D01*
X53490000Y-75689000D02*
X51840000Y-75689000D01*
X49760000Y-76049000D02*
X47904000Y-76049000D01*
X49760000Y-76009000D02*
X47924000Y-76009000D01*
X49760000Y-75209000D02*
X48495000Y-75209000D01*
X53216000Y-75329000D02*
X51840000Y-75329000D01*
X49760000Y-77050000D02*
X47599000Y-77050000D01*
X52062000Y-74489000D02*
X49538000Y-74489000D01*
X52639000Y-80990241D02*
X52639000Y-80360241D01*
X49760000Y-77090000D02*
X47594000Y-77090000D01*
X53105000Y-75209000D02*
X51840000Y-75209000D01*
X53516000Y-75729000D02*
X51840000Y-75729000D01*
X49760000Y-76810000D02*
X47641000Y-76810000D01*
X49760000Y-75569000D02*
X48193000Y-75569000D01*
X49760000Y-76970000D02*
X47611000Y-76970000D01*
X51965000Y-74449000D02*
X49635000Y-74449000D01*
X53612000Y-75889000D02*
X51840000Y-75889000D01*
X54018000Y-77210000D02*
X51840000Y-77210000D01*
X51202000Y-74249000D02*
X50398000Y-74249000D01*
X53886000Y-76529000D02*
X51840000Y-76529000D01*
X49760000Y-75409000D02*
X48316000Y-75409000D01*
X53786000Y-76249000D02*
X51840000Y-76249000D01*
X53284000Y-75409000D02*
X51840000Y-75409000D01*
X53180000Y-75289000D02*
X51840000Y-75289000D01*
X53734000Y-76129000D02*
X51840000Y-76129000D01*
X53818000Y-76329000D02*
X51840000Y-76329000D01*
X51602000Y-74329000D02*
X49998000Y-74329000D01*
X49760000Y-76489000D02*
X47726000Y-76489000D01*
X52954000Y-80675241D02*
X52324000Y-80675241D01*
X53847000Y-76409000D02*
X51840000Y-76409000D01*
X53874000Y-76489000D02*
X51840000Y-76489000D01*
X53316000Y-75449000D02*
X51840000Y-75449000D01*
X49760000Y-76649000D02*
X47679000Y-76649000D01*
X52795000Y-74929000D02*
X48805000Y-74929000D01*
X53910000Y-76609000D02*
X51840000Y-76609000D01*
X49760000Y-76850000D02*
X47633000Y-76850000D01*
X52744000Y-74889000D02*
X48856000Y-74889000D01*
X49760000Y-76569000D02*
X47702000Y-76569000D01*
X49760000Y-76729000D02*
X47659000Y-76729000D01*
X53590000Y-75849000D02*
X51840000Y-75849000D01*
X53348000Y-75489000D02*
X51840000Y-75489000D01*
X53464000Y-75649000D02*
X51840000Y-75649000D01*
X52634000Y-74809000D02*
X48966000Y-74809000D01*
X52690000Y-74849000D02*
X48910000Y-74849000D01*
X49760000Y-75849000D02*
X48010000Y-75849000D01*
X53542000Y-75769000D02*
X51840000Y-75769000D01*
X49760000Y-77010000D02*
X47605000Y-77010000D01*
X54030000Y-77450000D02*
X47570000Y-77450000D01*
X49760000Y-75809000D02*
X48034000Y-75809000D01*
X53861000Y-76449000D02*
X51840000Y-76449000D01*
X49760000Y-76449000D02*
X47739000Y-76449000D01*
X52892000Y-75009000D02*
X48708000Y-75009000D01*
X49760000Y-75729000D02*
X48084000Y-75729000D01*
X54030000Y-77490000D02*
X47570000Y-77490000D01*
X49760000Y-76329000D02*
X47782000Y-76329000D01*
X49760000Y-75929000D02*
X47966000Y-75929000D01*
X52937000Y-75049000D02*
X48663000Y-75049000D01*
X52576000Y-74769000D02*
X49024000Y-74769000D01*
X54024000Y-77290000D02*
X47576000Y-77290000D01*
X53250000Y-75369000D02*
X51840000Y-75369000D01*
X49760000Y-75609000D02*
X48164000Y-75609000D01*
X49760000Y-75289000D02*
X48420000Y-75289000D01*
X52309000Y-74609000D02*
X49291000Y-74609000D01*
X49760000Y-76769000D02*
X47650000Y-76769000D01*
X49760000Y-75249000D02*
X48457000Y-75249000D01*
X53378000Y-75529000D02*
X51840000Y-75529000D01*
X49760000Y-76129000D02*
X47866000Y-76129000D01*
X49760000Y-75649000D02*
X48136000Y-75649000D01*
X53921000Y-76649000D02*
X51840000Y-76649000D01*
X49760000Y-77210000D02*
X47582000Y-77210000D01*
X53024000Y-75129000D02*
X48576000Y-75129000D01*
X51859000Y-74409000D02*
X49741000Y-74409000D01*
X53696000Y-76049000D02*
X51840000Y-76049000D01*
X49760000Y-76369000D02*
X47767000Y-76369000D01*
X53634000Y-75929000D02*
X51840000Y-75929000D01*
X54027000Y-77330000D02*
X47573000Y-77330000D01*
X52232000Y-74569000D02*
X49368000Y-74569000D01*
X49760000Y-76529000D02*
X47714000Y-76529000D01*
X49760000Y-76409000D02*
X47753000Y-76409000D01*
X53959000Y-76810000D02*
X51840000Y-76810000D01*
X49760000Y-76249000D02*
X47814000Y-76249000D01*
X49760000Y-77170000D02*
X47585000Y-77170000D01*
X51740000Y-74369000D02*
X49860000Y-74369000D01*
X53941000Y-76729000D02*
X51840000Y-76729000D01*
X49760000Y-76289000D02*
X47798000Y-76289000D01*
X49760000Y-76930000D02*
X47618000Y-76930000D01*
X53833000Y-76369000D02*
X51840000Y-76369000D01*
X49760000Y-75369000D02*
X48350000Y-75369000D01*
X53566000Y-75809000D02*
X51840000Y-75809000D01*
X49760000Y-76169000D02*
X47848000Y-76169000D01*
X54028000Y-77370000D02*
X47572000Y-77370000D01*
X49760000Y-76089000D02*
X47884000Y-76089000D01*
X49760000Y-75329000D02*
X48384000Y-75329000D01*
X53967000Y-76850000D02*
X51840000Y-76850000D01*
X49760000Y-76609000D02*
X47690000Y-76609000D01*
X53770000Y-76209000D02*
X51840000Y-76209000D01*
X49760000Y-75489000D02*
X48252000Y-75489000D01*
X49760000Y-75889000D02*
X47988000Y-75889000D01*
X53676000Y-76009000D02*
X51840000Y-76009000D01*
X53989000Y-76970000D02*
X51840000Y-76970000D01*
X49760000Y-76890000D02*
X47625000Y-76890000D01*
X52844000Y-74969000D02*
X48756000Y-74969000D01*
X54030000Y-77410000D02*
X47570000Y-77410000D01*
X52982000Y-75089000D02*
X48618000Y-75089000D01*
X53975000Y-76890000D02*
X51840000Y-76890000D01*
X53898000Y-76569000D02*
X51840000Y-76569000D01*
X49760000Y-77250000D02*
X47578000Y-77250000D01*
X54001000Y-77050000D02*
X51840000Y-77050000D01*
X54022000Y-77250000D02*
X51840000Y-77250000D01*
X49760000Y-77130000D02*
X47589000Y-77130000D01*
X49760000Y-75529000D02*
X48222000Y-75529000D01*
X53436000Y-75609000D02*
X51840000Y-75609000D01*
X52381000Y-74649000D02*
X49219000Y-74649000D01*
X54006000Y-77090000D02*
X51840000Y-77090000D01*
X53752000Y-76169000D02*
X51840000Y-76169000D01*
X53950000Y-76769000D02*
X51840000Y-76769000D01*
X53065000Y-75169000D02*
X48535000Y-75169000D01*
X53407000Y-75569000D02*
X51840000Y-75569000D01*
X52450000Y-74689000D02*
X49150000Y-74689000D01*
X54011000Y-77130000D02*
X51840000Y-77130000D01*
X49760000Y-75769000D02*
X48058000Y-75769000D01*
X53982000Y-76930000D02*
X51840000Y-76930000D01*
X51433000Y-74289000D02*
X50167000Y-74289000D01*
X53143000Y-75249000D02*
X51840000Y-75249000D01*
X49760000Y-75449000D02*
X48284000Y-75449000D01*
X53995000Y-77010000D02*
X51840000Y-77010000D01*
X49760000Y-76689000D02*
X47669000Y-76689000D01*
X53802000Y-76289000D02*
X51840000Y-76289000D01*
X54070000Y-77490000D02*
G75*
G03*
X54070000Y-77490000I-3270000J0D01*
G01*
%TD*%
M02*
