M48
; DRILL file {KiCad (6.0.8)} date Fri Dec  2 10:00:06 2022
; FORMAT={-:-/ absolute / inch / decimal}
; #@! TF.CreationDate,2022-12-02T10:00:06+00:00
; #@! TF.GenerationSoftware,Kicad,Pcbnew,(6.0.8)
; #@! TF.FileFunction,Plated,1,2,PTH
FMAT,2
INCH
; #@! TA.AperFunction,Plated,PTH,ViaDrill
T1C0.0157
; #@! TA.AperFunction,Plated,PTH,ComponentDrill
T2C0.0295
; #@! TA.AperFunction,Plated,PTH,ComponentDrill
T3C0.0315
; #@! TA.AperFunction,Plated,PTH,ComponentDrill
T4C0.0394
; #@! TA.AperFunction,Plated,PTH,ComponentDrill
T5C0.0433
; #@! TA.AperFunction,Plated,PTH,ComponentDrill
T6C0.0480
; #@! TA.AperFunction,Plated,PTH,ComponentDrill
T7C0.0559
; #@! TA.AperFunction,Plated,PTH,ComponentDrill
T8C0.0563
; #@! TA.AperFunction,Plated,PTH,ComponentDrill
T9C0.1260
%
G90
G05
T1
X2.87Y-2.93
X2.87Y-3.39
X3.185Y-4.27
X3.275Y-4.105
X3.44Y-3.21
X3.47Y-3.5
X3.49Y-3.12
X3.52Y-4.24
X3.705Y-4.18
T2
X1.975Y-4.25
X1.975Y-4.3
X1.975Y-4.35
T3
X1.95Y-3.7
X1.95Y-4.1
X2.0Y-3.0016
X2.0Y-3.1
X2.1Y-3.7
X2.1Y-4.1
X2.12Y-4.96
X2.125Y-5.125
X2.1931Y-2.97
X2.25Y-3.7
X2.25Y-4.1
X2.4Y-3.7
X2.4Y-4.1
X2.52Y-4.96
X2.525Y-5.125
X2.55Y-3.7031
X2.55Y-4.0969
X2.5869Y-2.97
X2.6781Y-4.25
X2.6813Y-4.05
X2.6931Y-3.87
X2.71Y-3.01
X2.71Y-3.11
X2.71Y-3.21
X2.71Y-3.31
X2.71Y-3.41
X2.71Y-3.51
X2.71Y-3.61
X2.71Y-3.71
X3.01Y-3.01
X3.01Y-3.11
X3.01Y-3.21
X3.01Y-3.31
X3.01Y-3.41
X3.01Y-3.51
X3.01Y-3.61
X3.01Y-3.71
X3.0719Y-4.25
X3.075Y-4.05
X3.0869Y-3.87
X3.15Y-3.7
X3.18Y-4.97
X3.3Y-3.85
X3.3Y-4.0
X3.55Y-3.7
X3.58Y-4.97
X3.7Y-3.85
X3.7Y-4.0
X3.725Y-3.15
X3.725Y-3.55
T4
X2.2187Y-3.5827
X2.2187Y-4.6754
X2.3171Y-3.5827
X2.3171Y-4.6754
X2.4155Y-3.5827
X2.4155Y-4.6754
X3.1402Y-2.9352
X3.1402Y-3.0352
X3.2402Y-2.9352
X3.2402Y-3.0352
X3.2817Y-3.5827
X3.2817Y-4.6754
X3.3402Y-2.9352
X3.3402Y-3.0352
X3.3801Y-3.5827
X3.3801Y-4.6754
X3.4402Y-2.9352
X3.4402Y-3.0352
X3.4785Y-3.5827
X3.4785Y-4.6754
X3.5402Y-2.9352
X3.5402Y-3.0352
X3.6402Y-2.9352
X3.6402Y-3.0352
T5
X2.75Y-4.4116
X2.85Y-4.4116
X2.95Y-4.4116
T6
X2.0598Y-5.29
X2.435Y-5.29
X2.8287Y-5.29
X3.2224Y-5.29
X3.6161Y-5.29
T7
X2.0598Y-5.412
X2.435Y-5.412
X2.8287Y-5.412
X3.2224Y-5.412
X3.6161Y-5.412
T8
X2.0598Y-5.7388
X2.435Y-5.7388
X2.8287Y-5.7388
X3.2224Y-5.7388
X3.6161Y-5.7388
T9
X1.991Y-5.135
X2.005Y-3.48
X3.69Y-5.135
X3.692Y-3.718
T5
G00X2.1281Y-3.3012
M15
G01X2.1281Y-3.2736
M16
G05
G00X2.1281Y-4.3939
M15
G01X2.1281Y-4.3663
M16
G05
G00X2.5061Y-3.3012
M15
G01X2.5061Y-3.2736
M16
G05
G00X2.5061Y-4.3939
M15
G01X2.5061Y-4.3663
M16
G05
G00X3.1911Y-3.3012
M15
G01X3.1911Y-3.2736
M16
G05
G00X3.1911Y-4.3939
M15
G01X3.1911Y-4.3663
M16
G05
G00X3.5691Y-3.3012
M15
G01X3.5691Y-3.2736
M16
G05
G00X3.5691Y-4.3939
M15
G01X3.5691Y-4.3663
M16
G05
T0
M30
