%TF.GenerationSoftware,KiCad,Pcbnew,(6.0.8)*%
%TF.CreationDate,2022-12-02T10:00:09+00:00*%
%TF.ProjectId,DSP 1.0,44535020-312e-4302-9e6b-696361645f70,rev?*%
%TF.SameCoordinates,Original*%
%TF.FileFunction,Legend,Top*%
%TF.FilePolarity,Positive*%
%FSLAX46Y46*%
G04 Gerber Fmt 4.6, Leading zero omitted, Abs format (unit mm)*
G04 Created by KiCad (PCBNEW (6.0.8)) date 2022-12-02 10:00:09*
%MOMM*%
%LPD*%
G01*
G04 APERTURE LIST*
%ADD10C,0.150000*%
%ADD11C,0.120000*%
G04 APERTURE END LIST*
D10*
X73096380Y-84335619D02*
X72096380Y-84335619D01*
X72096380Y-83954666D01*
X72144000Y-83859428D01*
X72191619Y-83811809D01*
X72286857Y-83764190D01*
X72429714Y-83764190D01*
X72524952Y-83811809D01*
X72572571Y-83859428D01*
X72620190Y-83954666D01*
X72620190Y-84335619D01*
X72096380Y-83478476D02*
X72096380Y-82907047D01*
X73096380Y-83192761D02*
X72096380Y-83192761D01*
X72191619Y-82621333D02*
X72144000Y-82573714D01*
X72096380Y-82478476D01*
X72096380Y-82240380D01*
X72144000Y-82145142D01*
X72191619Y-82097523D01*
X72286857Y-82049904D01*
X72382095Y-82049904D01*
X72524952Y-82097523D01*
X73096380Y-82668952D01*
X73096380Y-82049904D01*
X72096380Y-81716571D02*
X72096380Y-81097523D01*
X72477333Y-81430857D01*
X72477333Y-81288000D01*
X72524952Y-81192761D01*
X72572571Y-81145142D01*
X72667809Y-81097523D01*
X72905904Y-81097523D01*
X73001142Y-81145142D01*
X73048761Y-81192761D01*
X73096380Y-81288000D01*
X73096380Y-81573714D01*
X73048761Y-81668952D01*
X73001142Y-81716571D01*
X73096380Y-80621333D02*
X73096380Y-80430857D01*
X73048761Y-80335619D01*
X73001142Y-80288000D01*
X72858285Y-80192761D01*
X72667809Y-80145142D01*
X72286857Y-80145142D01*
X72191619Y-80192761D01*
X72144000Y-80240380D01*
X72096380Y-80335619D01*
X72096380Y-80526095D01*
X72144000Y-80621333D01*
X72191619Y-80668952D01*
X72286857Y-80716571D01*
X72524952Y-80716571D01*
X72620190Y-80668952D01*
X72667809Y-80621333D01*
X72715428Y-80526095D01*
X72715428Y-80335619D01*
X72667809Y-80240380D01*
X72620190Y-80192761D01*
X72524952Y-80145142D01*
X73096380Y-79668952D02*
X73096380Y-79478476D01*
X73048761Y-79383238D01*
X73001142Y-79335619D01*
X72858285Y-79240380D01*
X72667809Y-79192761D01*
X72286857Y-79192761D01*
X72191619Y-79240380D01*
X72144000Y-79288000D01*
X72096380Y-79383238D01*
X72096380Y-79573714D01*
X72144000Y-79668952D01*
X72191619Y-79716571D01*
X72286857Y-79764190D01*
X72524952Y-79764190D01*
X72620190Y-79716571D01*
X72667809Y-79668952D01*
X72715428Y-79573714D01*
X72715428Y-79383238D01*
X72667809Y-79288000D01*
X72620190Y-79240380D01*
X72524952Y-79192761D01*
%TO.C,C4*%
X60539333Y-75668142D02*
X60491714Y-75715761D01*
X60348857Y-75763380D01*
X60253619Y-75763380D01*
X60110761Y-75715761D01*
X60015523Y-75620523D01*
X59967904Y-75525285D01*
X59920285Y-75334809D01*
X59920285Y-75191952D01*
X59967904Y-75001476D01*
X60015523Y-74906238D01*
X60110761Y-74811000D01*
X60253619Y-74763380D01*
X60348857Y-74763380D01*
X60491714Y-74811000D01*
X60539333Y-74858619D01*
X61396476Y-75096714D02*
X61396476Y-75763380D01*
X61158380Y-74715761D02*
X60920285Y-75430047D01*
X61539333Y-75430047D01*
%TO.C,In2*%
X66890428Y-135898380D02*
X66890428Y-134898380D01*
X67366619Y-135231714D02*
X67366619Y-135898380D01*
X67366619Y-135326952D02*
X67414238Y-135279333D01*
X67509476Y-135231714D01*
X67652333Y-135231714D01*
X67747571Y-135279333D01*
X67795190Y-135374571D01*
X67795190Y-135898380D01*
X68223761Y-134993619D02*
X68271380Y-134946000D01*
X68366619Y-134898380D01*
X68604714Y-134898380D01*
X68699952Y-134946000D01*
X68747571Y-134993619D01*
X68795190Y-135088857D01*
X68795190Y-135184095D01*
X68747571Y-135326952D01*
X68176142Y-135898380D01*
X68795190Y-135898380D01*
%TO.C,R3*%
X84923333Y-94432380D02*
X84590000Y-93956190D01*
X84351904Y-94432380D02*
X84351904Y-93432380D01*
X84732857Y-93432380D01*
X84828095Y-93480000D01*
X84875714Y-93527619D01*
X84923333Y-93622857D01*
X84923333Y-93765714D01*
X84875714Y-93860952D01*
X84828095Y-93908571D01*
X84732857Y-93956190D01*
X84351904Y-93956190D01*
X85256666Y-93432380D02*
X85875714Y-93432380D01*
X85542380Y-93813333D01*
X85685238Y-93813333D01*
X85780476Y-93860952D01*
X85828095Y-93908571D01*
X85875714Y-94003809D01*
X85875714Y-94241904D01*
X85828095Y-94337142D01*
X85780476Y-94384761D01*
X85685238Y-94432380D01*
X85399523Y-94432380D01*
X85304285Y-94384761D01*
X85256666Y-94337142D01*
%TO.C,R6*%
X88860333Y-102052380D02*
X88527000Y-101576190D01*
X88288904Y-102052380D02*
X88288904Y-101052380D01*
X88669857Y-101052380D01*
X88765095Y-101100000D01*
X88812714Y-101147619D01*
X88860333Y-101242857D01*
X88860333Y-101385714D01*
X88812714Y-101480952D01*
X88765095Y-101528571D01*
X88669857Y-101576190D01*
X88288904Y-101576190D01*
X89717476Y-101052380D02*
X89527000Y-101052380D01*
X89431761Y-101100000D01*
X89384142Y-101147619D01*
X89288904Y-101290476D01*
X89241285Y-101480952D01*
X89241285Y-101861904D01*
X89288904Y-101957142D01*
X89336523Y-102004761D01*
X89431761Y-102052380D01*
X89622238Y-102052380D01*
X89717476Y-102004761D01*
X89765095Y-101957142D01*
X89812714Y-101861904D01*
X89812714Y-101623809D01*
X89765095Y-101528571D01*
X89717476Y-101480952D01*
X89622238Y-101433333D01*
X89431761Y-101433333D01*
X89336523Y-101480952D01*
X89288904Y-101528571D01*
X89241285Y-101623809D01*
%TO.C,C6*%
X72858333Y-108307142D02*
X72810714Y-108354761D01*
X72667857Y-108402380D01*
X72572619Y-108402380D01*
X72429761Y-108354761D01*
X72334523Y-108259523D01*
X72286904Y-108164285D01*
X72239285Y-107973809D01*
X72239285Y-107830952D01*
X72286904Y-107640476D01*
X72334523Y-107545238D01*
X72429761Y-107450000D01*
X72572619Y-107402380D01*
X72667857Y-107402380D01*
X72810714Y-107450000D01*
X72858333Y-107497619D01*
X73715476Y-107402380D02*
X73525000Y-107402380D01*
X73429761Y-107450000D01*
X73382142Y-107497619D01*
X73286904Y-107640476D01*
X73239285Y-107830952D01*
X73239285Y-108211904D01*
X73286904Y-108307142D01*
X73334523Y-108354761D01*
X73429761Y-108402380D01*
X73620238Y-108402380D01*
X73715476Y-108354761D01*
X73763095Y-108307142D01*
X73810714Y-108211904D01*
X73810714Y-107973809D01*
X73763095Y-107878571D01*
X73715476Y-107830952D01*
X73620238Y-107783333D01*
X73429761Y-107783333D01*
X73334523Y-107830952D01*
X73286904Y-107878571D01*
X73239285Y-107973809D01*
%TO.C,Right1*%
X86223761Y-135898380D02*
X85890428Y-135422190D01*
X85652333Y-135898380D02*
X85652333Y-134898380D01*
X86033285Y-134898380D01*
X86128523Y-134946000D01*
X86176142Y-134993619D01*
X86223761Y-135088857D01*
X86223761Y-135231714D01*
X86176142Y-135326952D01*
X86128523Y-135374571D01*
X86033285Y-135422190D01*
X85652333Y-135422190D01*
X86652333Y-135898380D02*
X86652333Y-135231714D01*
X86652333Y-134898380D02*
X86604714Y-134946000D01*
X86652333Y-134993619D01*
X86699952Y-134946000D01*
X86652333Y-134898380D01*
X86652333Y-134993619D01*
X87557095Y-135231714D02*
X87557095Y-136041238D01*
X87509476Y-136136476D01*
X87461857Y-136184095D01*
X87366619Y-136231714D01*
X87223761Y-136231714D01*
X87128523Y-136184095D01*
X87557095Y-135850761D02*
X87461857Y-135898380D01*
X87271380Y-135898380D01*
X87176142Y-135850761D01*
X87128523Y-135803142D01*
X87080904Y-135707904D01*
X87080904Y-135422190D01*
X87128523Y-135326952D01*
X87176142Y-135279333D01*
X87271380Y-135231714D01*
X87461857Y-135231714D01*
X87557095Y-135279333D01*
X88033285Y-135898380D02*
X88033285Y-134898380D01*
X88461857Y-135898380D02*
X88461857Y-135374571D01*
X88414238Y-135279333D01*
X88319000Y-135231714D01*
X88176142Y-135231714D01*
X88080904Y-135279333D01*
X88033285Y-135326952D01*
X88795190Y-135231714D02*
X89176142Y-135231714D01*
X88938047Y-134898380D02*
X88938047Y-135755523D01*
X88985666Y-135850761D01*
X89080904Y-135898380D01*
X89176142Y-135898380D01*
X90033285Y-135898380D02*
X89461857Y-135898380D01*
X89747571Y-135898380D02*
X89747571Y-134898380D01*
X89652333Y-135041238D01*
X89557095Y-135136476D01*
X89461857Y-135184095D01*
%TO.C,REF\u002A\u002A*%
X49238066Y-128881380D02*
X48904733Y-128405190D01*
X48666638Y-128881380D02*
X48666638Y-127881380D01*
X49047590Y-127881380D01*
X49142828Y-127929000D01*
X49190447Y-127976619D01*
X49238066Y-128071857D01*
X49238066Y-128214714D01*
X49190447Y-128309952D01*
X49142828Y-128357571D01*
X49047590Y-128405190D01*
X48666638Y-128405190D01*
X49666638Y-128357571D02*
X49999971Y-128357571D01*
X50142828Y-128881380D02*
X49666638Y-128881380D01*
X49666638Y-127881380D01*
X50142828Y-127881380D01*
X50904733Y-128357571D02*
X50571400Y-128357571D01*
X50571400Y-128881380D02*
X50571400Y-127881380D01*
X51047590Y-127881380D01*
X51571400Y-127881380D02*
X51571400Y-128119476D01*
X51333304Y-128024238D02*
X51571400Y-128119476D01*
X51809495Y-128024238D01*
X51428542Y-128309952D02*
X51571400Y-128119476D01*
X51714257Y-128309952D01*
X52333304Y-127881380D02*
X52333304Y-128119476D01*
X52095209Y-128024238D02*
X52333304Y-128119476D01*
X52571400Y-128024238D01*
X52190447Y-128309952D02*
X52333304Y-128119476D01*
X52476161Y-128309952D01*
%TO.C,RV4*%
X86304380Y-83907238D02*
X85828190Y-84240571D01*
X86304380Y-84478666D02*
X85304380Y-84478666D01*
X85304380Y-84097714D01*
X85352000Y-84002476D01*
X85399619Y-83954857D01*
X85494857Y-83907238D01*
X85637714Y-83907238D01*
X85732952Y-83954857D01*
X85780571Y-84002476D01*
X85828190Y-84097714D01*
X85828190Y-84478666D01*
X85304380Y-83621523D02*
X86304380Y-83288190D01*
X85304380Y-82954857D01*
X85637714Y-82192952D02*
X86304380Y-82192952D01*
X85256761Y-82431047D02*
X85971047Y-82669142D01*
X85971047Y-82050095D01*
%TO.C,C1*%
X65127142Y-99226666D02*
X65174761Y-99274285D01*
X65222380Y-99417142D01*
X65222380Y-99512380D01*
X65174761Y-99655238D01*
X65079523Y-99750476D01*
X64984285Y-99798095D01*
X64793809Y-99845714D01*
X64650952Y-99845714D01*
X64460476Y-99798095D01*
X64365238Y-99750476D01*
X64270000Y-99655238D01*
X64222380Y-99512380D01*
X64222380Y-99417142D01*
X64270000Y-99274285D01*
X64317619Y-99226666D01*
X65222380Y-98274285D02*
X65222380Y-98845714D01*
X65222380Y-98560000D02*
X64222380Y-98560000D01*
X64365238Y-98655238D01*
X64460476Y-98750476D01*
X64508095Y-98845714D01*
%TO.C,Rx5*%
X53919380Y-98996428D02*
X53443190Y-99329761D01*
X53919380Y-99567857D02*
X52919380Y-99567857D01*
X52919380Y-99186904D01*
X52967000Y-99091666D01*
X53014619Y-99044047D01*
X53109857Y-98996428D01*
X53252714Y-98996428D01*
X53347952Y-99044047D01*
X53395571Y-99091666D01*
X53443190Y-99186904D01*
X53443190Y-99567857D01*
X53919380Y-98663095D02*
X53252714Y-98139285D01*
X53252714Y-98663095D02*
X53919380Y-98139285D01*
X52919380Y-97282142D02*
X52919380Y-97758333D01*
X53395571Y-97805952D01*
X53347952Y-97758333D01*
X53300333Y-97663095D01*
X53300333Y-97425000D01*
X53347952Y-97329761D01*
X53395571Y-97282142D01*
X53490809Y-97234523D01*
X53728904Y-97234523D01*
X53824142Y-97282142D01*
X53871761Y-97329761D01*
X53919380Y-97425000D01*
X53919380Y-97663095D01*
X53871761Y-97758333D01*
X53824142Y-97805952D01*
%TO.C,C7*%
X72938333Y-103100142D02*
X72890714Y-103147761D01*
X72747857Y-103195380D01*
X72652619Y-103195380D01*
X72509761Y-103147761D01*
X72414523Y-103052523D01*
X72366904Y-102957285D01*
X72319285Y-102766809D01*
X72319285Y-102623952D01*
X72366904Y-102433476D01*
X72414523Y-102338238D01*
X72509761Y-102243000D01*
X72652619Y-102195380D01*
X72747857Y-102195380D01*
X72890714Y-102243000D01*
X72938333Y-102290619D01*
X73271666Y-102195380D02*
X73938333Y-102195380D01*
X73509761Y-103195380D01*
%TO.C,feedback/wet1*%
X56372809Y-132119714D02*
X56753761Y-132119714D01*
X56515666Y-132786380D02*
X56515666Y-131929238D01*
X56563285Y-131834000D01*
X56658523Y-131786380D01*
X56753761Y-131786380D01*
X57468047Y-132738761D02*
X57372809Y-132786380D01*
X57182333Y-132786380D01*
X57087095Y-132738761D01*
X57039476Y-132643523D01*
X57039476Y-132262571D01*
X57087095Y-132167333D01*
X57182333Y-132119714D01*
X57372809Y-132119714D01*
X57468047Y-132167333D01*
X57515666Y-132262571D01*
X57515666Y-132357809D01*
X57039476Y-132453047D01*
X58325190Y-132738761D02*
X58229952Y-132786380D01*
X58039476Y-132786380D01*
X57944238Y-132738761D01*
X57896619Y-132643523D01*
X57896619Y-132262571D01*
X57944238Y-132167333D01*
X58039476Y-132119714D01*
X58229952Y-132119714D01*
X58325190Y-132167333D01*
X58372809Y-132262571D01*
X58372809Y-132357809D01*
X57896619Y-132453047D01*
X59229952Y-132786380D02*
X59229952Y-131786380D01*
X59229952Y-132738761D02*
X59134714Y-132786380D01*
X58944238Y-132786380D01*
X58849000Y-132738761D01*
X58801380Y-132691142D01*
X58753761Y-132595904D01*
X58753761Y-132310190D01*
X58801380Y-132214952D01*
X58849000Y-132167333D01*
X58944238Y-132119714D01*
X59134714Y-132119714D01*
X59229952Y-132167333D01*
X59706142Y-132786380D02*
X59706142Y-131786380D01*
X59706142Y-132167333D02*
X59801380Y-132119714D01*
X59991857Y-132119714D01*
X60087095Y-132167333D01*
X60134714Y-132214952D01*
X60182333Y-132310190D01*
X60182333Y-132595904D01*
X60134714Y-132691142D01*
X60087095Y-132738761D01*
X59991857Y-132786380D01*
X59801380Y-132786380D01*
X59706142Y-132738761D01*
X61039476Y-132786380D02*
X61039476Y-132262571D01*
X60991857Y-132167333D01*
X60896619Y-132119714D01*
X60706142Y-132119714D01*
X60610904Y-132167333D01*
X61039476Y-132738761D02*
X60944238Y-132786380D01*
X60706142Y-132786380D01*
X60610904Y-132738761D01*
X60563285Y-132643523D01*
X60563285Y-132548285D01*
X60610904Y-132453047D01*
X60706142Y-132405428D01*
X60944238Y-132405428D01*
X61039476Y-132357809D01*
X61944238Y-132738761D02*
X61849000Y-132786380D01*
X61658523Y-132786380D01*
X61563285Y-132738761D01*
X61515666Y-132691142D01*
X61468047Y-132595904D01*
X61468047Y-132310190D01*
X61515666Y-132214952D01*
X61563285Y-132167333D01*
X61658523Y-132119714D01*
X61849000Y-132119714D01*
X61944238Y-132167333D01*
X62372809Y-132786380D02*
X62372809Y-131786380D01*
X62468047Y-132405428D02*
X62753761Y-132786380D01*
X62753761Y-132119714D02*
X62372809Y-132500666D01*
X63896619Y-131738761D02*
X63039476Y-133024476D01*
X64134714Y-132119714D02*
X64325190Y-132786380D01*
X64515666Y-132310190D01*
X64706142Y-132786380D01*
X64896619Y-132119714D01*
X65658523Y-132738761D02*
X65563285Y-132786380D01*
X65372809Y-132786380D01*
X65277571Y-132738761D01*
X65229952Y-132643523D01*
X65229952Y-132262571D01*
X65277571Y-132167333D01*
X65372809Y-132119714D01*
X65563285Y-132119714D01*
X65658523Y-132167333D01*
X65706142Y-132262571D01*
X65706142Y-132357809D01*
X65229952Y-132453047D01*
X65991857Y-132119714D02*
X66372809Y-132119714D01*
X66134714Y-131786380D02*
X66134714Y-132643523D01*
X66182333Y-132738761D01*
X66277571Y-132786380D01*
X66372809Y-132786380D01*
X67229952Y-132786380D02*
X66658523Y-132786380D01*
X66944238Y-132786380D02*
X66944238Y-131786380D01*
X66849000Y-131929238D01*
X66753761Y-132024476D01*
X66658523Y-132072095D01*
%TO.C,U3*%
X71628095Y-132087380D02*
X71628095Y-132896904D01*
X71675714Y-132992142D01*
X71723333Y-133039761D01*
X71818571Y-133087380D01*
X72009047Y-133087380D01*
X72104285Y-133039761D01*
X72151904Y-132992142D01*
X72199523Y-132896904D01*
X72199523Y-132087380D01*
X72580476Y-132087380D02*
X73199523Y-132087380D01*
X72866190Y-132468333D01*
X73009047Y-132468333D01*
X73104285Y-132515952D01*
X73151904Y-132563571D01*
X73199523Y-132658809D01*
X73199523Y-132896904D01*
X73151904Y-132992142D01*
X73104285Y-133039761D01*
X73009047Y-133087380D01*
X72723333Y-133087380D01*
X72628095Y-133039761D01*
X72580476Y-132992142D01*
%TO.C,Q1*%
X47152619Y-109315238D02*
X47105000Y-109410476D01*
X47009761Y-109505714D01*
X46866904Y-109648571D01*
X46819285Y-109743809D01*
X46819285Y-109839047D01*
X47057380Y-109791428D02*
X47009761Y-109886666D01*
X46914523Y-109981904D01*
X46724047Y-110029523D01*
X46390714Y-110029523D01*
X46200238Y-109981904D01*
X46105000Y-109886666D01*
X46057380Y-109791428D01*
X46057380Y-109600952D01*
X46105000Y-109505714D01*
X46200238Y-109410476D01*
X46390714Y-109362857D01*
X46724047Y-109362857D01*
X46914523Y-109410476D01*
X47009761Y-109505714D01*
X47057380Y-109600952D01*
X47057380Y-109791428D01*
X47057380Y-108410476D02*
X47057380Y-108981904D01*
X47057380Y-108696190D02*
X46057380Y-108696190D01*
X46200238Y-108791428D01*
X46295476Y-108886666D01*
X46343095Y-108981904D01*
%TO.C,REF\u002A\u002A*%
X49593666Y-86844380D02*
X49260333Y-86368190D01*
X49022238Y-86844380D02*
X49022238Y-85844380D01*
X49403190Y-85844380D01*
X49498428Y-85892000D01*
X49546047Y-85939619D01*
X49593666Y-86034857D01*
X49593666Y-86177714D01*
X49546047Y-86272952D01*
X49498428Y-86320571D01*
X49403190Y-86368190D01*
X49022238Y-86368190D01*
X50022238Y-86320571D02*
X50355571Y-86320571D01*
X50498428Y-86844380D02*
X50022238Y-86844380D01*
X50022238Y-85844380D01*
X50498428Y-85844380D01*
X51260333Y-86320571D02*
X50927000Y-86320571D01*
X50927000Y-86844380D02*
X50927000Y-85844380D01*
X51403190Y-85844380D01*
X51927000Y-85844380D02*
X51927000Y-86082476D01*
X51688904Y-85987238D02*
X51927000Y-86082476D01*
X52165095Y-85987238D01*
X51784142Y-86272952D02*
X51927000Y-86082476D01*
X52069857Y-86272952D01*
X52688904Y-85844380D02*
X52688904Y-86082476D01*
X52450809Y-85987238D02*
X52688904Y-86082476D01*
X52927000Y-85987238D01*
X52546047Y-86272952D02*
X52688904Y-86082476D01*
X52831761Y-86272952D01*
%TO.C,RV1*%
X52166380Y-112640238D02*
X51690190Y-112973571D01*
X52166380Y-113211666D02*
X51166380Y-113211666D01*
X51166380Y-112830714D01*
X51214000Y-112735476D01*
X51261619Y-112687857D01*
X51356857Y-112640238D01*
X51499714Y-112640238D01*
X51594952Y-112687857D01*
X51642571Y-112735476D01*
X51690190Y-112830714D01*
X51690190Y-113211666D01*
X51166380Y-112354523D02*
X52166380Y-112021190D01*
X51166380Y-111687857D01*
X52166380Y-110830714D02*
X52166380Y-111402142D01*
X52166380Y-111116428D02*
X51166380Y-111116428D01*
X51309238Y-111211666D01*
X51404476Y-111306904D01*
X51452095Y-111402142D01*
%TO.C,In1*%
X47360428Y-135898380D02*
X47360428Y-134898380D01*
X47836619Y-135231714D02*
X47836619Y-135898380D01*
X47836619Y-135326952D02*
X47884238Y-135279333D01*
X47979476Y-135231714D01*
X48122333Y-135231714D01*
X48217571Y-135279333D01*
X48265190Y-135374571D01*
X48265190Y-135898380D01*
X49265190Y-135898380D02*
X48693761Y-135898380D01*
X48979476Y-135898380D02*
X48979476Y-134898380D01*
X48884238Y-135041238D01*
X48789000Y-135136476D01*
X48693761Y-135184095D01*
%TO.C,REF\u002A\u002A*%
X92392666Y-128881380D02*
X92059333Y-128405190D01*
X91821238Y-128881380D02*
X91821238Y-127881380D01*
X92202190Y-127881380D01*
X92297428Y-127929000D01*
X92345047Y-127976619D01*
X92392666Y-128071857D01*
X92392666Y-128214714D01*
X92345047Y-128309952D01*
X92297428Y-128357571D01*
X92202190Y-128405190D01*
X91821238Y-128405190D01*
X92821238Y-128357571D02*
X93154571Y-128357571D01*
X93297428Y-128881380D02*
X92821238Y-128881380D01*
X92821238Y-127881380D01*
X93297428Y-127881380D01*
X94059333Y-128357571D02*
X93726000Y-128357571D01*
X93726000Y-128881380D02*
X93726000Y-127881380D01*
X94202190Y-127881380D01*
X94726000Y-127881380D02*
X94726000Y-128119476D01*
X94487904Y-128024238D02*
X94726000Y-128119476D01*
X94964095Y-128024238D01*
X94583142Y-128309952D02*
X94726000Y-128119476D01*
X94868857Y-128309952D01*
X95487904Y-127881380D02*
X95487904Y-128119476D01*
X95249809Y-128024238D02*
X95487904Y-128119476D01*
X95726000Y-128024238D01*
X95345047Y-128309952D02*
X95487904Y-128119476D01*
X95630761Y-128309952D01*
%TO.C,Rx4*%
X58737571Y-130627380D02*
X58404238Y-130151190D01*
X58166142Y-130627380D02*
X58166142Y-129627380D01*
X58547095Y-129627380D01*
X58642333Y-129675000D01*
X58689952Y-129722619D01*
X58737571Y-129817857D01*
X58737571Y-129960714D01*
X58689952Y-130055952D01*
X58642333Y-130103571D01*
X58547095Y-130151190D01*
X58166142Y-130151190D01*
X59070904Y-130627380D02*
X59594714Y-129960714D01*
X59070904Y-129960714D02*
X59594714Y-130627380D01*
X60404238Y-129960714D02*
X60404238Y-130627380D01*
X60166142Y-129579761D02*
X59928047Y-130294047D01*
X60547095Y-130294047D01*
%TO.C,Rx2*%
X49982380Y-99631428D02*
X49506190Y-99964761D01*
X49982380Y-100202857D02*
X48982380Y-100202857D01*
X48982380Y-99821904D01*
X49030000Y-99726666D01*
X49077619Y-99679047D01*
X49172857Y-99631428D01*
X49315714Y-99631428D01*
X49410952Y-99679047D01*
X49458571Y-99726666D01*
X49506190Y-99821904D01*
X49506190Y-100202857D01*
X49982380Y-99298095D02*
X49315714Y-98774285D01*
X49315714Y-99298095D02*
X49982380Y-98774285D01*
X49077619Y-98440952D02*
X49030000Y-98393333D01*
X48982380Y-98298095D01*
X48982380Y-98060000D01*
X49030000Y-97964761D01*
X49077619Y-97917142D01*
X49172857Y-97869523D01*
X49268095Y-97869523D01*
X49410952Y-97917142D01*
X49982380Y-98488571D01*
X49982380Y-97869523D01*
%TO.C,Jpcb1*%
X94194380Y-77358666D02*
X94908666Y-77358666D01*
X95051523Y-77406285D01*
X95146761Y-77501523D01*
X95194380Y-77644380D01*
X95194380Y-77739619D01*
X94527714Y-76882476D02*
X95527714Y-76882476D01*
X94575333Y-76882476D02*
X94527714Y-76787238D01*
X94527714Y-76596761D01*
X94575333Y-76501523D01*
X94622952Y-76453904D01*
X94718190Y-76406285D01*
X95003904Y-76406285D01*
X95099142Y-76453904D01*
X95146761Y-76501523D01*
X95194380Y-76596761D01*
X95194380Y-76787238D01*
X95146761Y-76882476D01*
X95146761Y-75549142D02*
X95194380Y-75644380D01*
X95194380Y-75834857D01*
X95146761Y-75930095D01*
X95099142Y-75977714D01*
X95003904Y-76025333D01*
X94718190Y-76025333D01*
X94622952Y-75977714D01*
X94575333Y-75930095D01*
X94527714Y-75834857D01*
X94527714Y-75644380D01*
X94575333Y-75549142D01*
X95194380Y-75120571D02*
X94194380Y-75120571D01*
X94575333Y-75120571D02*
X94527714Y-75025333D01*
X94527714Y-74834857D01*
X94575333Y-74739619D01*
X94622952Y-74692000D01*
X94718190Y-74644380D01*
X95003904Y-74644380D01*
X95099142Y-74692000D01*
X95146761Y-74739619D01*
X95194380Y-74834857D01*
X95194380Y-75025333D01*
X95146761Y-75120571D01*
X95194380Y-73692000D02*
X95194380Y-74263428D01*
X95194380Y-73977714D02*
X94194380Y-73977714D01*
X94337238Y-74072952D01*
X94432476Y-74168190D01*
X94480095Y-74263428D01*
%TO.C,U4*%
X71882095Y-77303380D02*
X71882095Y-78112904D01*
X71929714Y-78208142D01*
X71977333Y-78255761D01*
X72072571Y-78303380D01*
X72263047Y-78303380D01*
X72358285Y-78255761D01*
X72405904Y-78208142D01*
X72453523Y-78112904D01*
X72453523Y-77303380D01*
X73358285Y-77636714D02*
X73358285Y-78303380D01*
X73120190Y-77255761D02*
X72882095Y-77970047D01*
X73501142Y-77970047D01*
%TO.C,RV3*%
X52166380Y-84885238D02*
X51690190Y-85218571D01*
X52166380Y-85456666D02*
X51166380Y-85456666D01*
X51166380Y-85075714D01*
X51214000Y-84980476D01*
X51261619Y-84932857D01*
X51356857Y-84885238D01*
X51499714Y-84885238D01*
X51594952Y-84932857D01*
X51642571Y-84980476D01*
X51690190Y-85075714D01*
X51690190Y-85456666D01*
X51166380Y-84599523D02*
X52166380Y-84266190D01*
X51166380Y-83932857D01*
X51166380Y-83694761D02*
X51166380Y-83075714D01*
X51547333Y-83409047D01*
X51547333Y-83266190D01*
X51594952Y-83170952D01*
X51642571Y-83123333D01*
X51737809Y-83075714D01*
X51975904Y-83075714D01*
X52071142Y-83123333D01*
X52118761Y-83170952D01*
X52166380Y-83266190D01*
X52166380Y-83551904D01*
X52118761Y-83647142D01*
X52071142Y-83694761D01*
%TO.C,R4*%
X95067380Y-85256666D02*
X94591190Y-85590000D01*
X95067380Y-85828095D02*
X94067380Y-85828095D01*
X94067380Y-85447142D01*
X94115000Y-85351904D01*
X94162619Y-85304285D01*
X94257857Y-85256666D01*
X94400714Y-85256666D01*
X94495952Y-85304285D01*
X94543571Y-85351904D01*
X94591190Y-85447142D01*
X94591190Y-85828095D01*
X94400714Y-84399523D02*
X95067380Y-84399523D01*
X94019761Y-84637619D02*
X94734047Y-84875714D01*
X94734047Y-84256666D01*
%TO.C,Rx1*%
X61412380Y-99631428D02*
X60936190Y-99964761D01*
X61412380Y-100202857D02*
X60412380Y-100202857D01*
X60412380Y-99821904D01*
X60460000Y-99726666D01*
X60507619Y-99679047D01*
X60602857Y-99631428D01*
X60745714Y-99631428D01*
X60840952Y-99679047D01*
X60888571Y-99726666D01*
X60936190Y-99821904D01*
X60936190Y-100202857D01*
X61412380Y-99298095D02*
X60745714Y-98774285D01*
X60745714Y-99298095D02*
X61412380Y-98774285D01*
X61412380Y-97869523D02*
X61412380Y-98440952D01*
X61412380Y-98155238D02*
X60412380Y-98155238D01*
X60555238Y-98250476D01*
X60650476Y-98345714D01*
X60698095Y-98440952D01*
%TO.C,REF\u002A\u002A*%
X92443466Y-92889580D02*
X92110133Y-92413390D01*
X91872038Y-92889580D02*
X91872038Y-91889580D01*
X92252990Y-91889580D01*
X92348228Y-91937200D01*
X92395847Y-91984819D01*
X92443466Y-92080057D01*
X92443466Y-92222914D01*
X92395847Y-92318152D01*
X92348228Y-92365771D01*
X92252990Y-92413390D01*
X91872038Y-92413390D01*
X92872038Y-92365771D02*
X93205371Y-92365771D01*
X93348228Y-92889580D02*
X92872038Y-92889580D01*
X92872038Y-91889580D01*
X93348228Y-91889580D01*
X94110133Y-92365771D02*
X93776800Y-92365771D01*
X93776800Y-92889580D02*
X93776800Y-91889580D01*
X94252990Y-91889580D01*
X94776800Y-91889580D02*
X94776800Y-92127676D01*
X94538704Y-92032438D02*
X94776800Y-92127676D01*
X95014895Y-92032438D01*
X94633942Y-92318152D02*
X94776800Y-92127676D01*
X94919657Y-92318152D01*
X95538704Y-91889580D02*
X95538704Y-92127676D01*
X95300609Y-92032438D02*
X95538704Y-92127676D01*
X95776800Y-92032438D01*
X95395847Y-92318152D02*
X95538704Y-92127676D01*
X95681561Y-92318152D01*
%TO.C,R1*%
X58761333Y-126436380D02*
X58428000Y-125960190D01*
X58189904Y-126436380D02*
X58189904Y-125436380D01*
X58570857Y-125436380D01*
X58666095Y-125484000D01*
X58713714Y-125531619D01*
X58761333Y-125626857D01*
X58761333Y-125769714D01*
X58713714Y-125864952D01*
X58666095Y-125912571D01*
X58570857Y-125960190D01*
X58189904Y-125960190D01*
X59713714Y-126436380D02*
X59142285Y-126436380D01*
X59428000Y-126436380D02*
X59428000Y-125436380D01*
X59332761Y-125579238D01*
X59237523Y-125674476D01*
X59142285Y-125722095D01*
%TO.C,Left1*%
X76652333Y-135898380D02*
X76176142Y-135898380D01*
X76176142Y-134898380D01*
X77366619Y-135850761D02*
X77271380Y-135898380D01*
X77080904Y-135898380D01*
X76985666Y-135850761D01*
X76938047Y-135755523D01*
X76938047Y-135374571D01*
X76985666Y-135279333D01*
X77080904Y-135231714D01*
X77271380Y-135231714D01*
X77366619Y-135279333D01*
X77414238Y-135374571D01*
X77414238Y-135469809D01*
X76938047Y-135565047D01*
X77699952Y-135231714D02*
X78080904Y-135231714D01*
X77842809Y-135898380D02*
X77842809Y-135041238D01*
X77890428Y-134946000D01*
X77985666Y-134898380D01*
X78080904Y-134898380D01*
X78271380Y-135231714D02*
X78652333Y-135231714D01*
X78414238Y-134898380D02*
X78414238Y-135755523D01*
X78461857Y-135850761D01*
X78557095Y-135898380D01*
X78652333Y-135898380D01*
X79509476Y-135898380D02*
X78938047Y-135898380D01*
X79223761Y-135898380D02*
X79223761Y-134898380D01*
X79128523Y-135041238D01*
X79033285Y-135136476D01*
X78938047Y-135184095D01*
%TO.C,Rx3*%
X57475380Y-99631428D02*
X56999190Y-99964761D01*
X57475380Y-100202857D02*
X56475380Y-100202857D01*
X56475380Y-99821904D01*
X56523000Y-99726666D01*
X56570619Y-99679047D01*
X56665857Y-99631428D01*
X56808714Y-99631428D01*
X56903952Y-99679047D01*
X56951571Y-99726666D01*
X56999190Y-99821904D01*
X56999190Y-100202857D01*
X57475380Y-99298095D02*
X56808714Y-98774285D01*
X56808714Y-99298095D02*
X57475380Y-98774285D01*
X56475380Y-98488571D02*
X56475380Y-97869523D01*
X56856333Y-98202857D01*
X56856333Y-98060000D01*
X56903952Y-97964761D01*
X56951571Y-97917142D01*
X57046809Y-97869523D01*
X57284904Y-97869523D01*
X57380142Y-97917142D01*
X57427761Y-97964761D01*
X57475380Y-98060000D01*
X57475380Y-98345714D01*
X57427761Y-98440952D01*
X57380142Y-98488571D01*
%TO.C,R5*%
X88733333Y-98242380D02*
X88400000Y-97766190D01*
X88161904Y-98242380D02*
X88161904Y-97242380D01*
X88542857Y-97242380D01*
X88638095Y-97290000D01*
X88685714Y-97337619D01*
X88733333Y-97432857D01*
X88733333Y-97575714D01*
X88685714Y-97670952D01*
X88638095Y-97718571D01*
X88542857Y-97766190D01*
X88161904Y-97766190D01*
X89638095Y-97242380D02*
X89161904Y-97242380D01*
X89114285Y-97718571D01*
X89161904Y-97670952D01*
X89257142Y-97623333D01*
X89495238Y-97623333D01*
X89590476Y-97670952D01*
X89638095Y-97718571D01*
X89685714Y-97813809D01*
X89685714Y-98051904D01*
X89638095Y-98147142D01*
X89590476Y-98194761D01*
X89495238Y-98242380D01*
X89257142Y-98242380D01*
X89161904Y-98194761D01*
X89114285Y-98147142D01*
%TO.C,C2*%
X73239333Y-98655142D02*
X73191714Y-98702761D01*
X73048857Y-98750380D01*
X72953619Y-98750380D01*
X72810761Y-98702761D01*
X72715523Y-98607523D01*
X72667904Y-98512285D01*
X72620285Y-98321809D01*
X72620285Y-98178952D01*
X72667904Y-97988476D01*
X72715523Y-97893238D01*
X72810761Y-97798000D01*
X72953619Y-97750380D01*
X73048857Y-97750380D01*
X73191714Y-97798000D01*
X73239333Y-97845619D01*
X73620285Y-97845619D02*
X73667904Y-97798000D01*
X73763142Y-97750380D01*
X74001238Y-97750380D01*
X74096476Y-97798000D01*
X74144095Y-97845619D01*
X74191714Y-97940857D01*
X74191714Y-98036095D01*
X74144095Y-98178952D01*
X73572666Y-98750380D01*
X74191714Y-98750380D01*
%TO.C,R7*%
X85685333Y-126690380D02*
X85352000Y-126214190D01*
X85113904Y-126690380D02*
X85113904Y-125690380D01*
X85494857Y-125690380D01*
X85590095Y-125738000D01*
X85637714Y-125785619D01*
X85685333Y-125880857D01*
X85685333Y-126023714D01*
X85637714Y-126118952D01*
X85590095Y-126166571D01*
X85494857Y-126214190D01*
X85113904Y-126214190D01*
X86018666Y-125690380D02*
X86685333Y-125690380D01*
X86256761Y-126690380D01*
%TO.C,RV2*%
X79166380Y-112640238D02*
X78690190Y-112973571D01*
X79166380Y-113211666D02*
X78166380Y-113211666D01*
X78166380Y-112830714D01*
X78214000Y-112735476D01*
X78261619Y-112687857D01*
X78356857Y-112640238D01*
X78499714Y-112640238D01*
X78594952Y-112687857D01*
X78642571Y-112735476D01*
X78690190Y-112830714D01*
X78690190Y-113211666D01*
X78166380Y-112354523D02*
X79166380Y-112021190D01*
X78166380Y-111687857D01*
X78261619Y-111402142D02*
X78214000Y-111354523D01*
X78166380Y-111259285D01*
X78166380Y-111021190D01*
X78214000Y-110925952D01*
X78261619Y-110878333D01*
X78356857Y-110830714D01*
X78452095Y-110830714D01*
X78594952Y-110878333D01*
X79166380Y-111449761D01*
X79166380Y-110830714D01*
D11*
%TO.C,C4*%
X58036000Y-77108000D02*
X63376000Y-77108000D01*
X63376000Y-77108000D02*
X63376000Y-73768000D01*
X58036000Y-73768000D02*
X58036000Y-77108000D01*
X64666000Y-75438000D02*
X63376000Y-75438000D01*
X63376000Y-73768000D02*
X58036000Y-73768000D01*
X56746000Y-75438000D02*
X58036000Y-75438000D01*
%TO.C,In2*%
X71049000Y-146846000D02*
X67349000Y-146846000D01*
X76349000Y-146846000D02*
X72649000Y-146846000D01*
X70619000Y-133196000D02*
X70619000Y-133996000D01*
X76349000Y-136346000D02*
X72569000Y-136346000D01*
X67349000Y-136346000D02*
X67349000Y-146846000D01*
X76349000Y-136346000D02*
X76349000Y-146846000D01*
X70619000Y-133196000D02*
X71479000Y-133196000D01*
X71129000Y-136346000D02*
X67349000Y-136346000D01*
X73649000Y-140846000D02*
G75*
G03*
X73649000Y-140846000I-1800000J0D01*
G01*
%TO.C,R3*%
X81820000Y-92610000D02*
X81820000Y-95350000D01*
X89130000Y-93980000D02*
X88360000Y-93980000D01*
X81820000Y-95350000D02*
X88360000Y-95350000D01*
X88360000Y-92610000D02*
X81820000Y-92610000D01*
X81050000Y-93980000D02*
X81820000Y-93980000D01*
X88360000Y-95350000D02*
X88360000Y-92610000D01*
%TO.C,R6*%
X92170000Y-100230000D02*
X85630000Y-100230000D01*
X92170000Y-102970000D02*
X92170000Y-100230000D01*
X85630000Y-102970000D02*
X92170000Y-102970000D01*
X85630000Y-100230000D02*
X85630000Y-102970000D01*
X92940000Y-101600000D02*
X92170000Y-101600000D01*
X84860000Y-101600000D02*
X85630000Y-101600000D01*
%TO.C,C6*%
X69065000Y-107950000D02*
X70355000Y-107950000D01*
X75695000Y-106280000D02*
X70355000Y-106280000D01*
X76985000Y-107950000D02*
X75695000Y-107950000D01*
X75695000Y-109620000D02*
X75695000Y-106280000D01*
X70355000Y-109620000D02*
X75695000Y-109620000D01*
X70355000Y-106280000D02*
X70355000Y-109620000D01*
%TO.C,Right1*%
X91129000Y-136346000D02*
X87349000Y-136346000D01*
X96349000Y-136346000D02*
X92569000Y-136346000D01*
X96349000Y-136346000D02*
X96349000Y-146846000D01*
X91049000Y-146846000D02*
X87349000Y-146846000D01*
X90619000Y-133196000D02*
X91479000Y-133196000D01*
X87349000Y-136346000D02*
X87349000Y-146846000D01*
X90619000Y-133196000D02*
X90619000Y-133996000D01*
X96349000Y-146846000D02*
X92649000Y-146846000D01*
X93649000Y-140846000D02*
G75*
G03*
X93649000Y-140846000I-1800000J0D01*
G01*
%TO.C,RV4*%
X85064000Y-90120000D02*
X84534000Y-90120000D01*
X90724000Y-90120000D02*
X90724000Y-85400000D01*
X90724000Y-81590000D02*
X90724000Y-78530000D01*
X87514000Y-90120000D02*
X86684000Y-90120000D01*
X80974000Y-90120000D02*
X80974000Y-85400000D01*
X90724000Y-90120000D02*
X89234000Y-90120000D01*
X80984000Y-81590000D02*
X80984000Y-78530000D01*
X82164000Y-90120000D02*
X80984000Y-90120000D01*
X90724000Y-78530000D02*
X80984000Y-78530000D01*
%TO.C,C1*%
X63100000Y-96390000D02*
X63100000Y-101730000D01*
X66440000Y-101730000D02*
X66440000Y-96390000D01*
X64770000Y-95100000D02*
X64770000Y-96390000D01*
X66440000Y-96390000D02*
X63100000Y-96390000D01*
X64770000Y-103020000D02*
X64770000Y-101730000D01*
X63100000Y-101730000D02*
X66440000Y-101730000D01*
%TO.C,Rx5*%
X53340000Y-103100000D02*
X53340000Y-102330000D01*
X54710000Y-95790000D02*
X51970000Y-95790000D01*
X54710000Y-102330000D02*
X54710000Y-95790000D01*
X51970000Y-95790000D02*
X51970000Y-102330000D01*
X53340000Y-95020000D02*
X53340000Y-95790000D01*
X51970000Y-102330000D02*
X54710000Y-102330000D01*
%TO.C,C7*%
X77065000Y-102870000D02*
X75775000Y-102870000D01*
X75775000Y-101200000D02*
X70435000Y-101200000D01*
X75775000Y-104540000D02*
X75775000Y-101200000D01*
X70435000Y-101200000D02*
X70435000Y-104540000D01*
X69145000Y-102870000D02*
X70435000Y-102870000D01*
X70435000Y-104540000D02*
X75775000Y-104540000D01*
%TO.C,feedback/wet1*%
X60619000Y-133196000D02*
X61479000Y-133196000D01*
X61129000Y-136346000D02*
X57349000Y-136346000D01*
X60619000Y-133196000D02*
X60619000Y-133996000D01*
X66349000Y-146846000D02*
X62649000Y-146846000D01*
X61049000Y-146846000D02*
X57349000Y-146846000D01*
X66349000Y-136346000D02*
X66349000Y-146846000D01*
X57349000Y-136346000D02*
X57349000Y-146846000D01*
X66349000Y-136346000D02*
X62569000Y-136346000D01*
X63649000Y-140846000D02*
G75*
G03*
X63649000Y-140846000I-1800000J0D01*
G01*
%TO.C,U3*%
X72390000Y-115745000D02*
X72390000Y-113205000D01*
X77510000Y-115745000D02*
X67270000Y-115745000D01*
X69850000Y-115745000D02*
X69850000Y-113205000D01*
X74930000Y-115745000D02*
X74930000Y-113205000D01*
X77510000Y-131635000D02*
X67270000Y-131635000D01*
X67270000Y-131635000D02*
X67270000Y-115745000D01*
X77510000Y-131635000D02*
X77510000Y-115745000D01*
%TO.C,Q1*%
X52015000Y-111020000D02*
X52015000Y-107420000D01*
X52003478Y-107381522D02*
G75*
G03*
X47565000Y-109220000I-1838478J-1838478D01*
G01*
X47564999Y-109220000D02*
G75*
G03*
X52003478Y-111058478I2600001J0D01*
G01*
%TO.C,RV1*%
X63724000Y-117875000D02*
X63724000Y-113155000D01*
X55164000Y-117875000D02*
X53984000Y-117875000D01*
X63724000Y-109345000D02*
X63724000Y-106285000D01*
X53974000Y-117875000D02*
X53974000Y-113155000D01*
X53984000Y-109345000D02*
X53984000Y-106285000D01*
X63724000Y-117875000D02*
X62234000Y-117875000D01*
X60514000Y-117875000D02*
X59684000Y-117875000D01*
X58064000Y-117875000D02*
X57534000Y-117875000D01*
X63724000Y-106285000D02*
X53984000Y-106285000D01*
%TO.C,In1*%
X51519000Y-146846000D02*
X47819000Y-146846000D01*
X56819000Y-146846000D02*
X53119000Y-146846000D01*
X51089000Y-133196000D02*
X51089000Y-133996000D01*
X56819000Y-136346000D02*
X53039000Y-136346000D01*
X51599000Y-136346000D02*
X47819000Y-136346000D01*
X47819000Y-136346000D02*
X47819000Y-146846000D01*
X56819000Y-136346000D02*
X56819000Y-146846000D01*
X51089000Y-133196000D02*
X51949000Y-133196000D01*
X54119000Y-140846000D02*
G75*
G03*
X54119000Y-140846000I-1800000J0D01*
G01*
%TO.C,Rx4*%
X63095000Y-130175000D02*
X62325000Y-130175000D01*
X62325000Y-128805000D02*
X55785000Y-128805000D01*
X55015000Y-130175000D02*
X55785000Y-130175000D01*
X62325000Y-131545000D02*
X62325000Y-128805000D01*
X55785000Y-131545000D02*
X62325000Y-131545000D01*
X55785000Y-128805000D02*
X55785000Y-131545000D01*
%TO.C,Rx2*%
X49530000Y-95020000D02*
X49530000Y-95790000D01*
X49530000Y-103100000D02*
X49530000Y-102330000D01*
X48160000Y-95790000D02*
X48160000Y-102330000D01*
X50900000Y-102330000D02*
X50900000Y-95790000D01*
X50900000Y-95790000D02*
X48160000Y-95790000D01*
X48160000Y-102330000D02*
X50900000Y-102330000D01*
%TO.C,Jpcb1*%
X81031000Y-75824000D02*
X78431000Y-75824000D01*
X78431000Y-73224000D02*
X93791000Y-73224000D01*
X78431000Y-75824000D02*
X78431000Y-73224000D01*
X81031000Y-78424000D02*
X81031000Y-75824000D01*
X81031000Y-78424000D02*
X93791000Y-78424000D01*
X78431000Y-78424000D02*
X78431000Y-77094000D01*
X79761000Y-78424000D02*
X78431000Y-78424000D01*
X93791000Y-78424000D02*
X93791000Y-73224000D01*
%TO.C,U4*%
X74894000Y-95564000D02*
X74894000Y-75124000D01*
X74894000Y-75124000D02*
X73644000Y-75124000D01*
X70394000Y-75124000D02*
X70394000Y-95564000D01*
X71644000Y-75124000D02*
X70394000Y-75124000D01*
X70394000Y-95564000D02*
X74894000Y-95564000D01*
X71644000Y-75124000D02*
G75*
G03*
X73644000Y-75124000I1000000J0D01*
G01*
%TO.C,RV3*%
X53984000Y-81590000D02*
X53984000Y-78530000D01*
X63724000Y-90120000D02*
X62234000Y-90120000D01*
X63724000Y-78530000D02*
X53984000Y-78530000D01*
X63724000Y-90120000D02*
X63724000Y-85400000D01*
X60514000Y-90120000D02*
X59684000Y-90120000D01*
X58064000Y-90120000D02*
X57534000Y-90120000D01*
X63724000Y-81590000D02*
X63724000Y-78530000D01*
X53974000Y-90120000D02*
X53974000Y-85400000D01*
X55164000Y-90120000D02*
X53984000Y-90120000D01*
%TO.C,R4*%
X95985000Y-88360000D02*
X95985000Y-81820000D01*
X94615000Y-89130000D02*
X94615000Y-88360000D01*
X93245000Y-88360000D02*
X95985000Y-88360000D01*
X93245000Y-81820000D02*
X93245000Y-88360000D01*
X94615000Y-81050000D02*
X94615000Y-81820000D01*
X95985000Y-81820000D02*
X93245000Y-81820000D01*
%TO.C,Rx1*%
X60960000Y-95020000D02*
X60960000Y-95790000D01*
X59590000Y-102330000D02*
X62330000Y-102330000D01*
X59590000Y-95790000D02*
X59590000Y-102330000D01*
X62330000Y-95790000D02*
X59590000Y-95790000D01*
X62330000Y-102330000D02*
X62330000Y-95790000D01*
X60960000Y-103100000D02*
X60960000Y-102330000D01*
%TO.C,R1*%
X62198000Y-124614000D02*
X55658000Y-124614000D01*
X55658000Y-127354000D02*
X62198000Y-127354000D01*
X54888000Y-125984000D02*
X55658000Y-125984000D01*
X62198000Y-127354000D02*
X62198000Y-124614000D01*
X62968000Y-125984000D02*
X62198000Y-125984000D01*
X55658000Y-124614000D02*
X55658000Y-127354000D01*
%TO.C,Left1*%
X86349000Y-136346000D02*
X82569000Y-136346000D01*
X86349000Y-136346000D02*
X86349000Y-146846000D01*
X81129000Y-136346000D02*
X77349000Y-136346000D01*
X80619000Y-133196000D02*
X80619000Y-133996000D01*
X80619000Y-133196000D02*
X81479000Y-133196000D01*
X86349000Y-146846000D02*
X82649000Y-146846000D01*
X77349000Y-136346000D02*
X77349000Y-146846000D01*
X81049000Y-146846000D02*
X77349000Y-146846000D01*
X83649000Y-140846000D02*
G75*
G03*
X83649000Y-140846000I-1800000J0D01*
G01*
%TO.C,Rx3*%
X55780000Y-95790000D02*
X55780000Y-102330000D01*
X57150000Y-103100000D02*
X57150000Y-102330000D01*
X58520000Y-95790000D02*
X55780000Y-95790000D01*
X58520000Y-102330000D02*
X58520000Y-95790000D01*
X55780000Y-102330000D02*
X58520000Y-102330000D01*
X57150000Y-95020000D02*
X57150000Y-95790000D01*
%TO.C,R5*%
X92170000Y-99160000D02*
X92170000Y-96420000D01*
X92940000Y-97790000D02*
X92170000Y-97790000D01*
X85630000Y-96420000D02*
X85630000Y-99160000D01*
X84860000Y-97790000D02*
X85630000Y-97790000D01*
X85630000Y-99160000D02*
X92170000Y-99160000D01*
X92170000Y-96420000D02*
X85630000Y-96420000D01*
%TO.C,C2*%
X76076000Y-99968000D02*
X76076000Y-96628000D01*
X70736000Y-99968000D02*
X76076000Y-99968000D01*
X76076000Y-96628000D02*
X70736000Y-96628000D01*
X77366000Y-98298000D02*
X76076000Y-98298000D01*
X70736000Y-96628000D02*
X70736000Y-99968000D01*
X69446000Y-98298000D02*
X70736000Y-98298000D01*
%TO.C,R7*%
X89122000Y-127608000D02*
X89122000Y-124868000D01*
X82582000Y-124868000D02*
X82582000Y-127608000D01*
X81812000Y-126238000D02*
X82582000Y-126238000D01*
X89892000Y-126238000D02*
X89122000Y-126238000D01*
X89122000Y-124868000D02*
X82582000Y-124868000D01*
X82582000Y-127608000D02*
X89122000Y-127608000D01*
%TO.C,RV2*%
X90724000Y-117875000D02*
X89234000Y-117875000D01*
X80984000Y-109345000D02*
X80984000Y-106285000D01*
X87514000Y-117875000D02*
X86684000Y-117875000D01*
X90724000Y-106285000D02*
X80984000Y-106285000D01*
X82164000Y-117875000D02*
X80984000Y-117875000D01*
X80974000Y-117875000D02*
X80974000Y-113155000D01*
X90724000Y-117875000D02*
X90724000Y-113155000D01*
X85064000Y-117875000D02*
X84534000Y-117875000D01*
X90724000Y-109345000D02*
X90724000Y-106285000D01*
%TD*%
M02*
